M48
; DRILL file {KiCad 7.0.7} date Thu Dec  7 00:36:06 2023
; FORMAT={-:-/ absolute / metric / decimal}
; #@! TF.CreationDate,2023-12-07T00:36:06+02:00
; #@! TF.GenerationSoftware,Kicad,Pcbnew,7.0.7
; #@! TF.FileFunction,Plated,1,2,PTH
FMAT,2
METRIC
; #@! TA.AperFunction,Plated,PTH,ViaDrill
T1C0.300
; #@! TA.AperFunction,Plated,PTH,ComponentDrill
T2C0.600
; #@! TA.AperFunction,Plated,PTH,ComponentDrill
T3C0.762
; #@! TA.AperFunction,Plated,PTH,ComponentDrill
T4C0.800
; #@! TA.AperFunction,Plated,PTH,ComponentDrill
T5C1.000
; #@! TA.AperFunction,Plated,PTH,ComponentDrill
T6C1.020
; #@! TA.AperFunction,Plated,PTH,ComponentDrill
T7C1.400
; #@! TA.AperFunction,Plated,PTH,ComponentDrill
T8C1.500
; #@! TA.AperFunction,Plated,PTH,ComponentDrill
T9C2.200
%
G90
G05
T1
X-23.1Y32.0
X-18.9Y30.9
X-18.9Y29.6
X-18.3Y22.2
X-17.5Y2.0
X-14.2Y1.2
X-13.475Y21.3
X-12.825Y30.75
X-11.6Y24.4
X-11.5Y25.6
X-10.9Y0.5
X-7.9Y-0.2
X-7.75Y33.275
X-7.742Y32.23
X-7.7Y29.5
X-7.7Y28.2
X-6.575Y23.0
X-6.575Y15.1
X-6.475Y17.8
X-5.0Y21.65
X-2.825Y24.45
X-2.825Y18.2
X-1.825Y26.35
X-0.825Y13.2
X-0.007Y26.543
X0.075Y24.095
X1.775Y24.35
X2.575Y26.75
X3.979Y17.021
X4.925Y15.9
X6.675Y13.05
X7.175Y16.8
X7.375Y7.95
X7.8Y26.45
X8.025Y22.0
X9.05Y32.55
X9.275Y10.25
X10.4Y11.0
X12.7Y12.1
X14.1Y26.45
X14.3Y29.4
X24.125Y10.15
T3
X-21.875Y15.18
X-21.875Y5.02
X-19.335Y15.18
X-19.335Y5.02
X-16.795Y15.18
X-16.795Y5.02
X-14.255Y15.18
X-14.255Y5.02
X-11.715Y15.18
X-11.715Y5.02
X-9.175Y15.18
X-9.175Y5.02
X9.125Y15.18
X9.125Y5.02
X11.665Y15.18
X11.665Y5.02
X14.205Y15.18
X14.205Y5.02
X16.745Y15.18
X16.745Y5.02
X19.285Y15.18
X19.285Y5.02
X21.825Y15.18
X21.825Y5.02
T4
X33.24Y15.32
X33.24Y13.32
X33.24Y11.32
T5
X20.16Y26.725
X20.16Y24.185
X20.16Y21.645
X22.7Y26.725
X22.7Y24.185
X22.7Y21.645
X34.99Y25.965
X34.99Y23.425
X34.99Y20.885
T6
X-25.99Y27.555
X26.0Y27.555
T7
X33.24Y17.47
X33.24Y9.17
T8
X-31.115Y-14.605
X-31.115Y-33.655
X-31.115Y-52.705
X-31.115Y-71.755
X-24.765Y-12.065
X-24.765Y-31.115
X-24.765Y-50.165
X-24.765Y-69.215
X-21.59Y-90.805
X-15.24Y-88.265
X-12.065Y-14.605
X-12.065Y-33.655
X-12.065Y-52.705
X-12.065Y-71.755
X-5.715Y-12.065
X-5.715Y-31.115
X-5.715Y-50.165
X-5.715Y-69.215
X6.985Y-14.605
X6.985Y-33.655
X6.985Y-52.705
X6.985Y-71.755
X6.985Y-90.805
X13.335Y-12.065
X13.335Y-31.115
X13.335Y-50.165
X13.335Y-69.215
X13.335Y-88.265
X26.035Y-14.605
X26.035Y-43.18
X26.035Y-81.28
X32.385Y-12.065
X32.385Y-40.64
X32.385Y-78.74
T9
X-35.1Y34.0
X-35.1Y3.0
X-34.1Y-57.15
X-0.5Y-91.25
X34.1Y-57.15
X35.1Y34.0
X35.1Y3.0
T2
G00X-4.32Y35.35
M15
G01X-4.32Y34.75
M16
G05
G00X-4.32Y31.42
M15
G01X-4.32Y30.32
M16
G05
G00X4.32Y35.35
M15
G01X4.32Y34.75
M16
G05
G00X4.32Y31.42
M15
G01X4.32Y30.32
M16
G05
T0
M30
