%TF.GenerationSoftware,KiCad,Pcbnew,7.0.7*%
%TF.CreationDate,2023-12-07T00:36:06+02:00*%
%TF.ProjectId,stm32_calc,73746d33-325f-4636-916c-632e6b696361,rev?*%
%TF.SameCoordinates,Original*%
%TF.FileFunction,Soldermask,Bot*%
%TF.FilePolarity,Negative*%
%FSLAX46Y46*%
G04 Gerber Fmt 4.6, Leading zero omitted, Abs format (unit mm)*
G04 Created by KiCad (PCBNEW 7.0.7) date 2023-12-07 00:36:06*
%MOMM*%
%LPD*%
G01*
G04 APERTURE LIST*
G04 Aperture macros list*
%AMRoundRect*
0 Rectangle with rounded corners*
0 $1 Rounding radius*
0 $2 $3 $4 $5 $6 $7 $8 $9 X,Y pos of 4 corners*
0 Add a 4 corners polygon primitive as box body*
4,1,4,$2,$3,$4,$5,$6,$7,$8,$9,$2,$3,0*
0 Add four circle primitives for the rounded corners*
1,1,$1+$1,$2,$3*
1,1,$1+$1,$4,$5*
1,1,$1+$1,$6,$7*
1,1,$1+$1,$8,$9*
0 Add four rect primitives between the rounded corners*
20,1,$1+$1,$2,$3,$4,$5,0*
20,1,$1+$1,$4,$5,$6,$7,0*
20,1,$1+$1,$6,$7,$8,$9,0*
20,1,$1+$1,$8,$9,$2,$3,0*%
G04 Aperture macros list end*
%ADD10C,1.700000*%
%ADD11C,4.000000*%
%ADD12C,2.200000*%
%ADD13RoundRect,0.225000X-0.225000X-0.375000X0.225000X-0.375000X0.225000X0.375000X-0.225000X0.375000X0*%
%ADD14RoundRect,0.225000X0.375000X-0.225000X0.375000X0.225000X-0.375000X0.225000X-0.375000X-0.225000X0*%
%ADD15RoundRect,0.225000X-0.375000X0.225000X-0.375000X-0.225000X0.375000X-0.225000X0.375000X0.225000X0*%
%ADD16R,1.700000X1.700000*%
%ADD17O,1.700000X1.700000*%
%ADD18C,3.050000*%
%ADD19C,3.800000*%
%ADD20R,2.000000X2.000000*%
%ADD21C,2.000000*%
%ADD22R,1.524000X1.524000*%
%ADD23C,1.524000*%
%ADD24C,1.512000*%
%ADD25C,2.304000*%
%ADD26RoundRect,0.150000X-0.587500X-0.150000X0.587500X-0.150000X0.587500X0.150000X-0.587500X0.150000X0*%
%ADD27RoundRect,0.150000X-0.150000X0.512500X-0.150000X-0.512500X0.150000X-0.512500X0.150000X0.512500X0*%
%ADD28RoundRect,0.135000X-0.185000X0.135000X-0.185000X-0.135000X0.185000X-0.135000X0.185000X0.135000X0*%
%ADD29RoundRect,0.140000X0.021213X-0.219203X0.219203X-0.021213X-0.021213X0.219203X-0.219203X0.021213X0*%
%ADD30RoundRect,0.140000X-0.021213X0.219203X-0.219203X0.021213X0.021213X-0.219203X0.219203X-0.021213X0*%
%ADD31RoundRect,0.250000X-0.475000X0.250000X-0.475000X-0.250000X0.475000X-0.250000X0.475000X0.250000X0*%
%ADD32C,0.650000*%
%ADD33R,0.600000X1.450000*%
%ADD34R,0.300000X1.450000*%
%ADD35O,1.000000X1.600000*%
%ADD36O,1.000000X2.100000*%
%ADD37RoundRect,0.250000X0.475000X-0.250000X0.475000X0.250000X-0.475000X0.250000X-0.475000X-0.250000X0*%
%ADD38RoundRect,0.140000X-0.170000X0.140000X-0.170000X-0.140000X0.170000X-0.140000X0.170000X0.140000X0*%
%ADD39RoundRect,0.140000X0.170000X-0.140000X0.170000X0.140000X-0.170000X0.140000X-0.170000X-0.140000X0*%
%ADD40RoundRect,0.150000X0.150000X-0.587500X0.150000X0.587500X-0.150000X0.587500X-0.150000X-0.587500X0*%
%ADD41R,1.700000X1.000000*%
%ADD42RoundRect,0.135000X0.185000X-0.135000X0.185000X0.135000X-0.185000X0.135000X-0.185000X-0.135000X0*%
%ADD43C,0.900000*%
%ADD44RoundRect,0.102000X-0.750000X0.350000X-0.750000X-0.350000X0.750000X-0.350000X0.750000X0.350000X0*%
%ADD45RoundRect,0.102000X-0.400000X0.500000X-0.400000X-0.500000X0.400000X-0.500000X0.400000X0.500000X0*%
%ADD46RoundRect,0.140000X-0.219203X-0.021213X-0.021213X-0.219203X0.219203X0.021213X0.021213X0.219203X0*%
%ADD47RoundRect,0.135000X-0.035355X0.226274X-0.226274X0.035355X0.035355X-0.226274X0.226274X-0.035355X0*%
%ADD48RoundRect,0.113200X0.609950X-0.427800X-0.427800X0.609950X-0.609950X0.427800X0.427800X-0.609950X0*%
%ADD49RoundRect,0.113200X-0.427800X-0.609950X0.609950X0.427800X0.427800X0.609950X-0.609950X-0.427800X0*%
%ADD50O,2.454000X0.804000*%
%ADD51RoundRect,0.140000X-0.140000X-0.170000X0.140000X-0.170000X0.140000X0.170000X-0.140000X0.170000X0*%
%ADD52RoundRect,0.140000X0.219203X0.021213X0.021213X0.219203X-0.219203X-0.021213X-0.021213X-0.219203X0*%
%ADD53RoundRect,0.135000X0.035355X-0.226274X0.226274X-0.035355X-0.035355X0.226274X-0.226274X0.035355X0*%
%ADD54RoundRect,0.135000X-0.135000X-0.185000X0.135000X-0.185000X0.135000X0.185000X-0.135000X0.185000X0*%
G04 APERTURE END LIST*
D10*
%TO.C,SW_four1*%
X-23495000Y-47625000D03*
D11*
X-28575000Y-47625000D03*
D10*
X-33655000Y-47625000D03*
D12*
X-31115000Y-52705000D03*
X-24765000Y-50165000D03*
%TD*%
D13*
%TO.C,D19*%
X22350000Y-70400000D03*
X25650000Y-70400000D03*
%TD*%
%TO.C,D18*%
X22350000Y-32300000D03*
X25650000Y-32300000D03*
%TD*%
D14*
%TO.C,D17*%
X21200000Y-17850000D03*
X21200000Y-14550000D03*
%TD*%
D15*
%TO.C,D16*%
X17500000Y-76550000D03*
X17500000Y-79850000D03*
%TD*%
D14*
%TO.C,D15*%
X17300000Y-74750000D03*
X17300000Y-71450000D03*
%TD*%
%TO.C,D14*%
X2100000Y-55850000D03*
X2100000Y-52550000D03*
%TD*%
%TO.C,D13*%
X17100000Y-36650000D03*
X17100000Y-33350000D03*
%TD*%
%TO.C,D12*%
X17200000Y-17750000D03*
X17200000Y-14450000D03*
%TD*%
%TO.C,D11*%
X-2200000Y-74750000D03*
X-2200000Y-71450000D03*
%TD*%
%TO.C,D10*%
X-1800000Y-55750000D03*
X-1800000Y-52450000D03*
%TD*%
%TO.C,D9*%
X-1800000Y-36750000D03*
X-1800000Y-33450000D03*
%TD*%
%TO.C,D8*%
X-1800000Y-17650000D03*
X-1800000Y-14350000D03*
%TD*%
D15*
%TO.C,D7*%
X-2100000Y-76950000D03*
X-2100000Y-80250000D03*
%TD*%
D14*
%TO.C,D6*%
X-20800000Y-74750000D03*
X-20800000Y-71450000D03*
%TD*%
%TO.C,D5*%
X-20700000Y-55750000D03*
X-20700000Y-52450000D03*
%TD*%
%TO.C,D4*%
X-20900000Y-36650000D03*
X-20900000Y-33350000D03*
%TD*%
%TO.C,D3*%
X-21000000Y-17650000D03*
X-21000000Y-14350000D03*
%TD*%
%TO.C,D2*%
X16572500Y30070000D03*
X16572500Y33370000D03*
%TD*%
D13*
%TO.C,D1*%
X22525000Y31750000D03*
X25825000Y31750000D03*
%TD*%
D16*
%TO.C,J2*%
X34990000Y25965000D03*
D17*
X34990000Y23425000D03*
X34990000Y20885000D03*
%TD*%
D10*
%TO.C,SW_five1*%
X-4445000Y-47625000D03*
D11*
X-9525000Y-47625000D03*
D10*
X-14605000Y-47625000D03*
D12*
X-12065000Y-52705000D03*
X-5715000Y-50165000D03*
%TD*%
D18*
%TO.C,SW_zero1*%
X-7150000Y-92725000D03*
D11*
X-7150000Y-77485000D03*
D10*
X-13970000Y-85725000D03*
D11*
X-19050000Y-85725000D03*
D10*
X-24130000Y-85725000D03*
D18*
X-30950000Y-92725000D03*
D11*
X-30950000Y-77485000D03*
D12*
X-21590000Y-90805000D03*
X-15240000Y-88265000D03*
%TD*%
D10*
%TO.C,SW_two1*%
X-4445000Y-66675000D03*
D11*
X-9525000Y-66675000D03*
D10*
X-14605000Y-66675000D03*
D12*
X-12065000Y-71755000D03*
X-5715000Y-69215000D03*
%TD*%
D19*
%TO.C,H2*%
X35100000Y34000000D03*
%TD*%
D10*
%TO.C,SW_three1*%
X14605000Y-66675000D03*
D11*
X9525000Y-66675000D03*
D10*
X4445000Y-66675000D03*
D12*
X6985000Y-71755000D03*
X13335000Y-69215000D03*
%TD*%
D10*
%TO.C,SW_divide1*%
X-4445000Y-9525000D03*
D11*
X-9525000Y-9525000D03*
D10*
X-14605000Y-9525000D03*
D12*
X-12065000Y-14605000D03*
X-5715000Y-12065000D03*
%TD*%
D19*
%TO.C,H3*%
X-35100000Y34000000D03*
%TD*%
D20*
%TO.C,BT1*%
X26000000Y27555000D03*
D21*
X-25990000Y27555000D03*
%TD*%
D10*
%TO.C,SW_point1*%
X14605000Y-85725000D03*
D11*
X9525000Y-85725000D03*
D10*
X4445000Y-85725000D03*
D12*
X6985000Y-90805000D03*
X13335000Y-88265000D03*
%TD*%
D18*
%TO.C,SW_plus1*%
X35575000Y-50000000D03*
X35575000Y-26200000D03*
D10*
X33655000Y-38100000D03*
D11*
X28575000Y-38100000D03*
D10*
X23495000Y-38100000D03*
D11*
X20335000Y-50000000D03*
X20335000Y-26200000D03*
D12*
X26035000Y-43180000D03*
X32385000Y-40640000D03*
%TD*%
D22*
%TO.C,U4*%
X9125000Y5020000D03*
D23*
X11665000Y5020000D03*
X14205000Y5020000D03*
X16745000Y5020000D03*
X19285000Y5020000D03*
X21825000Y5020000D03*
X21825000Y15180000D03*
X19285000Y15180000D03*
X16745000Y15180000D03*
X14205000Y15180000D03*
X11665000Y15180000D03*
X9125000Y15180000D03*
%TD*%
D10*
%TO.C,SW_clear1*%
X-23495000Y-9525000D03*
D11*
X-28575000Y-9525000D03*
D10*
X-33655000Y-9525000D03*
D12*
X-31115000Y-14605000D03*
X-24765000Y-12065000D03*
%TD*%
D19*
%TO.C,H1*%
X35100000Y3000000D03*
%TD*%
%TO.C,H7*%
X-34100000Y-57150000D03*
%TD*%
D18*
%TO.C,SW_equals1*%
X35575000Y-88100000D03*
X35575000Y-64300000D03*
D10*
X33655000Y-76200000D03*
D11*
X28575000Y-76200000D03*
D10*
X23495000Y-76200000D03*
D11*
X20335000Y-88100000D03*
X20335000Y-64300000D03*
D12*
X26035000Y-81280000D03*
X32385000Y-78740000D03*
%TD*%
D10*
%TO.C,SW_minus1*%
X33655000Y-9525000D03*
D11*
X28575000Y-9525000D03*
D10*
X23495000Y-9525000D03*
D12*
X26035000Y-14605000D03*
X32385000Y-12065000D03*
%TD*%
D19*
%TO.C,H4*%
X-35100000Y3000000D03*
%TD*%
D10*
%TO.C,SW_six1*%
X14605000Y-47625000D03*
D11*
X9525000Y-47625000D03*
D10*
X4445000Y-47625000D03*
D12*
X6985000Y-52705000D03*
X13335000Y-50165000D03*
%TD*%
D10*
%TO.C,SW_eight1*%
X-4445000Y-28575000D03*
D11*
X-9525000Y-28575000D03*
D10*
X-14605000Y-28575000D03*
D12*
X-12065000Y-33655000D03*
X-5715000Y-31115000D03*
%TD*%
D19*
%TO.C,H5*%
X-500000Y-91250000D03*
%TD*%
D10*
%TO.C,SW_one1*%
X-23495000Y-66675000D03*
D11*
X-28575000Y-66675000D03*
D10*
X-33655000Y-66675000D03*
D12*
X-31115000Y-71755000D03*
X-24765000Y-69215000D03*
%TD*%
D24*
%TO.C,SW1*%
X33240000Y11320000D03*
X33240000Y13320000D03*
X33240000Y15320000D03*
D25*
X33240000Y9170000D03*
X33240000Y17470000D03*
%TD*%
D10*
%TO.C,SW_mutiplicate1*%
X14605000Y-9525000D03*
D11*
X9525000Y-9525000D03*
D10*
X4445000Y-9525000D03*
D12*
X6985000Y-14605000D03*
X13335000Y-12065000D03*
%TD*%
D19*
%TO.C,H6*%
X34100000Y-57150000D03*
%TD*%
D10*
%TO.C,SW_nine1*%
X14605000Y-28575000D03*
D11*
X9525000Y-28575000D03*
D10*
X4445000Y-28575000D03*
D12*
X6985000Y-33655000D03*
X13335000Y-31115000D03*
%TD*%
D22*
%TO.C,U3*%
X-21875000Y5020000D03*
D23*
X-19335000Y5020000D03*
X-16795000Y5020000D03*
X-14255000Y5020000D03*
X-11715000Y5020000D03*
X-9175000Y5020000D03*
X-9175000Y15180000D03*
X-11715000Y15180000D03*
X-14255000Y15180000D03*
X-16795000Y15180000D03*
X-19335000Y15180000D03*
X-21875000Y15180000D03*
%TD*%
D10*
%TO.C,SW_seven1*%
X-23495000Y-28575000D03*
D11*
X-28575000Y-28575000D03*
D10*
X-33655000Y-28575000D03*
D12*
X-31115000Y-33655000D03*
X-24765000Y-31115000D03*
%TD*%
D26*
%TO.C,Q1*%
X18872500Y30770000D03*
X18872500Y32670000D03*
X20747500Y31720000D03*
%TD*%
D27*
%TO.C,U2*%
X-930000Y25357500D03*
X20000Y25357500D03*
X970000Y25357500D03*
X970000Y23082500D03*
X20000Y23082500D03*
X-930000Y23082500D03*
%TD*%
D28*
%TO.C,R6*%
X-7575000Y19510000D03*
X-7575000Y18490000D03*
%TD*%
D29*
%TO.C,C1*%
X-1799411Y16430589D03*
X-1120589Y17109411D03*
%TD*%
D28*
%TO.C,R10*%
X1390000Y28530000D03*
X1390000Y27510000D03*
%TD*%
D30*
%TO.C,C4*%
X5014411Y4789411D03*
X4335589Y4110589D03*
%TD*%
D16*
%TO.C,J4*%
X22700000Y26725000D03*
D17*
X20160000Y26725000D03*
X22700000Y24185000D03*
X20160000Y24185000D03*
X22700000Y21645000D03*
X20160000Y21645000D03*
%TD*%
D31*
%TO.C,C19*%
X14300000Y32580000D03*
X14300000Y30680000D03*
%TD*%
D29*
%TO.C,C2*%
X-2499411Y17160589D03*
X-1820589Y17839411D03*
%TD*%
D32*
%TO.C,J3*%
X-2890000Y31400000D03*
X2890000Y31400000D03*
D33*
X-3250000Y29955000D03*
X-2450000Y29955000D03*
D34*
X-1250000Y29955000D03*
X-250000Y29955000D03*
X250000Y29955000D03*
X1250000Y29955000D03*
D33*
X2450000Y29955000D03*
X3250000Y29955000D03*
X3250000Y29955000D03*
X2450000Y29955000D03*
D34*
X1750000Y29955000D03*
X750000Y29955000D03*
X-750000Y29955000D03*
X-1750000Y29955000D03*
D33*
X-2450000Y29955000D03*
X-3250000Y29955000D03*
D35*
X-4320000Y35050000D03*
D36*
X-4320000Y30870000D03*
D35*
X4320000Y35050000D03*
D36*
X4320000Y30870000D03*
%TD*%
D37*
%TO.C,C20*%
X7850000Y30660000D03*
X7850000Y32560000D03*
%TD*%
D28*
%TO.C,R5*%
X-7575000Y17040000D03*
X-7575000Y16020000D03*
%TD*%
D38*
%TO.C,C17*%
X-6575000Y22080000D03*
X-6575000Y21120000D03*
%TD*%
D39*
%TO.C,C15*%
X-6575000Y16050000D03*
X-6575000Y17010000D03*
%TD*%
D40*
%TO.C,U5*%
X12000000Y30632500D03*
X10100000Y30632500D03*
X11050000Y32507500D03*
%TD*%
D41*
%TO.C,SW3*%
X14095000Y27390000D03*
X7795000Y27390000D03*
X14095000Y23590000D03*
X7795000Y23590000D03*
%TD*%
D42*
%TO.C,R1*%
X24275000Y7140000D03*
X24275000Y8160000D03*
%TD*%
D28*
%TO.C,R13*%
X-1500000Y28530000D03*
X-1500000Y27510000D03*
%TD*%
D43*
%TO.C,SW2*%
X27525000Y9400000D03*
X27525000Y6400000D03*
D44*
X25775000Y10150000D03*
X25775000Y7150000D03*
X25775000Y5650000D03*
D45*
X26475000Y11550000D03*
X28575000Y11550000D03*
X28575000Y4250000D03*
X26475000Y4250000D03*
%TD*%
D46*
%TO.C,C3*%
X5810589Y12219411D03*
X6489411Y11540589D03*
%TD*%
D47*
%TO.C,R11*%
X4225624Y15210624D03*
X3504376Y14489376D03*
%TD*%
D39*
%TO.C,C16*%
X-6575000Y18520000D03*
X-6575000Y19480000D03*
%TD*%
D48*
%TO.C,U1*%
X4893179Y8995908D03*
X4539626Y8642355D03*
X4186072Y8288802D03*
X3832519Y7935248D03*
X3478965Y7581695D03*
X3125412Y7228141D03*
X2771859Y6874588D03*
X2418305Y6521035D03*
X2064752Y6167481D03*
X1711198Y5813928D03*
X1357645Y5460374D03*
X1004092Y5106821D03*
D49*
X-1004092Y5106821D03*
X-1357645Y5460374D03*
X-1711198Y5813928D03*
X-2064752Y6167481D03*
X-2418305Y6521035D03*
X-2771859Y6874588D03*
X-3125412Y7228141D03*
X-3478965Y7581695D03*
X-3832519Y7935248D03*
X-4186072Y8288802D03*
X-4539626Y8642355D03*
X-4893179Y8995908D03*
D48*
X-4893179Y11004092D03*
X-4539626Y11357645D03*
X-4186072Y11711198D03*
X-3832519Y12064752D03*
X-3478965Y12418305D03*
X-3125412Y12771859D03*
X-2771859Y13125412D03*
X-2418305Y13478965D03*
X-2064752Y13832519D03*
X-1711198Y14186072D03*
X-1357645Y14539626D03*
X-1004092Y14893179D03*
D49*
X1004092Y14893179D03*
X1357645Y14539626D03*
X1711198Y14186072D03*
X2064752Y13832519D03*
X2418305Y13478965D03*
X2771859Y13125412D03*
X3125412Y12771859D03*
X3478965Y12418305D03*
X3832519Y12064752D03*
X4186072Y11711198D03*
X4539626Y11357645D03*
X4893179Y11004092D03*
%TD*%
D28*
%TO.C,R2*%
X6175000Y23660000D03*
X6175000Y22640000D03*
%TD*%
D50*
%TO.C,IC1*%
X-20890000Y18145000D03*
X-20890000Y19415000D03*
X-20890000Y20685000D03*
X-20890000Y21955000D03*
X-20890000Y23225000D03*
X-20890000Y24495000D03*
X-20890000Y25765000D03*
X-20890000Y27035000D03*
X-20890000Y28305000D03*
X-20890000Y29575000D03*
X-20890000Y30845000D03*
X-20890000Y32115000D03*
X-20890000Y33385000D03*
X-20890000Y34655000D03*
X-9790000Y34595000D03*
X-9790000Y33325000D03*
X-9790000Y32055000D03*
X-9790000Y30785000D03*
X-9790000Y29515000D03*
X-9790000Y28245000D03*
X-9790000Y26975000D03*
X-9790000Y25705000D03*
X-9790000Y24435000D03*
X-9790000Y23165000D03*
X-9790000Y21895000D03*
X-9790000Y20625000D03*
X-9790000Y19355000D03*
X-9790000Y18085000D03*
%TD*%
D51*
%TO.C,C11*%
X-7780000Y34300000D03*
X-6820000Y34300000D03*
%TD*%
D42*
%TO.C,R7*%
X-7575000Y21070000D03*
X-7575000Y22090000D03*
%TD*%
D52*
%TO.C,C7*%
X-5720589Y7660589D03*
X-6399411Y8339411D03*
%TD*%
D53*
%TO.C,R12*%
X2814376Y15189376D03*
X3535624Y15910624D03*
%TD*%
D52*
%TO.C,C6*%
X-6421178Y6941178D03*
X-7100000Y7620000D03*
%TD*%
D46*
%TO.C,C8*%
X4795589Y6449411D03*
X5474411Y5770589D03*
%TD*%
D54*
%TO.C,R8*%
X2310000Y28060000D03*
X3330000Y28060000D03*
%TD*%
D46*
%TO.C,C10*%
X4510000Y13530000D03*
X5188822Y12851178D03*
%TD*%
D30*
%TO.C,C5*%
X4284411Y5509411D03*
X3605589Y4830589D03*
%TD*%
%TO.C,C9*%
X6729411Y8709411D03*
X6050589Y8030589D03*
%TD*%
M02*
