%TF.GenerationSoftware,KiCad,Pcbnew,7.0.7*%
%TF.CreationDate,2023-12-10T01:09:49+02:00*%
%TF.ProjectId,stm32_calc,73746d33-325f-4636-916c-632e6b696361,rev?*%
%TF.SameCoordinates,Original*%
%TF.FileFunction,Legend,Top*%
%TF.FilePolarity,Positive*%
%FSLAX46Y46*%
G04 Gerber Fmt 4.6, Leading zero omitted, Abs format (unit mm)*
G04 Created by KiCad (PCBNEW 7.0.7) date 2023-12-10 01:09:49*
%MOMM*%
%LPD*%
G01*
G04 APERTURE LIST*
%ADD10C,0.125000*%
%ADD11C,0.120000*%
%ADD12C,0.100000*%
%ADD13R,1.700000X1.700000*%
%ADD14O,1.700000X1.700000*%
%ADD15C,1.700000*%
%ADD16C,4.000000*%
%ADD17C,2.200000*%
%ADD18C,3.050000*%
%ADD19C,3.800000*%
%ADD20R,2.000000X2.000000*%
%ADD21C,2.000000*%
%ADD22R,1.524000X1.524000*%
%ADD23C,1.524000*%
%ADD24C,1.512000*%
%ADD25C,2.304000*%
%ADD26C,0.650000*%
%ADD27O,1.000000X1.600000*%
%ADD28O,1.000000X2.100000*%
%ADD29C,0.900000*%
G04 APERTURE END LIST*
D10*
X29209523Y27460667D02*
X29590476Y27460667D01*
X29399999Y27270191D02*
X29399999Y27651143D01*
X-29560477Y27460667D02*
X-29179524Y27460667D01*
X14697177Y11867069D02*
X14697177Y11462307D01*
X14697177Y11462307D02*
X14720987Y11414688D01*
X14720987Y11414688D02*
X14744796Y11390878D01*
X14744796Y11390878D02*
X14792415Y11367069D01*
X14792415Y11367069D02*
X14887653Y11367069D01*
X14887653Y11367069D02*
X14935272Y11390878D01*
X14935272Y11390878D02*
X14959082Y11414688D01*
X14959082Y11414688D02*
X14982891Y11462307D01*
X14982891Y11462307D02*
X14982891Y11867069D01*
X15435273Y11700402D02*
X15435273Y11367069D01*
X15316225Y11890878D02*
X15197178Y11533736D01*
X15197178Y11533736D02*
X15506701Y11533736D01*
X-16005953Y11867069D02*
X-16005953Y11462307D01*
X-16005953Y11462307D02*
X-15982143Y11414688D01*
X-15982143Y11414688D02*
X-15958334Y11390878D01*
X-15958334Y11390878D02*
X-15910715Y11367069D01*
X-15910715Y11367069D02*
X-15815477Y11367069D01*
X-15815477Y11367069D02*
X-15767858Y11390878D01*
X-15767858Y11390878D02*
X-15744048Y11414688D01*
X-15744048Y11414688D02*
X-15720239Y11462307D01*
X-15720239Y11462307D02*
X-15720239Y11867069D01*
X-15529762Y11867069D02*
X-15220238Y11867069D01*
X-15220238Y11867069D02*
X-15386905Y11676593D01*
X-15386905Y11676593D02*
X-15315476Y11676593D01*
X-15315476Y11676593D02*
X-15267857Y11652783D01*
X-15267857Y11652783D02*
X-15244048Y11628974D01*
X-15244048Y11628974D02*
X-15220238Y11581355D01*
X-15220238Y11581355D02*
X-15220238Y11462307D01*
X-15220238Y11462307D02*
X-15244048Y11414688D01*
X-15244048Y11414688D02*
X-15267857Y11390878D01*
X-15267857Y11390878D02*
X-15315476Y11367069D01*
X-15315476Y11367069D02*
X-15458333Y11367069D01*
X-15458333Y11367069D02*
X-15505952Y11390878D01*
X-15505952Y11390878D02*
X-15529762Y11414688D01*
D11*
%TO.C,SW_five1*%
X-2540000Y-54610000D02*
X-16510000Y-54610000D01*
X-2540000Y-40640000D02*
X-2540000Y-54610000D01*
X-16510000Y-54610000D02*
X-16510000Y-40640000D01*
X-16510000Y-40640000D02*
X-2540000Y-40640000D01*
%TO.C,SW_zero1*%
X-12065000Y-92710000D02*
X-26035000Y-92710000D01*
X-12065000Y-78740000D02*
X-12065000Y-92710000D01*
X-26035000Y-92710000D02*
X-26035000Y-78740000D01*
X-26035000Y-78740000D02*
X-12065000Y-78740000D01*
%TO.C,SW_two1*%
X-2540000Y-73660000D02*
X-16510000Y-73660000D01*
X-2540000Y-59690000D02*
X-2540000Y-73660000D01*
X-16510000Y-73660000D02*
X-16510000Y-59690000D01*
X-16510000Y-59690000D02*
X-2540000Y-59690000D01*
%TO.C,SW_three1*%
X16510000Y-73660000D02*
X2540000Y-73660000D01*
X16510000Y-59690000D02*
X16510000Y-73660000D01*
X2540000Y-73660000D02*
X2540000Y-59690000D01*
X2540000Y-59690000D02*
X16510000Y-59690000D01*
%TO.C,SW_divide1*%
X-2540000Y-16510000D02*
X-16510000Y-16510000D01*
X-2540000Y-2540000D02*
X-2540000Y-16510000D01*
X-16510000Y-16510000D02*
X-16510000Y-2540000D01*
X-16510000Y-2540000D02*
X-2540000Y-2540000D01*
%TO.C,SW_four1*%
X-21590000Y-54610000D02*
X-35560000Y-54610000D01*
X-21590000Y-40640000D02*
X-21590000Y-54610000D01*
X-35560000Y-54610000D02*
X-35560000Y-40640000D01*
X-35560000Y-40640000D02*
X-21590000Y-40640000D01*
%TO.C,BT1*%
X28620000Y18990000D02*
X-28620000Y18990000D01*
X28620000Y36120000D02*
X28620000Y18990000D01*
X27900000Y19955000D02*
X27900000Y35155000D01*
X27900000Y19955000D02*
X9900000Y19955000D01*
X27900000Y35155000D02*
X9900000Y35155000D01*
X7900000Y21955000D02*
X-7900000Y21955000D01*
X-7900000Y33155000D02*
X7900000Y33155000D01*
X-9900000Y19955000D02*
X-27900000Y19955000D01*
X-9900000Y35155000D02*
X-27900000Y35155000D01*
X-21310000Y26495000D02*
X-21310000Y28495000D01*
X-22310000Y25495000D02*
X-22310000Y29495000D01*
X-23310000Y30495000D02*
X-23310000Y24495000D01*
X-24310000Y23495000D02*
X-24310000Y31495000D01*
X-27900000Y19955000D02*
X-27900000Y35155000D01*
X-28620000Y18990000D02*
X-28620000Y36120000D01*
X-28620000Y36120000D02*
X28620000Y36120000D01*
X7900000Y33155000D02*
G75*
G03*
X9900000Y35155000I1J1999999D01*
G01*
X9900000Y19955000D02*
G75*
G03*
X7900000Y21955000I-1999999J1D01*
G01*
X-9900000Y35155000D02*
G75*
G03*
X-7900000Y33155000I2000000J0D01*
G01*
X-7900000Y21955000D02*
G75*
G03*
X-9900000Y19955000I0J-2000000D01*
G01*
%TO.C,SW_point1*%
X16510000Y-92710000D02*
X2540000Y-92710000D01*
X16510000Y-78740000D02*
X16510000Y-92710000D01*
X2540000Y-92710000D02*
X2540000Y-78740000D01*
X2540000Y-78740000D02*
X16510000Y-78740000D01*
%TO.C,SW_plus1*%
X35560000Y-45085000D02*
X21590000Y-45085000D01*
X35560000Y-31115000D02*
X35560000Y-45085000D01*
X21590000Y-45085000D02*
X21590000Y-31115000D01*
X21590000Y-31115000D02*
X35560000Y-31115000D01*
D12*
%TO.C,U4*%
X475000Y17100000D02*
X30475000Y17100000D01*
X475000Y3100000D02*
X475000Y17100000D01*
X30475000Y17100000D02*
X30475000Y3100000D01*
X30475000Y3100000D02*
X475000Y3100000D01*
%TO.C,G\u002A\u002A\u002A*%
G36*
X8403282Y6220723D02*
G01*
X8401268Y6218709D01*
X8399255Y6220723D01*
X8401268Y6222737D01*
X8403282Y6220723D01*
G37*
G36*
X8495909Y6244887D02*
G01*
X8493896Y6242873D01*
X8491882Y6244887D01*
X8493896Y6246900D01*
X8495909Y6244887D01*
G37*
G36*
X8709355Y6941605D02*
G01*
X8707341Y6939591D01*
X8705327Y6941605D01*
X8707341Y6943618D01*
X8709355Y6941605D01*
G37*
G36*
X8713382Y6708023D02*
G01*
X8711368Y6706009D01*
X8709355Y6708023D01*
X8711368Y6710037D01*
X8713382Y6708023D01*
G37*
G36*
X8717409Y7199350D02*
G01*
X8715396Y7197336D01*
X8713382Y7199350D01*
X8715396Y7201364D01*
X8717409Y7199350D01*
G37*
G36*
X8717409Y7183241D02*
G01*
X8715396Y7181227D01*
X8713382Y7183241D01*
X8715396Y7185255D01*
X8717409Y7183241D01*
G37*
G36*
X8717409Y7014096D02*
G01*
X8715396Y7012082D01*
X8713382Y7014096D01*
X8715396Y7016109D01*
X8717409Y7014096D01*
G37*
G36*
X8717409Y7006041D02*
G01*
X8715396Y7004027D01*
X8713382Y7006041D01*
X8715396Y7008055D01*
X8717409Y7006041D01*
G37*
G36*
X8717409Y6993959D02*
G01*
X8715396Y6991946D01*
X8713382Y6993959D01*
X8715396Y6995973D01*
X8717409Y6993959D01*
G37*
G36*
X8717409Y6981877D02*
G01*
X8715396Y6979864D01*
X8713382Y6981877D01*
X8715396Y6983891D01*
X8717409Y6981877D01*
G37*
G36*
X8717409Y6724132D02*
G01*
X8715396Y6722118D01*
X8713382Y6724132D01*
X8715396Y6726146D01*
X8717409Y6724132D01*
G37*
G36*
X8717409Y6260996D02*
G01*
X8715396Y6258982D01*
X8713382Y6260996D01*
X8715396Y6263009D01*
X8717409Y6260996D01*
G37*
G36*
X8725464Y7231568D02*
G01*
X8723450Y7229555D01*
X8721436Y7231568D01*
X8723450Y7233582D01*
X8725464Y7231568D01*
G37*
G36*
X8725464Y6764405D02*
G01*
X8723450Y6762391D01*
X8721436Y6764405D01*
X8723450Y6766418D01*
X8725464Y6764405D01*
G37*
G36*
X8733518Y7287950D02*
G01*
X8731505Y7285936D01*
X8729491Y7287950D01*
X8731505Y7289964D01*
X8733518Y7287950D01*
G37*
G36*
X8741573Y6695941D02*
G01*
X8739559Y6693927D01*
X8737546Y6695941D01*
X8739559Y6697955D01*
X8741573Y6695941D01*
G37*
G36*
X8741573Y6265023D02*
G01*
X8739559Y6263009D01*
X8737546Y6265023D01*
X8739559Y6267037D01*
X8741573Y6265023D01*
G37*
G36*
X8975155Y7755113D02*
G01*
X8973141Y7753100D01*
X8971127Y7755113D01*
X8973141Y7757127D01*
X8975155Y7755113D01*
G37*
G36*
X9687982Y6248914D02*
G01*
X9685968Y6246900D01*
X9683954Y6248914D01*
X9685968Y6250928D01*
X9687982Y6248914D01*
G37*
G36*
X9696036Y6699968D02*
G01*
X9694023Y6697955D01*
X9692009Y6699968D01*
X9694023Y6701982D01*
X9696036Y6699968D01*
G37*
G36*
X9724227Y6216696D02*
G01*
X9722213Y6214682D01*
X9720200Y6216696D01*
X9722213Y6218709D01*
X9724227Y6216696D01*
G37*
G36*
X9752418Y6216696D02*
G01*
X9750404Y6214682D01*
X9748391Y6216696D01*
X9750404Y6218709D01*
X9752418Y6216696D01*
G37*
G36*
X8329449Y6213340D02*
G01*
X8329931Y6208560D01*
X8329449Y6207970D01*
X8327055Y6208523D01*
X8326764Y6210655D01*
X8328237Y6213970D01*
X8329449Y6213340D01*
G37*
G36*
X8494567Y6237503D02*
G01*
X8495049Y6232724D01*
X8494567Y6232134D01*
X8492173Y6232686D01*
X8491882Y6234819D01*
X8493356Y6238133D01*
X8494567Y6237503D01*
G37*
G36*
X8550949Y6245558D02*
G01*
X8551431Y6240778D01*
X8550949Y6240188D01*
X8548554Y6240741D01*
X8548264Y6242873D01*
X8549737Y6246188D01*
X8550949Y6245558D01*
G37*
G36*
X8623440Y6253612D02*
G01*
X8623922Y6248833D01*
X8623440Y6248243D01*
X8621045Y6248796D01*
X8620755Y6250928D01*
X8622228Y6254242D01*
X8623440Y6253612D01*
G37*
G36*
X8698280Y6660349D02*
G01*
X8698786Y6658879D01*
X8693246Y6658318D01*
X8687528Y6658951D01*
X8688212Y6660349D01*
X8696457Y6660881D01*
X8698280Y6660349D01*
G37*
G36*
X8708012Y6930194D02*
G01*
X8707459Y6927800D01*
X8705327Y6927509D01*
X8702013Y6928983D01*
X8702643Y6930194D01*
X8707422Y6930676D01*
X8708012Y6930194D01*
G37*
G36*
X8708012Y6914085D02*
G01*
X8707459Y6911691D01*
X8705327Y6911400D01*
X8702013Y6912874D01*
X8702643Y6914085D01*
X8707422Y6914567D01*
X8708012Y6914085D01*
G37*
G36*
X8708012Y6801321D02*
G01*
X8707459Y6798927D01*
X8705327Y6798636D01*
X8702013Y6800110D01*
X8702643Y6801321D01*
X8707422Y6801803D01*
X8708012Y6801321D01*
G37*
G36*
X8708012Y6676476D02*
G01*
X8707459Y6674082D01*
X8705327Y6673791D01*
X8702013Y6675265D01*
X8702643Y6676476D01*
X8707422Y6676958D01*
X8708012Y6676476D01*
G37*
G36*
X8714389Y6825467D02*
G01*
X8714895Y6823997D01*
X8709355Y6823436D01*
X8703637Y6824069D01*
X8704321Y6825467D01*
X8712566Y6825999D01*
X8714389Y6825467D01*
G37*
G36*
X8716067Y7127530D02*
G01*
X8715514Y7125136D01*
X8713382Y7124845D01*
X8710067Y7126319D01*
X8710697Y7127530D01*
X8715477Y7128012D01*
X8716067Y7127530D01*
G37*
G36*
X8716067Y6962412D02*
G01*
X8715514Y6960018D01*
X8713382Y6959727D01*
X8710067Y6961201D01*
X8710697Y6962412D01*
X8715477Y6962894D01*
X8716067Y6962412D01*
G37*
G36*
X8716067Y6684530D02*
G01*
X8715514Y6682136D01*
X8713382Y6681846D01*
X8710067Y6683319D01*
X8710697Y6684530D01*
X8715477Y6685012D01*
X8716067Y6684530D01*
G37*
G36*
X8716067Y6660367D02*
G01*
X8715514Y6657973D01*
X8713382Y6657682D01*
X8710067Y6659156D01*
X8710697Y6660367D01*
X8715477Y6660849D01*
X8716067Y6660367D01*
G37*
G36*
X8724121Y7224185D02*
G01*
X8723569Y7221791D01*
X8721436Y7221500D01*
X8718122Y7222973D01*
X8718752Y7224185D01*
X8723531Y7224667D01*
X8724121Y7224185D01*
G37*
G36*
X8724121Y6990603D02*
G01*
X8724603Y6985824D01*
X8724121Y6985233D01*
X8721727Y6985786D01*
X8721436Y6987918D01*
X8722910Y6991233D01*
X8724121Y6990603D01*
G37*
G36*
X8724121Y6841594D02*
G01*
X8723569Y6839200D01*
X8721436Y6838909D01*
X8718122Y6840383D01*
X8718752Y6841594D01*
X8723531Y6842076D01*
X8724121Y6841594D01*
G37*
G36*
X8724121Y6817430D02*
G01*
X8723569Y6815036D01*
X8721436Y6814746D01*
X8718122Y6816219D01*
X8718752Y6817430D01*
X8723531Y6817912D01*
X8724121Y6817430D01*
G37*
G36*
X8724121Y6676476D02*
G01*
X8723569Y6674082D01*
X8721436Y6673791D01*
X8718122Y6675265D01*
X8718752Y6676476D01*
X8723531Y6676958D01*
X8724121Y6676476D01*
G37*
G36*
X8732176Y6684530D02*
G01*
X8731623Y6682136D01*
X8729491Y6681846D01*
X8726176Y6683319D01*
X8726806Y6684530D01*
X8731586Y6685012D01*
X8732176Y6684530D01*
G37*
G36*
X8740230Y6680503D02*
G01*
X8740712Y6675724D01*
X8740230Y6675134D01*
X8737836Y6675686D01*
X8737546Y6677818D01*
X8739019Y6681133D01*
X8740230Y6680503D01*
G37*
G36*
X8772431Y7536634D02*
G01*
X8772963Y7528389D01*
X8772431Y7526566D01*
X8770961Y7526060D01*
X8770400Y7531600D01*
X8771033Y7537317D01*
X8772431Y7536634D01*
G37*
G36*
X8772449Y6277776D02*
G01*
X8772931Y6272997D01*
X8772449Y6272406D01*
X8770054Y6272959D01*
X8769764Y6275091D01*
X8771237Y6278406D01*
X8772449Y6277776D01*
G37*
G36*
X8935889Y7731603D02*
G01*
X8936395Y7730133D01*
X8930855Y7729572D01*
X8925137Y7730205D01*
X8925821Y7731603D01*
X8934066Y7732135D01*
X8935889Y7731603D01*
G37*
G36*
X8953928Y7739424D02*
G01*
X8952726Y7737593D01*
X8948642Y7737309D01*
X8944344Y7738292D01*
X8946209Y7739742D01*
X8952503Y7740222D01*
X8953928Y7739424D01*
G37*
G36*
X8969785Y7747730D02*
G01*
X8969232Y7745336D01*
X8967100Y7745045D01*
X8963785Y7746519D01*
X8964415Y7747730D01*
X8969195Y7748212D01*
X8969785Y7747730D01*
G37*
G36*
X8985894Y7759812D02*
G01*
X8986376Y7755032D01*
X8985894Y7754442D01*
X8983500Y7754995D01*
X8983209Y7757127D01*
X8984683Y7760442D01*
X8985894Y7759812D01*
G37*
G36*
X9002003Y7767866D02*
G01*
X9002485Y7763087D01*
X9002003Y7762497D01*
X8999609Y7763050D01*
X8999318Y7765182D01*
X9000792Y7768496D01*
X9002003Y7767866D01*
G37*
G36*
X9026167Y7775921D02*
G01*
X9026649Y7771142D01*
X9026167Y7770551D01*
X9023772Y7771104D01*
X9023482Y7773236D01*
X9024955Y7776551D01*
X9026167Y7775921D01*
G37*
G36*
X9090603Y7792030D02*
G01*
X9091085Y7787251D01*
X9090603Y7786660D01*
X9088209Y7787213D01*
X9087918Y7789345D01*
X9089392Y7792660D01*
X9090603Y7792030D01*
G37*
G36*
X9320157Y7792030D02*
G01*
X9320639Y7787251D01*
X9320157Y7786660D01*
X9317763Y7787213D01*
X9317473Y7789345D01*
X9318946Y7792660D01*
X9320157Y7792030D01*
G37*
G36*
X9352376Y7783976D02*
G01*
X9352858Y7779196D01*
X9352376Y7778606D01*
X9349981Y7779159D01*
X9349691Y7781291D01*
X9351164Y7784606D01*
X9352376Y7783976D01*
G37*
G36*
X9368485Y7775921D02*
G01*
X9368967Y7771142D01*
X9368485Y7770551D01*
X9366091Y7771104D01*
X9365800Y7773236D01*
X9367273Y7776551D01*
X9368485Y7775921D01*
G37*
G36*
X9416812Y7759812D02*
G01*
X9417294Y7755032D01*
X9416812Y7754442D01*
X9414418Y7754995D01*
X9414127Y7757127D01*
X9415601Y7760442D01*
X9416812Y7759812D01*
G37*
G36*
X9499707Y7723549D02*
G01*
X9500213Y7722079D01*
X9494673Y7721517D01*
X9488955Y7722150D01*
X9489638Y7723549D01*
X9497884Y7724081D01*
X9499707Y7723549D01*
G37*
G36*
X9515816Y7715494D02*
G01*
X9516322Y7714024D01*
X9510782Y7713463D01*
X9505064Y7714096D01*
X9505748Y7715494D01*
X9513993Y7716026D01*
X9515816Y7715494D01*
G37*
G36*
X9525548Y7707457D02*
G01*
X9524996Y7705063D01*
X9522863Y7704773D01*
X9519549Y7706246D01*
X9520179Y7707457D01*
X9524958Y7707939D01*
X9525548Y7707457D01*
G37*
G36*
X9646366Y6277776D02*
G01*
X9646848Y6272997D01*
X9646366Y6272406D01*
X9643972Y6272959D01*
X9643682Y6275091D01*
X9645155Y6278406D01*
X9646366Y6277776D01*
G37*
G36*
X9654403Y6268043D02*
G01*
X9654935Y6259798D01*
X9654403Y6257975D01*
X9652933Y6257469D01*
X9652372Y6263009D01*
X9653005Y6268727D01*
X9654403Y6268043D01*
G37*
G36*
X9662476Y6253612D02*
G01*
X9662958Y6248833D01*
X9662476Y6248243D01*
X9660081Y6248796D01*
X9659791Y6250928D01*
X9661264Y6254242D01*
X9662476Y6253612D01*
G37*
G36*
X9670530Y6245558D02*
G01*
X9671012Y6240778D01*
X9670530Y6240188D01*
X9668136Y6240741D01*
X9667845Y6242873D01*
X9669319Y6246188D01*
X9670530Y6245558D01*
G37*
G36*
X9686639Y6712721D02*
G01*
X9687121Y6707942D01*
X9686639Y6707352D01*
X9684245Y6707904D01*
X9683954Y6710037D01*
X9685428Y6713351D01*
X9686639Y6712721D01*
G37*
G36*
X9686639Y6237503D02*
G01*
X9687121Y6232724D01*
X9686639Y6232134D01*
X9684245Y6232686D01*
X9683954Y6234819D01*
X9685428Y6238133D01*
X9686639Y6237503D01*
G37*
G36*
X9686705Y6726901D02*
G01*
X9687186Y6720607D01*
X9686387Y6719182D01*
X9684557Y6720383D01*
X9684272Y6724468D01*
X9685256Y6728765D01*
X9686705Y6726901D01*
G37*
G36*
X9694676Y7560798D02*
G01*
X9695208Y7552552D01*
X9694676Y7550729D01*
X9693206Y7550223D01*
X9692645Y7555763D01*
X9693278Y7561481D01*
X9694676Y7560798D01*
G37*
G36*
X9694694Y6229449D02*
G01*
X9695176Y6224669D01*
X9694694Y6224079D01*
X9692300Y6224632D01*
X9692009Y6226764D01*
X9693482Y6230079D01*
X9694694Y6229449D01*
G37*
G36*
X9710803Y6221394D02*
G01*
X9711285Y6216615D01*
X9710803Y6216025D01*
X9708409Y6216577D01*
X9708118Y6218709D01*
X9709591Y6222024D01*
X9710803Y6221394D01*
G37*
G36*
X9718840Y6972816D02*
G01*
X9719372Y6964571D01*
X9718840Y6962748D01*
X9717370Y6962242D01*
X9716808Y6967782D01*
X9717441Y6973499D01*
X9718840Y6972816D01*
G37*
G36*
X9743273Y6209061D02*
G01*
X9742072Y6207230D01*
X9737987Y6206946D01*
X9733690Y6207929D01*
X9735554Y6209379D01*
X9741848Y6209859D01*
X9743273Y6209061D01*
G37*
G36*
X9761479Y6201240D02*
G01*
X9761985Y6199770D01*
X9756445Y6199209D01*
X9750728Y6199842D01*
X9751411Y6201240D01*
X9759656Y6201772D01*
X9761479Y6201240D01*
G37*
G36*
X9999088Y6136804D02*
G01*
X9999594Y6135334D01*
X9994054Y6134773D01*
X9988337Y6135405D01*
X9989020Y6136804D01*
X9997265Y6137336D01*
X9999088Y6136804D01*
G37*
G36*
X8898342Y6419042D02*
G01*
X8898938Y6417153D01*
X8896104Y6413386D01*
X8894408Y6412623D01*
X8890972Y6413889D01*
X8891186Y6415844D01*
X8894714Y6420019D01*
X8898342Y6419042D01*
G37*
G36*
X9053915Y7786655D02*
G01*
X9053209Y7783513D01*
X9049960Y7777845D01*
X9047858Y7778794D01*
X9047645Y7781053D01*
X9050570Y7786514D01*
X9051627Y7787303D01*
X9053915Y7786655D01*
G37*
G36*
X9470146Y6290362D02*
G01*
X9469652Y6286616D01*
X9467434Y6283585D01*
X9464802Y6286633D01*
X9463324Y6292561D01*
X9464065Y6294153D01*
X9468046Y6294814D01*
X9470146Y6290362D01*
G37*
G36*
X8449731Y6230624D02*
G01*
X8449257Y6229347D01*
X8445635Y6224399D01*
X8441346Y6222301D01*
X8439528Y6224257D01*
X8442199Y6227728D01*
X8445661Y6230868D01*
X8450027Y6233806D01*
X8449731Y6230624D01*
G37*
G36*
X8709522Y6901468D02*
G01*
X8710799Y6900993D01*
X8716472Y6897060D01*
X8717409Y6894860D01*
X8716005Y6891484D01*
X8711423Y6894926D01*
X8709278Y6897397D01*
X8706340Y6901763D01*
X8709522Y6901468D01*
G37*
G36*
X8723848Y6792123D02*
G01*
X8721436Y6788568D01*
X8715477Y6783498D01*
X8712601Y6782527D01*
X8711887Y6784790D01*
X8714820Y6788568D01*
X8720895Y6793474D01*
X8723656Y6794609D01*
X8723848Y6792123D01*
G37*
G36*
X8733401Y6719054D02*
G01*
X8733518Y6718091D01*
X8730454Y6714181D01*
X8729491Y6714064D01*
X8725581Y6717128D01*
X8725464Y6718091D01*
X8728528Y6722001D01*
X8729491Y6722118D01*
X8733401Y6719054D01*
G37*
G36*
X8740394Y6654615D02*
G01*
X8741042Y6644121D01*
X8740313Y6638505D01*
X8739224Y6637564D01*
X8738613Y6643347D01*
X8738561Y6647614D01*
X8738958Y6655413D01*
X8739867Y6656596D01*
X8740394Y6654615D01*
G37*
G36*
X8748177Y6618910D02*
G01*
X8752216Y6615396D01*
X8755490Y6610691D01*
X8754435Y6609355D01*
X8748931Y6612122D01*
X8745600Y6615396D01*
X8742703Y6620272D01*
X8743381Y6621437D01*
X8748177Y6618910D01*
G37*
G36*
X8749173Y6831620D02*
G01*
X8749627Y6828841D01*
X8747453Y6823482D01*
X8745600Y6822800D01*
X8742027Y6826062D01*
X8741573Y6828841D01*
X8743747Y6834200D01*
X8745600Y6834882D01*
X8749173Y6831620D01*
G37*
G36*
X8749510Y6988881D02*
G01*
X8749627Y6987918D01*
X8746563Y6984008D01*
X8745600Y6983891D01*
X8741690Y6986956D01*
X8741573Y6987918D01*
X8744638Y6991828D01*
X8745600Y6991946D01*
X8749510Y6988881D01*
G37*
G36*
X8764485Y7518511D02*
G01*
X8765112Y7508297D01*
X8764485Y7504416D01*
X8763318Y7503162D01*
X8762682Y7508731D01*
X8762644Y7511464D01*
X8763063Y7518790D01*
X8764109Y7519654D01*
X8764485Y7518511D01*
G37*
G36*
X8780594Y7558784D02*
G01*
X8781221Y7548570D01*
X8780594Y7544688D01*
X8779427Y7543435D01*
X8778792Y7549004D01*
X8778753Y7551736D01*
X8779173Y7559063D01*
X8780218Y7559927D01*
X8780594Y7558784D01*
G37*
G36*
X8780594Y6503639D02*
G01*
X8781221Y6493425D01*
X8780594Y6489543D01*
X8779427Y6488290D01*
X8778792Y6493859D01*
X8778753Y6496591D01*
X8779173Y6503918D01*
X8780218Y6504782D01*
X8780594Y6503639D01*
G37*
G36*
X8781419Y6650389D02*
G01*
X8781846Y6647614D01*
X8779372Y6642060D01*
X8773812Y6643055D01*
X8772558Y6644148D01*
X8771744Y6649168D01*
X8775825Y6653239D01*
X8778056Y6653655D01*
X8781419Y6650389D01*
G37*
G36*
X8804888Y6759034D02*
G01*
X8806009Y6754337D01*
X8803491Y6747777D01*
X8799968Y6746282D01*
X8795049Y6749639D01*
X8793927Y6754337D01*
X8796446Y6760896D01*
X8799968Y6762391D01*
X8804888Y6759034D01*
G37*
G36*
X8909473Y6464798D02*
G01*
X8910718Y6456318D01*
X8908917Y6446727D01*
X8904677Y6444237D01*
X8899881Y6447839D01*
X8898636Y6456318D01*
X8900437Y6465910D01*
X8904677Y6468400D01*
X8909473Y6464798D01*
G37*
G36*
X8937909Y6340108D02*
G01*
X8938909Y6333487D01*
X8937531Y6325918D01*
X8934882Y6323418D01*
X8931854Y6326865D01*
X8930855Y6333487D01*
X8932233Y6341055D01*
X8934882Y6343555D01*
X8937909Y6340108D01*
G37*
G36*
X9240837Y6187454D02*
G01*
X9240954Y6186491D01*
X9237890Y6182581D01*
X9236927Y6182464D01*
X9233017Y6185529D01*
X9232900Y6186491D01*
X9235965Y6190401D01*
X9236927Y6190519D01*
X9240837Y6187454D01*
G37*
G36*
X9393991Y7767195D02*
G01*
X9397833Y7763576D01*
X9398018Y7762930D01*
X9394902Y7761200D01*
X9393991Y7761154D01*
X9390118Y7764250D01*
X9389964Y7765419D01*
X9392431Y7767825D01*
X9393991Y7767195D01*
G37*
G36*
X9423092Y6297421D02*
G01*
X9424195Y6291200D01*
X9422297Y6283230D01*
X9419161Y6280125D01*
X9415342Y6282221D01*
X9414127Y6291200D01*
X9415457Y6300432D01*
X9419161Y6302275D01*
X9423092Y6297421D01*
G37*
G36*
X9453946Y6316129D02*
G01*
X9454400Y6313350D01*
X9452225Y6307991D01*
X9450373Y6307309D01*
X9446800Y6310571D01*
X9446345Y6313350D01*
X9448520Y6318710D01*
X9450373Y6319391D01*
X9453946Y6316129D01*
G37*
G36*
X9458427Y7743032D02*
G01*
X9462269Y7739413D01*
X9462454Y7738767D01*
X9459339Y7737037D01*
X9458427Y7736991D01*
X9454555Y7740087D01*
X9454400Y7741256D01*
X9456867Y7743661D01*
X9458427Y7743032D01*
G37*
G36*
X9461699Y6275745D02*
G01*
X9462454Y6271064D01*
X9460768Y6264520D01*
X9458427Y6263009D01*
X9455155Y6266382D01*
X9454400Y6271064D01*
X9456086Y6277608D01*
X9458427Y6279118D01*
X9461699Y6275745D01*
G37*
G36*
X9481584Y7731712D02*
G01*
X9482837Y7730545D01*
X9477269Y7729909D01*
X9474536Y7729870D01*
X9467209Y7730290D01*
X9466346Y7731336D01*
X9467489Y7731712D01*
X9477703Y7732339D01*
X9481584Y7731712D01*
G37*
G36*
X9494218Y6308075D02*
G01*
X9494673Y6305296D01*
X9492498Y6299936D01*
X9490645Y6299255D01*
X9487072Y6302517D01*
X9486618Y6305296D01*
X9488793Y6310655D01*
X9490645Y6311337D01*
X9494218Y6308075D01*
G37*
G36*
X9566737Y6388617D02*
G01*
X9567163Y6385841D01*
X9564690Y6380287D01*
X9559130Y6381282D01*
X9557876Y6382376D01*
X9557062Y6387396D01*
X9561143Y6391466D01*
X9563374Y6391882D01*
X9566737Y6388617D01*
G37*
G36*
X9691892Y7013044D02*
G01*
X9692009Y7012082D01*
X9688944Y7008172D01*
X9687982Y7008055D01*
X9684071Y7011119D01*
X9683954Y7012082D01*
X9687019Y7015992D01*
X9687982Y7016109D01*
X9691892Y7013044D01*
G37*
G36*
X9702948Y7047320D02*
G01*
X9703622Y7034312D01*
X9702948Y7025170D01*
X9702070Y7022672D01*
X9701463Y7027246D01*
X9701270Y7036245D01*
X9701520Y7046188D01*
X9702170Y7049914D01*
X9702948Y7047320D01*
G37*
G36*
X9711003Y7007048D02*
G01*
X9711677Y6994039D01*
X9711003Y6984898D01*
X9710125Y6982399D01*
X9709517Y6986973D01*
X9709325Y6995973D01*
X9709575Y7005915D01*
X9710225Y7009642D01*
X9711003Y7007048D01*
G37*
G36*
X9781692Y6193160D02*
G01*
X9781826Y6191838D01*
X9775522Y6191298D01*
X9774568Y6191304D01*
X9768322Y6191884D01*
X9768918Y6193110D01*
X9769610Y6193309D01*
X9778383Y6193899D01*
X9781692Y6193160D01*
G37*
G36*
X9430713Y7754622D02*
G01*
X9433165Y7752795D01*
X9439532Y7747975D01*
X9441982Y7746185D01*
X9440294Y7745199D01*
X9437379Y7745045D01*
X9430698Y7748328D01*
X9428561Y7751656D01*
X9427479Y7756005D01*
X9430713Y7754622D01*
G37*
G36*
X9557843Y6372835D02*
G01*
X9559109Y6365705D01*
X9557261Y6357774D01*
X9553126Y6355872D01*
X9548817Y6360842D01*
X9548557Y6361485D01*
X9548031Y6369217D01*
X9548922Y6371553D01*
X9553913Y6375733D01*
X9557843Y6372835D01*
G37*
G36*
X9630503Y6593935D02*
G01*
X9631600Y6589456D01*
X9629705Y6581652D01*
X9625368Y6578466D01*
X9622093Y6579931D01*
X9619467Y6586406D01*
X9620711Y6593509D01*
X9625025Y6597239D01*
X9625559Y6597273D01*
X9630503Y6593935D01*
G37*
G36*
X9702872Y7537422D02*
G01*
X9702977Y7536634D01*
X9703643Y7522512D01*
X9702977Y7510457D01*
X9702187Y7507417D01*
X9701609Y7511529D01*
X9701356Y7521889D01*
X9701352Y7523545D01*
X9701559Y7534609D01*
X9702103Y7539536D01*
X9702872Y7537422D01*
G37*
G36*
X8740691Y7395319D02*
G01*
X8741024Y7390069D01*
X8739341Y7380996D01*
X8735532Y7377107D01*
X8730346Y7377023D01*
X8729491Y7378690D01*
X8732426Y7382498D01*
X8733238Y7382591D01*
X8736820Y7386003D01*
X8738731Y7391652D01*
X8740022Y7397225D01*
X8740691Y7395319D01*
G37*
G36*
X9690382Y6749635D02*
G01*
X9694765Y6741396D01*
X9694877Y6735683D01*
X9693377Y6731292D01*
X9692644Y6734478D01*
X9692476Y6737221D01*
X9690589Y6744302D01*
X9687982Y6746282D01*
X9684214Y6749448D01*
X9683954Y6751172D01*
X9685977Y6753053D01*
X9690382Y6749635D01*
G37*
G36*
X8711033Y6645793D02*
G01*
X8707498Y6641746D01*
X8698980Y6635734D01*
X8691615Y6634067D01*
X8686001Y6634619D01*
X8688035Y6635517D01*
X8692239Y6636361D01*
X8699308Y6638970D01*
X8701300Y6641422D01*
X8704529Y6645477D01*
X8708122Y6647356D01*
X8712303Y6648480D01*
X8711033Y6645793D01*
G37*
G36*
X9702302Y6727522D02*
G01*
X9706240Y6720437D01*
X9709972Y6711096D01*
X9710634Y6704533D01*
X9710560Y6704328D01*
X9708953Y6703754D01*
X9708436Y6707016D01*
X9706259Y6713001D01*
X9704091Y6714064D01*
X9700957Y6717476D01*
X9700088Y6723125D01*
X9700477Y6728508D01*
X9702302Y6727522D01*
G37*
G36*
X9303292Y6212457D02*
G01*
X9309094Y6206697D01*
X9312889Y6197735D01*
X9313445Y6192820D01*
X9312165Y6185381D01*
X9306676Y6182697D01*
X9301601Y6182464D01*
X9292301Y6183705D01*
X9287268Y6186491D01*
X9287587Y6190202D01*
X9289044Y6190519D01*
X9292277Y6193956D01*
X9293309Y6200349D01*
X9294806Y6208885D01*
X9297367Y6212688D01*
X9303292Y6212457D01*
G37*
G36*
X9604677Y6555342D02*
G01*
X9606556Y6549381D01*
X9607348Y6537635D01*
X9607436Y6528809D01*
X9607081Y6513493D01*
X9605804Y6504727D01*
X9603286Y6501029D01*
X9601395Y6500618D01*
X9598113Y6502276D01*
X9596235Y6508238D01*
X9595442Y6519984D01*
X9595354Y6528809D01*
X9595710Y6544126D01*
X9596987Y6552892D01*
X9599504Y6556589D01*
X9601395Y6557000D01*
X9604677Y6555342D01*
G37*
G36*
X9719158Y6936083D02*
G01*
X9718694Y6917436D01*
X9714955Y6902206D01*
X9708549Y6891838D01*
X9700082Y6887775D01*
X9698868Y6887785D01*
X9689995Y6888333D01*
X9699057Y6890079D01*
X9706619Y6894547D01*
X9708118Y6899598D01*
X9709859Y6905989D01*
X9712145Y6907373D01*
X9714341Y6911041D01*
X9716079Y6920606D01*
X9716917Y6932543D01*
X9717662Y6957714D01*
X9719158Y6936083D01*
G37*
G36*
X8757094Y7490807D02*
G01*
X8757215Y7488307D01*
X8756452Y7479409D01*
X8753968Y7475258D01*
X8753655Y7475218D01*
X8751357Y7471596D01*
X8749899Y7462335D01*
X8749627Y7455082D01*
X8749065Y7443593D01*
X8747626Y7436303D01*
X8746501Y7434945D01*
X8744875Y7438513D01*
X8744471Y7447491D01*
X8744715Y7452061D01*
X8746409Y7464878D01*
X8748942Y7475392D01*
X8749648Y7477232D01*
X8753538Y7487915D01*
X8754994Y7493341D01*
X8756258Y7495855D01*
X8757094Y7490807D01*
G37*
G36*
X9630588Y6392044D02*
G01*
X9631368Y6370868D01*
X9632574Y6353469D01*
X9634075Y6341218D01*
X9635743Y6335486D01*
X9635949Y6335302D01*
X9637931Y6330101D01*
X9638853Y6318820D01*
X9638628Y6304935D01*
X9637205Y6277105D01*
X9636416Y6304289D01*
X9635475Y6317907D01*
X9633761Y6327659D01*
X9631641Y6331472D01*
X9631600Y6331473D01*
X9629953Y6335392D01*
X9628859Y6346750D01*
X9628350Y6364948D01*
X9628452Y6388862D01*
X9629331Y6446250D01*
X9630588Y6392044D01*
G37*
G36*
X9694023Y6825210D02*
G01*
X9697993Y6824277D01*
X9700508Y6820891D01*
X9701997Y6813459D01*
X9702890Y6800385D01*
X9703257Y6790956D01*
X9703440Y6775082D01*
X9702899Y6762352D01*
X9701747Y6754861D01*
X9701243Y6753887D01*
X9699973Y6756127D01*
X9699236Y6764815D01*
X9699126Y6778354D01*
X9699334Y6786421D01*
X9699784Y6803657D01*
X9699454Y6814458D01*
X9698085Y6820428D01*
X9695418Y6823171D01*
X9693293Y6823886D01*
X9688885Y6825144D01*
X9692263Y6825289D01*
X9694023Y6825210D01*
G37*
G36*
X8855912Y7212478D02*
G01*
X8853780Y7206372D01*
X8852366Y7204230D01*
X8847661Y7194881D01*
X8846282Y7188386D01*
X8845217Y7184454D01*
X8840851Y7182390D01*
X8831423Y7181738D01*
X8821111Y7181872D01*
X8805210Y7182490D01*
X8790538Y7183410D01*
X8782852Y7184141D01*
X8772469Y7187215D01*
X8769128Y7192102D01*
X8772433Y7197524D01*
X8781988Y7202203D01*
X8788960Y7203860D01*
X8798753Y7205796D01*
X8812962Y7208845D01*
X8825487Y7211659D01*
X8842373Y7214953D01*
X8852312Y7215282D01*
X8855912Y7212478D01*
G37*
G36*
X9017829Y6348010D02*
G01*
X9019270Y6338903D01*
X9019455Y6333487D01*
X9018655Y6322679D01*
X9016631Y6316196D01*
X9015427Y6315364D01*
X9012155Y6311991D01*
X9011400Y6307309D01*
X9008552Y6300579D01*
X9003345Y6299255D01*
X8997029Y6301615D01*
X8995291Y6309323D01*
X8996670Y6316892D01*
X8999318Y6319391D01*
X9002590Y6322764D01*
X9003345Y6327446D01*
X9005032Y6333990D01*
X9007373Y6335500D01*
X9010645Y6338873D01*
X9011400Y6343555D01*
X9013087Y6350099D01*
X9015427Y6351609D01*
X9017829Y6348010D01*
G37*
G36*
X9464472Y7208649D02*
G01*
X9469914Y7206069D01*
X9468518Y7201267D01*
X9466109Y7198574D01*
X9463780Y7192330D01*
X9466109Y7185952D01*
X9469563Y7178036D01*
X9468715Y7173117D01*
X9462406Y7170184D01*
X9449479Y7168224D01*
X9445339Y7167793D01*
X9429225Y7166081D01*
X9414097Y7164307D01*
X9406073Y7163252D01*
X9393436Y7163007D01*
X9382450Y7165219D01*
X9382216Y7165315D01*
X9372454Y7169404D01*
X9386243Y7181245D01*
X9409845Y7197690D01*
X9433851Y7207178D01*
X9451644Y7209418D01*
X9464472Y7208649D01*
G37*
G36*
X9646553Y6694501D02*
G01*
X9647709Y6688692D01*
X9649440Y6679517D01*
X9651967Y6675172D01*
X9654144Y6669002D01*
X9655136Y6657767D01*
X9654987Y6649196D01*
X9653845Y6636431D01*
X9651675Y6629649D01*
X9647550Y6626777D01*
X9644688Y6626191D01*
X9640412Y6625950D01*
X9637750Y6627701D01*
X9636320Y6632927D01*
X9635740Y6643115D01*
X9635627Y6659752D01*
X9635627Y6661429D01*
X9635860Y6679190D01*
X9636709Y6690278D01*
X9638401Y6696067D01*
X9641164Y6697929D01*
X9641668Y6697955D01*
X9646553Y6694501D01*
G37*
G36*
X9578622Y7215603D02*
G01*
X9597938Y7211594D01*
X9614562Y7208548D01*
X9621532Y7207486D01*
X9628076Y7206275D01*
X9629586Y7205597D01*
X9632921Y7204292D01*
X9637228Y7203338D01*
X9644912Y7200165D01*
X9651828Y7194838D01*
X9655519Y7189562D01*
X9655120Y7187296D01*
X9650408Y7186114D01*
X9639517Y7184713D01*
X9624310Y7183308D01*
X9614080Y7182565D01*
X9575218Y7180012D01*
X9575218Y7190195D01*
X9572975Y7199983D01*
X9569221Y7205354D01*
X9565078Y7211384D01*
X9567750Y7215394D01*
X9576027Y7216065D01*
X9578622Y7215603D01*
G37*
G36*
X8852094Y6546790D02*
G01*
X8853950Y6539326D01*
X8854336Y6528809D01*
X8853612Y6517323D01*
X8851760Y6510032D01*
X8850309Y6508673D01*
X8848012Y6505051D01*
X8846554Y6495790D01*
X8846282Y6488537D01*
X8845635Y6475874D01*
X8843396Y6469689D01*
X8840241Y6468400D01*
X8836442Y6470556D01*
X8834587Y6478019D01*
X8834200Y6488537D01*
X8834924Y6500023D01*
X8836777Y6507314D01*
X8838227Y6508673D01*
X8840525Y6512295D01*
X8841983Y6521556D01*
X8842255Y6528809D01*
X8842901Y6541472D01*
X8845140Y6547657D01*
X8848296Y6548946D01*
X8852094Y6546790D01*
G37*
G36*
X8984334Y7207715D02*
G01*
X8999955Y7203266D01*
X9014837Y7197066D01*
X9026616Y7190107D01*
X9032928Y7183383D01*
X9033062Y7183061D01*
X9038494Y7177817D01*
X9041478Y7177200D01*
X9047061Y7175368D01*
X9046469Y7171126D01*
X9040345Y7166353D01*
X9037315Y7165018D01*
X9028645Y7162387D01*
X9019862Y7161791D01*
X9008083Y7163253D01*
X8997305Y7165349D01*
X8982307Y7167676D01*
X8967330Y7168885D01*
X8966093Y7168913D01*
X8955223Y7170214D01*
X8951426Y7174506D01*
X8953909Y7183052D01*
X8955391Y7185952D01*
X8957720Y7194219D01*
X8955391Y7198574D01*
X8951371Y7204363D01*
X8953900Y7207793D01*
X8963547Y7209276D01*
X8970337Y7209418D01*
X8984334Y7207715D01*
G37*
G36*
X8763511Y6620197D02*
G01*
X8768422Y6614782D01*
X8772413Y6606743D01*
X8773791Y6599574D01*
X8775135Y6591869D01*
X8777818Y6589218D01*
X8779818Y6585454D01*
X8781222Y6575189D01*
X8781834Y6559969D01*
X8781846Y6557336D01*
X8782405Y6539841D01*
X8783990Y6528361D01*
X8786333Y6523958D01*
X8789457Y6519394D01*
X8789353Y6515620D01*
X8787627Y6512317D01*
X8784674Y6515903D01*
X8782852Y6519596D01*
X8780225Y6529259D01*
X8778404Y6543636D01*
X8777818Y6557565D01*
X8777262Y6571639D01*
X8775804Y6582303D01*
X8773791Y6587205D01*
X8770614Y6592786D01*
X8769764Y6599031D01*
X8767253Y6608635D01*
X8763626Y6613463D01*
X8759436Y6618418D01*
X8759406Y6620476D01*
X8763511Y6620197D01*
G37*
G36*
X8797179Y6457325D02*
G01*
X8797067Y6441995D01*
X8795915Y6431773D01*
X8793927Y6428128D01*
X8791619Y6424590D01*
X8790312Y6415809D01*
X8789999Y6404531D01*
X8790674Y6393504D01*
X8792327Y6385476D01*
X8794055Y6383114D01*
X8795846Y6378470D01*
X8796906Y6366307D01*
X8797208Y6347129D01*
X8796944Y6329417D01*
X8795678Y6277105D01*
X8794803Y6328453D01*
X8794132Y6350032D01*
X8792996Y6366439D01*
X8791489Y6376678D01*
X8789900Y6379800D01*
X8787701Y6383372D01*
X8786383Y6392361D01*
X8785957Y6404177D01*
X8786433Y6416229D01*
X8787822Y6425926D01*
X8789687Y6430343D01*
X8791869Y6436111D01*
X8793795Y6447385D01*
X8794952Y6460346D01*
X8796403Y6486523D01*
X8797179Y6457325D01*
G37*
G36*
X8788938Y6776706D02*
G01*
X8789900Y6770446D01*
X8788214Y6763901D01*
X8785873Y6762391D01*
X8784084Y6758529D01*
X8782767Y6747587D01*
X8782005Y6730530D01*
X8781846Y6715790D01*
X8781562Y6693688D01*
X8780625Y6678424D01*
X8778902Y6668798D01*
X8776260Y6663609D01*
X8776092Y6663435D01*
X8769752Y6658373D01*
X8766615Y6660084D01*
X8765738Y6669144D01*
X8765736Y6669764D01*
X8764570Y6678247D01*
X8761759Y6681845D01*
X8761709Y6681846D01*
X8759622Y6685451D01*
X8758306Y6694651D01*
X8757760Y6707024D01*
X8757985Y6720147D01*
X8758979Y6731599D01*
X8760742Y6738956D01*
X8761720Y6740248D01*
X8765660Y6745153D01*
X8771088Y6754779D01*
X8773902Y6760622D01*
X8780289Y6772405D01*
X8785526Y6777905D01*
X8788938Y6776706D01*
G37*
G36*
X9445602Y6292105D02*
G01*
X9446107Y6285325D01*
X9443894Y6278769D01*
X9442040Y6276933D01*
X9439367Y6271504D01*
X9438352Y6261585D01*
X9438403Y6259579D01*
X9438781Y6244785D01*
X9437928Y6236064D01*
X9435385Y6231469D01*
X9431243Y6229245D01*
X9422366Y6225811D01*
X9419161Y6224412D01*
X9414679Y6224706D01*
X9414127Y6226428D01*
X9416996Y6230606D01*
X9418154Y6230791D01*
X9420982Y6234291D01*
X9422181Y6242723D01*
X9422182Y6242873D01*
X9423348Y6251356D01*
X9426159Y6254954D01*
X9426209Y6254955D01*
X9429037Y6258454D01*
X9430236Y6266886D01*
X9430236Y6267037D01*
X9431403Y6275520D01*
X9434213Y6279118D01*
X9434264Y6279118D01*
X9437536Y6282492D01*
X9438291Y6287173D01*
X9439977Y6293717D01*
X9442318Y6295228D01*
X9445602Y6292105D01*
G37*
G36*
X9699649Y6913187D02*
G01*
X9700063Y6909386D01*
X9696840Y6904047D01*
X9694023Y6903346D01*
X9690017Y6900944D01*
X9688211Y6892799D01*
X9687982Y6885460D01*
X9688816Y6874079D01*
X9690916Y6866435D01*
X9692009Y6865086D01*
X9695959Y6858650D01*
X9695620Y6849729D01*
X9691617Y6842220D01*
X9687982Y6840076D01*
X9682947Y6837340D01*
X9680675Y6831126D01*
X9680329Y6819310D01*
X9680780Y6808868D01*
X9681721Y6805749D01*
X9683461Y6809225D01*
X9683954Y6810718D01*
X9686311Y6817376D01*
X9687270Y6816616D01*
X9687580Y6811963D01*
X9686183Y6803673D01*
X9682223Y6799943D01*
X9678475Y6801431D01*
X9676965Y6806661D01*
X9676039Y6817039D01*
X9675900Y6823471D01*
X9676354Y6835302D01*
X9678271Y6841106D01*
X9682477Y6842885D01*
X9683954Y6842936D01*
X9690270Y6845296D01*
X9692009Y6853005D01*
X9690630Y6860573D01*
X9687982Y6863073D01*
X9685287Y6866587D01*
X9684040Y6875372D01*
X9684143Y6886798D01*
X9685498Y6898231D01*
X9688009Y6907037D01*
X9689708Y6909674D01*
X9696463Y6914910D01*
X9699649Y6913187D01*
G37*
G36*
X9811879Y6185276D02*
G01*
X9818350Y6183041D01*
X9818868Y6182464D01*
X9824312Y6179562D01*
X9833201Y6178437D01*
X9841581Y6177249D01*
X9845045Y6174409D01*
X9848418Y6171137D01*
X9853100Y6170382D01*
X9859644Y6168696D01*
X9861154Y6166355D01*
X9864593Y6163301D01*
X9870985Y6162328D01*
X9879512Y6160843D01*
X9883304Y6158300D01*
X9888904Y6155083D01*
X9894818Y6154273D01*
X9903717Y6152674D01*
X9907707Y6150410D01*
X9913202Y6148598D01*
X9924758Y6146928D01*
X9940381Y6145647D01*
X9949792Y6145205D01*
X9988013Y6143863D01*
X9946734Y6143027D01*
X9927183Y6143008D01*
X9913372Y6143797D01*
X9906237Y6145321D01*
X9905454Y6146219D01*
X9901955Y6149046D01*
X9893523Y6150246D01*
X9893372Y6150246D01*
X9884889Y6151412D01*
X9881292Y6154223D01*
X9881291Y6154273D01*
X9877791Y6157101D01*
X9869359Y6158300D01*
X9869209Y6158300D01*
X9860726Y6159467D01*
X9857128Y6162278D01*
X9857127Y6162328D01*
X9853754Y6165600D01*
X9849072Y6166355D01*
X9842528Y6168041D01*
X9841018Y6170382D01*
X9837598Y6173501D01*
X9831755Y6174409D01*
X9822794Y6175917D01*
X9818667Y6178150D01*
X9812323Y6181125D01*
X9801951Y6183393D01*
X9800745Y6183546D01*
X9786650Y6185202D01*
X9801514Y6185847D01*
X9811879Y6185276D01*
G37*
G36*
X8920550Y7722427D02*
G01*
X8916085Y7716310D01*
X8914746Y7714841D01*
X8907248Y7708008D01*
X8901612Y7704806D01*
X8901252Y7704773D01*
X8896576Y7702011D01*
X8888189Y7694808D01*
X8877683Y7684786D01*
X8866649Y7673566D01*
X8856679Y7662769D01*
X8849365Y7654018D01*
X8846297Y7648934D01*
X8846282Y7648757D01*
X8843591Y7643473D01*
X8836873Y7635549D01*
X8834200Y7632887D01*
X8826631Y7624771D01*
X8822424Y7618547D01*
X8822118Y7617368D01*
X8819406Y7611946D01*
X8814064Y7606104D01*
X8808021Y7598958D01*
X8806009Y7593892D01*
X8803189Y7587497D01*
X8799518Y7583581D01*
X8792508Y7575243D01*
X8789705Y7569999D01*
X8786383Y7561804D01*
X8786128Y7569977D01*
X8788982Y7578573D01*
X8793927Y7583954D01*
X8800195Y7590818D01*
X8801982Y7596036D01*
X8804992Y7603090D01*
X8810036Y7608118D01*
X8816285Y7614680D01*
X8818091Y7619473D01*
X8820837Y7625551D01*
X8827677Y7633857D01*
X8830173Y7636309D01*
X8837790Y7644438D01*
X8841977Y7650877D01*
X8842255Y7652095D01*
X8845033Y7657127D01*
X8852295Y7665834D01*
X8862427Y7676623D01*
X8873818Y7687903D01*
X8884856Y7698083D01*
X8893928Y7705571D01*
X8899424Y7708776D01*
X8899686Y7708800D01*
X8905881Y7711776D01*
X8910718Y7716854D01*
X8916587Y7723057D01*
X8920364Y7724909D01*
X8920550Y7722427D01*
G37*
G36*
X9549591Y7697624D02*
G01*
X9555082Y7692691D01*
X9562319Y7686400D01*
X9568053Y7684636D01*
X9574098Y7682764D01*
X9575218Y7680609D01*
X9578840Y7678312D01*
X9588101Y7676853D01*
X9595354Y7676582D01*
X9606841Y7675857D01*
X9614132Y7674005D01*
X9615491Y7672554D01*
X9618762Y7669003D01*
X9621666Y7668527D01*
X9628521Y7665601D01*
X9637658Y7658358D01*
X9646770Y7649105D01*
X9653552Y7640147D01*
X9655763Y7634430D01*
X9657897Y7628985D01*
X9659791Y7628254D01*
X9663063Y7624881D01*
X9663818Y7620200D01*
X9665504Y7613656D01*
X9667845Y7612145D01*
X9671117Y7608772D01*
X9671873Y7604091D01*
X9673559Y7597547D01*
X9675900Y7596036D01*
X9679218Y7592678D01*
X9679927Y7588317D01*
X9681954Y7581195D01*
X9684414Y7579103D01*
X9687532Y7574536D01*
X9687434Y7570670D01*
X9685227Y7569730D01*
X9680811Y7575988D01*
X9675900Y7585911D01*
X9670122Y7597630D01*
X9665280Y7605673D01*
X9662811Y7608104D01*
X9660355Y7611498D01*
X9659791Y7616173D01*
X9658104Y7622717D01*
X9655763Y7624227D01*
X9652212Y7627498D01*
X9651736Y7630402D01*
X9648810Y7637258D01*
X9641567Y7646394D01*
X9632315Y7655506D01*
X9623356Y7662288D01*
X9617639Y7664500D01*
X9612194Y7666633D01*
X9611463Y7668527D01*
X9607890Y7671045D01*
X9598959Y7672450D01*
X9595300Y7672554D01*
X9578075Y7674781D01*
X9562385Y7682307D01*
X9553068Y7689317D01*
X9542638Y7695378D01*
X9534945Y7697830D01*
X9528897Y7699113D01*
X9530185Y7699788D01*
X9537077Y7700197D01*
X9549591Y7697624D01*
G37*
G36*
X9711137Y7403002D02*
G01*
X9711366Y7368772D01*
X9711184Y7341034D01*
X9710601Y7320173D01*
X9709629Y7306570D01*
X9708279Y7300609D01*
X9708191Y7300508D01*
X9706566Y7294954D01*
X9705276Y7282736D01*
X9704418Y7265239D01*
X9704091Y7243851D01*
X9704091Y7242845D01*
X9703798Y7220110D01*
X9702962Y7203072D01*
X9701641Y7192537D01*
X9700063Y7189282D01*
X9698098Y7185498D01*
X9696708Y7175099D01*
X9696062Y7159516D01*
X9696036Y7155288D01*
X9695589Y7139488D01*
X9694397Y7126948D01*
X9692686Y7119707D01*
X9692009Y7118805D01*
X9689026Y7113043D01*
X9688097Y7103187D01*
X9689190Y7092918D01*
X9692271Y7085921D01*
X9692302Y7085890D01*
X9694808Y7079217D01*
X9695057Y7068837D01*
X9694960Y7067969D01*
X9693298Y7054368D01*
X9692653Y7069470D01*
X9691289Y7079186D01*
X9688714Y7084328D01*
X9687982Y7084573D01*
X9685580Y7088172D01*
X9684139Y7097279D01*
X9683954Y7102695D01*
X9684754Y7113503D01*
X9686778Y7119987D01*
X9687982Y7120818D01*
X9689947Y7124602D01*
X9691337Y7135001D01*
X9691983Y7150584D01*
X9692009Y7154812D01*
X9692456Y7170612D01*
X9693648Y7183152D01*
X9695359Y7190393D01*
X9696036Y7191295D01*
X9697645Y7196197D01*
X9698911Y7207914D01*
X9699746Y7225210D01*
X9700063Y7246851D01*
X9700063Y7247915D01*
X9700353Y7270810D01*
X9701182Y7287991D01*
X9702491Y7298661D01*
X9704091Y7302045D01*
X9705473Y7306002D01*
X9706674Y7317592D01*
X9707670Y7336398D01*
X9708443Y7361999D01*
X9708970Y7393976D01*
X9709050Y7401720D01*
X9709982Y7501395D01*
X9711137Y7403002D01*
G37*
G36*
X9678302Y6722851D02*
G01*
X9678887Y6718107D01*
X9681346Y6706872D01*
X9685013Y6698679D01*
X9685290Y6698323D01*
X9687896Y6693181D01*
X9684961Y6690923D01*
X9681635Y6685965D01*
X9680002Y6675245D01*
X9679927Y6671912D01*
X9680682Y6660440D01*
X9683606Y6654608D01*
X9688192Y6652433D01*
X9692829Y6650301D01*
X9695114Y6645666D01*
X9695615Y6636461D01*
X9695240Y6626793D01*
X9694202Y6613441D01*
X9692303Y6606147D01*
X9688714Y6602914D01*
X9684961Y6602027D01*
X9677579Y6603002D01*
X9675900Y6607349D01*
X9673211Y6615528D01*
X9669859Y6619998D01*
X9665658Y6623272D01*
X9664042Y6620541D01*
X9663818Y6614005D01*
X9662304Y6604813D01*
X9658784Y6599940D01*
X9655816Y6598121D01*
X9658784Y6597591D01*
X9661909Y6593905D01*
X9663572Y6585427D01*
X9663683Y6575304D01*
X9662149Y6566680D01*
X9659791Y6563041D01*
X9657097Y6557701D01*
X9655787Y6547887D01*
X9655763Y6546317D01*
X9654487Y6535747D01*
X9649952Y6530742D01*
X9647841Y6530011D01*
X9644280Y6528356D01*
X9641885Y6524626D01*
X9640352Y6517346D01*
X9639379Y6505039D01*
X9638663Y6486228D01*
X9638628Y6485081D01*
X9637338Y6442223D01*
X9636482Y6487530D01*
X9636195Y6507162D01*
X9636363Y6520122D01*
X9637207Y6527787D01*
X9638944Y6531537D01*
X9641794Y6532751D01*
X9643682Y6532837D01*
X9648951Y6534187D01*
X9651280Y6539648D01*
X9651736Y6548946D01*
X9652629Y6559033D01*
X9654861Y6564644D01*
X9655763Y6565055D01*
X9658686Y6568441D01*
X9659696Y6576546D01*
X9658891Y6586289D01*
X9656368Y6594589D01*
X9654757Y6596971D01*
X9651742Y6601750D01*
X9654757Y6604153D01*
X9658376Y6609082D01*
X9659791Y6617745D01*
X9660803Y6626084D01*
X9663194Y6629491D01*
X9668810Y6626465D01*
X9675198Y6619626D01*
X9679463Y6612336D01*
X9679927Y6610044D01*
X9683177Y6605864D01*
X9685968Y6605327D01*
X9689611Y6607316D01*
X9691487Y6614294D01*
X9692009Y6627477D01*
X9691659Y6640278D01*
X9690148Y6646946D01*
X9686780Y6649391D01*
X9683954Y6649627D01*
X9679046Y6650734D01*
X9676646Y6655392D01*
X9675919Y6665610D01*
X9675900Y6668958D01*
X9676853Y6681401D01*
X9679265Y6690738D01*
X9680733Y6693122D01*
X9683534Y6697113D01*
X9680733Y6697955D01*
X9677498Y6701727D01*
X9676482Y6712546D01*
X9676544Y6715071D01*
X9676997Y6725214D01*
X9677487Y6727683D01*
X9678302Y6722851D01*
G37*
G36*
X8819876Y6490408D02*
G01*
X8821732Y6482945D01*
X8822118Y6472428D01*
X8822542Y6460350D01*
X8824342Y6454326D01*
X8828310Y6452377D01*
X8830173Y6452291D01*
X8834828Y6451330D01*
X8837252Y6447173D01*
X8838141Y6437912D01*
X8838227Y6430141D01*
X8838813Y6416621D01*
X8840810Y6409707D01*
X8844031Y6407991D01*
X8850887Y6410446D01*
X8852323Y6412018D01*
X8858090Y6416108D01*
X8864932Y6413077D01*
X8871731Y6403554D01*
X8873313Y6400186D01*
X8879179Y6389886D01*
X8885540Y6383309D01*
X8887397Y6382440D01*
X8893163Y6377397D01*
X8894252Y6368102D01*
X8890459Y6357003D01*
X8889654Y6355647D01*
X8886913Y6348399D01*
X8890439Y6342014D01*
X8891667Y6340743D01*
X8896640Y6336434D01*
X8898418Y6338396D01*
X8898636Y6344993D01*
X8900468Y6354787D01*
X8904883Y6362219D01*
X8910259Y6366042D01*
X8914975Y6365009D01*
X8917263Y6359328D01*
X8917583Y6353719D01*
X8917956Y6342410D01*
X8918305Y6327755D01*
X8918331Y6326439D01*
X8919328Y6306563D01*
X8921523Y6294220D01*
X8925107Y6288953D01*
X8930270Y6290304D01*
X8932503Y6292273D01*
X8937703Y6300117D01*
X8938909Y6305008D01*
X8940997Y6310550D01*
X8942936Y6311337D01*
X8945458Y6307764D01*
X8946861Y6298839D01*
X8946964Y6295228D01*
X8947886Y6284200D01*
X8951049Y6279541D01*
X8953292Y6279118D01*
X8962390Y6282526D01*
X8969352Y6290474D01*
X8971127Y6296954D01*
X8974367Y6302472D01*
X8977456Y6303282D01*
X8987038Y6300002D01*
X8992920Y6289987D01*
X8995241Y6272977D01*
X8995291Y6269338D01*
X8995665Y6257116D01*
X8996630Y6248966D01*
X8997592Y6246900D01*
X9003165Y6250066D01*
X9008709Y6257122D01*
X9011392Y6264411D01*
X9011400Y6264735D01*
X9014152Y6269978D01*
X9020617Y6270559D01*
X9028109Y6266709D01*
X9031536Y6263009D01*
X9038773Y6256719D01*
X9044507Y6254955D01*
X9048671Y6253698D01*
X9050851Y6248718D01*
X9051626Y6238196D01*
X9051673Y6232517D01*
X9052991Y6215436D01*
X9056826Y6205070D01*
X9057714Y6204039D01*
X9061250Y6201368D01*
X9063059Y6203411D01*
X9063699Y6211495D01*
X9063755Y6218422D01*
X9064070Y6230479D01*
X9065690Y6236534D01*
X9069623Y6238633D01*
X9073823Y6238846D01*
X9081391Y6237467D01*
X9083891Y6234819D01*
X9087165Y6231275D01*
X9090115Y6230791D01*
X9099270Y6227304D01*
X9108052Y6218612D01*
X9114328Y6207369D01*
X9116109Y6198468D01*
X9117855Y6186493D01*
X9122350Y6179624D01*
X9128483Y6179016D01*
X9132164Y6181782D01*
X9135577Y6187155D01*
X9133056Y6189568D01*
X9128990Y6194417D01*
X9128191Y6198909D01*
X9131116Y6204945D01*
X9138086Y6206631D01*
X9146389Y6204005D01*
X9152355Y6198573D01*
X9159592Y6192283D01*
X9165325Y6190519D01*
X9171355Y6187300D01*
X9172491Y6182338D01*
X9175652Y6174131D01*
X9183629Y6170925D01*
X9191620Y6172584D01*
X9203247Y6174363D01*
X9215625Y6171491D01*
X9226143Y6165193D01*
X9232191Y6156694D01*
X9232773Y6153266D01*
X9235635Y6147482D01*
X9242322Y6146806D01*
X9250437Y6151233D01*
X9252564Y6153305D01*
X9261900Y6160037D01*
X9275067Y6165458D01*
X9289766Y6169127D01*
X9303696Y6170605D01*
X9314559Y6169449D01*
X9319607Y6166159D01*
X9323997Y6164596D01*
X9329447Y6167985D01*
X9333186Y6174191D01*
X9333582Y6176916D01*
X9337208Y6181179D01*
X9345664Y6182464D01*
X9354147Y6183631D01*
X9357744Y6186441D01*
X9357745Y6186491D01*
X9361345Y6188893D01*
X9370452Y6190334D01*
X9375868Y6190519D01*
X9387008Y6189644D01*
X9393322Y6187383D01*
X9393991Y6186163D01*
X9396447Y6186393D01*
X9402816Y6191442D01*
X9409784Y6198244D01*
X9422987Y6210037D01*
X9432914Y6214506D01*
X9439604Y6211666D01*
X9440284Y6210689D01*
X9444213Y6210365D01*
X9450469Y6214668D01*
X9456939Y6221507D01*
X9461506Y6228788D01*
X9462454Y6232622D01*
X9464573Y6238098D01*
X9466482Y6238846D01*
X9469475Y6242302D01*
X9470509Y6249230D01*
X9474266Y6260390D01*
X9485387Y6273892D01*
X9486618Y6275091D01*
X9495578Y6284781D01*
X9501426Y6293180D01*
X9502727Y6296925D01*
X9506093Y6302188D01*
X9510782Y6303282D01*
X9515280Y6302400D01*
X9517711Y6298527D01*
X9518688Y6289821D01*
X9518836Y6279118D01*
X9519337Y6264930D01*
X9521066Y6257346D01*
X9524358Y6254963D01*
X9524639Y6254955D01*
X9529907Y6256206D01*
X9533179Y6260901D01*
X9533553Y6263009D01*
X9575218Y6263009D01*
X9576905Y6256465D01*
X9579245Y6254955D01*
X9582073Y6251455D01*
X9583272Y6243023D01*
X9583273Y6242873D01*
X9584439Y6234390D01*
X9587250Y6230792D01*
X9587300Y6230791D01*
X9590534Y6227406D01*
X9591327Y6222449D01*
X9591810Y6216746D01*
X9594582Y6217527D01*
X9598339Y6221119D01*
X9602601Y6226975D01*
X9600352Y6229796D01*
X9596764Y6234583D01*
X9595354Y6243209D01*
X9594157Y6251545D01*
X9591327Y6254955D01*
X9588055Y6258328D01*
X9587300Y6263009D01*
X9584782Y6269569D01*
X9581259Y6271064D01*
X9576339Y6267706D01*
X9575218Y6263009D01*
X9533553Y6263009D01*
X9534875Y6270454D01*
X9535415Y6286277D01*
X9535418Y6291270D01*
X9535877Y6305144D01*
X9537168Y6315191D01*
X9539019Y6319371D01*
X9539165Y6319391D01*
X9542387Y6322729D01*
X9543000Y6326656D01*
X9545743Y6333584D01*
X9552708Y6342947D01*
X9557271Y6347752D01*
X9566160Y6355722D01*
X9571463Y6358325D01*
X9574858Y6356290D01*
X9575332Y6355590D01*
X9577687Y6354338D01*
X9578917Y6360272D01*
X9579184Y6369102D01*
X9579817Y6381360D01*
X9582167Y6387811D01*
X9587059Y6390651D01*
X9587300Y6390715D01*
X9592519Y6393707D01*
X9594889Y6400558D01*
X9595354Y6410475D01*
X9596174Y6421118D01*
X9598243Y6427404D01*
X9599382Y6428128D01*
X9601480Y6431830D01*
X9602919Y6441656D01*
X9603409Y6454592D01*
X9604478Y6473493D01*
X9607668Y6484793D01*
X9609162Y6486811D01*
X9616115Y6492028D01*
X9620578Y6490713D01*
X9622927Y6482383D01*
X9623545Y6468400D01*
X9622934Y6455529D01*
X9621337Y6446803D01*
X9619518Y6444237D01*
X9617817Y6440345D01*
X9616540Y6429198D01*
X9615745Y6411587D01*
X9615491Y6389868D01*
X9615779Y6366906D01*
X9616605Y6349666D01*
X9617909Y6338939D01*
X9619518Y6335500D01*
X9621584Y6331775D01*
X9623011Y6321792D01*
X9623545Y6307337D01*
X9623545Y6307309D01*
X9624077Y6292848D01*
X9625504Y6282856D01*
X9627569Y6279119D01*
X9627573Y6279118D01*
X9630891Y6275761D01*
X9631600Y6271400D01*
X9633922Y6263822D01*
X9636634Y6261331D01*
X9639596Y6258687D01*
X9636634Y6256633D01*
X9631904Y6251174D01*
X9632172Y6244189D01*
X9636813Y6239355D01*
X9639654Y6238846D01*
X9646385Y6235998D01*
X9647709Y6230791D01*
X9650227Y6224232D01*
X9653750Y6222737D01*
X9659109Y6224911D01*
X9659791Y6226764D01*
X9663053Y6230337D01*
X9665832Y6230791D01*
X9671191Y6228617D01*
X9671873Y6226764D01*
X9675226Y6223432D01*
X9679496Y6222737D01*
X9686913Y6220145D01*
X9689268Y6217139D01*
X9694345Y6211605D01*
X9703849Y6205466D01*
X9714519Y6200522D01*
X9722887Y6198573D01*
X9730593Y6196543D01*
X9740354Y6191896D01*
X9747742Y6186797D01*
X9748391Y6186105D01*
X9753474Y6183413D01*
X9762889Y6180197D01*
X9773075Y6177552D01*
X9779318Y6176587D01*
X9786200Y6174061D01*
X9787037Y6173351D01*
X9792792Y6171295D01*
X9802655Y6170385D01*
X9803192Y6170382D01*
X9812984Y6169263D01*
X9818733Y6166549D01*
X9818868Y6166355D01*
X9824557Y6162954D01*
X9829051Y6162328D01*
X9837427Y6160413D01*
X9848482Y6155670D01*
X9851086Y6154273D01*
X9862172Y6149074D01*
X9871569Y6146341D01*
X9873121Y6146219D01*
X9880779Y6144341D01*
X9883304Y6142191D01*
X9888870Y6139045D01*
X9895386Y6138164D01*
X9903819Y6136644D01*
X9907468Y6134137D01*
X9912346Y6132381D01*
X9923389Y6131015D01*
X9938707Y6130228D01*
X9947978Y6130109D01*
X9965945Y6129705D01*
X9978840Y6128581D01*
X9985417Y6126869D01*
X9986000Y6126082D01*
X9989373Y6122810D01*
X9994054Y6122055D01*
X9996852Y6121726D01*
X9998913Y6120028D01*
X10000351Y6115896D01*
X10001277Y6108267D01*
X10001804Y6096076D01*
X10002043Y6078258D01*
X10002107Y6053748D01*
X10002109Y6045537D01*
X10002109Y5969019D01*
X9646903Y5969019D01*
X9582692Y5969041D01*
X9526145Y5969113D01*
X9476873Y5969239D01*
X9434485Y5969425D01*
X9398592Y5969676D01*
X9368803Y5969997D01*
X9344728Y5970394D01*
X9325979Y5970873D01*
X9312164Y5971438D01*
X9302893Y5972095D01*
X9297777Y5972849D01*
X9296426Y5973707D01*
X9296531Y5973851D01*
X9300787Y5981932D01*
X9301364Y5985933D01*
X9304561Y5992046D01*
X9309418Y5993182D01*
X9315962Y5994869D01*
X9317473Y5997210D01*
X9320972Y6000037D01*
X9329404Y6001236D01*
X9329554Y6001237D01*
X9338037Y6002403D01*
X9341635Y6005214D01*
X9341636Y6005264D01*
X9345209Y6007786D01*
X9354134Y6009189D01*
X9357745Y6009291D01*
X9368430Y6010050D01*
X9373108Y6012914D01*
X9373854Y6016565D01*
X9373166Y6020365D01*
X9369929Y6022069D01*
X9362386Y6021903D01*
X9348780Y6020091D01*
X9347677Y6019927D01*
X9334386Y6017472D01*
X9324964Y6014837D01*
X9321500Y6012653D01*
X9318216Y6009693D01*
X9315276Y6009291D01*
X9308243Y6006473D01*
X9299696Y5999764D01*
X9292441Y5991783D01*
X9289284Y5985149D01*
X9289282Y5985023D01*
X9286323Y5977027D01*
X9277072Y5971883D01*
X9260965Y5969365D01*
X9249074Y5969019D01*
X9220372Y5969019D01*
X9196655Y5993182D01*
X9183290Y6005731D01*
X9172149Y6014130D01*
X9164617Y6017340D01*
X9164395Y6017346D01*
X9153564Y6019284D01*
X9148062Y6021515D01*
X9142103Y6023520D01*
X9140318Y6019421D01*
X9140273Y6017488D01*
X9143049Y6010660D01*
X9148327Y6009291D01*
X9154871Y6007605D01*
X9156382Y6005264D01*
X9159803Y6002147D01*
X9165660Y6001237D01*
X9172899Y5998651D01*
X9182463Y5992270D01*
X9191894Y5984157D01*
X9198731Y5976377D01*
X9200682Y5971847D01*
X9196735Y5971492D01*
X9185218Y5971150D01*
X9166615Y5970823D01*
X9141410Y5970515D01*
X9110087Y5970227D01*
X9073131Y5969964D01*
X9031025Y5969727D01*
X8984254Y5969520D01*
X8933302Y5969345D01*
X8878654Y5969204D01*
X8820792Y5969101D01*
X8760203Y5969038D01*
X8701300Y5969019D01*
X8201919Y5969019D01*
X8201919Y6055605D01*
X9575218Y6055605D01*
X9576330Y6053205D01*
X9580422Y6051521D01*
X9588632Y6050435D01*
X9602095Y6049829D01*
X9621948Y6049586D01*
X9633613Y6049564D01*
X9657689Y6049833D01*
X9675924Y6050608D01*
X9687599Y6051838D01*
X9691992Y6053474D01*
X9692009Y6053591D01*
X9695981Y6054921D01*
X9707688Y6055999D01*
X9726810Y6056813D01*
X9753031Y6057351D01*
X9786033Y6057601D01*
X9798732Y6057619D01*
X9831211Y6057669D01*
X9856496Y6057854D01*
X9875449Y6058222D01*
X9888930Y6058821D01*
X9897799Y6059701D01*
X9902918Y6060910D01*
X9905146Y6062496D01*
X9905454Y6063659D01*
X9904556Y6065498D01*
X9901289Y6066929D01*
X9894792Y6068002D01*
X9884204Y6068765D01*
X9868665Y6069267D01*
X9847314Y6069557D01*
X9819290Y6069683D01*
X9798732Y6069700D01*
X9763498Y6069550D01*
X9734937Y6069109D01*
X9713368Y6068387D01*
X9699107Y6067398D01*
X9692471Y6066152D01*
X9692009Y6065673D01*
X9688105Y6064013D01*
X9676875Y6062755D01*
X9659038Y6061950D01*
X9635315Y6061647D01*
X9633613Y6061646D01*
X9610419Y6061531D01*
X9594140Y6061108D01*
X9583640Y6060258D01*
X9577784Y6058865D01*
X9575434Y6056812D01*
X9575218Y6055605D01*
X8201919Y6055605D01*
X8201919Y6079769D01*
X8201919Y6118499D01*
X8222643Y6118499D01*
X8223943Y6117240D01*
X8228085Y6116237D01*
X8235765Y6115461D01*
X8247674Y6114884D01*
X8264508Y6114478D01*
X8286959Y6114215D01*
X8315721Y6114068D01*
X8351488Y6114007D01*
X8372790Y6114000D01*
X8416832Y6113897D01*
X8453826Y6113589D01*
X8483585Y6113083D01*
X8505921Y6112382D01*
X8520647Y6111492D01*
X8527577Y6110417D01*
X8528127Y6109973D01*
X8531911Y6108008D01*
X8542310Y6106618D01*
X8557893Y6105971D01*
X8562122Y6105946D01*
X8577922Y6105499D01*
X8590462Y6104307D01*
X8597702Y6102596D01*
X8598605Y6101919D01*
X8603970Y6099176D01*
X8613693Y6097902D01*
X8614714Y6097891D01*
X8624661Y6096806D01*
X8630600Y6094164D01*
X8630823Y6093864D01*
X8635936Y6091624D01*
X8646425Y6090162D01*
X8655224Y6089837D01*
X8667280Y6089168D01*
X8675239Y6087444D01*
X8677137Y6085809D01*
X8680805Y6083664D01*
X8690388Y6082210D01*
X8701300Y6081782D01*
X8714171Y6081171D01*
X8722897Y6079574D01*
X8725464Y6077755D01*
X8729086Y6075458D01*
X8738347Y6073999D01*
X8745600Y6073728D01*
X8757087Y6073003D01*
X8764378Y6071151D01*
X8765736Y6069700D01*
X8769309Y6067178D01*
X8778235Y6065776D01*
X8781846Y6065673D01*
X8793192Y6064492D01*
X8798162Y6061222D01*
X8798273Y6060639D01*
X8799131Y6057824D01*
X8800667Y6060774D01*
X8800130Y6067909D01*
X8797842Y6071849D01*
X8790647Y6075935D01*
X8779927Y6077750D01*
X8779339Y6077755D01*
X8770220Y6078800D01*
X8765811Y6081360D01*
X8765736Y6081782D01*
X8762114Y6084080D01*
X8752854Y6085538D01*
X8745600Y6085809D01*
X8734113Y6086534D01*
X8726823Y6088386D01*
X8725464Y6089837D01*
X8721795Y6091982D01*
X8712213Y6093436D01*
X8701300Y6093864D01*
X8688429Y6094475D01*
X8679703Y6096073D01*
X8677137Y6097891D01*
X8673468Y6100036D01*
X8663885Y6101491D01*
X8652973Y6101919D01*
X8640102Y6102530D01*
X8631376Y6104127D01*
X8628809Y6105946D01*
X8625236Y6108468D01*
X8616311Y6109870D01*
X8612700Y6109973D01*
X8602613Y6110866D01*
X8597002Y6113098D01*
X8596591Y6114000D01*
X8592807Y6115965D01*
X8582409Y6117356D01*
X8566825Y6118002D01*
X8562597Y6118028D01*
X8546797Y6118475D01*
X8534257Y6119667D01*
X8527017Y6121378D01*
X8526114Y6122055D01*
X8521382Y6123198D01*
X8508921Y6124163D01*
X8489054Y6124942D01*
X8462104Y6125526D01*
X8428395Y6125906D01*
X8388250Y6126074D01*
X8376579Y6126082D01*
X8337498Y6126042D01*
X8305707Y6125902D01*
X8280442Y6125632D01*
X8260938Y6125201D01*
X8246431Y6124580D01*
X8236157Y6123738D01*
X8229352Y6122645D01*
X8225251Y6121271D01*
X8223493Y6120041D01*
X8222643Y6118499D01*
X8201919Y6118499D01*
X8201919Y6190519D01*
X8264341Y6190519D01*
X8289493Y6190771D01*
X8308697Y6191500D01*
X8321295Y6192663D01*
X8326627Y6194218D01*
X8326764Y6194546D01*
X8330566Y6196475D01*
X8341090Y6197852D01*
X8357014Y6198528D01*
X8363009Y6198573D01*
X8380377Y6198995D01*
X8392765Y6200165D01*
X8398853Y6201934D01*
X8399255Y6202600D01*
X8402923Y6204745D01*
X8412506Y6206200D01*
X8423418Y6206628D01*
X8436289Y6207239D01*
X8445015Y6208836D01*
X8447582Y6210655D01*
X8451221Y6212871D01*
X8460600Y6214333D01*
X8469494Y6214682D01*
X8482107Y6215367D01*
X8491151Y6217129D01*
X8493896Y6218709D01*
X8498927Y6220788D01*
X8509606Y6222242D01*
X8522324Y6222737D01*
X8535909Y6223310D01*
X8545200Y6224828D01*
X8548264Y6226764D01*
X8552066Y6228694D01*
X8562590Y6230070D01*
X8578514Y6230747D01*
X8584509Y6230791D01*
X8601877Y6231214D01*
X8614265Y6232383D01*
X8620353Y6234152D01*
X8620755Y6234819D01*
X8624624Y6236586D01*
X8635618Y6237894D01*
X8652815Y6238666D01*
X8669082Y6238846D01*
X8690296Y6239168D01*
X8705991Y6240084D01*
X8715247Y6241517D01*
X8717409Y6242873D01*
X8720909Y6245701D01*
X8729341Y6246900D01*
X8729491Y6246900D01*
X8737974Y6248067D01*
X8741572Y6250877D01*
X8741573Y6250928D01*
X8745109Y6253608D01*
X8753785Y6254926D01*
X8755431Y6254955D01*
X8765462Y6256022D01*
X8771504Y6258627D01*
X8771777Y6258982D01*
X8777222Y6261884D01*
X8786111Y6263009D01*
X8792667Y6262675D01*
X8796205Y6260406D01*
X8797657Y6254303D01*
X8797952Y6242470D01*
X8797955Y6238846D01*
X8798419Y6224815D01*
X8800063Y6217282D01*
X8803268Y6214730D01*
X8803996Y6214682D01*
X8806059Y6215656D01*
X8807604Y6219228D01*
X8808700Y6226369D01*
X8809307Y6236231D01*
X8878500Y6236231D01*
X8879044Y6212525D01*
X8880678Y6196774D01*
X8883405Y6188949D01*
X8883534Y6188803D01*
X8885762Y6187878D01*
X8887363Y6191330D01*
X8888485Y6200155D01*
X8889277Y6215350D01*
X8889710Y6230099D01*
X8890745Y6254385D01*
X8892467Y6270666D01*
X8894878Y6278964D01*
X8895751Y6279910D01*
X8897858Y6282531D01*
X8894212Y6283085D01*
X8886881Y6281422D01*
X8884870Y6280701D01*
X8881933Y6278237D01*
X8880033Y6272607D01*
X8878970Y6262405D01*
X8878540Y6246221D01*
X8878500Y6236231D01*
X8809307Y6236231D01*
X8809419Y6238052D01*
X8809832Y6255250D01*
X8810012Y6278935D01*
X8810036Y6297004D01*
X8809842Y6326022D01*
X8809280Y6349735D01*
X8808385Y6367423D01*
X8807192Y6378369D01*
X8806009Y6381814D01*
X8803769Y6386927D01*
X8802307Y6397416D01*
X8801982Y6406215D01*
X8802651Y6418271D01*
X8804374Y6426230D01*
X8806009Y6428128D01*
X8808004Y6431896D01*
X8809405Y6442183D01*
X8810023Y6457464D01*
X8810036Y6460346D01*
X8810321Y6476877D01*
X8811353Y6486797D01*
X8813402Y6491538D01*
X8816077Y6492564D01*
X8819876Y6490408D01*
G37*
G36*
X9241914Y7777126D02*
G01*
X9272346Y7776721D01*
X9295725Y7776057D01*
X9311772Y7775145D01*
X9320206Y7773994D01*
X9321500Y7773236D01*
X9325073Y7770714D01*
X9333998Y7769312D01*
X9337609Y7769209D01*
X9347697Y7768316D01*
X9353307Y7766084D01*
X9353718Y7765182D01*
X9357091Y7761910D01*
X9361773Y7761154D01*
X9368317Y7759468D01*
X9369827Y7757127D01*
X9373327Y7754299D01*
X9381759Y7753100D01*
X9381909Y7753100D01*
X9390392Y7751933D01*
X9393990Y7749123D01*
X9393991Y7749073D01*
X9397490Y7746245D01*
X9405922Y7745046D01*
X9406073Y7745045D01*
X9414571Y7744169D01*
X9418185Y7742058D01*
X9418186Y7742025D01*
X9421563Y7738270D01*
X9429516Y7733837D01*
X9438867Y7730231D01*
X9445824Y7728936D01*
X9453455Y7726398D01*
X9458413Y7722908D01*
X9467551Y7717910D01*
X9475846Y7715989D01*
X9483754Y7714318D01*
X9486618Y7711949D01*
X9489998Y7709388D01*
X9494673Y7708800D01*
X9501217Y7707113D01*
X9502727Y7704773D01*
X9506057Y7701375D01*
X9509893Y7700745D01*
X9517679Y7697707D01*
X9522863Y7692691D01*
X9531200Y7686339D01*
X9538382Y7684636D01*
X9548835Y7681780D01*
X9554652Y7677588D01*
X9570588Y7665571D01*
X9589885Y7660650D01*
X9594982Y7660473D01*
X9604885Y7659564D01*
X9613361Y7655910D01*
X9623000Y7648119D01*
X9629268Y7642032D01*
X9638820Y7631647D01*
X9645484Y7622810D01*
X9647709Y7617868D01*
X9649988Y7612716D01*
X9651736Y7612145D01*
X9655372Y7608912D01*
X9655763Y7606485D01*
X9657533Y7599759D01*
X9661916Y7589440D01*
X9667525Y7578287D01*
X9672969Y7569057D01*
X9676861Y7564511D01*
X9676907Y7564489D01*
X9679521Y7559867D01*
X9679927Y7556233D01*
X9681863Y7548039D01*
X9683516Y7545494D01*
X9686648Y7537881D01*
X9689182Y7522552D01*
X9691094Y7499824D01*
X9692363Y7470014D01*
X9692966Y7433441D01*
X9693010Y7412795D01*
X9692643Y7373432D01*
X9691695Y7341817D01*
X9690145Y7317666D01*
X9687972Y7300692D01*
X9685154Y7290609D01*
X9683583Y7288151D01*
X9682051Y7282726D01*
X9680834Y7271147D01*
X9680088Y7255313D01*
X9679927Y7243082D01*
X9679521Y7223746D01*
X9678388Y7209179D01*
X9676656Y7200708D01*
X9675675Y7199211D01*
X9669843Y7199136D01*
X9659312Y7201721D01*
X9650505Y7204821D01*
X9606176Y7218350D01*
X9558436Y7225866D01*
X9509274Y7227334D01*
X9460678Y7222719D01*
X9414635Y7211985D01*
X9406073Y7209159D01*
X9390472Y7203028D01*
X9374400Y7195543D01*
X9359203Y7187500D01*
X9346224Y7179700D01*
X9336810Y7172939D01*
X9332306Y7168016D01*
X9333206Y7165915D01*
X9339720Y7166790D01*
X9347345Y7170571D01*
X9355816Y7174490D01*
X9359661Y7173212D01*
X9357701Y7167603D01*
X9355346Y7164692D01*
X9351027Y7156990D01*
X9354222Y7151267D01*
X9364755Y7147188D01*
X9374754Y7142991D01*
X9386679Y7135665D01*
X9390934Y7132486D01*
X9400836Y7125339D01*
X9407591Y7123011D01*
X9413812Y7124691D01*
X9414665Y7125134D01*
X9423563Y7127566D01*
X9437623Y7129070D01*
X9454001Y7129569D01*
X9469850Y7128989D01*
X9482324Y7127254D01*
X9483502Y7126952D01*
X9489814Y7125456D01*
X9489139Y7127142D01*
X9484841Y7130678D01*
X9476762Y7135552D01*
X9471753Y7136927D01*
X9466912Y7139680D01*
X9466482Y7141475D01*
X9466923Y7142984D01*
X9468907Y7143983D01*
X9473424Y7144441D01*
X9481464Y7144328D01*
X9494018Y7143617D01*
X9512077Y7142276D01*
X9536630Y7140277D01*
X9553068Y7138902D01*
X9562996Y7138332D01*
X9567279Y7138649D01*
X9567177Y7138715D01*
X9580081Y7138715D01*
X9584921Y7138047D01*
X9589313Y7137943D01*
X9597602Y7138267D01*
X9599741Y7139180D01*
X9598422Y7139694D01*
X9588751Y7140444D01*
X9582313Y7139776D01*
X9580081Y7138715D01*
X9567177Y7138715D01*
X9566157Y7139378D01*
X9559708Y7142805D01*
X9560708Y7146292D01*
X9568582Y7149207D01*
X9576225Y7150405D01*
X9577689Y7150875D01*
X9571989Y7151124D01*
X9560012Y7151154D01*
X9542645Y7150963D01*
X9520775Y7150552D01*
X9513802Y7150394D01*
X9486116Y7149822D01*
X9465506Y7149620D01*
X9451001Y7149836D01*
X9441629Y7150516D01*
X9436419Y7151708D01*
X9434397Y7153459D01*
X9434264Y7154253D01*
X9437788Y7158466D01*
X9448667Y7161486D01*
X9455407Y7162425D01*
X9466678Y7163487D01*
X9484329Y7164862D01*
X9506696Y7166448D01*
X9532116Y7168137D01*
X9558925Y7169827D01*
X9585460Y7171413D01*
X9610056Y7172789D01*
X9631051Y7173851D01*
X9646780Y7174495D01*
X9647709Y7174523D01*
X9669859Y7175186D01*
X9671017Y7132950D01*
X9671848Y7115086D01*
X9673179Y7100169D01*
X9674805Y7090075D01*
X9676051Y7086838D01*
X9678813Y7080327D01*
X9679927Y7070477D01*
X9681286Y7060185D01*
X9684409Y7053511D01*
X9686785Y7047013D01*
X9683004Y7041645D01*
X9677676Y7040273D01*
X9674268Y7038186D01*
X9672447Y7030989D01*
X9671874Y7017283D01*
X9671873Y7016109D01*
X9671873Y6991946D01*
X9659791Y6991946D01*
X9650947Y6990680D01*
X9647834Y6985970D01*
X9647709Y6983891D01*
X9646022Y6977347D01*
X9643682Y6975836D01*
X9640662Y6972436D01*
X9639972Y6966775D01*
X9640901Y6961693D01*
X9642322Y6962748D01*
X9647593Y6967139D01*
X9651183Y6967782D01*
X9658692Y6970810D01*
X9663818Y6975836D01*
X9671192Y6982042D01*
X9679461Y6983919D01*
X9685924Y6981442D01*
X9687982Y6976074D01*
X9689863Y6968343D01*
X9692075Y6965728D01*
X9694509Y6961076D01*
X9694023Y6959727D01*
X9694694Y6954810D01*
X9695970Y6953727D01*
X9698189Y6949029D01*
X9699635Y6940153D01*
X9700134Y6930203D01*
X9699517Y6922282D01*
X9697867Y6919455D01*
X9692679Y6922434D01*
X9685717Y6929493D01*
X9679364Y6937811D01*
X9676003Y6944569D01*
X9675900Y6945449D01*
X9672757Y6950905D01*
X9669859Y6951673D01*
X9666830Y6950205D01*
X9664980Y6944864D01*
X9664059Y6934244D01*
X9663818Y6917679D01*
X9664295Y6901188D01*
X9665585Y6888581D01*
X9667475Y6881700D01*
X9668041Y6881075D01*
X9669972Y6876634D01*
X9667845Y6873141D01*
X9665626Y6867475D01*
X9667715Y6865167D01*
X9670361Y6860743D01*
X9666856Y6856657D01*
X9659553Y6855018D01*
X9653803Y6857028D01*
X9651800Y6864366D01*
X9651736Y6867100D01*
X9649935Y6876692D01*
X9645695Y6879182D01*
X9641396Y6875919D01*
X9639618Y6868588D01*
X9640711Y6860878D01*
X9643599Y6857083D01*
X9645020Y6851954D01*
X9642592Y6846251D01*
X9639667Y6839454D01*
X9642034Y6836287D01*
X9642675Y6836034D01*
X9645990Y6831104D01*
X9647648Y6821026D01*
X9647709Y6818437D01*
X9648620Y6808474D01*
X9650890Y6803016D01*
X9651736Y6802664D01*
X9655008Y6799291D01*
X9655763Y6794609D01*
X9657450Y6788065D01*
X9659791Y6786555D01*
X9661608Y6782704D01*
X9662938Y6771837D01*
X9663686Y6754984D01*
X9663818Y6742255D01*
X9664168Y6722266D01*
X9665156Y6707639D01*
X9666688Y6699402D01*
X9667845Y6697955D01*
X9671755Y6694890D01*
X9671873Y6693927D01*
X9668770Y6690063D01*
X9667558Y6689900D01*
X9660272Y6693182D01*
X9653965Y6700650D01*
X9651736Y6707735D01*
X9649648Y6713277D01*
X9647709Y6714064D01*
X9644437Y6717437D01*
X9643682Y6722118D01*
X9641995Y6728663D01*
X9639654Y6730173D01*
X9637357Y6733795D01*
X9635899Y6743056D01*
X9635627Y6750309D01*
X9634903Y6761796D01*
X9633050Y6769087D01*
X9631600Y6770446D01*
X9628366Y6773831D01*
X9627573Y6778788D01*
X9627090Y6784491D01*
X9624317Y6783710D01*
X9620561Y6780118D01*
X9616299Y6774262D01*
X9618547Y6771440D01*
X9621803Y6766406D01*
X9623428Y6754973D01*
X9623545Y6749974D01*
X9624281Y6738597D01*
X9626160Y6731437D01*
X9627573Y6730173D01*
X9630845Y6726800D01*
X9631600Y6722118D01*
X9633286Y6715574D01*
X9635627Y6714064D01*
X9639537Y6710999D01*
X9639654Y6710037D01*
X9636864Y6706443D01*
X9631141Y6706698D01*
X9626460Y6710503D01*
X9626212Y6711043D01*
X9625310Y6709577D01*
X9624542Y6701522D01*
X9624016Y6688346D01*
X9623863Y6678825D01*
X9623583Y6661316D01*
X9622877Y6650349D01*
X9621408Y6644412D01*
X9618834Y6641993D01*
X9615491Y6641573D01*
X9611360Y6640854D01*
X9608942Y6637582D01*
X9607788Y6630080D01*
X9607447Y6616674D01*
X9607436Y6611606D01*
X9606709Y6593318D01*
X9604602Y6582080D01*
X9601231Y6578203D01*
X9596709Y6581998D01*
X9596639Y6582105D01*
X9593989Y6582510D01*
X9591805Y6575159D01*
X9591327Y6571969D01*
X9588617Y6560823D01*
X9585116Y6557255D01*
X9581853Y6561328D01*
X9579992Y6571289D01*
X9578648Y6580446D01*
X9576234Y6582884D01*
X9572945Y6580948D01*
X9569917Y6575018D01*
X9567934Y6564807D01*
X9567091Y6552919D01*
X9567484Y6541960D01*
X9569207Y6534536D01*
X9571191Y6532837D01*
X9573185Y6529069D01*
X9574587Y6518781D01*
X9575205Y6503501D01*
X9575218Y6500618D01*
X9574747Y6484663D01*
X9573461Y6473451D01*
X9571551Y6468508D01*
X9571191Y6468400D01*
X9568332Y6464909D01*
X9567163Y6456654D01*
X9565606Y6447451D01*
X9562129Y6442559D01*
X9559168Y6439914D01*
X9562129Y6437860D01*
X9566665Y6432435D01*
X9565897Y6424901D01*
X9561186Y6417669D01*
X9553894Y6413151D01*
X9548028Y6412886D01*
X9542517Y6417416D01*
X9542113Y6422241D01*
X9542731Y6429154D01*
X9543597Y6442281D01*
X9544602Y6459789D01*
X9545633Y6479844D01*
X9545712Y6481489D01*
X9546639Y6502735D01*
X9546939Y6517210D01*
X9546510Y6526181D01*
X9545248Y6530914D01*
X9543054Y6532675D01*
X9541565Y6532837D01*
X9538515Y6531829D01*
X9536560Y6527877D01*
X9535468Y6519583D01*
X9535011Y6505551D01*
X9534945Y6492564D01*
X9534562Y6473855D01*
X9533491Y6460329D01*
X9531847Y6453146D01*
X9530918Y6452291D01*
X9528396Y6448718D01*
X9526993Y6439793D01*
X9526891Y6436182D01*
X9525998Y6426095D01*
X9523766Y6420484D01*
X9522863Y6420073D01*
X9520036Y6416573D01*
X9518837Y6408141D01*
X9518836Y6407991D01*
X9517670Y6399508D01*
X9514859Y6395910D01*
X9514809Y6395909D01*
X9512168Y6399455D01*
X9510825Y6408194D01*
X9510782Y6410292D01*
X9508873Y6422089D01*
X9504101Y6431587D01*
X9497898Y6436100D01*
X9496974Y6436182D01*
X9496147Y6432395D01*
X9495452Y6421995D01*
X9494947Y6406422D01*
X9494692Y6387118D01*
X9494673Y6379800D01*
X9494564Y6357189D01*
X9494149Y6341449D01*
X9493297Y6331400D01*
X9491873Y6325859D01*
X9489745Y6323646D01*
X9488344Y6323418D01*
X9479246Y6326826D01*
X9472284Y6334774D01*
X9470509Y6341254D01*
X9468421Y6346795D01*
X9466482Y6347582D01*
X9463960Y6351155D01*
X9462557Y6360080D01*
X9462454Y6363691D01*
X9461779Y6374230D01*
X9459049Y6378888D01*
X9454400Y6379800D01*
X9448849Y6378224D01*
X9446609Y6372068D01*
X9446345Y6365705D01*
X9447357Y6356388D01*
X9449844Y6351731D01*
X9450373Y6351609D01*
X9453400Y6348163D01*
X9454400Y6341541D01*
X9452542Y6333677D01*
X9446169Y6331473D01*
X9439737Y6329126D01*
X9439121Y6324843D01*
X9437626Y6318225D01*
X9435270Y6316453D01*
X9431784Y6318207D01*
X9430314Y6327055D01*
X9430236Y6331137D01*
X9429279Y6342464D01*
X9426091Y6347225D01*
X9424195Y6347582D01*
X9419632Y6344374D01*
X9418155Y6334294D01*
X9418154Y6334111D01*
X9415208Y6320443D01*
X9410100Y6313350D01*
X9404035Y6303968D01*
X9402050Y6289494D01*
X9402045Y6288562D01*
X9401199Y6276845D01*
X9398340Y6271649D01*
X9396004Y6271064D01*
X9392361Y6273053D01*
X9390486Y6280030D01*
X9389964Y6293214D01*
X9389421Y6306572D01*
X9387518Y6313449D01*
X9383923Y6315364D01*
X9380902Y6313902D01*
X9379054Y6308583D01*
X9378130Y6298001D01*
X9377882Y6281132D01*
X9378032Y6264488D01*
X9378728Y6254321D01*
X9380342Y6249057D01*
X9383245Y6247120D01*
X9385936Y6246900D01*
X9390767Y6245840D01*
X9393177Y6241340D01*
X9393956Y6231421D01*
X9393991Y6226764D01*
X9393991Y6206628D01*
X9377882Y6206628D01*
X9367794Y6205734D01*
X9362183Y6203503D01*
X9361773Y6202600D01*
X9358511Y6199027D01*
X9355732Y6198573D01*
X9350372Y6200748D01*
X9349691Y6202600D01*
X9346318Y6205872D01*
X9341636Y6206628D01*
X9337733Y6207260D01*
X9335343Y6210203D01*
X9334100Y6217025D01*
X9333637Y6229294D01*
X9333582Y6241147D01*
X9333103Y6260409D01*
X9331533Y6273024D01*
X9328668Y6280352D01*
X9327541Y6281707D01*
X9322851Y6284794D01*
X9321500Y6283433D01*
X9318130Y6279929D01*
X9313445Y6279118D01*
X9307550Y6277220D01*
X9305474Y6270155D01*
X9305391Y6267037D01*
X9304224Y6258554D01*
X9301414Y6254956D01*
X9301364Y6254955D01*
X9298536Y6251455D01*
X9297337Y6243023D01*
X9297336Y6242873D01*
X9296170Y6234390D01*
X9293359Y6230792D01*
X9293309Y6230791D01*
X9290037Y6227418D01*
X9289282Y6222737D01*
X9287595Y6216193D01*
X9285254Y6214682D01*
X9282427Y6211183D01*
X9281228Y6202751D01*
X9281227Y6202600D01*
X9280061Y6194117D01*
X9277250Y6190519D01*
X9277200Y6190519D01*
X9273290Y6193583D01*
X9273173Y6194546D01*
X9269800Y6197818D01*
X9265118Y6198573D01*
X9258574Y6196887D01*
X9257064Y6194546D01*
X9253999Y6190636D01*
X9253036Y6190519D01*
X9250396Y6194064D01*
X9249052Y6202803D01*
X9249009Y6204902D01*
X9247100Y6216699D01*
X9242329Y6226196D01*
X9236125Y6230710D01*
X9235201Y6230791D01*
X9233760Y6227215D01*
X9232958Y6218282D01*
X9232900Y6214682D01*
X9232007Y6204595D01*
X9229775Y6198984D01*
X9228873Y6198573D01*
X9226575Y6202195D01*
X9225117Y6211456D01*
X9224845Y6218709D01*
X9224121Y6230196D01*
X9222269Y6237487D01*
X9220818Y6238846D01*
X9218714Y6242544D01*
X9217273Y6252342D01*
X9216791Y6265023D01*
X9216540Y6279190D01*
X9215422Y6287088D01*
X9212889Y6290498D01*
X9208736Y6291200D01*
X9204377Y6290384D01*
X9201947Y6286750D01*
X9200898Y6278518D01*
X9200682Y6265023D01*
X9201251Y6251344D01*
X9202758Y6241978D01*
X9204709Y6238846D01*
X9207124Y6235249D01*
X9208562Y6226162D01*
X9208736Y6220961D01*
X9209570Y6209579D01*
X9211671Y6201935D01*
X9212764Y6200587D01*
X9216727Y6195487D01*
X9213751Y6191429D01*
X9208736Y6190519D01*
X9202192Y6192205D01*
X9200682Y6194546D01*
X9197309Y6197818D01*
X9192627Y6198573D01*
X9188800Y6199179D01*
X9186423Y6202018D01*
X9185153Y6208623D01*
X9184651Y6220527D01*
X9184573Y6234819D01*
X9184323Y6252600D01*
X9183429Y6263675D01*
X9181675Y6269383D01*
X9178844Y6271062D01*
X9178701Y6271064D01*
X9175523Y6269167D01*
X9173436Y6262596D01*
X9172142Y6250034D01*
X9171653Y6239896D01*
X9170773Y6223808D01*
X9169341Y6214118D01*
X9166928Y6209174D01*
X9163191Y6207337D01*
X9155337Y6209105D01*
X9148623Y6214341D01*
X9140942Y6220628D01*
X9134766Y6222737D01*
X9129717Y6225646D01*
X9128191Y6234819D01*
X9129357Y6243302D01*
X9132168Y6246899D01*
X9132218Y6246900D01*
X9134522Y6250521D01*
X9135979Y6259773D01*
X9136245Y6266910D01*
X9135790Y6278852D01*
X9134077Y6284290D01*
X9130589Y6284741D01*
X9130205Y6284602D01*
X9125790Y6278969D01*
X9124177Y6266250D01*
X9124164Y6264592D01*
X9123345Y6253935D01*
X9121281Y6247632D01*
X9120136Y6246900D01*
X9116864Y6243527D01*
X9116109Y6238846D01*
X9113959Y6232310D01*
X9110957Y6230791D01*
X9104823Y6233765D01*
X9100000Y6238846D01*
X9092763Y6245136D01*
X9087029Y6246900D01*
X9080984Y6248772D01*
X9079864Y6250928D01*
X9076491Y6254200D01*
X9071809Y6254955D01*
X9066540Y6256306D01*
X9064211Y6261766D01*
X9063755Y6271064D01*
X9064648Y6281151D01*
X9066879Y6286762D01*
X9067782Y6287173D01*
X9070304Y6290746D01*
X9071706Y6299671D01*
X9071809Y6303282D01*
X9072702Y6313370D01*
X9074934Y6318980D01*
X9075836Y6319391D01*
X9078864Y6322838D01*
X9079864Y6329459D01*
X9077763Y6337557D01*
X9073823Y6339528D01*
X9069027Y6335925D01*
X9067782Y6327446D01*
X9066615Y6318963D01*
X9063805Y6315365D01*
X9063755Y6315364D01*
X9060852Y6311884D01*
X9059727Y6304085D01*
X9057531Y6288899D01*
X9051669Y6277434D01*
X9043227Y6271518D01*
X9040105Y6271095D01*
X9033659Y6271899D01*
X9034086Y6275221D01*
X9035266Y6276746D01*
X9037701Y6282738D01*
X9035759Y6285039D01*
X9033644Y6290103D01*
X9032129Y6300901D01*
X9031537Y6315115D01*
X9031536Y6315412D01*
X9030907Y6331066D01*
X9029262Y6344695D01*
X9027139Y6352828D01*
X9024716Y6365900D01*
X9026161Y6385914D01*
X9026208Y6386242D01*
X9027527Y6404728D01*
X9025693Y6418547D01*
X9020971Y6426565D01*
X9016486Y6428128D01*
X9013322Y6424896D01*
X9011696Y6414778D01*
X9011400Y6403964D01*
X9010789Y6391093D01*
X9009192Y6382367D01*
X9007373Y6379800D01*
X9004851Y6376227D01*
X9003448Y6367302D01*
X9003345Y6363691D01*
X9002452Y6353604D01*
X9000221Y6347993D01*
X8999318Y6347582D01*
X8996046Y6344209D01*
X8995291Y6339528D01*
X8993604Y6332983D01*
X8991264Y6331473D01*
X8987992Y6328100D01*
X8987236Y6323418D01*
X8986061Y6316498D01*
X8981996Y6316709D01*
X8976881Y6321117D01*
X8973167Y6328899D01*
X8971239Y6341336D01*
X8971127Y6345281D01*
X8970356Y6357968D01*
X8967820Y6363016D01*
X8963182Y6360712D01*
X8959046Y6355637D01*
X8953456Y6349453D01*
X8950102Y6347582D01*
X8949072Y6351391D01*
X8948184Y6361947D01*
X8947498Y6377942D01*
X8947074Y6398067D01*
X8946964Y6416046D01*
X8946836Y6438513D01*
X8946481Y6457883D01*
X8945943Y6472847D01*
X8945267Y6482099D01*
X8944662Y6484509D01*
X8940268Y6482010D01*
X8936608Y6478756D01*
X8934031Y6474053D01*
X8932297Y6465235D01*
X8931286Y6451117D01*
X8930878Y6430519D01*
X8930855Y6422374D01*
X8930727Y6401108D01*
X8930241Y6386655D01*
X8929242Y6377774D01*
X8927574Y6373227D01*
X8925084Y6371774D01*
X8924526Y6371746D01*
X8916507Y6374423D01*
X8912444Y6377499D01*
X8908688Y6384969D01*
X8906907Y6395719D01*
X8907263Y6406326D01*
X8909917Y6413365D01*
X8910718Y6414032D01*
X8913442Y6419387D01*
X8914730Y6429147D01*
X8914746Y6430379D01*
X8915773Y6439601D01*
X8918295Y6444139D01*
X8918773Y6444237D01*
X8922321Y6447381D01*
X8922815Y6454855D01*
X8920674Y6463721D01*
X8916318Y6471044D01*
X8914746Y6472428D01*
X8909947Y6477599D01*
X8907479Y6485765D01*
X8906701Y6499257D01*
X8906691Y6501795D01*
X8906473Y6514687D01*
X8905518Y6520844D01*
X8903371Y6521583D01*
X8900650Y6519316D01*
X8896406Y6510175D01*
X8894648Y6494173D01*
X8894609Y6490838D01*
X8893955Y6478618D01*
X8892266Y6470469D01*
X8890582Y6468400D01*
X8888437Y6464732D01*
X8886982Y6455149D01*
X8886555Y6444237D01*
X8886270Y6430758D01*
X8884996Y6423476D01*
X8882100Y6420538D01*
X8878317Y6420073D01*
X8869917Y6422804D01*
X8860735Y6429429D01*
X8860194Y6429958D01*
X8853338Y6438810D01*
X8850382Y6446726D01*
X8851874Y6451624D01*
X8854336Y6452291D01*
X8856402Y6456016D01*
X8857830Y6466000D01*
X8858364Y6480455D01*
X8858364Y6480482D01*
X8858896Y6494943D01*
X8860322Y6504936D01*
X8862387Y6508673D01*
X8862391Y6508673D01*
X8864429Y6512416D01*
X8865846Y6522525D01*
X8866416Y6537323D01*
X8866418Y6538408D01*
X8866320Y6544808D01*
X9021537Y6544808D01*
X9027421Y6539431D01*
X9039003Y6531868D01*
X9054550Y6523043D01*
X9072329Y6513878D01*
X9090608Y6505295D01*
X9107653Y6498218D01*
X9112111Y6496581D01*
X9127308Y6491042D01*
X9139441Y6486312D01*
X9146615Y6483143D01*
X9147675Y6482477D01*
X9152316Y6481747D01*
X9163571Y6481281D01*
X9180004Y6481103D01*
X9200178Y6481235D01*
X9212612Y6481453D01*
X9236974Y6482069D01*
X9255188Y6482902D01*
X9269162Y6484231D01*
X9280802Y6486334D01*
X9292015Y6489492D01*
X9304709Y6493985D01*
X9308888Y6495557D01*
X9325105Y6502293D01*
X9343054Y6510693D01*
X9361042Y6519848D01*
X9377375Y6528849D01*
X9390362Y6536786D01*
X9398310Y6542751D01*
X9399661Y6544318D01*
X9397268Y6544026D01*
X9389177Y6540577D01*
X9376799Y6534605D01*
X9367249Y6529737D01*
X9347273Y6519948D01*
X9325149Y6510008D01*
X9304974Y6501736D01*
X9300854Y6500194D01*
X9287560Y6495545D01*
X9276201Y6492325D01*
X9264770Y6490275D01*
X9251254Y6489133D01*
X9233645Y6488640D01*
X9210750Y6488537D01*
X9187296Y6488645D01*
X9169876Y6489146D01*
X9156470Y6490305D01*
X9145059Y6492387D01*
X9133622Y6495656D01*
X9120141Y6500378D01*
X9119964Y6500442D01*
X9100469Y6508238D01*
X9078184Y6518174D01*
X9057297Y6528365D01*
X9053267Y6530475D01*
X9039050Y6537796D01*
X9028243Y6542895D01*
X9022232Y6545145D01*
X9021537Y6544808D01*
X8866320Y6544808D01*
X8866180Y6553890D01*
X8865395Y6560997D01*
X9003609Y6560997D01*
X9004609Y6558911D01*
X9006859Y6555993D01*
X9012737Y6549732D01*
X9015361Y6549760D01*
X9015427Y6550466D01*
X9014539Y6551551D01*
X9073072Y6551551D01*
X9075380Y6549103D01*
X9083945Y6544682D01*
X9097363Y6538809D01*
X9114232Y6532006D01*
X9133151Y6524793D01*
X9152716Y6517691D01*
X9171526Y6511223D01*
X9188178Y6505909D01*
X9201270Y6502271D01*
X9209398Y6500830D01*
X9209535Y6500826D01*
X9218333Y6501920D01*
X9232200Y6505014D01*
X9248580Y6509513D01*
X9253835Y6511120D01*
X9269431Y6516192D01*
X9282177Y6520657D01*
X9290028Y6523786D01*
X9291295Y6524468D01*
X9296806Y6527329D01*
X9307556Y6532205D01*
X9321316Y6538089D01*
X9322660Y6538647D01*
X9335623Y6544288D01*
X9344815Y6548802D01*
X9348515Y6551332D01*
X9348483Y6551496D01*
X9343979Y6551301D01*
X9334274Y6548888D01*
X9321701Y6544896D01*
X9313445Y6541891D01*
X9306963Y6539602D01*
X9305391Y6539164D01*
X9300504Y6536937D01*
X9299350Y6536251D01*
X9292921Y6533472D01*
X9280957Y6529250D01*
X9265539Y6524225D01*
X9248752Y6519034D01*
X9232678Y6514318D01*
X9219402Y6510715D01*
X9211005Y6508864D01*
X9209695Y6508746D01*
X9203122Y6510052D01*
X9190911Y6513521D01*
X9174998Y6518576D01*
X9162423Y6522843D01*
X9145153Y6528821D01*
X9130342Y6533881D01*
X9119881Y6537381D01*
X9116109Y6538573D01*
X9108796Y6540922D01*
X9097446Y6544843D01*
X9092324Y6546669D01*
X9081575Y6550143D01*
X9074748Y6551636D01*
X9406859Y6551636D01*
X9406886Y6549012D01*
X9407593Y6548946D01*
X9410955Y6551698D01*
X9414641Y6555993D01*
X9418124Y6560764D01*
X9416038Y6559764D01*
X9413120Y6557514D01*
X9406859Y6551636D01*
X9074748Y6551636D01*
X9074460Y6551699D01*
X9073072Y6551551D01*
X9014539Y6551551D01*
X9012675Y6553828D01*
X9011325Y6554987D01*
X9063755Y6554987D01*
X9065768Y6552973D01*
X9067782Y6554987D01*
X9353718Y6554987D01*
X9355732Y6552973D01*
X9357745Y6554987D01*
X9355732Y6557000D01*
X9353718Y6554987D01*
X9067782Y6554987D01*
X9065768Y6557000D01*
X9063755Y6554987D01*
X9011325Y6554987D01*
X9008380Y6557514D01*
X9006325Y6559014D01*
X9055700Y6559014D01*
X9057714Y6557000D01*
X9059727Y6559014D01*
X9361773Y6559014D01*
X9363786Y6557000D01*
X9365800Y6559014D01*
X9363786Y6561027D01*
X9361773Y6559014D01*
X9059727Y6559014D01*
X9057714Y6561027D01*
X9055700Y6559014D01*
X9006325Y6559014D01*
X9003609Y6560997D01*
X8865395Y6560997D01*
X8865160Y6563128D01*
X8862902Y6567925D01*
X8858951Y6570087D01*
X8858364Y6570249D01*
X8852205Y6574585D01*
X8851319Y6579150D01*
X9441673Y6579150D01*
X9455084Y6593842D01*
X9464806Y6604646D01*
X9477022Y6618431D01*
X9488198Y6631192D01*
X9497391Y6642314D01*
X9503691Y6651012D01*
X9505934Y6655654D01*
X9505828Y6655923D01*
X9502224Y6654322D01*
X9495005Y6647662D01*
X9485397Y6637321D01*
X9474627Y6624679D01*
X9463919Y6611112D01*
X9455084Y6598863D01*
X9441673Y6579150D01*
X8851319Y6579150D01*
X8850311Y6584345D01*
X8850309Y6584814D01*
X8851443Y6593459D01*
X8854187Y6597264D01*
X8854336Y6597273D01*
X8857364Y6600719D01*
X8858364Y6607341D01*
X8856263Y6615439D01*
X8852323Y6617409D01*
X8847456Y6613921D01*
X8846282Y6607579D01*
X8844797Y6599051D01*
X8842255Y6595259D01*
X8840004Y6590141D01*
X8838542Y6579666D01*
X8838227Y6571096D01*
X8837535Y6558553D01*
X8835756Y6549587D01*
X8834200Y6546932D01*
X8831753Y6541716D01*
X8830324Y6531505D01*
X8830173Y6526558D01*
X8829362Y6514699D01*
X8826611Y6509351D01*
X8824132Y6508673D01*
X8819336Y6512275D01*
X8818091Y6520755D01*
X8816924Y6529238D01*
X8814114Y6532836D01*
X8814064Y6532837D01*
X8811542Y6536409D01*
X8810139Y6545335D01*
X8810036Y6548946D01*
X8810930Y6559033D01*
X8813161Y6564644D01*
X8814064Y6565055D01*
X8816788Y6568580D01*
X8818076Y6577183D01*
X8818091Y6578345D01*
X8819282Y6588785D01*
X8822160Y6595697D01*
X8822289Y6595833D01*
X8823695Y6601163D01*
X8820275Y6605186D01*
X8815420Y6608131D01*
X8814079Y6604602D01*
X8814064Y6603519D01*
X8811722Y6595397D01*
X8806293Y6589123D01*
X8800174Y6586892D01*
X8797345Y6588217D01*
X8795609Y6593121D01*
X8797604Y6595042D01*
X8800589Y6600569D01*
X8801971Y6610382D01*
X8801982Y6611368D01*
X8803067Y6621315D01*
X8805709Y6627255D01*
X8806009Y6627477D01*
X8808992Y6632971D01*
X8809975Y6640804D01*
X8809239Y6647613D01*
X8806953Y6646910D01*
X8806398Y6646091D01*
X8801119Y6642673D01*
X8798405Y6643308D01*
X8794854Y6649340D01*
X8794589Y6652656D01*
X8917706Y6652656D01*
X8917944Y6652143D01*
X8921672Y6646664D01*
X8929060Y6637192D01*
X8938823Y6625241D01*
X8949676Y6612326D01*
X8960333Y6599962D01*
X8969509Y6589663D01*
X8975919Y6582944D01*
X8978170Y6581164D01*
X8976884Y6584117D01*
X8972000Y6591767D01*
X8966343Y6599946D01*
X8958602Y6610162D01*
X8949291Y6621460D01*
X8939511Y6632655D01*
X8930362Y6642558D01*
X8922944Y6649984D01*
X8918359Y6653746D01*
X8917706Y6652656D01*
X8794589Y6652656D01*
X8794131Y6658398D01*
X8796317Y6666086D01*
X8797955Y6667750D01*
X8800402Y6672967D01*
X8801830Y6683178D01*
X8801982Y6688124D01*
X8802792Y6698849D01*
X8804838Y6705233D01*
X8806009Y6706009D01*
X8808307Y6709631D01*
X8808654Y6711836D01*
X9039890Y6711836D01*
X9040207Y6711308D01*
X9045372Y6707477D01*
X9055305Y6701564D01*
X9067496Y6694907D01*
X9079440Y6688846D01*
X9088627Y6684716D01*
X9091945Y6683701D01*
X9096690Y6682706D01*
X9106629Y6680373D01*
X9114095Y6678560D01*
X9166181Y6669611D01*
X9220487Y6667477D01*
X9274890Y6672189D01*
X9295323Y6675817D01*
X9324757Y6683407D01*
X9350788Y6693199D01*
X9371484Y6704414D01*
X9377882Y6709162D01*
X9380579Y6712228D01*
X9376481Y6711340D01*
X9365509Y6706476D01*
X9359759Y6703696D01*
X9330189Y6690758D01*
X9301273Y6681691D01*
X9270698Y6676016D01*
X9236154Y6673253D01*
X9210750Y6672792D01*
X9172067Y6673966D01*
X9138888Y6677796D01*
X9108965Y6684742D01*
X9080052Y6695266D01*
X9062948Y6703149D01*
X9050775Y6708779D01*
X9042623Y6711842D01*
X9039890Y6711836D01*
X8808654Y6711836D01*
X8809765Y6718892D01*
X8810036Y6726146D01*
X8810761Y6737632D01*
X8812613Y6744923D01*
X8814064Y6746282D01*
X8816586Y6749855D01*
X8817988Y6758780D01*
X8818091Y6762391D01*
X8818984Y6772479D01*
X8821216Y6778089D01*
X8822118Y6778500D01*
X8825390Y6781873D01*
X8826146Y6786555D01*
X8823627Y6793114D01*
X8820105Y6794609D01*
X8815185Y6791252D01*
X8814064Y6786555D01*
X8811546Y6779995D01*
X8808023Y6778500D01*
X8803227Y6782102D01*
X8801982Y6790582D01*
X8803148Y6799065D01*
X8805959Y6802663D01*
X8806009Y6802664D01*
X8809037Y6806110D01*
X8810036Y6812732D01*
X8807936Y6820830D01*
X8803996Y6822800D01*
X8799111Y6819344D01*
X8797955Y6813499D01*
X8794481Y6804141D01*
X8784753Y6792875D01*
X8781937Y6790342D01*
X8772786Y6781174D01*
X8766944Y6772918D01*
X8765828Y6769439D01*
X8763782Y6763162D01*
X8758364Y6763970D01*
X8754460Y6767224D01*
X8750775Y6769302D01*
X8749640Y6764393D01*
X8749627Y6763196D01*
X8748079Y6756227D01*
X8745600Y6754337D01*
X8743078Y6757909D01*
X8741676Y6766835D01*
X8741573Y6770446D01*
X8742466Y6780533D01*
X8744697Y6786144D01*
X8745600Y6786555D01*
X8748428Y6790054D01*
X8749627Y6798486D01*
X8749627Y6798636D01*
X8750794Y6807120D01*
X8753605Y6810717D01*
X8753655Y6810718D01*
X8756927Y6814091D01*
X8757682Y6818773D01*
X8759183Y6825320D01*
X8761261Y6826827D01*
X8764222Y6830360D01*
X8767086Y6839121D01*
X8767660Y6841858D01*
X8771459Y6855892D01*
X8777039Y6870417D01*
X8777811Y6872063D01*
X8785142Y6887236D01*
X8771412Y6887236D01*
X8761851Y6886282D01*
X8758071Y6882584D01*
X8757682Y6879182D01*
X8755995Y6872638D01*
X8753655Y6871127D01*
X8750383Y6867754D01*
X8749627Y6863073D01*
X8747941Y6856529D01*
X8745600Y6855018D01*
X8743496Y6858717D01*
X8742055Y6868515D01*
X8741573Y6881196D01*
X8742142Y6894875D01*
X8743649Y6904240D01*
X8745600Y6907373D01*
X8749173Y6910635D01*
X8749627Y6913414D01*
X8747453Y6918773D01*
X8745600Y6919455D01*
X8742938Y6922995D01*
X8741608Y6931700D01*
X8741573Y6933550D01*
X8878405Y6933550D01*
X8883843Y6947646D01*
X8888540Y6956255D01*
X8894011Y6961963D01*
X8898605Y6963835D01*
X8900671Y6960931D01*
X8900113Y6956884D01*
X8900191Y6947687D01*
X8902516Y6939534D01*
X8905235Y6933737D01*
X8905927Y6934600D01*
X8904942Y6942744D01*
X8904817Y6943618D01*
X8903984Y6957232D01*
X8906883Y6964373D01*
X8914303Y6965490D01*
X8927031Y6961033D01*
X8931581Y6958882D01*
X8946228Y6952411D01*
X8964811Y6945149D01*
X8983540Y6938571D01*
X8985223Y6938024D01*
X9056419Y6918244D01*
X9125077Y6905697D01*
X9192017Y6900297D01*
X9258059Y6901956D01*
X9291083Y6905416D01*
X9342139Y6913543D01*
X9390246Y6924020D01*
X9433934Y6936461D01*
X9471735Y6950475D01*
X9485827Y6956895D01*
X9501583Y6963693D01*
X9511587Y6965458D01*
X9516615Y6961878D01*
X9517440Y6952642D01*
X9516308Y6944625D01*
X9515692Y6935511D01*
X9517642Y6931558D01*
X9517885Y6931536D01*
X9521291Y6934999D01*
X9524059Y6943131D01*
X9525442Y6952548D01*
X9524695Y6959866D01*
X9524299Y6960663D01*
X9524795Y6963363D01*
X9527060Y6963027D01*
X9531788Y6958316D01*
X9536445Y6949074D01*
X9537032Y6947430D01*
X9541686Y6933605D01*
X9543829Y6944816D01*
X9543648Y6956989D01*
X9540240Y6972207D01*
X9534701Y6986718D01*
X9528890Y6995973D01*
X9525049Y7003776D01*
X9522440Y7015410D01*
X9522154Y7018123D01*
X9520850Y7034232D01*
X9500713Y7033566D01*
X9486508Y7032866D01*
X9468110Y7031651D01*
X9449346Y7030177D01*
X9448176Y7030076D01*
X9431822Y7028822D01*
X9420740Y7028878D01*
X9412187Y7030759D01*
X9403418Y7034985D01*
X9394825Y7040142D01*
X9381519Y7047481D01*
X9372344Y7050914D01*
X9368069Y7050465D01*
X9369467Y7046158D01*
X9375610Y7039557D01*
X9395508Y7026591D01*
X9420940Y7019466D01*
X9451910Y7018179D01*
X9488424Y7022732D01*
X9498786Y7024864D01*
X9503139Y7023205D01*
X9505545Y7015060D01*
X9506016Y7010642D01*
X9506071Y7001205D01*
X9503495Y6993689D01*
X9496956Y6985464D01*
X9489537Y6978095D01*
X9470577Y6963953D01*
X9444752Y6950736D01*
X9413225Y6938740D01*
X9377162Y6928261D01*
X9337727Y6919596D01*
X9296083Y6913041D01*
X9253396Y6908892D01*
X9211895Y6907447D01*
X9170967Y6908791D01*
X9129475Y6912762D01*
X9088611Y6919058D01*
X9049568Y6927380D01*
X9013540Y6937428D01*
X8981719Y6948900D01*
X8955299Y6961496D01*
X8935473Y6974917D01*
X8932206Y6977862D01*
X8922121Y6988136D01*
X8916904Y6995851D01*
X8915234Y7003599D01*
X8915483Y7010642D01*
X8917357Y7021231D01*
X8920989Y7024960D01*
X8922714Y7024864D01*
X8959039Y7018747D01*
X8989688Y7017806D01*
X9015214Y7022111D01*
X9036172Y7031731D01*
X9047311Y7040582D01*
X9053352Y7047697D01*
X9053149Y7050989D01*
X9047540Y7050477D01*
X9037359Y7046179D01*
X9026665Y7040136D01*
X9018613Y7035333D01*
X9011481Y7031910D01*
X9003913Y7029792D01*
X8994549Y7028905D01*
X8982032Y7029178D01*
X8965004Y7030536D01*
X8942108Y7032905D01*
X8925821Y7034691D01*
X8902664Y7037243D01*
X8902664Y7022562D01*
X8899607Y7006835D01*
X8892481Y6992495D01*
X8883522Y6972492D01*
X8880352Y6955329D01*
X8878405Y6933550D01*
X8741573Y6933550D01*
X8742332Y6942880D01*
X8744200Y6947553D01*
X8744593Y6947677D01*
X8748445Y6951094D01*
X8752854Y6959203D01*
X8756401Y6968888D01*
X8757682Y6976402D01*
X8759733Y6983774D01*
X8761709Y6985905D01*
X8765579Y6990824D01*
X8765736Y6991888D01*
X8762356Y6996049D01*
X8754143Y7001059D01*
X8743995Y7005493D01*
X8734805Y7007926D01*
X8732900Y7008055D01*
X8728406Y7009327D01*
X8726167Y7014421D01*
X8725478Y7025250D01*
X8725464Y7028191D01*
X8726188Y7039678D01*
X8728040Y7046968D01*
X8729491Y7048327D01*
X8731079Y7052250D01*
X8732300Y7063614D01*
X8733118Y7081813D01*
X8733496Y7106239D01*
X8733518Y7114777D01*
X8733734Y7138117D01*
X8733747Y7138536D01*
X8825899Y7138536D01*
X8831468Y7137901D01*
X8834200Y7137862D01*
X8841527Y7138281D01*
X8842390Y7139327D01*
X8841248Y7139703D01*
X8831034Y7140330D01*
X8827152Y7139703D01*
X8825899Y7138536D01*
X8733747Y7138536D01*
X8734338Y7157506D01*
X8735267Y7171801D01*
X8736455Y7179860D01*
X8737254Y7181227D01*
X8742839Y7180728D01*
X8754093Y7179410D01*
X8768706Y7177547D01*
X8770479Y7177313D01*
X8784501Y7175760D01*
X8804510Y7173957D01*
X8828449Y7172068D01*
X8854261Y7170260D01*
X8872459Y7169124D01*
X8906292Y7167065D01*
X8932904Y7165263D01*
X8953122Y7163612D01*
X8967773Y7162004D01*
X8977682Y7160332D01*
X8983675Y7158490D01*
X8986580Y7156370D01*
X8987236Y7154253D01*
X8986147Y7152286D01*
X8982232Y7150897D01*
X8974517Y7150039D01*
X8962032Y7149667D01*
X8943805Y7149734D01*
X8918862Y7150193D01*
X8907698Y7150454D01*
X8884477Y7150948D01*
X8865291Y7151219D01*
X8851083Y7151267D01*
X8842793Y7151089D01*
X8841363Y7150686D01*
X8842255Y7150541D01*
X8857036Y7148029D01*
X8863880Y7145356D01*
X8862905Y7142447D01*
X8858364Y7140473D01*
X8854580Y7138668D01*
X8858110Y7138165D01*
X8868432Y7138833D01*
X8897099Y7141298D01*
X8918717Y7143028D01*
X8934256Y7144053D01*
X8944686Y7144402D01*
X8950975Y7144105D01*
X8954093Y7143191D01*
X8955010Y7141690D01*
X8955018Y7141475D01*
X8951827Y7137299D01*
X8949747Y7136927D01*
X8942696Y7134577D01*
X8936658Y7130678D01*
X8931417Y7126203D01*
X8932903Y7125634D01*
X8937998Y7126952D01*
X8950582Y7128995D01*
X8966508Y7129682D01*
X8983043Y7129121D01*
X8997452Y7127420D01*
X9006999Y7124687D01*
X9007837Y7124199D01*
X9013670Y7121315D01*
X9019035Y7122428D01*
X9026536Y7128366D01*
X9029453Y7131082D01*
X9041018Y7139953D01*
X9053350Y7146524D01*
X9056231Y7147535D01*
X9065824Y7151867D01*
X9068861Y7158453D01*
X9066144Y7169276D01*
X9065592Y7170653D01*
X9063959Y7175535D01*
X9066031Y7175651D01*
X9073070Y7171282D01*
X9081850Y7166848D01*
X9088179Y7165876D01*
X9088198Y7165883D01*
X9088238Y7168672D01*
X9082565Y7174151D01*
X9072657Y7181378D01*
X9059991Y7189411D01*
X9046042Y7197305D01*
X9032288Y7204120D01*
X9021468Y7208491D01*
X8979044Y7219626D01*
X8933200Y7225669D01*
X8886031Y7226649D01*
X8839633Y7222599D01*
X8796100Y7213549D01*
X8769764Y7204776D01*
X8756390Y7198964D01*
X8745321Y7193210D01*
X8740566Y7190025D01*
X8736293Y7187033D01*
X8734221Y7188615D01*
X8733563Y7196163D01*
X8733518Y7202515D01*
X8734325Y7214095D01*
X8736365Y7221967D01*
X8737546Y7223514D01*
X8739493Y7228480D01*
X8740923Y7239297D01*
X8741562Y7253766D01*
X8741573Y7255969D01*
X8742076Y7271100D01*
X8743437Y7281636D01*
X8745432Y7285914D01*
X8745600Y7285936D01*
X8747368Y7289806D01*
X8748676Y7300799D01*
X8749447Y7317996D01*
X8749627Y7334264D01*
X8749950Y7355477D01*
X8750866Y7371173D01*
X8751563Y7375677D01*
X8919181Y7375677D01*
X8923217Y7376522D01*
X8923981Y7376809D01*
X8928912Y7379999D01*
X8928940Y7381427D01*
X9365862Y7381427D01*
X9367259Y7378991D01*
X9368882Y7380659D01*
X9369254Y7380957D01*
X9491840Y7380957D01*
X9494673Y7378564D01*
X9501099Y7374941D01*
X9501955Y7376306D01*
X9500713Y7378564D01*
X9494832Y7382393D01*
X9493428Y7382529D01*
X9491840Y7380957D01*
X9369254Y7380957D01*
X9374478Y7385141D01*
X9383105Y7389721D01*
X9396643Y7393125D01*
X9415089Y7394458D01*
X9435575Y7393755D01*
X9455236Y7391053D01*
X9464835Y7388675D01*
X9476454Y7385274D01*
X9484537Y7383138D01*
X9486618Y7382757D01*
X9486885Y7384049D01*
X9481294Y7387113D01*
X9471630Y7391179D01*
X9459677Y7395476D01*
X9450721Y7398262D01*
X9435304Y7402146D01*
X9421521Y7403961D01*
X9405671Y7404041D01*
X9393743Y7403402D01*
X9383753Y7400329D01*
X9373984Y7393794D01*
X9367260Y7386023D01*
X9365862Y7381427D01*
X8928940Y7381427D01*
X8928948Y7381813D01*
X8924687Y7381361D01*
X8921726Y7379063D01*
X8919181Y7375677D01*
X8751563Y7375677D01*
X8752299Y7380429D01*
X8753655Y7382591D01*
X8754435Y7383998D01*
X8935442Y7383998D01*
X8935949Y7383078D01*
X8942759Y7384605D01*
X8956538Y7388637D01*
X8956665Y7388675D01*
X8976376Y7392768D01*
X8998441Y7394412D01*
X9019832Y7393602D01*
X9037521Y7390332D01*
X9041775Y7388820D01*
X9050710Y7385315D01*
X9053782Y7385312D01*
X9052500Y7389077D01*
X9051718Y7390561D01*
X9045021Y7397742D01*
X9033371Y7402158D01*
X9015429Y7404271D01*
X9011581Y7404437D01*
X8995648Y7403342D01*
X8976418Y7399714D01*
X8957478Y7394418D01*
X8942417Y7388320D01*
X8940574Y7387309D01*
X8935442Y7383998D01*
X8754435Y7383998D01*
X8755721Y7386316D01*
X8757148Y7396299D01*
X8757682Y7410754D01*
X8757682Y7410782D01*
X8758214Y7425243D01*
X8759640Y7435236D01*
X8761705Y7438973D01*
X8761709Y7438973D01*
X8764124Y7442569D01*
X8765562Y7451657D01*
X8765736Y7456858D01*
X8766456Y7468151D01*
X8768269Y7475622D01*
X8769224Y7476898D01*
X8771182Y7482016D01*
X8770768Y7489217D01*
X8770767Y7497017D01*
X8773322Y7499382D01*
X8776478Y7502879D01*
X8777818Y7511307D01*
X8777818Y7511464D01*
X8778985Y7519947D01*
X8781795Y7523544D01*
X8781846Y7523545D01*
X8785118Y7526918D01*
X8785873Y7531600D01*
X8787559Y7538144D01*
X8789900Y7539654D01*
X8792954Y7543093D01*
X8793927Y7549485D01*
X8793937Y7549540D01*
X9100000Y7549540D01*
X9103061Y7541875D01*
X9110375Y7533126D01*
X9119141Y7526093D01*
X9125994Y7523545D01*
X9131470Y7521427D01*
X9132218Y7519518D01*
X9135718Y7516690D01*
X9144150Y7515491D01*
X9144300Y7515491D01*
X9152783Y7514324D01*
X9156381Y7511514D01*
X9156382Y7511464D01*
X9159821Y7508410D01*
X9166212Y7507436D01*
X9174740Y7505951D01*
X9178532Y7503409D01*
X9183897Y7500666D01*
X9193620Y7499393D01*
X9194641Y7499382D01*
X9204588Y7498297D01*
X9210527Y7495654D01*
X9210750Y7495354D01*
X9215630Y7493865D01*
X9227676Y7492675D01*
X9246001Y7491832D01*
X9269721Y7491386D01*
X9283479Y7491327D01*
X9310624Y7491102D01*
X9331643Y7490447D01*
X9345971Y7489396D01*
X9353045Y7487980D01*
X9353718Y7487300D01*
X9356980Y7483727D01*
X9359759Y7483273D01*
X9364679Y7486630D01*
X9365800Y7491327D01*
X9362952Y7498058D01*
X9357745Y7499382D01*
X9351201Y7501068D01*
X9349691Y7503409D01*
X9345760Y7504964D01*
X9334342Y7506168D01*
X9315996Y7506989D01*
X9291284Y7507397D01*
X9279214Y7507436D01*
X9252009Y7507661D01*
X9230936Y7508313D01*
X9216557Y7509362D01*
X9209431Y7510774D01*
X9208736Y7511464D01*
X9205164Y7513985D01*
X9196238Y7515388D01*
X9192627Y7515491D01*
X9182540Y7516384D01*
X9176929Y7518615D01*
X9176518Y7519518D01*
X9173019Y7522346D01*
X9164587Y7523545D01*
X9164436Y7523545D01*
X9155953Y7524712D01*
X9152355Y7527522D01*
X9152355Y7527573D01*
X9148855Y7530400D01*
X9140423Y7531600D01*
X9140273Y7531600D01*
X9131790Y7532766D01*
X9128192Y7535577D01*
X9128191Y7535627D01*
X9124818Y7538899D01*
X9120136Y7539654D01*
X9113406Y7542502D01*
X9112082Y7547709D01*
X9109564Y7554269D01*
X9106041Y7555763D01*
X9100745Y7552525D01*
X9100000Y7549540D01*
X8793937Y7549540D01*
X8795412Y7558012D01*
X8797955Y7561804D01*
X8801474Y7567549D01*
X8801982Y7571221D01*
X8803966Y7576188D01*
X8938909Y7576188D01*
X8941805Y7572047D01*
X8942936Y7571873D01*
X8946847Y7574937D01*
X8946964Y7575900D01*
X8950463Y7578728D01*
X8958895Y7579927D01*
X8959046Y7579927D01*
X8967529Y7581094D01*
X8971126Y7583904D01*
X8971127Y7583954D01*
X8974500Y7587226D01*
X8979182Y7587982D01*
X8985726Y7589668D01*
X8987236Y7592009D01*
X8990809Y7594531D01*
X8999734Y7595934D01*
X9003345Y7596036D01*
X9013433Y7596929D01*
X9019044Y7599161D01*
X9019455Y7600063D01*
X9023051Y7602479D01*
X9032139Y7603916D01*
X9037340Y7604091D01*
X9048722Y7604925D01*
X9056365Y7607025D01*
X9057714Y7608118D01*
X9062626Y7609957D01*
X9073549Y7611355D01*
X9088444Y7612088D01*
X9094197Y7612145D01*
X9110784Y7612594D01*
X9122520Y7613825D01*
X9127975Y7615672D01*
X9128191Y7616173D01*
X9132180Y7617369D01*
X9144002Y7618364D01*
X9163438Y7619151D01*
X9190266Y7619724D01*
X9224268Y7620075D01*
X9265225Y7620200D01*
X9266894Y7620200D01*
X9307235Y7620083D01*
X9341312Y7619739D01*
X9368776Y7619179D01*
X9389274Y7618411D01*
X9402457Y7617446D01*
X9407972Y7616295D01*
X9408086Y7616173D01*
X9413652Y7613027D01*
X9420168Y7612145D01*
X9428601Y7610625D01*
X9432250Y7608118D01*
X9437801Y7605001D01*
X9444569Y7604091D01*
X9452023Y7602682D01*
X9454400Y7600063D01*
X9457899Y7597236D01*
X9466331Y7596037D01*
X9466482Y7596036D01*
X9474965Y7594870D01*
X9478563Y7592059D01*
X9478563Y7592009D01*
X9481937Y7588737D01*
X9486618Y7587982D01*
X9493162Y7586295D01*
X9494673Y7583954D01*
X9498046Y7580682D01*
X9502727Y7579927D01*
X9509271Y7578241D01*
X9510782Y7575900D01*
X9514155Y7572628D01*
X9518836Y7571873D01*
X9525380Y7570186D01*
X9526891Y7567845D01*
X9530221Y7564448D01*
X9534056Y7563818D01*
X9541842Y7560779D01*
X9547027Y7555763D01*
X9554264Y7549473D01*
X9559998Y7547709D01*
X9566043Y7545837D01*
X9567163Y7543682D01*
X9570425Y7540109D01*
X9573204Y7539654D01*
X9578575Y7540849D01*
X9579245Y7541851D01*
X9576266Y7547039D01*
X9569207Y7554001D01*
X9560889Y7560354D01*
X9554130Y7563714D01*
X9553251Y7563818D01*
X9547773Y7565784D01*
X9547027Y7567550D01*
X9543712Y7571641D01*
X9535739Y7576771D01*
X9526069Y7581365D01*
X9517663Y7583848D01*
X9516204Y7583954D01*
X9511254Y7586342D01*
X9510782Y7587982D01*
X9507409Y7591254D01*
X9502727Y7592009D01*
X9496183Y7593695D01*
X9494673Y7596036D01*
X9491300Y7599308D01*
X9486618Y7600063D01*
X9480074Y7601750D01*
X9478563Y7604091D01*
X9475064Y7606918D01*
X9466632Y7608118D01*
X9466482Y7608118D01*
X9457999Y7609285D01*
X9454401Y7612095D01*
X9454400Y7612145D01*
X9450900Y7614973D01*
X9442468Y7616172D01*
X9442318Y7616173D01*
X9433835Y7617339D01*
X9430237Y7620150D01*
X9430236Y7620200D01*
X9426737Y7623028D01*
X9418305Y7624227D01*
X9418154Y7624227D01*
X9409671Y7625394D01*
X9406074Y7628204D01*
X9406073Y7628254D01*
X9402084Y7629458D01*
X9390267Y7630458D01*
X9370847Y7631247D01*
X9344047Y7631818D01*
X9310092Y7632165D01*
X9269383Y7632282D01*
X9229400Y7632163D01*
X9195658Y7631814D01*
X9168515Y7631246D01*
X9148329Y7630468D01*
X9135459Y7629492D01*
X9130262Y7628326D01*
X9130205Y7628254D01*
X9125292Y7626415D01*
X9114369Y7625017D01*
X9099474Y7624284D01*
X9093721Y7624227D01*
X9077134Y7623779D01*
X9065398Y7622547D01*
X9059943Y7620701D01*
X9059727Y7620200D01*
X9056105Y7617902D01*
X9046844Y7616444D01*
X9039591Y7616173D01*
X9028104Y7615448D01*
X9020813Y7613596D01*
X9019455Y7612145D01*
X9015882Y7609623D01*
X9006956Y7608221D01*
X9003345Y7608118D01*
X8993258Y7607225D01*
X8987647Y7604993D01*
X8987236Y7604091D01*
X8983863Y7600819D01*
X8979182Y7600063D01*
X8972638Y7598377D01*
X8971127Y7596036D01*
X8967672Y7593040D01*
X8960771Y7592009D01*
X8950033Y7589451D01*
X8941783Y7583191D01*
X8938909Y7576188D01*
X8803966Y7576188D01*
X8805013Y7578811D01*
X8810036Y7583954D01*
X8816304Y7590818D01*
X8818091Y7596036D01*
X8821101Y7603090D01*
X8826146Y7608118D01*
X8832394Y7614680D01*
X8834200Y7619473D01*
X8836946Y7625551D01*
X8843786Y7633857D01*
X8846282Y7636309D01*
X8853910Y7644533D01*
X8858092Y7651178D01*
X8858364Y7652457D01*
X8861201Y7657585D01*
X8868396Y7665825D01*
X8877975Y7675312D01*
X8887963Y7684181D01*
X8896386Y7690565D01*
X8900903Y7692648D01*
X8906163Y7695363D01*
X8914083Y7702089D01*
X8916759Y7704773D01*
X8924757Y7712324D01*
X8930703Y7716538D01*
X8931793Y7716854D01*
X8936661Y7718520D01*
X8947049Y7723015D01*
X8961263Y7729585D01*
X8972504Y7734977D01*
X8988790Y7742599D01*
X9002875Y7748640D01*
X9012890Y7752329D01*
X9016382Y7753100D01*
X9023589Y7755265D01*
X9025495Y7757127D01*
X9031047Y7760244D01*
X9037815Y7761154D01*
X9045269Y7762563D01*
X9047645Y7765182D01*
X9051267Y7767479D01*
X9060528Y7768937D01*
X9067782Y7769209D01*
X9079268Y7769933D01*
X9086559Y7771785D01*
X9087918Y7773236D01*
X9091897Y7774519D01*
X9103648Y7775568D01*
X9122890Y7776375D01*
X9149345Y7776928D01*
X9182731Y7777219D01*
X9204709Y7777263D01*
X9241914Y7777126D01*
G37*
D11*
%TO.C,SW_clear1*%
X-21590000Y-16510000D02*
X-35560000Y-16510000D01*
X-21590000Y-2540000D02*
X-21590000Y-16510000D01*
X-35560000Y-16510000D02*
X-35560000Y-2540000D01*
X-35560000Y-2540000D02*
X-21590000Y-2540000D01*
%TO.C,SW_equals1*%
X35560000Y-83185000D02*
X21590000Y-83185000D01*
X35560000Y-69215000D02*
X35560000Y-83185000D01*
X21590000Y-83185000D02*
X21590000Y-69215000D01*
X21590000Y-69215000D02*
X35560000Y-69215000D01*
%TO.C,SW_minus1*%
X35560000Y-16510000D02*
X21590000Y-16510000D01*
X35560000Y-2540000D02*
X35560000Y-16510000D01*
X21590000Y-16510000D02*
X21590000Y-2540000D01*
X21590000Y-2540000D02*
X35560000Y-2540000D01*
%TO.C,SW_six1*%
X16510000Y-54610000D02*
X2540000Y-54610000D01*
X16510000Y-40640000D02*
X16510000Y-54610000D01*
X2540000Y-54610000D02*
X2540000Y-40640000D01*
X2540000Y-40640000D02*
X16510000Y-40640000D01*
%TO.C,SW_eight1*%
X-2540000Y-35560000D02*
X-16510000Y-35560000D01*
X-2540000Y-21590000D02*
X-2540000Y-35560000D01*
X-16510000Y-35560000D02*
X-16510000Y-21590000D01*
X-16510000Y-21590000D02*
X-2540000Y-21590000D01*
%TO.C,SW_one1*%
X-21590000Y-73660000D02*
X-35560000Y-73660000D01*
X-21590000Y-59690000D02*
X-21590000Y-73660000D01*
X-35560000Y-73660000D02*
X-35560000Y-59690000D01*
X-35560000Y-59690000D02*
X-21590000Y-59690000D01*
%TO.C,SW_mutiplicate1*%
X16510000Y-16510000D02*
X2540000Y-16510000D01*
X16510000Y-2540000D02*
X16510000Y-16510000D01*
X2540000Y-16510000D02*
X2540000Y-2540000D01*
X2540000Y-2540000D02*
X16510000Y-2540000D01*
%TO.C,SW_nine1*%
X16510000Y-35560000D02*
X2540000Y-35560000D01*
X16510000Y-21590000D02*
X16510000Y-35560000D01*
X2540000Y-35560000D02*
X2540000Y-21590000D01*
X2540000Y-21590000D02*
X16510000Y-21590000D01*
D12*
%TO.C,U3*%
X-30525000Y17100000D02*
X-525000Y17100000D01*
X-30525000Y3100000D02*
X-30525000Y17100000D01*
X-525000Y17100000D02*
X-525000Y3100000D01*
X-525000Y3100000D02*
X-30525000Y3100000D01*
D11*
%TO.C,SW_seven1*%
X-21590000Y-35560000D02*
X-35560000Y-35560000D01*
X-21590000Y-21590000D02*
X-21590000Y-35560000D01*
X-35560000Y-35560000D02*
X-35560000Y-21590000D01*
X-35560000Y-21590000D02*
X-21590000Y-21590000D01*
%TD*%
%LPC*%
D12*
%TO.C,BT1*%
X28500000Y36000000D02*
X0Y36000000D01*
%TD*%
D13*
%TO.C,J2*%
X31800000Y22960000D03*
D14*
X31800000Y25500000D03*
X31800000Y28040000D03*
%TD*%
D15*
%TO.C,SW_five1*%
X-4445000Y-47625000D03*
D16*
X-9525000Y-47625000D03*
D15*
X-14605000Y-47625000D03*
D17*
X-12065000Y-52705000D03*
X-5715000Y-50165000D03*
%TD*%
D18*
%TO.C,SW_zero1*%
X-7150000Y-92725000D03*
D16*
X-7150000Y-77485000D03*
D15*
X-13970000Y-85725000D03*
D16*
X-19050000Y-85725000D03*
D15*
X-24130000Y-85725000D03*
D18*
X-30950000Y-92725000D03*
D16*
X-30950000Y-77485000D03*
D17*
X-21590000Y-90805000D03*
X-15240000Y-88265000D03*
%TD*%
D15*
%TO.C,SW_two1*%
X-4445000Y-66675000D03*
D16*
X-9525000Y-66675000D03*
D15*
X-14605000Y-66675000D03*
D17*
X-12065000Y-71755000D03*
X-5715000Y-69215000D03*
%TD*%
D19*
%TO.C,H2*%
X35100000Y34000000D03*
%TD*%
D15*
%TO.C,SW_three1*%
X14605000Y-66675000D03*
D16*
X9525000Y-66675000D03*
D15*
X4445000Y-66675000D03*
D17*
X6985000Y-71755000D03*
X13335000Y-69215000D03*
%TD*%
D15*
%TO.C,SW_divide1*%
X-4445000Y-9525000D03*
D16*
X-9525000Y-9525000D03*
D15*
X-14605000Y-9525000D03*
D17*
X-12065000Y-14605000D03*
X-5715000Y-12065000D03*
%TD*%
D19*
%TO.C,H3*%
X-35100000Y34000000D03*
%TD*%
D15*
%TO.C,SW_four1*%
X-23495000Y-47625000D03*
D16*
X-28575000Y-47625000D03*
D15*
X-33655000Y-47625000D03*
D17*
X-31115000Y-52705000D03*
X-24765000Y-50165000D03*
%TD*%
D20*
%TO.C,BT1*%
X26000000Y27555000D03*
D21*
X-25990000Y27555000D03*
%TD*%
D15*
%TO.C,SW_point1*%
X14605000Y-85725000D03*
D16*
X9525000Y-85725000D03*
D15*
X4445000Y-85725000D03*
D17*
X6985000Y-90805000D03*
X13335000Y-88265000D03*
%TD*%
D18*
%TO.C,SW_plus1*%
X35575000Y-50000000D03*
X35575000Y-26200000D03*
D15*
X33655000Y-38100000D03*
D16*
X28575000Y-38100000D03*
D15*
X23495000Y-38100000D03*
D16*
X20335000Y-50000000D03*
X20335000Y-26200000D03*
D17*
X26035000Y-43180000D03*
X32385000Y-40640000D03*
%TD*%
D22*
%TO.C,U4*%
X9125000Y5020000D03*
D23*
X11665000Y5020000D03*
X14205000Y5020000D03*
X16745000Y5020000D03*
X19285000Y5020000D03*
X21825000Y5020000D03*
X21825000Y15180000D03*
X19285000Y15180000D03*
X16745000Y15180000D03*
X14205000Y15180000D03*
X11665000Y15180000D03*
X9125000Y15180000D03*
%TD*%
D15*
%TO.C,SW_clear1*%
X-23495000Y-9525000D03*
D16*
X-28575000Y-9525000D03*
D15*
X-33655000Y-9525000D03*
D17*
X-31115000Y-14605000D03*
X-24765000Y-12065000D03*
%TD*%
D19*
%TO.C,H1*%
X35100000Y3000000D03*
%TD*%
%TO.C,H7*%
X-30440000Y-57150000D03*
%TD*%
D18*
%TO.C,SW_equals1*%
X35575000Y-88100000D03*
X35575000Y-64300000D03*
D15*
X33655000Y-76200000D03*
D16*
X28575000Y-76200000D03*
D15*
X23495000Y-76200000D03*
D16*
X20335000Y-88100000D03*
X20335000Y-64300000D03*
D17*
X26035000Y-81280000D03*
X32385000Y-78740000D03*
%TD*%
D15*
%TO.C,SW_minus1*%
X33655000Y-9525000D03*
D16*
X28575000Y-9525000D03*
D15*
X23495000Y-9525000D03*
D17*
X26035000Y-14605000D03*
X32385000Y-12065000D03*
%TD*%
D19*
%TO.C,H4*%
X-35100000Y3000000D03*
%TD*%
D15*
%TO.C,SW_six1*%
X14605000Y-47625000D03*
D16*
X9525000Y-47625000D03*
D15*
X4445000Y-47625000D03*
D17*
X6985000Y-52705000D03*
X13335000Y-50165000D03*
%TD*%
D15*
%TO.C,SW_eight1*%
X-4445000Y-28575000D03*
D16*
X-9525000Y-28575000D03*
D15*
X-14605000Y-28575000D03*
D17*
X-12065000Y-33655000D03*
X-5715000Y-31115000D03*
%TD*%
D19*
%TO.C,H5*%
X0Y-87150000D03*
%TD*%
D15*
%TO.C,SW_one1*%
X-23495000Y-66675000D03*
D16*
X-28575000Y-66675000D03*
D15*
X-33655000Y-66675000D03*
D17*
X-31115000Y-71755000D03*
X-24765000Y-69215000D03*
%TD*%
D24*
%TO.C,SW1*%
X33240000Y11320000D03*
X33240000Y13320000D03*
X33240000Y15320000D03*
D25*
X33240000Y9170000D03*
X33240000Y17470000D03*
%TD*%
D15*
%TO.C,SW_mutiplicate1*%
X14605000Y-9525000D03*
D16*
X9525000Y-9525000D03*
D15*
X4445000Y-9525000D03*
D17*
X6985000Y-14605000D03*
X13335000Y-12065000D03*
%TD*%
D19*
%TO.C,H6*%
X30440000Y-57150000D03*
%TD*%
D15*
%TO.C,SW_nine1*%
X14605000Y-28575000D03*
D16*
X9525000Y-28575000D03*
D15*
X4445000Y-28575000D03*
D17*
X6985000Y-33655000D03*
X13335000Y-31115000D03*
%TD*%
D22*
%TO.C,U3*%
X-21875000Y5020000D03*
D23*
X-19335000Y5020000D03*
X-16795000Y5020000D03*
X-14255000Y5020000D03*
X-11715000Y5020000D03*
X-9175000Y5020000D03*
X-9175000Y15180000D03*
X-11715000Y15180000D03*
X-14255000Y15180000D03*
X-16795000Y15180000D03*
X-19335000Y15180000D03*
X-21875000Y15180000D03*
%TD*%
D15*
%TO.C,SW_seven1*%
X-23495000Y-28575000D03*
D16*
X-28575000Y-28575000D03*
D15*
X-33655000Y-28575000D03*
D17*
X-31115000Y-33655000D03*
X-24765000Y-31115000D03*
%TD*%
D13*
%TO.C,J4*%
X22700000Y26725000D03*
D14*
X20160000Y26725000D03*
X22700000Y24185000D03*
X20160000Y24185000D03*
X22700000Y21645000D03*
X20160000Y21645000D03*
%TD*%
D26*
%TO.C,J3*%
X-2890000Y31400000D03*
X2890000Y31400000D03*
D27*
X-4320000Y35050000D03*
D28*
X-4320000Y30870000D03*
D27*
X4320000Y35050000D03*
D28*
X4320000Y30870000D03*
%TD*%
D29*
%TO.C,SW2*%
X27525000Y9400000D03*
X27525000Y6400000D03*
%TD*%
%LPD*%
M02*
