M48
; DRILL file {KiCad 7.0.7} date Sat Dec  9 18:35:24 2023
; FORMAT={-:-/ absolute / metric / decimal}
; #@! TF.CreationDate,2023-12-09T18:35:24+02:00
; #@! TF.GenerationSoftware,Kicad,Pcbnew,7.0.7
; #@! TF.FileFunction,NonPlated,1,2,NPTH
FMAT,2
METRIC
; #@! TA.AperFunction,NonPlated,NPTH,ComponentDrill
T1C0.650
; #@! TA.AperFunction,NonPlated,NPTH,ComponentDrill
T2C0.900
; #@! TA.AperFunction,NonPlated,NPTH,ComponentDrill
T3C1.700
; #@! TA.AperFunction,NonPlated,NPTH,ComponentDrill
T4C3.050
; #@! TA.AperFunction,NonPlated,NPTH,ComponentDrill
T5C4.000
%
G90
G05
T1
X-2.89Y31.4
X2.89Y31.4
T2
X27.525Y9.4
X27.525Y6.4
T3
X-33.655Y-9.525
X-33.655Y-28.575
X-33.655Y-47.625
X-33.655Y-66.675
X-24.13Y-85.725
X-23.495Y-9.525
X-23.495Y-28.575
X-23.495Y-47.625
X-23.495Y-66.675
X-14.605Y-9.525
X-14.605Y-28.575
X-14.605Y-47.625
X-14.605Y-66.675
X-13.97Y-85.725
X-4.445Y-9.525
X-4.445Y-28.575
X-4.445Y-47.625
X-4.445Y-66.675
X4.445Y-9.525
X4.445Y-28.575
X4.445Y-47.625
X4.445Y-66.675
X4.445Y-85.725
X14.605Y-9.525
X14.605Y-28.575
X14.605Y-47.625
X14.605Y-66.675
X14.605Y-85.725
X23.495Y-9.525
X23.495Y-38.1
X23.495Y-76.2
X33.655Y-9.525
X33.655Y-38.1
X33.655Y-76.2
T4
X-30.95Y-92.725
X-7.15Y-92.725
X35.575Y-26.2
X35.575Y-50.0
X35.575Y-64.3
X35.575Y-88.1
T5
X-30.95Y-77.485
X-28.575Y-9.525
X-28.575Y-28.575
X-28.575Y-47.625
X-28.575Y-66.675
X-19.05Y-85.725
X-9.525Y-9.525
X-9.525Y-28.575
X-9.525Y-47.625
X-9.525Y-66.675
X-7.15Y-77.485
X9.525Y-9.525
X9.525Y-28.575
X9.525Y-47.625
X9.525Y-66.675
X9.525Y-85.725
X20.335Y-26.2
X20.335Y-50.0
X20.335Y-64.3
X20.335Y-88.1
X28.575Y-9.525
X28.575Y-38.1
X28.575Y-76.2
T0
M30
