%TF.GenerationSoftware,KiCad,Pcbnew,7.0.7*%
%TF.CreationDate,2023-12-10T01:09:49+02:00*%
%TF.ProjectId,stm32_calc,73746d33-325f-4636-916c-632e6b696361,rev?*%
%TF.SameCoordinates,Original*%
%TF.FileFunction,Legend,Bot*%
%TF.FilePolarity,Positive*%
%FSLAX46Y46*%
G04 Gerber Fmt 4.6, Leading zero omitted, Abs format (unit mm)*
G04 Created by KiCad (PCBNEW 7.0.7) date 2023-12-10 01:09:49*
%MOMM*%
%LPD*%
G01*
G04 APERTURE LIST*
G04 Aperture macros list*
%AMRoundRect*
0 Rectangle with rounded corners*
0 $1 Rounding radius*
0 $2 $3 $4 $5 $6 $7 $8 $9 X,Y pos of 4 corners*
0 Add a 4 corners polygon primitive as box body*
4,1,4,$2,$3,$4,$5,$6,$7,$8,$9,$2,$3,0*
0 Add four circle primitives for the rounded corners*
1,1,$1+$1,$2,$3*
1,1,$1+$1,$4,$5*
1,1,$1+$1,$6,$7*
1,1,$1+$1,$8,$9*
0 Add four rect primitives between the rounded corners*
20,1,$1+$1,$2,$3,$4,$5,0*
20,1,$1+$1,$4,$5,$6,$7,0*
20,1,$1+$1,$6,$7,$8,$9,0*
20,1,$1+$1,$8,$9,$2,$3,0*%
G04 Aperture macros list end*
%ADD10C,0.150000*%
%ADD11C,0.125000*%
%ADD12C,0.120000*%
%ADD13C,0.127000*%
%ADD14C,0.200000*%
%ADD15C,0.500000*%
%ADD16R,1.700000X1.700000*%
%ADD17O,1.700000X1.700000*%
%ADD18C,1.700000*%
%ADD19C,4.000000*%
%ADD20C,2.200000*%
%ADD21C,3.050000*%
%ADD22C,3.800000*%
%ADD23R,2.000000X2.000000*%
%ADD24C,2.000000*%
%ADD25R,1.524000X1.524000*%
%ADD26C,1.524000*%
%ADD27C,1.512000*%
%ADD28C,2.304000*%
%ADD29RoundRect,0.225000X-0.225000X-0.375000X0.225000X-0.375000X0.225000X0.375000X-0.225000X0.375000X0*%
%ADD30RoundRect,0.150000X-0.587500X-0.150000X0.587500X-0.150000X0.587500X0.150000X-0.587500X0.150000X0*%
%ADD31RoundRect,0.225000X0.375000X-0.225000X0.375000X0.225000X-0.375000X0.225000X-0.375000X-0.225000X0*%
%ADD32RoundRect,0.150000X-0.150000X0.512500X-0.150000X-0.512500X0.150000X-0.512500X0.150000X0.512500X0*%
%ADD33RoundRect,0.135000X-0.185000X0.135000X-0.185000X-0.135000X0.185000X-0.135000X0.185000X0.135000X0*%
%ADD34RoundRect,0.140000X0.021213X-0.219203X0.219203X-0.021213X-0.021213X0.219203X-0.219203X0.021213X0*%
%ADD35RoundRect,0.140000X-0.021213X0.219203X-0.219203X0.021213X0.021213X-0.219203X0.219203X-0.021213X0*%
%ADD36RoundRect,0.250000X-0.475000X0.250000X-0.475000X-0.250000X0.475000X-0.250000X0.475000X0.250000X0*%
%ADD37C,0.650000*%
%ADD38R,0.600000X1.450000*%
%ADD39R,0.300000X1.450000*%
%ADD40O,1.000000X1.600000*%
%ADD41O,1.000000X2.100000*%
%ADD42RoundRect,0.250000X0.475000X-0.250000X0.475000X0.250000X-0.475000X0.250000X-0.475000X-0.250000X0*%
%ADD43RoundRect,0.140000X-0.170000X0.140000X-0.170000X-0.140000X0.170000X-0.140000X0.170000X0.140000X0*%
%ADD44RoundRect,0.140000X0.170000X-0.140000X0.170000X0.140000X-0.170000X0.140000X-0.170000X-0.140000X0*%
%ADD45RoundRect,0.150000X0.150000X-0.587500X0.150000X0.587500X-0.150000X0.587500X-0.150000X-0.587500X0*%
%ADD46R,1.700000X1.000000*%
%ADD47RoundRect,0.135000X0.135000X0.185000X-0.135000X0.185000X-0.135000X-0.185000X0.135000X-0.185000X0*%
%ADD48C,0.900000*%
%ADD49RoundRect,0.102000X-0.750000X0.350000X-0.750000X-0.350000X0.750000X-0.350000X0.750000X0.350000X0*%
%ADD50RoundRect,0.102000X-0.400000X0.500000X-0.400000X-0.500000X0.400000X-0.500000X0.400000X0.500000X0*%
%ADD51RoundRect,0.140000X-0.219203X-0.021213X-0.021213X-0.219203X0.219203X0.021213X0.021213X0.219203X0*%
%ADD52RoundRect,0.135000X-0.035355X0.226274X-0.226274X0.035355X0.035355X-0.226274X0.226274X-0.035355X0*%
%ADD53RoundRect,0.075000X0.521491X-0.415425X-0.415425X0.521491X-0.521491X0.415425X0.415425X-0.521491X0*%
%ADD54RoundRect,0.075000X0.521491X0.415425X0.415425X0.521491X-0.521491X-0.415425X-0.415425X-0.521491X0*%
%ADD55O,2.454000X0.804000*%
%ADD56RoundRect,0.140000X-0.140000X-0.170000X0.140000X-0.170000X0.140000X0.170000X-0.140000X0.170000X0*%
%ADD57RoundRect,0.225000X-0.375000X0.225000X-0.375000X-0.225000X0.375000X-0.225000X0.375000X0.225000X0*%
%ADD58RoundRect,0.135000X0.185000X-0.135000X0.185000X0.135000X-0.185000X0.135000X-0.185000X-0.135000X0*%
%ADD59RoundRect,0.140000X0.219203X0.021213X0.021213X0.219203X-0.219203X-0.021213X-0.021213X-0.219203X0*%
%ADD60RoundRect,0.135000X0.035355X-0.226274X0.226274X-0.035355X-0.035355X0.226274X-0.226274X0.035355X0*%
G04 APERTURE END LIST*
D10*
X-15930181Y31527507D02*
X-15215896Y31527507D01*
X-15215896Y31527507D02*
X-15073039Y31575126D01*
X-15073039Y31575126D02*
X-14977800Y31670364D01*
X-14977800Y31670364D02*
X-14930181Y31813221D01*
X-14930181Y31813221D02*
X-14930181Y31908459D01*
X-14930181Y30575126D02*
X-14930181Y31051316D01*
X-14930181Y31051316D02*
X-15930181Y31051316D01*
X-15025420Y29670364D02*
X-14977800Y29717983D01*
X-14977800Y29717983D02*
X-14930181Y29860840D01*
X-14930181Y29860840D02*
X-14930181Y29956078D01*
X-14930181Y29956078D02*
X-14977800Y30098935D01*
X-14977800Y30098935D02*
X-15073039Y30194173D01*
X-15073039Y30194173D02*
X-15168277Y30241792D01*
X-15168277Y30241792D02*
X-15358753Y30289411D01*
X-15358753Y30289411D02*
X-15501610Y30289411D01*
X-15501610Y30289411D02*
X-15692086Y30241792D01*
X-15692086Y30241792D02*
X-15787324Y30194173D01*
X-15787324Y30194173D02*
X-15882562Y30098935D01*
X-15882562Y30098935D02*
X-15930181Y29956078D01*
X-15930181Y29956078D02*
X-15930181Y29860840D01*
X-15930181Y29860840D02*
X-15882562Y29717983D01*
X-15882562Y29717983D02*
X-15834943Y29670364D01*
X-15930181Y28956078D02*
X-15215896Y28956078D01*
X-15215896Y28956078D02*
X-15073039Y29003697D01*
X-15073039Y29003697D02*
X-14977800Y29098935D01*
X-14977800Y29098935D02*
X-14930181Y29241792D01*
X-14930181Y29241792D02*
X-14930181Y29337030D01*
X-14930181Y28003697D02*
X-14930181Y28479887D01*
X-14930181Y28479887D02*
X-15930181Y28479887D01*
X-15025420Y27098935D02*
X-14977800Y27146554D01*
X-14977800Y27146554D02*
X-14930181Y27289411D01*
X-14930181Y27289411D02*
X-14930181Y27384649D01*
X-14930181Y27384649D02*
X-14977800Y27527506D01*
X-14977800Y27527506D02*
X-15073039Y27622744D01*
X-15073039Y27622744D02*
X-15168277Y27670363D01*
X-15168277Y27670363D02*
X-15358753Y27717982D01*
X-15358753Y27717982D02*
X-15501610Y27717982D01*
X-15501610Y27717982D02*
X-15692086Y27670363D01*
X-15692086Y27670363D02*
X-15787324Y27622744D01*
X-15787324Y27622744D02*
X-15882562Y27527506D01*
X-15882562Y27527506D02*
X-15930181Y27384649D01*
X-15930181Y27384649D02*
X-15930181Y27289411D01*
X-15930181Y27289411D02*
X-15882562Y27146554D01*
X-15882562Y27146554D02*
X-15834943Y27098935D01*
X-15930181Y26384649D02*
X-15215896Y26384649D01*
X-15215896Y26384649D02*
X-15073039Y26432268D01*
X-15073039Y26432268D02*
X-14977800Y26527506D01*
X-14977800Y26527506D02*
X-14930181Y26670363D01*
X-14930181Y26670363D02*
X-14930181Y26765601D01*
X-14930181Y25432268D02*
X-14930181Y25908458D01*
X-14930181Y25908458D02*
X-15930181Y25908458D01*
X-15025420Y24527506D02*
X-14977800Y24575125D01*
X-14977800Y24575125D02*
X-14930181Y24717982D01*
X-14930181Y24717982D02*
X-14930181Y24813220D01*
X-14930181Y24813220D02*
X-14977800Y24956077D01*
X-14977800Y24956077D02*
X-15073039Y25051315D01*
X-15073039Y25051315D02*
X-15168277Y25098934D01*
X-15168277Y25098934D02*
X-15358753Y25146553D01*
X-15358753Y25146553D02*
X-15501610Y25146553D01*
X-15501610Y25146553D02*
X-15692086Y25098934D01*
X-15692086Y25098934D02*
X-15787324Y25051315D01*
X-15787324Y25051315D02*
X-15882562Y24956077D01*
X-15882562Y24956077D02*
X-15930181Y24813220D01*
X-15930181Y24813220D02*
X-15930181Y24717982D01*
X-15930181Y24717982D02*
X-15882562Y24575125D01*
X-15882562Y24575125D02*
X-15834943Y24527506D01*
X-15930181Y23813220D02*
X-15215896Y23813220D01*
X-15215896Y23813220D02*
X-15073039Y23860839D01*
X-15073039Y23860839D02*
X-14977800Y23956077D01*
X-14977800Y23956077D02*
X-14930181Y24098934D01*
X-14930181Y24098934D02*
X-14930181Y24194172D01*
X-14930181Y22860839D02*
X-14930181Y23337029D01*
X-14930181Y23337029D02*
X-15930181Y23337029D01*
X-15025420Y21956077D02*
X-14977800Y22003696D01*
X-14977800Y22003696D02*
X-14930181Y22146553D01*
X-14930181Y22146553D02*
X-14930181Y22241791D01*
X-14930181Y22241791D02*
X-14977800Y22384648D01*
X-14977800Y22384648D02*
X-15073039Y22479886D01*
X-15073039Y22479886D02*
X-15168277Y22527505D01*
X-15168277Y22527505D02*
X-15358753Y22575124D01*
X-15358753Y22575124D02*
X-15501610Y22575124D01*
X-15501610Y22575124D02*
X-15692086Y22527505D01*
X-15692086Y22527505D02*
X-15787324Y22479886D01*
X-15787324Y22479886D02*
X-15882562Y22384648D01*
X-15882562Y22384648D02*
X-15930181Y22241791D01*
X-15930181Y22241791D02*
X-15930181Y22146553D01*
X-15930181Y22146553D02*
X-15882562Y22003696D01*
X-15882562Y22003696D02*
X-15834943Y21956077D01*
D11*
X19907142Y-45124809D02*
X19907142Y-44624809D01*
X19907142Y-44624809D02*
X19788094Y-44624809D01*
X19788094Y-44624809D02*
X19716666Y-44648619D01*
X19716666Y-44648619D02*
X19669047Y-44696238D01*
X19669047Y-44696238D02*
X19645237Y-44743857D01*
X19645237Y-44743857D02*
X19621428Y-44839095D01*
X19621428Y-44839095D02*
X19621428Y-44910523D01*
X19621428Y-44910523D02*
X19645237Y-45005761D01*
X19645237Y-45005761D02*
X19669047Y-45053380D01*
X19669047Y-45053380D02*
X19716666Y-45101000D01*
X19716666Y-45101000D02*
X19788094Y-45124809D01*
X19788094Y-45124809D02*
X19907142Y-45124809D01*
X19145237Y-45124809D02*
X19430951Y-45124809D01*
X19288094Y-45124809D02*
X19288094Y-44624809D01*
X19288094Y-44624809D02*
X19335713Y-44696238D01*
X19335713Y-44696238D02*
X19383332Y-44743857D01*
X19383332Y-44743857D02*
X19430951Y-44767666D01*
X18859523Y-44839095D02*
X18907142Y-44815285D01*
X18907142Y-44815285D02*
X18930952Y-44791476D01*
X18930952Y-44791476D02*
X18954761Y-44743857D01*
X18954761Y-44743857D02*
X18954761Y-44720047D01*
X18954761Y-44720047D02*
X18930952Y-44672428D01*
X18930952Y-44672428D02*
X18907142Y-44648619D01*
X18907142Y-44648619D02*
X18859523Y-44624809D01*
X18859523Y-44624809D02*
X18764285Y-44624809D01*
X18764285Y-44624809D02*
X18716666Y-44648619D01*
X18716666Y-44648619D02*
X18692857Y-44672428D01*
X18692857Y-44672428D02*
X18669047Y-44720047D01*
X18669047Y-44720047D02*
X18669047Y-44743857D01*
X18669047Y-44743857D02*
X18692857Y-44791476D01*
X18692857Y-44791476D02*
X18716666Y-44815285D01*
X18716666Y-44815285D02*
X18764285Y-44839095D01*
X18764285Y-44839095D02*
X18859523Y-44839095D01*
X18859523Y-44839095D02*
X18907142Y-44862904D01*
X18907142Y-44862904D02*
X18930952Y-44886714D01*
X18930952Y-44886714D02*
X18954761Y-44934333D01*
X18954761Y-44934333D02*
X18954761Y-45029571D01*
X18954761Y-45029571D02*
X18930952Y-45077190D01*
X18930952Y-45077190D02*
X18907142Y-45101000D01*
X18907142Y-45101000D02*
X18859523Y-45124809D01*
X18859523Y-45124809D02*
X18764285Y-45124809D01*
X18764285Y-45124809D02*
X18716666Y-45101000D01*
X18716666Y-45101000D02*
X18692857Y-45077190D01*
X18692857Y-45077190D02*
X18669047Y-45029571D01*
X18669047Y-45029571D02*
X18669047Y-44934333D01*
X18669047Y-44934333D02*
X18692857Y-44886714D01*
X18692857Y-44886714D02*
X18716666Y-44862904D01*
X18716666Y-44862904D02*
X18764285Y-44839095D01*
X19857619Y29427572D02*
X19905238Y29451381D01*
X19905238Y29451381D02*
X19952857Y29499000D01*
X19952857Y29499000D02*
X20024285Y29570429D01*
X20024285Y29570429D02*
X20071904Y29594239D01*
X20071904Y29594239D02*
X20119523Y29594239D01*
X20095714Y29475191D02*
X20143333Y29499000D01*
X20143333Y29499000D02*
X20190952Y29546620D01*
X20190952Y29546620D02*
X20214761Y29641858D01*
X20214761Y29641858D02*
X20214761Y29808524D01*
X20214761Y29808524D02*
X20190952Y29903762D01*
X20190952Y29903762D02*
X20143333Y29951381D01*
X20143333Y29951381D02*
X20095714Y29975191D01*
X20095714Y29975191D02*
X20000476Y29975191D01*
X20000476Y29975191D02*
X19952857Y29951381D01*
X19952857Y29951381D02*
X19905238Y29903762D01*
X19905238Y29903762D02*
X19881428Y29808524D01*
X19881428Y29808524D02*
X19881428Y29641858D01*
X19881428Y29641858D02*
X19905238Y29546620D01*
X19905238Y29546620D02*
X19952857Y29499000D01*
X19952857Y29499000D02*
X20000476Y29475191D01*
X20000476Y29475191D02*
X20095714Y29475191D01*
X19405237Y29475191D02*
X19690951Y29475191D01*
X19548094Y29475191D02*
X19548094Y29975191D01*
X19548094Y29975191D02*
X19595713Y29903762D01*
X19595713Y29903762D02*
X19643332Y29856143D01*
X19643332Y29856143D02*
X19690951Y29832334D01*
X17924809Y-53492857D02*
X17424809Y-53492857D01*
X17424809Y-53492857D02*
X17424809Y-53611905D01*
X17424809Y-53611905D02*
X17448619Y-53683333D01*
X17448619Y-53683333D02*
X17496238Y-53730952D01*
X17496238Y-53730952D02*
X17543857Y-53754762D01*
X17543857Y-53754762D02*
X17639095Y-53778571D01*
X17639095Y-53778571D02*
X17710523Y-53778571D01*
X17710523Y-53778571D02*
X17805761Y-53754762D01*
X17805761Y-53754762D02*
X17853380Y-53730952D01*
X17853380Y-53730952D02*
X17901000Y-53683333D01*
X17901000Y-53683333D02*
X17924809Y-53611905D01*
X17924809Y-53611905D02*
X17924809Y-53492857D01*
X17924809Y-54254762D02*
X17924809Y-53969048D01*
X17924809Y-54111905D02*
X17424809Y-54111905D01*
X17424809Y-54111905D02*
X17496238Y-54064286D01*
X17496238Y-54064286D02*
X17543857Y-54016667D01*
X17543857Y-54016667D02*
X17567666Y-53969048D01*
X17591476Y-54683333D02*
X17924809Y-54683333D01*
X17401000Y-54564285D02*
X17758142Y-54445238D01*
X17758142Y-54445238D02*
X17758142Y-54754761D01*
X-75191Y-34730952D02*
X-575191Y-34730952D01*
X-575191Y-34730952D02*
X-575191Y-34850000D01*
X-575191Y-34850000D02*
X-551381Y-34921428D01*
X-551381Y-34921428D02*
X-503762Y-34969047D01*
X-503762Y-34969047D02*
X-456143Y-34992857D01*
X-456143Y-34992857D02*
X-360905Y-35016666D01*
X-360905Y-35016666D02*
X-289477Y-35016666D01*
X-289477Y-35016666D02*
X-194239Y-34992857D01*
X-194239Y-34992857D02*
X-146620Y-34969047D01*
X-146620Y-34969047D02*
X-99000Y-34921428D01*
X-99000Y-34921428D02*
X-75191Y-34850000D01*
X-75191Y-34850000D02*
X-75191Y-34730952D01*
X-75191Y-35254762D02*
X-75191Y-35350000D01*
X-75191Y-35350000D02*
X-99000Y-35397619D01*
X-99000Y-35397619D02*
X-122810Y-35421428D01*
X-122810Y-35421428D02*
X-194239Y-35469047D01*
X-194239Y-35469047D02*
X-289477Y-35492857D01*
X-289477Y-35492857D02*
X-479953Y-35492857D01*
X-479953Y-35492857D02*
X-527572Y-35469047D01*
X-527572Y-35469047D02*
X-551381Y-35445238D01*
X-551381Y-35445238D02*
X-575191Y-35397619D01*
X-575191Y-35397619D02*
X-575191Y-35302381D01*
X-575191Y-35302381D02*
X-551381Y-35254762D01*
X-551381Y-35254762D02*
X-527572Y-35230952D01*
X-527572Y-35230952D02*
X-479953Y-35207143D01*
X-479953Y-35207143D02*
X-360905Y-35207143D01*
X-360905Y-35207143D02*
X-313286Y-35230952D01*
X-313286Y-35230952D02*
X-289477Y-35254762D01*
X-289477Y-35254762D02*
X-265667Y-35302381D01*
X-265667Y-35302381D02*
X-265667Y-35397619D01*
X-265667Y-35397619D02*
X-289477Y-35445238D01*
X-289477Y-35445238D02*
X-313286Y-35469047D01*
X-313286Y-35469047D02*
X-360905Y-35492857D01*
X-2275191Y24600953D02*
X-1870429Y24600953D01*
X-1870429Y24600953D02*
X-1822810Y24577143D01*
X-1822810Y24577143D02*
X-1799000Y24553334D01*
X-1799000Y24553334D02*
X-1775191Y24505715D01*
X-1775191Y24505715D02*
X-1775191Y24410477D01*
X-1775191Y24410477D02*
X-1799000Y24362858D01*
X-1799000Y24362858D02*
X-1822810Y24339048D01*
X-1822810Y24339048D02*
X-1870429Y24315239D01*
X-1870429Y24315239D02*
X-2275191Y24315239D01*
X-2227572Y24100952D02*
X-2251381Y24077143D01*
X-2251381Y24077143D02*
X-2275191Y24029524D01*
X-2275191Y24029524D02*
X-2275191Y23910476D01*
X-2275191Y23910476D02*
X-2251381Y23862857D01*
X-2251381Y23862857D02*
X-2227572Y23839048D01*
X-2227572Y23839048D02*
X-2179953Y23815238D01*
X-2179953Y23815238D02*
X-2132334Y23815238D01*
X-2132334Y23815238D02*
X-2060905Y23839048D01*
X-2060905Y23839048D02*
X-1775191Y24124762D01*
X-1775191Y24124762D02*
X-1775191Y23815238D01*
X-7975191Y19083334D02*
X-8213286Y19250000D01*
X-7975191Y19369048D02*
X-8475191Y19369048D01*
X-8475191Y19369048D02*
X-8475191Y19178572D01*
X-8475191Y19178572D02*
X-8451381Y19130953D01*
X-8451381Y19130953D02*
X-8427572Y19107143D01*
X-8427572Y19107143D02*
X-8379953Y19083334D01*
X-8379953Y19083334D02*
X-8308524Y19083334D01*
X-8308524Y19083334D02*
X-8260905Y19107143D01*
X-8260905Y19107143D02*
X-8237096Y19130953D01*
X-8237096Y19130953D02*
X-8213286Y19178572D01*
X-8213286Y19178572D02*
X-8213286Y19369048D01*
X-8475191Y18654762D02*
X-8475191Y18750000D01*
X-8475191Y18750000D02*
X-8451381Y18797619D01*
X-8451381Y18797619D02*
X-8427572Y18821429D01*
X-8427572Y18821429D02*
X-8356143Y18869048D01*
X-8356143Y18869048D02*
X-8260905Y18892857D01*
X-8260905Y18892857D02*
X-8070429Y18892857D01*
X-8070429Y18892857D02*
X-8022810Y18869048D01*
X-8022810Y18869048D02*
X-7999000Y18845238D01*
X-7999000Y18845238D02*
X-7975191Y18797619D01*
X-7975191Y18797619D02*
X-7975191Y18702381D01*
X-7975191Y18702381D02*
X-7999000Y18654762D01*
X-7999000Y18654762D02*
X-8022810Y18630953D01*
X-8022810Y18630953D02*
X-8070429Y18607143D01*
X-8070429Y18607143D02*
X-8189477Y18607143D01*
X-8189477Y18607143D02*
X-8237096Y18630953D01*
X-8237096Y18630953D02*
X-8260905Y18654762D01*
X-8260905Y18654762D02*
X-8284715Y18702381D01*
X-8284715Y18702381D02*
X-8284715Y18797619D01*
X-8284715Y18797619D02*
X-8260905Y18845238D01*
X-8260905Y18845238D02*
X-8237096Y18869048D01*
X-8237096Y18869048D02*
X-8189477Y18892857D01*
X18797309Y32089048D02*
X18297309Y32089048D01*
X18297309Y32089048D02*
X18297309Y31970000D01*
X18297309Y31970000D02*
X18321119Y31898572D01*
X18321119Y31898572D02*
X18368738Y31850953D01*
X18368738Y31850953D02*
X18416357Y31827143D01*
X18416357Y31827143D02*
X18511595Y31803334D01*
X18511595Y31803334D02*
X18583023Y31803334D01*
X18583023Y31803334D02*
X18678261Y31827143D01*
X18678261Y31827143D02*
X18725880Y31850953D01*
X18725880Y31850953D02*
X18773500Y31898572D01*
X18773500Y31898572D02*
X18797309Y31970000D01*
X18797309Y31970000D02*
X18797309Y32089048D01*
X18344928Y31612857D02*
X18321119Y31589048D01*
X18321119Y31589048D02*
X18297309Y31541429D01*
X18297309Y31541429D02*
X18297309Y31422381D01*
X18297309Y31422381D02*
X18321119Y31374762D01*
X18321119Y31374762D02*
X18344928Y31350953D01*
X18344928Y31350953D02*
X18392547Y31327143D01*
X18392547Y31327143D02*
X18440166Y31327143D01*
X18440166Y31327143D02*
X18511595Y31350953D01*
X18511595Y31350953D02*
X18797309Y31636667D01*
X18797309Y31636667D02*
X18797309Y31327143D01*
X24544047Y29975191D02*
X24544047Y30475191D01*
X24544047Y30475191D02*
X24424999Y30475191D01*
X24424999Y30475191D02*
X24353571Y30451381D01*
X24353571Y30451381D02*
X24305952Y30403762D01*
X24305952Y30403762D02*
X24282142Y30356143D01*
X24282142Y30356143D02*
X24258333Y30260905D01*
X24258333Y30260905D02*
X24258333Y30189477D01*
X24258333Y30189477D02*
X24282142Y30094239D01*
X24282142Y30094239D02*
X24305952Y30046620D01*
X24305952Y30046620D02*
X24353571Y29999000D01*
X24353571Y29999000D02*
X24424999Y29975191D01*
X24424999Y29975191D02*
X24544047Y29975191D01*
X23782142Y29975191D02*
X24067856Y29975191D01*
X23924999Y29975191D02*
X23924999Y30475191D01*
X23924999Y30475191D02*
X23972618Y30403762D01*
X23972618Y30403762D02*
X24020237Y30356143D01*
X24020237Y30356143D02*
X24067856Y30332334D01*
X-615783Y16183633D02*
X-582111Y16183633D01*
X-582111Y16183633D02*
X-514767Y16217305D01*
X-514767Y16217305D02*
X-481096Y16250977D01*
X-481096Y16250977D02*
X-447424Y16318320D01*
X-447424Y16318320D02*
X-447424Y16385664D01*
X-447424Y16385664D02*
X-464260Y16436171D01*
X-464260Y16436171D02*
X-514767Y16520351D01*
X-514767Y16520351D02*
X-565275Y16570858D01*
X-565275Y16570858D02*
X-649454Y16621366D01*
X-649454Y16621366D02*
X-699962Y16638202D01*
X-699962Y16638202D02*
X-767305Y16638202D01*
X-767305Y16638202D02*
X-834649Y16604530D01*
X-834649Y16604530D02*
X-868321Y16570858D01*
X-868321Y16570858D02*
X-901992Y16503515D01*
X-901992Y16503515D02*
X-901992Y16469843D01*
X-918828Y15813244D02*
X-716798Y16015275D01*
X-817813Y15914259D02*
X-1171366Y16267813D01*
X-1171366Y16267813D02*
X-1087187Y16250977D01*
X-1087187Y16250977D02*
X-1019844Y16250977D01*
X-1019844Y16250977D02*
X-969336Y16267813D01*
X1024809Y27921429D02*
X786714Y28088095D01*
X1024809Y28207143D02*
X524809Y28207143D01*
X524809Y28207143D02*
X524809Y28016667D01*
X524809Y28016667D02*
X548619Y27969048D01*
X548619Y27969048D02*
X572428Y27945238D01*
X572428Y27945238D02*
X620047Y27921429D01*
X620047Y27921429D02*
X691476Y27921429D01*
X691476Y27921429D02*
X739095Y27945238D01*
X739095Y27945238D02*
X762904Y27969048D01*
X762904Y27969048D02*
X786714Y28016667D01*
X786714Y28016667D02*
X786714Y28207143D01*
X1024809Y27445238D02*
X1024809Y27730952D01*
X1024809Y27588095D02*
X524809Y27588095D01*
X524809Y27588095D02*
X596238Y27635714D01*
X596238Y27635714D02*
X643857Y27683333D01*
X643857Y27683333D02*
X667666Y27730952D01*
X524809Y27135715D02*
X524809Y27088096D01*
X524809Y27088096D02*
X548619Y27040477D01*
X548619Y27040477D02*
X572428Y27016667D01*
X572428Y27016667D02*
X620047Y26992858D01*
X620047Y26992858D02*
X715285Y26969048D01*
X715285Y26969048D02*
X834333Y26969048D01*
X834333Y26969048D02*
X929571Y26992858D01*
X929571Y26992858D02*
X977190Y27016667D01*
X977190Y27016667D02*
X1001000Y27040477D01*
X1001000Y27040477D02*
X1024809Y27088096D01*
X1024809Y27088096D02*
X1024809Y27135715D01*
X1024809Y27135715D02*
X1001000Y27183334D01*
X1001000Y27183334D02*
X977190Y27207143D01*
X977190Y27207143D02*
X929571Y27230953D01*
X929571Y27230953D02*
X834333Y27254762D01*
X834333Y27254762D02*
X715285Y27254762D01*
X715285Y27254762D02*
X620047Y27230953D01*
X620047Y27230953D02*
X572428Y27207143D01*
X572428Y27207143D02*
X548619Y27183334D01*
X548619Y27183334D02*
X524809Y27135715D01*
X5484217Y3783633D02*
X5517889Y3783633D01*
X5517889Y3783633D02*
X5585233Y3817305D01*
X5585233Y3817305D02*
X5618904Y3850977D01*
X5618904Y3850977D02*
X5652576Y3918320D01*
X5652576Y3918320D02*
X5652576Y3985664D01*
X5652576Y3985664D02*
X5635740Y4036171D01*
X5635740Y4036171D02*
X5585233Y4120351D01*
X5585233Y4120351D02*
X5534725Y4170858D01*
X5534725Y4170858D02*
X5450546Y4221366D01*
X5450546Y4221366D02*
X5400038Y4238202D01*
X5400038Y4238202D02*
X5332695Y4238202D01*
X5332695Y4238202D02*
X5265351Y4204530D01*
X5265351Y4204530D02*
X5231679Y4170858D01*
X5231679Y4170858D02*
X5198008Y4103515D01*
X5198008Y4103515D02*
X5198008Y4069843D01*
X4979141Y3682618D02*
X5214843Y3446916D01*
X4928634Y3901484D02*
X5265351Y3733126D01*
X5265351Y3733126D02*
X5046485Y3514259D01*
X22266666Y28275191D02*
X22266666Y27918048D01*
X22266666Y27918048D02*
X22290475Y27846620D01*
X22290475Y27846620D02*
X22338094Y27799000D01*
X22338094Y27799000D02*
X22409523Y27775191D01*
X22409523Y27775191D02*
X22457142Y27775191D01*
X21814285Y28108524D02*
X21814285Y27775191D01*
X21933333Y28299000D02*
X22052380Y27941858D01*
X22052380Y27941858D02*
X21742857Y27941858D01*
X13277190Y32021429D02*
X13301000Y32045238D01*
X13301000Y32045238D02*
X13324809Y32116667D01*
X13324809Y32116667D02*
X13324809Y32164286D01*
X13324809Y32164286D02*
X13301000Y32235714D01*
X13301000Y32235714D02*
X13253380Y32283333D01*
X13253380Y32283333D02*
X13205761Y32307143D01*
X13205761Y32307143D02*
X13110523Y32330952D01*
X13110523Y32330952D02*
X13039095Y32330952D01*
X13039095Y32330952D02*
X12943857Y32307143D01*
X12943857Y32307143D02*
X12896238Y32283333D01*
X12896238Y32283333D02*
X12848619Y32235714D01*
X12848619Y32235714D02*
X12824809Y32164286D01*
X12824809Y32164286D02*
X12824809Y32116667D01*
X12824809Y32116667D02*
X12848619Y32045238D01*
X12848619Y32045238D02*
X12872428Y32021429D01*
X13324809Y31545238D02*
X13324809Y31830952D01*
X13324809Y31688095D02*
X12824809Y31688095D01*
X12824809Y31688095D02*
X12896238Y31735714D01*
X12896238Y31735714D02*
X12943857Y31783333D01*
X12943857Y31783333D02*
X12967666Y31830952D01*
X13324809Y31307143D02*
X13324809Y31211905D01*
X13324809Y31211905D02*
X13301000Y31164286D01*
X13301000Y31164286D02*
X13277190Y31140477D01*
X13277190Y31140477D02*
X13205761Y31092858D01*
X13205761Y31092858D02*
X13110523Y31069048D01*
X13110523Y31069048D02*
X12920047Y31069048D01*
X12920047Y31069048D02*
X12872428Y31092858D01*
X12872428Y31092858D02*
X12848619Y31116667D01*
X12848619Y31116667D02*
X12824809Y31164286D01*
X12824809Y31164286D02*
X12824809Y31259524D01*
X12824809Y31259524D02*
X12848619Y31307143D01*
X12848619Y31307143D02*
X12872428Y31330953D01*
X12872428Y31330953D02*
X12920047Y31354762D01*
X12920047Y31354762D02*
X13039095Y31354762D01*
X13039095Y31354762D02*
X13086714Y31330953D01*
X13086714Y31330953D02*
X13110523Y31307143D01*
X13110523Y31307143D02*
X13134333Y31259524D01*
X13134333Y31259524D02*
X13134333Y31164286D01*
X13134333Y31164286D02*
X13110523Y31116667D01*
X13110523Y31116667D02*
X13086714Y31092858D01*
X13086714Y31092858D02*
X13039095Y31069048D01*
X-19175191Y-34630952D02*
X-19675191Y-34630952D01*
X-19675191Y-34630952D02*
X-19675191Y-34750000D01*
X-19675191Y-34750000D02*
X-19651381Y-34821428D01*
X-19651381Y-34821428D02*
X-19603762Y-34869047D01*
X-19603762Y-34869047D02*
X-19556143Y-34892857D01*
X-19556143Y-34892857D02*
X-19460905Y-34916666D01*
X-19460905Y-34916666D02*
X-19389477Y-34916666D01*
X-19389477Y-34916666D02*
X-19294239Y-34892857D01*
X-19294239Y-34892857D02*
X-19246620Y-34869047D01*
X-19246620Y-34869047D02*
X-19199000Y-34821428D01*
X-19199000Y-34821428D02*
X-19175191Y-34750000D01*
X-19175191Y-34750000D02*
X-19175191Y-34630952D01*
X-19508524Y-35345238D02*
X-19175191Y-35345238D01*
X-19699000Y-35226190D02*
X-19341858Y-35107143D01*
X-19341858Y-35107143D02*
X-19341858Y-35416666D01*
X-2015783Y18583633D02*
X-1982111Y18583633D01*
X-1982111Y18583633D02*
X-1914767Y18617305D01*
X-1914767Y18617305D02*
X-1881096Y18650977D01*
X-1881096Y18650977D02*
X-1847424Y18718320D01*
X-1847424Y18718320D02*
X-1847424Y18785664D01*
X-1847424Y18785664D02*
X-1864260Y18836171D01*
X-1864260Y18836171D02*
X-1914767Y18920351D01*
X-1914767Y18920351D02*
X-1965275Y18970858D01*
X-1965275Y18970858D02*
X-2049454Y19021366D01*
X-2049454Y19021366D02*
X-2099962Y19038202D01*
X-2099962Y19038202D02*
X-2167305Y19038202D01*
X-2167305Y19038202D02*
X-2234649Y19004530D01*
X-2234649Y19004530D02*
X-2268321Y18970858D01*
X-2268321Y18970858D02*
X-2301992Y18903515D01*
X-2301992Y18903515D02*
X-2301992Y18869843D01*
X-2436679Y18735156D02*
X-2470351Y18735156D01*
X-2470351Y18735156D02*
X-2520859Y18718320D01*
X-2520859Y18718320D02*
X-2605038Y18634141D01*
X-2605038Y18634141D02*
X-2621874Y18583633D01*
X-2621874Y18583633D02*
X-2621874Y18549962D01*
X-2621874Y18549962D02*
X-2605038Y18499454D01*
X-2605038Y18499454D02*
X-2571366Y18465782D01*
X-2571366Y18465782D02*
X-2504023Y18432110D01*
X-2504023Y18432110D02*
X-2099962Y18432110D01*
X-2099962Y18432110D02*
X-2318828Y18213244D01*
X166666Y35175191D02*
X166666Y34818048D01*
X166666Y34818048D02*
X190475Y34746620D01*
X190475Y34746620D02*
X238094Y34699000D01*
X238094Y34699000D02*
X309523Y34675191D01*
X309523Y34675191D02*
X357142Y34675191D01*
X-23810Y35175191D02*
X-333334Y35175191D01*
X-333334Y35175191D02*
X-166667Y34984715D01*
X-166667Y34984715D02*
X-238096Y34984715D01*
X-238096Y34984715D02*
X-285715Y34960905D01*
X-285715Y34960905D02*
X-309524Y34937096D01*
X-309524Y34937096D02*
X-333334Y34889477D01*
X-333334Y34889477D02*
X-333334Y34770429D01*
X-333334Y34770429D02*
X-309524Y34722810D01*
X-309524Y34722810D02*
X-285715Y34699000D01*
X-285715Y34699000D02*
X-238096Y34675191D01*
X-238096Y34675191D02*
X-95239Y34675191D01*
X-95239Y34675191D02*
X-47620Y34699000D01*
X-47620Y34699000D02*
X-23810Y34722810D01*
X9707190Y31931429D02*
X9731000Y31955238D01*
X9731000Y31955238D02*
X9754809Y32026667D01*
X9754809Y32026667D02*
X9754809Y32074286D01*
X9754809Y32074286D02*
X9731000Y32145714D01*
X9731000Y32145714D02*
X9683380Y32193333D01*
X9683380Y32193333D02*
X9635761Y32217143D01*
X9635761Y32217143D02*
X9540523Y32240952D01*
X9540523Y32240952D02*
X9469095Y32240952D01*
X9469095Y32240952D02*
X9373857Y32217143D01*
X9373857Y32217143D02*
X9326238Y32193333D01*
X9326238Y32193333D02*
X9278619Y32145714D01*
X9278619Y32145714D02*
X9254809Y32074286D01*
X9254809Y32074286D02*
X9254809Y32026667D01*
X9254809Y32026667D02*
X9278619Y31955238D01*
X9278619Y31955238D02*
X9302428Y31931429D01*
X9302428Y31740952D02*
X9278619Y31717143D01*
X9278619Y31717143D02*
X9254809Y31669524D01*
X9254809Y31669524D02*
X9254809Y31550476D01*
X9254809Y31550476D02*
X9278619Y31502857D01*
X9278619Y31502857D02*
X9302428Y31479048D01*
X9302428Y31479048D02*
X9350047Y31455238D01*
X9350047Y31455238D02*
X9397666Y31455238D01*
X9397666Y31455238D02*
X9469095Y31479048D01*
X9469095Y31479048D02*
X9754809Y31764762D01*
X9754809Y31764762D02*
X9754809Y31455238D01*
X9254809Y31145715D02*
X9254809Y31098096D01*
X9254809Y31098096D02*
X9278619Y31050477D01*
X9278619Y31050477D02*
X9302428Y31026667D01*
X9302428Y31026667D02*
X9350047Y31002858D01*
X9350047Y31002858D02*
X9445285Y30979048D01*
X9445285Y30979048D02*
X9564333Y30979048D01*
X9564333Y30979048D02*
X9659571Y31002858D01*
X9659571Y31002858D02*
X9707190Y31026667D01*
X9707190Y31026667D02*
X9731000Y31050477D01*
X9731000Y31050477D02*
X9754809Y31098096D01*
X9754809Y31098096D02*
X9754809Y31145715D01*
X9754809Y31145715D02*
X9731000Y31193334D01*
X9731000Y31193334D02*
X9707190Y31217143D01*
X9707190Y31217143D02*
X9659571Y31240953D01*
X9659571Y31240953D02*
X9564333Y31264762D01*
X9564333Y31264762D02*
X9445285Y31264762D01*
X9445285Y31264762D02*
X9350047Y31240953D01*
X9350047Y31240953D02*
X9302428Y31217143D01*
X9302428Y31217143D02*
X9278619Y31193334D01*
X9278619Y31193334D02*
X9254809Y31145715D01*
X19024809Y-15492857D02*
X18524809Y-15492857D01*
X18524809Y-15492857D02*
X18524809Y-15611905D01*
X18524809Y-15611905D02*
X18548619Y-15683333D01*
X18548619Y-15683333D02*
X18596238Y-15730952D01*
X18596238Y-15730952D02*
X18643857Y-15754762D01*
X18643857Y-15754762D02*
X18739095Y-15778571D01*
X18739095Y-15778571D02*
X18810523Y-15778571D01*
X18810523Y-15778571D02*
X18905761Y-15754762D01*
X18905761Y-15754762D02*
X18953380Y-15730952D01*
X18953380Y-15730952D02*
X19001000Y-15683333D01*
X19001000Y-15683333D02*
X19024809Y-15611905D01*
X19024809Y-15611905D02*
X19024809Y-15492857D01*
X19024809Y-16254762D02*
X19024809Y-15969048D01*
X19024809Y-16111905D02*
X18524809Y-16111905D01*
X18524809Y-16111905D02*
X18596238Y-16064286D01*
X18596238Y-16064286D02*
X18643857Y-16016667D01*
X18643857Y-16016667D02*
X18667666Y-15969048D01*
X18572428Y-16445238D02*
X18548619Y-16469047D01*
X18548619Y-16469047D02*
X18524809Y-16516666D01*
X18524809Y-16516666D02*
X18524809Y-16635714D01*
X18524809Y-16635714D02*
X18548619Y-16683333D01*
X18548619Y-16683333D02*
X18572428Y-16707142D01*
X18572428Y-16707142D02*
X18620047Y-16730952D01*
X18620047Y-16730952D02*
X18667666Y-16730952D01*
X18667666Y-16730952D02*
X18739095Y-16707142D01*
X18739095Y-16707142D02*
X19024809Y-16421428D01*
X19024809Y-16421428D02*
X19024809Y-16730952D01*
X-8175191Y16613334D02*
X-8413286Y16780000D01*
X-8175191Y16899048D02*
X-8675191Y16899048D01*
X-8675191Y16899048D02*
X-8675191Y16708572D01*
X-8675191Y16708572D02*
X-8651381Y16660953D01*
X-8651381Y16660953D02*
X-8627572Y16637143D01*
X-8627572Y16637143D02*
X-8579953Y16613334D01*
X-8579953Y16613334D02*
X-8508524Y16613334D01*
X-8508524Y16613334D02*
X-8460905Y16637143D01*
X-8460905Y16637143D02*
X-8437096Y16660953D01*
X-8437096Y16660953D02*
X-8413286Y16708572D01*
X-8413286Y16708572D02*
X-8413286Y16899048D01*
X-8675191Y16160953D02*
X-8675191Y16399048D01*
X-8675191Y16399048D02*
X-8437096Y16422857D01*
X-8437096Y16422857D02*
X-8460905Y16399048D01*
X-8460905Y16399048D02*
X-8484715Y16351429D01*
X-8484715Y16351429D02*
X-8484715Y16232381D01*
X-8484715Y16232381D02*
X-8460905Y16184762D01*
X-8460905Y16184762D02*
X-8437096Y16160953D01*
X-8437096Y16160953D02*
X-8389477Y16137143D01*
X-8389477Y16137143D02*
X-8270429Y16137143D01*
X-8270429Y16137143D02*
X-8222810Y16160953D01*
X-8222810Y16160953D02*
X-8199000Y16184762D01*
X-8199000Y16184762D02*
X-8175191Y16232381D01*
X-8175191Y16232381D02*
X-8175191Y16351429D01*
X-8175191Y16351429D02*
X-8199000Y16399048D01*
X-8199000Y16399048D02*
X-8222810Y16422857D01*
X-5522810Y21921429D02*
X-5499000Y21945238D01*
X-5499000Y21945238D02*
X-5475191Y22016667D01*
X-5475191Y22016667D02*
X-5475191Y22064286D01*
X-5475191Y22064286D02*
X-5499000Y22135714D01*
X-5499000Y22135714D02*
X-5546620Y22183333D01*
X-5546620Y22183333D02*
X-5594239Y22207143D01*
X-5594239Y22207143D02*
X-5689477Y22230952D01*
X-5689477Y22230952D02*
X-5760905Y22230952D01*
X-5760905Y22230952D02*
X-5856143Y22207143D01*
X-5856143Y22207143D02*
X-5903762Y22183333D01*
X-5903762Y22183333D02*
X-5951381Y22135714D01*
X-5951381Y22135714D02*
X-5975191Y22064286D01*
X-5975191Y22064286D02*
X-5975191Y22016667D01*
X-5975191Y22016667D02*
X-5951381Y21945238D01*
X-5951381Y21945238D02*
X-5927572Y21921429D01*
X-5475191Y21445238D02*
X-5475191Y21730952D01*
X-5475191Y21588095D02*
X-5975191Y21588095D01*
X-5975191Y21588095D02*
X-5903762Y21635714D01*
X-5903762Y21635714D02*
X-5856143Y21683333D01*
X-5856143Y21683333D02*
X-5832334Y21730952D01*
X-5975191Y21278572D02*
X-5975191Y20945239D01*
X-5975191Y20945239D02*
X-5475191Y21159524D01*
X22924809Y-15592857D02*
X22424809Y-15592857D01*
X22424809Y-15592857D02*
X22424809Y-15711905D01*
X22424809Y-15711905D02*
X22448619Y-15783333D01*
X22448619Y-15783333D02*
X22496238Y-15830952D01*
X22496238Y-15830952D02*
X22543857Y-15854762D01*
X22543857Y-15854762D02*
X22639095Y-15878571D01*
X22639095Y-15878571D02*
X22710523Y-15878571D01*
X22710523Y-15878571D02*
X22805761Y-15854762D01*
X22805761Y-15854762D02*
X22853380Y-15830952D01*
X22853380Y-15830952D02*
X22901000Y-15783333D01*
X22901000Y-15783333D02*
X22924809Y-15711905D01*
X22924809Y-15711905D02*
X22924809Y-15592857D01*
X22924809Y-16354762D02*
X22924809Y-16069048D01*
X22924809Y-16211905D02*
X22424809Y-16211905D01*
X22424809Y-16211905D02*
X22496238Y-16164286D01*
X22496238Y-16164286D02*
X22543857Y-16116667D01*
X22543857Y-16116667D02*
X22567666Y-16069048D01*
X22424809Y-16521428D02*
X22424809Y-16854761D01*
X22424809Y-16854761D02*
X22924809Y-16640476D01*
X-5522810Y16821429D02*
X-5499000Y16845238D01*
X-5499000Y16845238D02*
X-5475191Y16916667D01*
X-5475191Y16916667D02*
X-5475191Y16964286D01*
X-5475191Y16964286D02*
X-5499000Y17035714D01*
X-5499000Y17035714D02*
X-5546620Y17083333D01*
X-5546620Y17083333D02*
X-5594239Y17107143D01*
X-5594239Y17107143D02*
X-5689477Y17130952D01*
X-5689477Y17130952D02*
X-5760905Y17130952D01*
X-5760905Y17130952D02*
X-5856143Y17107143D01*
X-5856143Y17107143D02*
X-5903762Y17083333D01*
X-5903762Y17083333D02*
X-5951381Y17035714D01*
X-5951381Y17035714D02*
X-5975191Y16964286D01*
X-5975191Y16964286D02*
X-5975191Y16916667D01*
X-5975191Y16916667D02*
X-5951381Y16845238D01*
X-5951381Y16845238D02*
X-5927572Y16821429D01*
X-5475191Y16345238D02*
X-5475191Y16630952D01*
X-5475191Y16488095D02*
X-5975191Y16488095D01*
X-5975191Y16488095D02*
X-5903762Y16535714D01*
X-5903762Y16535714D02*
X-5856143Y16583333D01*
X-5856143Y16583333D02*
X-5832334Y16630952D01*
X-5975191Y15892858D02*
X-5975191Y16130953D01*
X-5975191Y16130953D02*
X-5737096Y16154762D01*
X-5737096Y16154762D02*
X-5760905Y16130953D01*
X-5760905Y16130953D02*
X-5784715Y16083334D01*
X-5784715Y16083334D02*
X-5784715Y15964286D01*
X-5784715Y15964286D02*
X-5760905Y15916667D01*
X-5760905Y15916667D02*
X-5737096Y15892858D01*
X-5737096Y15892858D02*
X-5689477Y15869048D01*
X-5689477Y15869048D02*
X-5570429Y15869048D01*
X-5570429Y15869048D02*
X-5522810Y15892858D01*
X-5522810Y15892858D02*
X-5499000Y15916667D01*
X-5499000Y15916667D02*
X-5475191Y15964286D01*
X-5475191Y15964286D02*
X-5475191Y16083334D01*
X-5475191Y16083334D02*
X-5499000Y16130953D01*
X-5499000Y16130953D02*
X-5522810Y16154762D01*
X-18975191Y-53730952D02*
X-19475191Y-53730952D01*
X-19475191Y-53730952D02*
X-19475191Y-53850000D01*
X-19475191Y-53850000D02*
X-19451381Y-53921428D01*
X-19451381Y-53921428D02*
X-19403762Y-53969047D01*
X-19403762Y-53969047D02*
X-19356143Y-53992857D01*
X-19356143Y-53992857D02*
X-19260905Y-54016666D01*
X-19260905Y-54016666D02*
X-19189477Y-54016666D01*
X-19189477Y-54016666D02*
X-19094239Y-53992857D01*
X-19094239Y-53992857D02*
X-19046620Y-53969047D01*
X-19046620Y-53969047D02*
X-18999000Y-53921428D01*
X-18999000Y-53921428D02*
X-18975191Y-53850000D01*
X-18975191Y-53850000D02*
X-18975191Y-53730952D01*
X-19475191Y-54469047D02*
X-19475191Y-54230952D01*
X-19475191Y-54230952D02*
X-19237096Y-54207143D01*
X-19237096Y-54207143D02*
X-19260905Y-54230952D01*
X-19260905Y-54230952D02*
X-19284715Y-54278571D01*
X-19284715Y-54278571D02*
X-19284715Y-54397619D01*
X-19284715Y-54397619D02*
X-19260905Y-54445238D01*
X-19260905Y-54445238D02*
X-19237096Y-54469047D01*
X-19237096Y-54469047D02*
X-19189477Y-54492857D01*
X-19189477Y-54492857D02*
X-19070429Y-54492857D01*
X-19070429Y-54492857D02*
X-19022810Y-54469047D01*
X-19022810Y-54469047D02*
X-18999000Y-54445238D01*
X-18999000Y-54445238D02*
X-18975191Y-54397619D01*
X-18975191Y-54397619D02*
X-18975191Y-54278571D01*
X-18975191Y-54278571D02*
X-18999000Y-54230952D01*
X-18999000Y-54230952D02*
X-19022810Y-54207143D01*
X10824809Y31280953D02*
X11229571Y31280953D01*
X11229571Y31280953D02*
X11277190Y31257143D01*
X11277190Y31257143D02*
X11301000Y31233334D01*
X11301000Y31233334D02*
X11324809Y31185715D01*
X11324809Y31185715D02*
X11324809Y31090477D01*
X11324809Y31090477D02*
X11301000Y31042858D01*
X11301000Y31042858D02*
X11277190Y31019048D01*
X11277190Y31019048D02*
X11229571Y30995239D01*
X11229571Y30995239D02*
X10824809Y30995239D01*
X10824809Y30519048D02*
X10824809Y30757143D01*
X10824809Y30757143D02*
X11062904Y30780952D01*
X11062904Y30780952D02*
X11039095Y30757143D01*
X11039095Y30757143D02*
X11015285Y30709524D01*
X11015285Y30709524D02*
X11015285Y30590476D01*
X11015285Y30590476D02*
X11039095Y30542857D01*
X11039095Y30542857D02*
X11062904Y30519048D01*
X11062904Y30519048D02*
X11110523Y30495238D01*
X11110523Y30495238D02*
X11229571Y30495238D01*
X11229571Y30495238D02*
X11277190Y30519048D01*
X11277190Y30519048D02*
X11301000Y30542857D01*
X11301000Y30542857D02*
X11324809Y30590476D01*
X11324809Y30590476D02*
X11324809Y30709524D01*
X11324809Y30709524D02*
X11301000Y30757143D01*
X11301000Y30757143D02*
X11277190Y30780952D01*
X11666665Y28599000D02*
X11595237Y28575191D01*
X11595237Y28575191D02*
X11476189Y28575191D01*
X11476189Y28575191D02*
X11428570Y28599000D01*
X11428570Y28599000D02*
X11404761Y28622810D01*
X11404761Y28622810D02*
X11380951Y28670429D01*
X11380951Y28670429D02*
X11380951Y28718048D01*
X11380951Y28718048D02*
X11404761Y28765667D01*
X11404761Y28765667D02*
X11428570Y28789477D01*
X11428570Y28789477D02*
X11476189Y28813286D01*
X11476189Y28813286D02*
X11571427Y28837096D01*
X11571427Y28837096D02*
X11619046Y28860905D01*
X11619046Y28860905D02*
X11642856Y28884715D01*
X11642856Y28884715D02*
X11666665Y28932334D01*
X11666665Y28932334D02*
X11666665Y28979953D01*
X11666665Y28979953D02*
X11642856Y29027572D01*
X11642856Y29027572D02*
X11619046Y29051381D01*
X11619046Y29051381D02*
X11571427Y29075191D01*
X11571427Y29075191D02*
X11452380Y29075191D01*
X11452380Y29075191D02*
X11380951Y29051381D01*
X11214285Y29075191D02*
X11095237Y28575191D01*
X11095237Y28575191D02*
X10999999Y28932334D01*
X10999999Y28932334D02*
X10904761Y28575191D01*
X10904761Y28575191D02*
X10785714Y29075191D01*
X10642856Y29075191D02*
X10333332Y29075191D01*
X10333332Y29075191D02*
X10499999Y28884715D01*
X10499999Y28884715D02*
X10428570Y28884715D01*
X10428570Y28884715D02*
X10380951Y28860905D01*
X10380951Y28860905D02*
X10357142Y28837096D01*
X10357142Y28837096D02*
X10333332Y28789477D01*
X10333332Y28789477D02*
X10333332Y28670429D01*
X10333332Y28670429D02*
X10357142Y28622810D01*
X10357142Y28622810D02*
X10380951Y28599000D01*
X10380951Y28599000D02*
X10428570Y28575191D01*
X10428570Y28575191D02*
X10571427Y28575191D01*
X10571427Y28575191D02*
X10619046Y28599000D01*
X10619046Y28599000D02*
X10642856Y28622810D01*
X24607142Y-72124809D02*
X24607142Y-71624809D01*
X24607142Y-71624809D02*
X24488094Y-71624809D01*
X24488094Y-71624809D02*
X24416666Y-71648619D01*
X24416666Y-71648619D02*
X24369047Y-71696238D01*
X24369047Y-71696238D02*
X24345237Y-71743857D01*
X24345237Y-71743857D02*
X24321428Y-71839095D01*
X24321428Y-71839095D02*
X24321428Y-71910523D01*
X24321428Y-71910523D02*
X24345237Y-72005761D01*
X24345237Y-72005761D02*
X24369047Y-72053380D01*
X24369047Y-72053380D02*
X24416666Y-72101000D01*
X24416666Y-72101000D02*
X24488094Y-72124809D01*
X24488094Y-72124809D02*
X24607142Y-72124809D01*
X23845237Y-72124809D02*
X24130951Y-72124809D01*
X23988094Y-72124809D02*
X23988094Y-71624809D01*
X23988094Y-71624809D02*
X24035713Y-71696238D01*
X24035713Y-71696238D02*
X24083332Y-71743857D01*
X24083332Y-71743857D02*
X24130951Y-71767666D01*
X23607142Y-72124809D02*
X23511904Y-72124809D01*
X23511904Y-72124809D02*
X23464285Y-72101000D01*
X23464285Y-72101000D02*
X23440476Y-72077190D01*
X23440476Y-72077190D02*
X23392857Y-72005761D01*
X23392857Y-72005761D02*
X23369047Y-71910523D01*
X23369047Y-71910523D02*
X23369047Y-71720047D01*
X23369047Y-71720047D02*
X23392857Y-71672428D01*
X23392857Y-71672428D02*
X23416666Y-71648619D01*
X23416666Y-71648619D02*
X23464285Y-71624809D01*
X23464285Y-71624809D02*
X23559523Y-71624809D01*
X23559523Y-71624809D02*
X23607142Y-71648619D01*
X23607142Y-71648619D02*
X23630952Y-71672428D01*
X23630952Y-71672428D02*
X23654761Y-71720047D01*
X23654761Y-71720047D02*
X23654761Y-71839095D01*
X23654761Y-71839095D02*
X23630952Y-71886714D01*
X23630952Y-71886714D02*
X23607142Y-71910523D01*
X23607142Y-71910523D02*
X23559523Y-71934333D01*
X23559523Y-71934333D02*
X23464285Y-71934333D01*
X23464285Y-71934333D02*
X23416666Y-71910523D01*
X23416666Y-71910523D02*
X23392857Y-71886714D01*
X23392857Y-71886714D02*
X23369047Y-71839095D01*
X23883333Y6075191D02*
X24049999Y6313286D01*
X24169047Y6075191D02*
X24169047Y6575191D01*
X24169047Y6575191D02*
X23978571Y6575191D01*
X23978571Y6575191D02*
X23930952Y6551381D01*
X23930952Y6551381D02*
X23907142Y6527572D01*
X23907142Y6527572D02*
X23883333Y6479953D01*
X23883333Y6479953D02*
X23883333Y6408524D01*
X23883333Y6408524D02*
X23907142Y6360905D01*
X23907142Y6360905D02*
X23930952Y6337096D01*
X23930952Y6337096D02*
X23978571Y6313286D01*
X23978571Y6313286D02*
X24169047Y6313286D01*
X23407142Y6075191D02*
X23692856Y6075191D01*
X23549999Y6075191D02*
X23549999Y6575191D01*
X23549999Y6575191D02*
X23597618Y6503762D01*
X23597618Y6503762D02*
X23645237Y6456143D01*
X23645237Y6456143D02*
X23692856Y6432334D01*
X-2075191Y27921429D02*
X-2313286Y28088095D01*
X-2075191Y28207143D02*
X-2575191Y28207143D01*
X-2575191Y28207143D02*
X-2575191Y28016667D01*
X-2575191Y28016667D02*
X-2551381Y27969048D01*
X-2551381Y27969048D02*
X-2527572Y27945238D01*
X-2527572Y27945238D02*
X-2479953Y27921429D01*
X-2479953Y27921429D02*
X-2408524Y27921429D01*
X-2408524Y27921429D02*
X-2360905Y27945238D01*
X-2360905Y27945238D02*
X-2337096Y27969048D01*
X-2337096Y27969048D02*
X-2313286Y28016667D01*
X-2313286Y28016667D02*
X-2313286Y28207143D01*
X-2075191Y27445238D02*
X-2075191Y27730952D01*
X-2075191Y27588095D02*
X-2575191Y27588095D01*
X-2575191Y27588095D02*
X-2503762Y27635714D01*
X-2503762Y27635714D02*
X-2456143Y27683333D01*
X-2456143Y27683333D02*
X-2432334Y27730952D01*
X-2575191Y27278572D02*
X-2575191Y26969048D01*
X-2575191Y26969048D02*
X-2384715Y27135715D01*
X-2384715Y27135715D02*
X-2384715Y27064286D01*
X-2384715Y27064286D02*
X-2360905Y27016667D01*
X-2360905Y27016667D02*
X-2337096Y26992858D01*
X-2337096Y26992858D02*
X-2289477Y26969048D01*
X-2289477Y26969048D02*
X-2170429Y26969048D01*
X-2170429Y26969048D02*
X-2122810Y26992858D01*
X-2122810Y26992858D02*
X-2099000Y27016667D01*
X-2099000Y27016667D02*
X-2075191Y27064286D01*
X-2075191Y27064286D02*
X-2075191Y27207143D01*
X-2075191Y27207143D02*
X-2099000Y27254762D01*
X-2099000Y27254762D02*
X-2122810Y27278572D01*
X24601000Y9266666D02*
X24624809Y9195238D01*
X24624809Y9195238D02*
X24624809Y9076190D01*
X24624809Y9076190D02*
X24601000Y9028571D01*
X24601000Y9028571D02*
X24577190Y9004762D01*
X24577190Y9004762D02*
X24529571Y8980952D01*
X24529571Y8980952D02*
X24481952Y8980952D01*
X24481952Y8980952D02*
X24434333Y9004762D01*
X24434333Y9004762D02*
X24410523Y9028571D01*
X24410523Y9028571D02*
X24386714Y9076190D01*
X24386714Y9076190D02*
X24362904Y9171428D01*
X24362904Y9171428D02*
X24339095Y9219047D01*
X24339095Y9219047D02*
X24315285Y9242857D01*
X24315285Y9242857D02*
X24267666Y9266666D01*
X24267666Y9266666D02*
X24220047Y9266666D01*
X24220047Y9266666D02*
X24172428Y9242857D01*
X24172428Y9242857D02*
X24148619Y9219047D01*
X24148619Y9219047D02*
X24124809Y9171428D01*
X24124809Y9171428D02*
X24124809Y9052381D01*
X24124809Y9052381D02*
X24148619Y8980952D01*
X24124809Y8814286D02*
X24624809Y8695238D01*
X24624809Y8695238D02*
X24267666Y8600000D01*
X24267666Y8600000D02*
X24624809Y8504762D01*
X24624809Y8504762D02*
X24124809Y8385714D01*
X24172428Y8219047D02*
X24148619Y8195238D01*
X24148619Y8195238D02*
X24124809Y8147619D01*
X24124809Y8147619D02*
X24124809Y8028571D01*
X24124809Y8028571D02*
X24148619Y7980952D01*
X24148619Y7980952D02*
X24172428Y7957143D01*
X24172428Y7957143D02*
X24220047Y7933333D01*
X24220047Y7933333D02*
X24267666Y7933333D01*
X24267666Y7933333D02*
X24339095Y7957143D01*
X24339095Y7957143D02*
X24624809Y8242857D01*
X24624809Y8242857D02*
X24624809Y7933333D01*
X7033632Y11965783D02*
X7033632Y11932111D01*
X7033632Y11932111D02*
X7067304Y11864767D01*
X7067304Y11864767D02*
X7100976Y11831096D01*
X7100976Y11831096D02*
X7168319Y11797424D01*
X7168319Y11797424D02*
X7235663Y11797424D01*
X7235663Y11797424D02*
X7286170Y11814260D01*
X7286170Y11814260D02*
X7370350Y11864767D01*
X7370350Y11864767D02*
X7420857Y11915275D01*
X7420857Y11915275D02*
X7471365Y11999454D01*
X7471365Y11999454D02*
X7488201Y12049962D01*
X7488201Y12049962D02*
X7488201Y12117305D01*
X7488201Y12117305D02*
X7454529Y12184649D01*
X7454529Y12184649D02*
X7420857Y12218321D01*
X7420857Y12218321D02*
X7353514Y12251992D01*
X7353514Y12251992D02*
X7319842Y12251992D01*
X7235663Y12403515D02*
X7016796Y12622382D01*
X7016796Y12622382D02*
X6999961Y12369844D01*
X6999961Y12369844D02*
X6949453Y12420351D01*
X6949453Y12420351D02*
X6898945Y12437187D01*
X6898945Y12437187D02*
X6865274Y12437187D01*
X6865274Y12437187D02*
X6814766Y12420351D01*
X6814766Y12420351D02*
X6730587Y12336172D01*
X6730587Y12336172D02*
X6713751Y12285664D01*
X6713751Y12285664D02*
X6713751Y12251992D01*
X6713751Y12251992D02*
X6730587Y12201485D01*
X6730587Y12201485D02*
X6831602Y12100470D01*
X6831602Y12100470D02*
X6882109Y12083634D01*
X6882109Y12083634D02*
X6915781Y12083634D01*
X-19275191Y-15630952D02*
X-19775191Y-15630952D01*
X-19775191Y-15630952D02*
X-19775191Y-15750000D01*
X-19775191Y-15750000D02*
X-19751381Y-15821428D01*
X-19751381Y-15821428D02*
X-19703762Y-15869047D01*
X-19703762Y-15869047D02*
X-19656143Y-15892857D01*
X-19656143Y-15892857D02*
X-19560905Y-15916666D01*
X-19560905Y-15916666D02*
X-19489477Y-15916666D01*
X-19489477Y-15916666D02*
X-19394239Y-15892857D01*
X-19394239Y-15892857D02*
X-19346620Y-15869047D01*
X-19346620Y-15869047D02*
X-19299000Y-15821428D01*
X-19299000Y-15821428D02*
X-19275191Y-15750000D01*
X-19275191Y-15750000D02*
X-19275191Y-15630952D01*
X-19775191Y-16083333D02*
X-19775191Y-16392857D01*
X-19775191Y-16392857D02*
X-19584715Y-16226190D01*
X-19584715Y-16226190D02*
X-19584715Y-16297619D01*
X-19584715Y-16297619D02*
X-19560905Y-16345238D01*
X-19560905Y-16345238D02*
X-19537096Y-16369047D01*
X-19537096Y-16369047D02*
X-19489477Y-16392857D01*
X-19489477Y-16392857D02*
X-19370429Y-16392857D01*
X-19370429Y-16392857D02*
X-19322810Y-16369047D01*
X-19322810Y-16369047D02*
X-19299000Y-16345238D01*
X-19299000Y-16345238D02*
X-19275191Y-16297619D01*
X-19275191Y-16297619D02*
X-19275191Y-16154762D01*
X-19275191Y-16154762D02*
X-19299000Y-16107143D01*
X-19299000Y-16107143D02*
X-19322810Y-16083333D01*
X5286248Y14718320D02*
X5235740Y15004530D01*
X5488278Y14920351D02*
X5134725Y15273904D01*
X5134725Y15273904D02*
X5000038Y15139217D01*
X5000038Y15139217D02*
X4983202Y15088709D01*
X4983202Y15088709D02*
X4983202Y15055038D01*
X4983202Y15055038D02*
X5000038Y15004530D01*
X5000038Y15004530D02*
X5050546Y14954022D01*
X5050546Y14954022D02*
X5101053Y14937187D01*
X5101053Y14937187D02*
X5134725Y14937187D01*
X5134725Y14937187D02*
X5185233Y14954022D01*
X5185233Y14954022D02*
X5319920Y15088709D01*
X4949530Y14381603D02*
X5151561Y14583633D01*
X5050546Y14482618D02*
X4696992Y14836171D01*
X4696992Y14836171D02*
X4781172Y14819335D01*
X4781172Y14819335D02*
X4848515Y14819335D01*
X4848515Y14819335D02*
X4899023Y14836171D01*
X4612813Y14044885D02*
X4814844Y14246916D01*
X4713828Y14145901D02*
X4360275Y14499454D01*
X4360275Y14499454D02*
X4444454Y14482618D01*
X4444454Y14482618D02*
X4511798Y14482618D01*
X4511798Y14482618D02*
X4562306Y14499454D01*
X-5622810Y19321429D02*
X-5599000Y19345238D01*
X-5599000Y19345238D02*
X-5575191Y19416667D01*
X-5575191Y19416667D02*
X-5575191Y19464286D01*
X-5575191Y19464286D02*
X-5599000Y19535714D01*
X-5599000Y19535714D02*
X-5646620Y19583333D01*
X-5646620Y19583333D02*
X-5694239Y19607143D01*
X-5694239Y19607143D02*
X-5789477Y19630952D01*
X-5789477Y19630952D02*
X-5860905Y19630952D01*
X-5860905Y19630952D02*
X-5956143Y19607143D01*
X-5956143Y19607143D02*
X-6003762Y19583333D01*
X-6003762Y19583333D02*
X-6051381Y19535714D01*
X-6051381Y19535714D02*
X-6075191Y19464286D01*
X-6075191Y19464286D02*
X-6075191Y19416667D01*
X-6075191Y19416667D02*
X-6051381Y19345238D01*
X-6051381Y19345238D02*
X-6027572Y19321429D01*
X-5575191Y18845238D02*
X-5575191Y19130952D01*
X-5575191Y18988095D02*
X-6075191Y18988095D01*
X-6075191Y18988095D02*
X-6003762Y19035714D01*
X-6003762Y19035714D02*
X-5956143Y19083333D01*
X-5956143Y19083333D02*
X-5932334Y19130952D01*
X-6075191Y18416667D02*
X-6075191Y18511905D01*
X-6075191Y18511905D02*
X-6051381Y18559524D01*
X-6051381Y18559524D02*
X-6027572Y18583334D01*
X-6027572Y18583334D02*
X-5956143Y18630953D01*
X-5956143Y18630953D02*
X-5860905Y18654762D01*
X-5860905Y18654762D02*
X-5670429Y18654762D01*
X-5670429Y18654762D02*
X-5622810Y18630953D01*
X-5622810Y18630953D02*
X-5599000Y18607143D01*
X-5599000Y18607143D02*
X-5575191Y18559524D01*
X-5575191Y18559524D02*
X-5575191Y18464286D01*
X-5575191Y18464286D02*
X-5599000Y18416667D01*
X-5599000Y18416667D02*
X-5622810Y18392858D01*
X-5622810Y18392858D02*
X-5670429Y18369048D01*
X-5670429Y18369048D02*
X-5789477Y18369048D01*
X-5789477Y18369048D02*
X-5837096Y18392858D01*
X-5837096Y18392858D02*
X-5860905Y18416667D01*
X-5860905Y18416667D02*
X-5884715Y18464286D01*
X-5884715Y18464286D02*
X-5884715Y18559524D01*
X-5884715Y18559524D02*
X-5860905Y18607143D01*
X-5860905Y18607143D02*
X-5837096Y18630953D01*
X-5837096Y18630953D02*
X-5789477Y18654762D01*
X163963Y4375216D02*
X-122247Y4089006D01*
X-122247Y4089006D02*
X-172755Y4072170D01*
X-172755Y4072170D02*
X-206427Y4072170D01*
X-206427Y4072170D02*
X-256934Y4089006D01*
X-256934Y4089006D02*
X-324278Y4156349D01*
X-324278Y4156349D02*
X-341114Y4206857D01*
X-341114Y4206857D02*
X-341114Y4240529D01*
X-341114Y4240529D02*
X-324278Y4291036D01*
X-324278Y4291036D02*
X-38068Y4577246D01*
X-745175Y4577246D02*
X-543145Y4375216D01*
X-644160Y4476231D02*
X-290606Y4829785D01*
X-290606Y4829785D02*
X-307442Y4745605D01*
X-307442Y4745605D02*
X-307442Y4678262D01*
X-307442Y4678262D02*
X-290606Y4627754D01*
X5524809Y22583334D02*
X5286714Y22750000D01*
X5524809Y22869048D02*
X5024809Y22869048D01*
X5024809Y22869048D02*
X5024809Y22678572D01*
X5024809Y22678572D02*
X5048619Y22630953D01*
X5048619Y22630953D02*
X5072428Y22607143D01*
X5072428Y22607143D02*
X5120047Y22583334D01*
X5120047Y22583334D02*
X5191476Y22583334D01*
X5191476Y22583334D02*
X5239095Y22607143D01*
X5239095Y22607143D02*
X5262904Y22630953D01*
X5262904Y22630953D02*
X5286714Y22678572D01*
X5286714Y22678572D02*
X5286714Y22869048D01*
X5072428Y22392857D02*
X5048619Y22369048D01*
X5048619Y22369048D02*
X5024809Y22321429D01*
X5024809Y22321429D02*
X5024809Y22202381D01*
X5024809Y22202381D02*
X5048619Y22154762D01*
X5048619Y22154762D02*
X5072428Y22130953D01*
X5072428Y22130953D02*
X5120047Y22107143D01*
X5120047Y22107143D02*
X5167666Y22107143D01*
X5167666Y22107143D02*
X5239095Y22130953D01*
X5239095Y22130953D02*
X5524809Y22416667D01*
X5524809Y22416667D02*
X5524809Y22107143D01*
X-14811906Y16475191D02*
X-14811906Y16975191D01*
X-15335715Y16522810D02*
X-15311906Y16499000D01*
X-15311906Y16499000D02*
X-15240477Y16475191D01*
X-15240477Y16475191D02*
X-15192858Y16475191D01*
X-15192858Y16475191D02*
X-15121430Y16499000D01*
X-15121430Y16499000D02*
X-15073811Y16546620D01*
X-15073811Y16546620D02*
X-15050001Y16594239D01*
X-15050001Y16594239D02*
X-15026192Y16689477D01*
X-15026192Y16689477D02*
X-15026192Y16760905D01*
X-15026192Y16760905D02*
X-15050001Y16856143D01*
X-15050001Y16856143D02*
X-15073811Y16903762D01*
X-15073811Y16903762D02*
X-15121430Y16951381D01*
X-15121430Y16951381D02*
X-15192858Y16975191D01*
X-15192858Y16975191D02*
X-15240477Y16975191D01*
X-15240477Y16975191D02*
X-15311906Y16951381D01*
X-15311906Y16951381D02*
X-15335715Y16927572D01*
X-15811906Y16475191D02*
X-15526192Y16475191D01*
X-15669049Y16475191D02*
X-15669049Y16975191D01*
X-15669049Y16975191D02*
X-15621430Y16903762D01*
X-15621430Y16903762D02*
X-15573811Y16856143D01*
X-15573811Y16856143D02*
X-15526192Y16832334D01*
X-6978572Y33222810D02*
X-6954763Y33199000D01*
X-6954763Y33199000D02*
X-6883334Y33175191D01*
X-6883334Y33175191D02*
X-6835715Y33175191D01*
X-6835715Y33175191D02*
X-6764287Y33199000D01*
X-6764287Y33199000D02*
X-6716668Y33246620D01*
X-6716668Y33246620D02*
X-6692858Y33294239D01*
X-6692858Y33294239D02*
X-6669049Y33389477D01*
X-6669049Y33389477D02*
X-6669049Y33460905D01*
X-6669049Y33460905D02*
X-6692858Y33556143D01*
X-6692858Y33556143D02*
X-6716668Y33603762D01*
X-6716668Y33603762D02*
X-6764287Y33651381D01*
X-6764287Y33651381D02*
X-6835715Y33675191D01*
X-6835715Y33675191D02*
X-6883334Y33675191D01*
X-6883334Y33675191D02*
X-6954763Y33651381D01*
X-6954763Y33651381D02*
X-6978572Y33627572D01*
X-7454763Y33175191D02*
X-7169049Y33175191D01*
X-7311906Y33175191D02*
X-7311906Y33675191D01*
X-7311906Y33675191D02*
X-7264287Y33603762D01*
X-7264287Y33603762D02*
X-7216668Y33556143D01*
X-7216668Y33556143D02*
X-7169049Y33532334D01*
X-7930953Y33175191D02*
X-7645239Y33175191D01*
X-7788096Y33175191D02*
X-7788096Y33675191D01*
X-7788096Y33675191D02*
X-7740477Y33603762D01*
X-7740477Y33603762D02*
X-7692858Y33556143D01*
X-7692858Y33556143D02*
X-7645239Y33532334D01*
X19224809Y-77692857D02*
X18724809Y-77692857D01*
X18724809Y-77692857D02*
X18724809Y-77811905D01*
X18724809Y-77811905D02*
X18748619Y-77883333D01*
X18748619Y-77883333D02*
X18796238Y-77930952D01*
X18796238Y-77930952D02*
X18843857Y-77954762D01*
X18843857Y-77954762D02*
X18939095Y-77978571D01*
X18939095Y-77978571D02*
X19010523Y-77978571D01*
X19010523Y-77978571D02*
X19105761Y-77954762D01*
X19105761Y-77954762D02*
X19153380Y-77930952D01*
X19153380Y-77930952D02*
X19201000Y-77883333D01*
X19201000Y-77883333D02*
X19224809Y-77811905D01*
X19224809Y-77811905D02*
X19224809Y-77692857D01*
X19224809Y-78454762D02*
X19224809Y-78169048D01*
X19224809Y-78311905D02*
X18724809Y-78311905D01*
X18724809Y-78311905D02*
X18796238Y-78264286D01*
X18796238Y-78264286D02*
X18843857Y-78216667D01*
X18843857Y-78216667D02*
X18867666Y-78169048D01*
X18724809Y-78883333D02*
X18724809Y-78788095D01*
X18724809Y-78788095D02*
X18748619Y-78740476D01*
X18748619Y-78740476D02*
X18772428Y-78716666D01*
X18772428Y-78716666D02*
X18843857Y-78669047D01*
X18843857Y-78669047D02*
X18939095Y-78645238D01*
X18939095Y-78645238D02*
X19129571Y-78645238D01*
X19129571Y-78645238D02*
X19177190Y-78669047D01*
X19177190Y-78669047D02*
X19201000Y-78692857D01*
X19201000Y-78692857D02*
X19224809Y-78740476D01*
X19224809Y-78740476D02*
X19224809Y-78835714D01*
X19224809Y-78835714D02*
X19201000Y-78883333D01*
X19201000Y-78883333D02*
X19177190Y-78907142D01*
X19177190Y-78907142D02*
X19129571Y-78930952D01*
X19129571Y-78930952D02*
X19010523Y-78930952D01*
X19010523Y-78930952D02*
X18962904Y-78907142D01*
X18962904Y-78907142D02*
X18939095Y-78883333D01*
X18939095Y-78883333D02*
X18915285Y-78835714D01*
X18915285Y-78835714D02*
X18915285Y-78740476D01*
X18915285Y-78740476D02*
X18939095Y-78692857D01*
X18939095Y-78692857D02*
X18962904Y-78669047D01*
X18962904Y-78669047D02*
X19010523Y-78645238D01*
X-75191Y-15630952D02*
X-575191Y-15630952D01*
X-575191Y-15630952D02*
X-575191Y-15750000D01*
X-575191Y-15750000D02*
X-551381Y-15821428D01*
X-551381Y-15821428D02*
X-503762Y-15869047D01*
X-503762Y-15869047D02*
X-456143Y-15892857D01*
X-456143Y-15892857D02*
X-360905Y-15916666D01*
X-360905Y-15916666D02*
X-289477Y-15916666D01*
X-289477Y-15916666D02*
X-194239Y-15892857D01*
X-194239Y-15892857D02*
X-146620Y-15869047D01*
X-146620Y-15869047D02*
X-99000Y-15821428D01*
X-99000Y-15821428D02*
X-75191Y-15750000D01*
X-75191Y-15750000D02*
X-75191Y-15630952D01*
X-360905Y-16202381D02*
X-384715Y-16154762D01*
X-384715Y-16154762D02*
X-408524Y-16130952D01*
X-408524Y-16130952D02*
X-456143Y-16107143D01*
X-456143Y-16107143D02*
X-479953Y-16107143D01*
X-479953Y-16107143D02*
X-527572Y-16130952D01*
X-527572Y-16130952D02*
X-551381Y-16154762D01*
X-551381Y-16154762D02*
X-575191Y-16202381D01*
X-575191Y-16202381D02*
X-575191Y-16297619D01*
X-575191Y-16297619D02*
X-551381Y-16345238D01*
X-551381Y-16345238D02*
X-527572Y-16369047D01*
X-527572Y-16369047D02*
X-479953Y-16392857D01*
X-479953Y-16392857D02*
X-456143Y-16392857D01*
X-456143Y-16392857D02*
X-408524Y-16369047D01*
X-408524Y-16369047D02*
X-384715Y-16345238D01*
X-384715Y-16345238D02*
X-360905Y-16297619D01*
X-360905Y-16297619D02*
X-360905Y-16202381D01*
X-360905Y-16202381D02*
X-337096Y-16154762D01*
X-337096Y-16154762D02*
X-313286Y-16130952D01*
X-313286Y-16130952D02*
X-265667Y-16107143D01*
X-265667Y-16107143D02*
X-170429Y-16107143D01*
X-170429Y-16107143D02*
X-122810Y-16130952D01*
X-122810Y-16130952D02*
X-99000Y-16154762D01*
X-99000Y-16154762D02*
X-75191Y-16202381D01*
X-75191Y-16202381D02*
X-75191Y-16297619D01*
X-75191Y-16297619D02*
X-99000Y-16345238D01*
X-99000Y-16345238D02*
X-122810Y-16369047D01*
X-122810Y-16369047D02*
X-170429Y-16392857D01*
X-170429Y-16392857D02*
X-265667Y-16392857D01*
X-265667Y-16392857D02*
X-313286Y-16369047D01*
X-313286Y-16369047D02*
X-337096Y-16345238D01*
X-337096Y-16345238D02*
X-360905Y-16297619D01*
X-475191Y-72492857D02*
X-975191Y-72492857D01*
X-975191Y-72492857D02*
X-975191Y-72611905D01*
X-975191Y-72611905D02*
X-951381Y-72683333D01*
X-951381Y-72683333D02*
X-903762Y-72730952D01*
X-903762Y-72730952D02*
X-856143Y-72754762D01*
X-856143Y-72754762D02*
X-760905Y-72778571D01*
X-760905Y-72778571D02*
X-689477Y-72778571D01*
X-689477Y-72778571D02*
X-594239Y-72754762D01*
X-594239Y-72754762D02*
X-546620Y-72730952D01*
X-546620Y-72730952D02*
X-499000Y-72683333D01*
X-499000Y-72683333D02*
X-475191Y-72611905D01*
X-475191Y-72611905D02*
X-475191Y-72492857D01*
X-475191Y-73254762D02*
X-475191Y-72969048D01*
X-475191Y-73111905D02*
X-975191Y-73111905D01*
X-975191Y-73111905D02*
X-903762Y-73064286D01*
X-903762Y-73064286D02*
X-856143Y-73016667D01*
X-856143Y-73016667D02*
X-832334Y-72969048D01*
X-475191Y-73730952D02*
X-475191Y-73445238D01*
X-475191Y-73588095D02*
X-975191Y-73588095D01*
X-975191Y-73588095D02*
X-903762Y-73540476D01*
X-903762Y-73540476D02*
X-856143Y-73492857D01*
X-856143Y-73492857D02*
X-832334Y-73445238D01*
X19024809Y-72492857D02*
X18524809Y-72492857D01*
X18524809Y-72492857D02*
X18524809Y-72611905D01*
X18524809Y-72611905D02*
X18548619Y-72683333D01*
X18548619Y-72683333D02*
X18596238Y-72730952D01*
X18596238Y-72730952D02*
X18643857Y-72754762D01*
X18643857Y-72754762D02*
X18739095Y-72778571D01*
X18739095Y-72778571D02*
X18810523Y-72778571D01*
X18810523Y-72778571D02*
X18905761Y-72754762D01*
X18905761Y-72754762D02*
X18953380Y-72730952D01*
X18953380Y-72730952D02*
X19001000Y-72683333D01*
X19001000Y-72683333D02*
X19024809Y-72611905D01*
X19024809Y-72611905D02*
X19024809Y-72492857D01*
X19024809Y-73254762D02*
X19024809Y-72969048D01*
X19024809Y-73111905D02*
X18524809Y-73111905D01*
X18524809Y-73111905D02*
X18596238Y-73064286D01*
X18596238Y-73064286D02*
X18643857Y-73016667D01*
X18643857Y-73016667D02*
X18667666Y-72969048D01*
X18524809Y-73707142D02*
X18524809Y-73469047D01*
X18524809Y-73469047D02*
X18762904Y-73445238D01*
X18762904Y-73445238D02*
X18739095Y-73469047D01*
X18739095Y-73469047D02*
X18715285Y-73516666D01*
X18715285Y-73516666D02*
X18715285Y-73635714D01*
X18715285Y-73635714D02*
X18739095Y-73683333D01*
X18739095Y-73683333D02*
X18762904Y-73707142D01*
X18762904Y-73707142D02*
X18810523Y-73730952D01*
X18810523Y-73730952D02*
X18929571Y-73730952D01*
X18929571Y-73730952D02*
X18977190Y-73707142D01*
X18977190Y-73707142D02*
X19001000Y-73683333D01*
X19001000Y-73683333D02*
X19024809Y-73635714D01*
X19024809Y-73635714D02*
X19024809Y-73516666D01*
X19024809Y-73516666D02*
X19001000Y-73469047D01*
X19001000Y-73469047D02*
X18977190Y-73445238D01*
X-7975191Y21583334D02*
X-8213286Y21750000D01*
X-7975191Y21869048D02*
X-8475191Y21869048D01*
X-8475191Y21869048D02*
X-8475191Y21678572D01*
X-8475191Y21678572D02*
X-8451381Y21630953D01*
X-8451381Y21630953D02*
X-8427572Y21607143D01*
X-8427572Y21607143D02*
X-8379953Y21583334D01*
X-8379953Y21583334D02*
X-8308524Y21583334D01*
X-8308524Y21583334D02*
X-8260905Y21607143D01*
X-8260905Y21607143D02*
X-8237096Y21630953D01*
X-8237096Y21630953D02*
X-8213286Y21678572D01*
X-8213286Y21678572D02*
X-8213286Y21869048D01*
X-8475191Y21416667D02*
X-8475191Y21083334D01*
X-8475191Y21083334D02*
X-7975191Y21297619D01*
X24809Y-53492857D02*
X-475191Y-53492857D01*
X-475191Y-53492857D02*
X-475191Y-53611905D01*
X-475191Y-53611905D02*
X-451381Y-53683333D01*
X-451381Y-53683333D02*
X-403762Y-53730952D01*
X-403762Y-53730952D02*
X-356143Y-53754762D01*
X-356143Y-53754762D02*
X-260905Y-53778571D01*
X-260905Y-53778571D02*
X-189477Y-53778571D01*
X-189477Y-53778571D02*
X-94239Y-53754762D01*
X-94239Y-53754762D02*
X-46620Y-53730952D01*
X-46620Y-53730952D02*
X1000Y-53683333D01*
X1000Y-53683333D02*
X24809Y-53611905D01*
X24809Y-53611905D02*
X24809Y-53492857D01*
X24809Y-54254762D02*
X24809Y-53969048D01*
X24809Y-54111905D02*
X-475191Y-54111905D01*
X-475191Y-54111905D02*
X-403762Y-54064286D01*
X-403762Y-54064286D02*
X-356143Y-54016667D01*
X-356143Y-54016667D02*
X-332334Y-53969048D01*
X-475191Y-54564285D02*
X-475191Y-54611904D01*
X-475191Y-54611904D02*
X-451381Y-54659523D01*
X-451381Y-54659523D02*
X-427572Y-54683333D01*
X-427572Y-54683333D02*
X-379953Y-54707142D01*
X-379953Y-54707142D02*
X-284715Y-54730952D01*
X-284715Y-54730952D02*
X-165667Y-54730952D01*
X-165667Y-54730952D02*
X-70429Y-54707142D01*
X-70429Y-54707142D02*
X-22810Y-54683333D01*
X-22810Y-54683333D02*
X1000Y-54659523D01*
X1000Y-54659523D02*
X24809Y-54611904D01*
X24809Y-54611904D02*
X24809Y-54564285D01*
X24809Y-54564285D02*
X1000Y-54516666D01*
X1000Y-54516666D02*
X-22810Y-54492857D01*
X-22810Y-54492857D02*
X-70429Y-54469047D01*
X-70429Y-54469047D02*
X-165667Y-54445238D01*
X-165667Y-54445238D02*
X-284715Y-54445238D01*
X-284715Y-54445238D02*
X-379953Y-54469047D01*
X-379953Y-54469047D02*
X-427572Y-54492857D01*
X-427572Y-54492857D02*
X-451381Y-54516666D01*
X-451381Y-54516666D02*
X-475191Y-54564285D01*
X-7166368Y8815783D02*
X-7166368Y8782111D01*
X-7166368Y8782111D02*
X-7132696Y8714767D01*
X-7132696Y8714767D02*
X-7099024Y8681096D01*
X-7099024Y8681096D02*
X-7031681Y8647424D01*
X-7031681Y8647424D02*
X-6964337Y8647424D01*
X-6964337Y8647424D02*
X-6913830Y8664260D01*
X-6913830Y8664260D02*
X-6829650Y8714767D01*
X-6829650Y8714767D02*
X-6779143Y8765275D01*
X-6779143Y8765275D02*
X-6728635Y8849454D01*
X-6728635Y8849454D02*
X-6711799Y8899962D01*
X-6711799Y8899962D02*
X-6711799Y8967305D01*
X-6711799Y8967305D02*
X-6745471Y9034649D01*
X-6745471Y9034649D02*
X-6779143Y9068321D01*
X-6779143Y9068321D02*
X-6846486Y9101992D01*
X-6846486Y9101992D02*
X-6880158Y9101992D01*
X-6964337Y9253515D02*
X-7200039Y9489218D01*
X-7200039Y9489218D02*
X-7402070Y8984141D01*
X2986248Y16218320D02*
X2935740Y16504530D01*
X3188278Y16420351D02*
X2834725Y16773904D01*
X2834725Y16773904D02*
X2700038Y16639217D01*
X2700038Y16639217D02*
X2683202Y16588709D01*
X2683202Y16588709D02*
X2683202Y16555038D01*
X2683202Y16555038D02*
X2700038Y16504530D01*
X2700038Y16504530D02*
X2750546Y16454022D01*
X2750546Y16454022D02*
X2801053Y16437187D01*
X2801053Y16437187D02*
X2834725Y16437187D01*
X2834725Y16437187D02*
X2885233Y16454022D01*
X2885233Y16454022D02*
X3019920Y16588709D01*
X2649530Y15881603D02*
X2851561Y16083633D01*
X2750546Y15982618D02*
X2396992Y16336171D01*
X2396992Y16336171D02*
X2481172Y16319335D01*
X2481172Y16319335D02*
X2548515Y16319335D01*
X2548515Y16319335D02*
X2599023Y16336171D01*
X2194962Y16066798D02*
X2161290Y16066798D01*
X2161290Y16066798D02*
X2110783Y16049962D01*
X2110783Y16049962D02*
X2026603Y15965782D01*
X2026603Y15965782D02*
X2009767Y15915275D01*
X2009767Y15915275D02*
X2009767Y15881603D01*
X2009767Y15881603D02*
X2026603Y15831095D01*
X2026603Y15831095D02*
X2060275Y15797424D01*
X2060275Y15797424D02*
X2127618Y15763752D01*
X2127618Y15763752D02*
X2531680Y15763752D01*
X2531680Y15763752D02*
X2312813Y15544885D01*
X-18975191Y-72730952D02*
X-19475191Y-72730952D01*
X-19475191Y-72730952D02*
X-19475191Y-72850000D01*
X-19475191Y-72850000D02*
X-19451381Y-72921428D01*
X-19451381Y-72921428D02*
X-19403762Y-72969047D01*
X-19403762Y-72969047D02*
X-19356143Y-72992857D01*
X-19356143Y-72992857D02*
X-19260905Y-73016666D01*
X-19260905Y-73016666D02*
X-19189477Y-73016666D01*
X-19189477Y-73016666D02*
X-19094239Y-72992857D01*
X-19094239Y-72992857D02*
X-19046620Y-72969047D01*
X-19046620Y-72969047D02*
X-18999000Y-72921428D01*
X-18999000Y-72921428D02*
X-18975191Y-72850000D01*
X-18975191Y-72850000D02*
X-18975191Y-72730952D01*
X-19475191Y-73445238D02*
X-19475191Y-73350000D01*
X-19475191Y-73350000D02*
X-19451381Y-73302381D01*
X-19451381Y-73302381D02*
X-19427572Y-73278571D01*
X-19427572Y-73278571D02*
X-19356143Y-73230952D01*
X-19356143Y-73230952D02*
X-19260905Y-73207143D01*
X-19260905Y-73207143D02*
X-19070429Y-73207143D01*
X-19070429Y-73207143D02*
X-19022810Y-73230952D01*
X-19022810Y-73230952D02*
X-18999000Y-73254762D01*
X-18999000Y-73254762D02*
X-18975191Y-73302381D01*
X-18975191Y-73302381D02*
X-18975191Y-73397619D01*
X-18975191Y-73397619D02*
X-18999000Y-73445238D01*
X-18999000Y-73445238D02*
X-19022810Y-73469047D01*
X-19022810Y-73469047D02*
X-19070429Y-73492857D01*
X-19070429Y-73492857D02*
X-19189477Y-73492857D01*
X-19189477Y-73492857D02*
X-19237096Y-73469047D01*
X-19237096Y-73469047D02*
X-19260905Y-73445238D01*
X-19260905Y-73445238D02*
X-19284715Y-73397619D01*
X-19284715Y-73397619D02*
X-19284715Y-73302381D01*
X-19284715Y-73302381D02*
X-19260905Y-73254762D01*
X-19260905Y-73254762D02*
X-19237096Y-73230952D01*
X-19237096Y-73230952D02*
X-19189477Y-73207143D01*
X-7866368Y8115783D02*
X-7866368Y8082111D01*
X-7866368Y8082111D02*
X-7832696Y8014767D01*
X-7832696Y8014767D02*
X-7799024Y7981096D01*
X-7799024Y7981096D02*
X-7731681Y7947424D01*
X-7731681Y7947424D02*
X-7664337Y7947424D01*
X-7664337Y7947424D02*
X-7613830Y7964260D01*
X-7613830Y7964260D02*
X-7529650Y8014767D01*
X-7529650Y8014767D02*
X-7479143Y8065275D01*
X-7479143Y8065275D02*
X-7428635Y8149454D01*
X-7428635Y8149454D02*
X-7411799Y8199962D01*
X-7411799Y8199962D02*
X-7411799Y8267305D01*
X-7411799Y8267305D02*
X-7445471Y8334649D01*
X-7445471Y8334649D02*
X-7479143Y8368321D01*
X-7479143Y8368321D02*
X-7546486Y8401992D01*
X-7546486Y8401992D02*
X-7580158Y8401992D01*
X-7849532Y8738710D02*
X-7782188Y8671366D01*
X-7782188Y8671366D02*
X-7765352Y8620859D01*
X-7765352Y8620859D02*
X-7765352Y8587187D01*
X-7765352Y8587187D02*
X-7782188Y8503008D01*
X-7782188Y8503008D02*
X-7832696Y8418828D01*
X-7832696Y8418828D02*
X-7967383Y8284141D01*
X-7967383Y8284141D02*
X-8017891Y8267305D01*
X-8017891Y8267305D02*
X-8051562Y8267305D01*
X-8051562Y8267305D02*
X-8102070Y8284141D01*
X-8102070Y8284141D02*
X-8169413Y8351485D01*
X-8169413Y8351485D02*
X-8186249Y8401992D01*
X-8186249Y8401992D02*
X-8186249Y8435664D01*
X-8186249Y8435664D02*
X-8169413Y8486172D01*
X-8169413Y8486172D02*
X-8085234Y8570351D01*
X-8085234Y8570351D02*
X-8034726Y8587187D01*
X-8034726Y8587187D02*
X-8001055Y8587187D01*
X-8001055Y8587187D02*
X-7950547Y8570351D01*
X-7950547Y8570351D02*
X-7883204Y8503008D01*
X-7883204Y8503008D02*
X-7866368Y8452500D01*
X-7866368Y8452500D02*
X-7866368Y8418828D01*
X-7866368Y8418828D02*
X-7883204Y8368321D01*
X5733632Y6465783D02*
X5733632Y6432111D01*
X5733632Y6432111D02*
X5767304Y6364767D01*
X5767304Y6364767D02*
X5800976Y6331096D01*
X5800976Y6331096D02*
X5868319Y6297424D01*
X5868319Y6297424D02*
X5935663Y6297424D01*
X5935663Y6297424D02*
X5986170Y6314260D01*
X5986170Y6314260D02*
X6070350Y6364767D01*
X6070350Y6364767D02*
X6120857Y6415275D01*
X6120857Y6415275D02*
X6171365Y6499454D01*
X6171365Y6499454D02*
X6188201Y6549962D01*
X6188201Y6549962D02*
X6188201Y6617305D01*
X6188201Y6617305D02*
X6154529Y6684649D01*
X6154529Y6684649D02*
X6120857Y6718321D01*
X6120857Y6718321D02*
X6053514Y6751992D01*
X6053514Y6751992D02*
X6019842Y6751992D01*
X5699961Y6836172D02*
X5750468Y6819336D01*
X5750468Y6819336D02*
X5784140Y6819336D01*
X5784140Y6819336D02*
X5834648Y6836172D01*
X5834648Y6836172D02*
X5851483Y6853008D01*
X5851483Y6853008D02*
X5868319Y6903515D01*
X5868319Y6903515D02*
X5868319Y6937187D01*
X5868319Y6937187D02*
X5851483Y6987695D01*
X5851483Y6987695D02*
X5784140Y7055038D01*
X5784140Y7055038D02*
X5733632Y7071874D01*
X5733632Y7071874D02*
X5699961Y7071874D01*
X5699961Y7071874D02*
X5649453Y7055038D01*
X5649453Y7055038D02*
X5632617Y7038202D01*
X5632617Y7038202D02*
X5615781Y6987695D01*
X5615781Y6987695D02*
X5615781Y6954023D01*
X5615781Y6954023D02*
X5632617Y6903515D01*
X5632617Y6903515D02*
X5699961Y6836172D01*
X5699961Y6836172D02*
X5716796Y6785664D01*
X5716796Y6785664D02*
X5716796Y6751992D01*
X5716796Y6751992D02*
X5699961Y6701485D01*
X5699961Y6701485D02*
X5632617Y6634141D01*
X5632617Y6634141D02*
X5582109Y6617305D01*
X5582109Y6617305D02*
X5548438Y6617305D01*
X5548438Y6617305D02*
X5497930Y6634141D01*
X5497930Y6634141D02*
X5430587Y6701485D01*
X5430587Y6701485D02*
X5413751Y6751992D01*
X5413751Y6751992D02*
X5413751Y6785664D01*
X5413751Y6785664D02*
X5430587Y6836172D01*
X5430587Y6836172D02*
X5497930Y6903515D01*
X5497930Y6903515D02*
X5548438Y6920351D01*
X5548438Y6920351D02*
X5582109Y6920351D01*
X5582109Y6920351D02*
X5632617Y6903515D01*
X-275191Y-78230952D02*
X-775191Y-78230952D01*
X-775191Y-78230952D02*
X-775191Y-78350000D01*
X-775191Y-78350000D02*
X-751381Y-78421428D01*
X-751381Y-78421428D02*
X-703762Y-78469047D01*
X-703762Y-78469047D02*
X-656143Y-78492857D01*
X-656143Y-78492857D02*
X-560905Y-78516666D01*
X-560905Y-78516666D02*
X-489477Y-78516666D01*
X-489477Y-78516666D02*
X-394239Y-78492857D01*
X-394239Y-78492857D02*
X-346620Y-78469047D01*
X-346620Y-78469047D02*
X-299000Y-78421428D01*
X-299000Y-78421428D02*
X-275191Y-78350000D01*
X-275191Y-78350000D02*
X-275191Y-78230952D01*
X-775191Y-78683333D02*
X-775191Y-79016666D01*
X-775191Y-79016666D02*
X-275191Y-78802381D01*
X18824809Y-34392857D02*
X18324809Y-34392857D01*
X18324809Y-34392857D02*
X18324809Y-34511905D01*
X18324809Y-34511905D02*
X18348619Y-34583333D01*
X18348619Y-34583333D02*
X18396238Y-34630952D01*
X18396238Y-34630952D02*
X18443857Y-34654762D01*
X18443857Y-34654762D02*
X18539095Y-34678571D01*
X18539095Y-34678571D02*
X18610523Y-34678571D01*
X18610523Y-34678571D02*
X18705761Y-34654762D01*
X18705761Y-34654762D02*
X18753380Y-34630952D01*
X18753380Y-34630952D02*
X18801000Y-34583333D01*
X18801000Y-34583333D02*
X18824809Y-34511905D01*
X18824809Y-34511905D02*
X18824809Y-34392857D01*
X18824809Y-35154762D02*
X18824809Y-34869048D01*
X18824809Y-35011905D02*
X18324809Y-35011905D01*
X18324809Y-35011905D02*
X18396238Y-34964286D01*
X18396238Y-34964286D02*
X18443857Y-34916667D01*
X18443857Y-34916667D02*
X18467666Y-34869048D01*
X18324809Y-35321428D02*
X18324809Y-35630952D01*
X18324809Y-35630952D02*
X18515285Y-35464285D01*
X18515285Y-35464285D02*
X18515285Y-35535714D01*
X18515285Y-35535714D02*
X18539095Y-35583333D01*
X18539095Y-35583333D02*
X18562904Y-35607142D01*
X18562904Y-35607142D02*
X18610523Y-35630952D01*
X18610523Y-35630952D02*
X18729571Y-35630952D01*
X18729571Y-35630952D02*
X18777190Y-35607142D01*
X18777190Y-35607142D02*
X18801000Y-35583333D01*
X18801000Y-35583333D02*
X18824809Y-35535714D01*
X18824809Y-35535714D02*
X18824809Y-35392857D01*
X18824809Y-35392857D02*
X18801000Y-35345238D01*
X18801000Y-35345238D02*
X18777190Y-35321428D01*
X3524809Y27883334D02*
X3286714Y28050000D01*
X3524809Y28169048D02*
X3024809Y28169048D01*
X3024809Y28169048D02*
X3024809Y27978572D01*
X3024809Y27978572D02*
X3048619Y27930953D01*
X3048619Y27930953D02*
X3072428Y27907143D01*
X3072428Y27907143D02*
X3120047Y27883334D01*
X3120047Y27883334D02*
X3191476Y27883334D01*
X3191476Y27883334D02*
X3239095Y27907143D01*
X3239095Y27907143D02*
X3262904Y27930953D01*
X3262904Y27930953D02*
X3286714Y27978572D01*
X3286714Y27978572D02*
X3286714Y28169048D01*
X3239095Y27597619D02*
X3215285Y27645238D01*
X3215285Y27645238D02*
X3191476Y27669048D01*
X3191476Y27669048D02*
X3143857Y27692857D01*
X3143857Y27692857D02*
X3120047Y27692857D01*
X3120047Y27692857D02*
X3072428Y27669048D01*
X3072428Y27669048D02*
X3048619Y27645238D01*
X3048619Y27645238D02*
X3024809Y27597619D01*
X3024809Y27597619D02*
X3024809Y27502381D01*
X3024809Y27502381D02*
X3048619Y27454762D01*
X3048619Y27454762D02*
X3072428Y27430953D01*
X3072428Y27430953D02*
X3120047Y27407143D01*
X3120047Y27407143D02*
X3143857Y27407143D01*
X3143857Y27407143D02*
X3191476Y27430953D01*
X3191476Y27430953D02*
X3215285Y27454762D01*
X3215285Y27454762D02*
X3239095Y27502381D01*
X3239095Y27502381D02*
X3239095Y27597619D01*
X3239095Y27597619D02*
X3262904Y27645238D01*
X3262904Y27645238D02*
X3286714Y27669048D01*
X3286714Y27669048D02*
X3334333Y27692857D01*
X3334333Y27692857D02*
X3429571Y27692857D01*
X3429571Y27692857D02*
X3477190Y27669048D01*
X3477190Y27669048D02*
X3501000Y27645238D01*
X3501000Y27645238D02*
X3524809Y27597619D01*
X3524809Y27597619D02*
X3524809Y27502381D01*
X3524809Y27502381D02*
X3501000Y27454762D01*
X3501000Y27454762D02*
X3477190Y27430953D01*
X3477190Y27430953D02*
X3429571Y27407143D01*
X3429571Y27407143D02*
X3334333Y27407143D01*
X3334333Y27407143D02*
X3286714Y27430953D01*
X3286714Y27430953D02*
X3262904Y27454762D01*
X3262904Y27454762D02*
X3239095Y27502381D01*
X5601991Y13297424D02*
X5601991Y13263752D01*
X5601991Y13263752D02*
X5635663Y13196409D01*
X5635663Y13196409D02*
X5669334Y13162737D01*
X5669334Y13162737D02*
X5736678Y13129065D01*
X5736678Y13129065D02*
X5804021Y13129065D01*
X5804021Y13129065D02*
X5854529Y13145901D01*
X5854529Y13145901D02*
X5938708Y13196409D01*
X5938708Y13196409D02*
X5989216Y13246916D01*
X5989216Y13246916D02*
X6039724Y13331096D01*
X6039724Y13331096D02*
X6056560Y13381603D01*
X6056560Y13381603D02*
X6056560Y13448947D01*
X6056560Y13448947D02*
X6022888Y13516290D01*
X6022888Y13516290D02*
X5989216Y13549962D01*
X5989216Y13549962D02*
X5921873Y13583634D01*
X5921873Y13583634D02*
X5888201Y13583634D01*
X5231602Y13600470D02*
X5433632Y13398439D01*
X5332617Y13499454D02*
X5686170Y13853008D01*
X5686170Y13853008D02*
X5669334Y13768828D01*
X5669334Y13768828D02*
X5669334Y13701485D01*
X5669334Y13701485D02*
X5686170Y13650977D01*
X5366289Y14172889D02*
X5332617Y14206561D01*
X5332617Y14206561D02*
X5282110Y14223397D01*
X5282110Y14223397D02*
X5248438Y14223397D01*
X5248438Y14223397D02*
X5197930Y14206561D01*
X5197930Y14206561D02*
X5113751Y14156053D01*
X5113751Y14156053D02*
X5029571Y14071874D01*
X5029571Y14071874D02*
X4979064Y13987694D01*
X4979064Y13987694D02*
X4962228Y13937187D01*
X4962228Y13937187D02*
X4962228Y13903515D01*
X4962228Y13903515D02*
X4979064Y13853007D01*
X4979064Y13853007D02*
X5012736Y13819336D01*
X5012736Y13819336D02*
X5063243Y13802500D01*
X5063243Y13802500D02*
X5096915Y13802500D01*
X5096915Y13802500D02*
X5147423Y13819336D01*
X5147423Y13819336D02*
X5231602Y13869843D01*
X5231602Y13869843D02*
X5315781Y13954023D01*
X5315781Y13954023D02*
X5366289Y14038202D01*
X5366289Y14038202D02*
X5383125Y14088710D01*
X5383125Y14088710D02*
X5383125Y14122382D01*
X5383125Y14122382D02*
X5366289Y14172889D01*
X3584217Y5683633D02*
X3617889Y5683633D01*
X3617889Y5683633D02*
X3685233Y5717305D01*
X3685233Y5717305D02*
X3718904Y5750977D01*
X3718904Y5750977D02*
X3752576Y5818320D01*
X3752576Y5818320D02*
X3752576Y5885664D01*
X3752576Y5885664D02*
X3735740Y5936171D01*
X3735740Y5936171D02*
X3685233Y6020351D01*
X3685233Y6020351D02*
X3634725Y6070858D01*
X3634725Y6070858D02*
X3550546Y6121366D01*
X3550546Y6121366D02*
X3500038Y6138202D01*
X3500038Y6138202D02*
X3432695Y6138202D01*
X3432695Y6138202D02*
X3365351Y6104530D01*
X3365351Y6104530D02*
X3331679Y6070858D01*
X3331679Y6070858D02*
X3298008Y6003515D01*
X3298008Y6003515D02*
X3298008Y5969843D01*
X2944454Y5683633D02*
X3112813Y5851992D01*
X3112813Y5851992D02*
X3298008Y5700469D01*
X3298008Y5700469D02*
X3264336Y5700469D01*
X3264336Y5700469D02*
X3213828Y5683633D01*
X3213828Y5683633D02*
X3129649Y5599454D01*
X3129649Y5599454D02*
X3112813Y5548946D01*
X3112813Y5548946D02*
X3112813Y5515275D01*
X3112813Y5515275D02*
X3129649Y5464767D01*
X3129649Y5464767D02*
X3213828Y5380588D01*
X3213828Y5380588D02*
X3264336Y5363752D01*
X3264336Y5363752D02*
X3298008Y5363752D01*
X3298008Y5363752D02*
X3348515Y5380588D01*
X3348515Y5380588D02*
X3432695Y5464767D01*
X3432695Y5464767D02*
X3449530Y5515275D01*
X3449530Y5515275D02*
X3449530Y5548946D01*
X6284217Y9183633D02*
X6317889Y9183633D01*
X6317889Y9183633D02*
X6385233Y9217305D01*
X6385233Y9217305D02*
X6418904Y9250977D01*
X6418904Y9250977D02*
X6452576Y9318320D01*
X6452576Y9318320D02*
X6452576Y9385664D01*
X6452576Y9385664D02*
X6435740Y9436171D01*
X6435740Y9436171D02*
X6385233Y9520351D01*
X6385233Y9520351D02*
X6334725Y9570858D01*
X6334725Y9570858D02*
X6250546Y9621366D01*
X6250546Y9621366D02*
X6200038Y9638202D01*
X6200038Y9638202D02*
X6132695Y9638202D01*
X6132695Y9638202D02*
X6065351Y9604530D01*
X6065351Y9604530D02*
X6031679Y9570858D01*
X6031679Y9570858D02*
X5998008Y9503515D01*
X5998008Y9503515D02*
X5998008Y9469843D01*
X6149530Y8981603D02*
X6082187Y8914259D01*
X6082187Y8914259D02*
X6031679Y8897423D01*
X6031679Y8897423D02*
X5998008Y8897423D01*
X5998008Y8897423D02*
X5913828Y8914259D01*
X5913828Y8914259D02*
X5829649Y8964767D01*
X5829649Y8964767D02*
X5694962Y9099454D01*
X5694962Y9099454D02*
X5678126Y9149962D01*
X5678126Y9149962D02*
X5678126Y9183633D01*
X5678126Y9183633D02*
X5694962Y9234141D01*
X5694962Y9234141D02*
X5762305Y9301484D01*
X5762305Y9301484D02*
X5812813Y9318320D01*
X5812813Y9318320D02*
X5846485Y9318320D01*
X5846485Y9318320D02*
X5896992Y9301484D01*
X5896992Y9301484D02*
X5981172Y9217305D01*
X5981172Y9217305D02*
X5998008Y9166797D01*
X5998008Y9166797D02*
X5998008Y9133126D01*
X5998008Y9133126D02*
X5981172Y9082618D01*
X5981172Y9082618D02*
X5913828Y9015275D01*
X5913828Y9015275D02*
X5863321Y8998439D01*
X5863321Y8998439D02*
X5829649Y8998439D01*
X5829649Y8998439D02*
X5779141Y9015275D01*
%TO.C,G\u002A\u002A\u002A*%
G36*
X12848865Y220132D02*
G01*
X12851130Y218327D01*
X12925960Y108864D01*
X13007345Y-87090D01*
X13088674Y-341731D01*
X13163335Y-627253D01*
X13224718Y-915852D01*
X13266212Y-1179724D01*
X13281207Y-1391063D01*
X13263090Y-1522064D01*
X13245481Y-1565275D01*
X13239261Y-1673934D01*
X13317987Y-1785823D01*
X13332210Y-1802971D01*
X13410050Y-1957216D01*
X13494831Y-2217284D01*
X13583821Y-2575060D01*
X13639928Y-2824239D01*
X13694467Y-3062041D01*
X13736221Y-3239267D01*
X13759073Y-3329580D01*
X13755789Y-3380142D01*
X13700345Y-3509268D01*
X13599274Y-3663028D01*
X13412494Y-3906051D01*
X12312317Y-3906051D01*
X12258481Y-3906044D01*
X11887187Y-3905165D01*
X11612404Y-3901579D01*
X11416818Y-3893543D01*
X11283115Y-3879316D01*
X11193981Y-3857156D01*
X11132102Y-3825320D01*
X11080166Y-3782067D01*
X11048668Y-3751048D01*
X10984405Y-3649519D01*
X11005980Y-3550103D01*
X11011485Y-3540369D01*
X11060443Y-3489806D01*
X11149209Y-3459947D01*
X11303129Y-3445737D01*
X11547551Y-3442124D01*
X11654056Y-3442892D01*
X11885228Y-3454365D01*
X12028329Y-3482052D01*
X12103524Y-3529110D01*
X12153382Y-3575447D01*
X12249398Y-3616096D01*
X12287404Y-3606110D01*
X12356459Y-3529110D01*
X12377731Y-3498993D01*
X12457510Y-3464990D01*
X12611133Y-3447238D01*
X12859493Y-3442124D01*
X12965201Y-3441806D01*
X13156792Y-3436643D01*
X13262094Y-3421323D01*
X13302272Y-3390953D01*
X13298492Y-3340640D01*
X13275197Y-3249721D01*
X13232705Y-3070182D01*
X13177434Y-2829332D01*
X13115501Y-2553478D01*
X13077165Y-2379370D01*
X13027995Y-2141521D01*
X13003080Y-1982709D01*
X13000836Y-1881181D01*
X13019684Y-1815184D01*
X13058042Y-1762965D01*
X13111626Y-1693566D01*
X13104307Y-1631673D01*
X13010578Y-1549784D01*
X13006643Y-1546746D01*
X12943696Y-1481563D01*
X12888242Y-1380971D01*
X12833254Y-1225290D01*
X12771711Y-994836D01*
X12696588Y-669928D01*
X12635071Y-389401D01*
X12588922Y-160416D01*
X12566004Y-5986D01*
X12564521Y94242D01*
X12582679Y160622D01*
X12618683Y213509D01*
X12684957Y283146D01*
X12747931Y289079D01*
X12848865Y220132D01*
G37*
G36*
X2177105Y274633D02*
G01*
X2255146Y225409D01*
X2321477Y155982D01*
X2377900Y50214D01*
X2432343Y-111288D01*
X2492735Y-347918D01*
X2567004Y-679068D01*
X2567852Y-682962D01*
X2634257Y-998928D01*
X2674276Y-1222676D01*
X2689995Y-1374202D01*
X2683501Y-1473505D01*
X2656879Y-1540582D01*
X2628172Y-1594116D01*
X2626765Y-1681252D01*
X2707084Y-1787341D01*
X2734404Y-1817475D01*
X2783625Y-1883483D01*
X2826577Y-1968524D01*
X2869324Y-2091482D01*
X2917933Y-2271242D01*
X2978469Y-2526691D01*
X3057000Y-2876713D01*
X3182451Y-3442124D01*
X3614663Y-3442124D01*
X3830611Y-3448267D01*
X4049995Y-3479224D01*
X4196001Y-3539836D01*
X4291424Y-3597288D01*
X4352880Y-3602467D01*
X4399810Y-3539836D01*
X4436312Y-3498204D01*
X4522357Y-3463986D01*
X4675259Y-3446824D01*
X4919446Y-3442124D01*
X5018549Y-3441843D01*
X5211163Y-3436791D01*
X5317069Y-3421549D01*
X5357514Y-3391154D01*
X5353743Y-3340640D01*
X5330449Y-3249721D01*
X5287956Y-3070182D01*
X5232685Y-2829332D01*
X5170752Y-2553478D01*
X5132416Y-2379370D01*
X5083247Y-2141521D01*
X5058331Y-1982709D01*
X5056087Y-1881181D01*
X5074935Y-1815184D01*
X5113293Y-1762965D01*
X5166877Y-1693566D01*
X5159558Y-1631673D01*
X5065829Y-1549784D01*
X5061894Y-1546746D01*
X4998947Y-1481563D01*
X4943493Y-1380971D01*
X4888506Y-1225290D01*
X4826962Y-994836D01*
X4751839Y-669928D01*
X4690323Y-389401D01*
X4644173Y-160416D01*
X4621255Y-5986D01*
X4619772Y94242D01*
X4637930Y160622D01*
X4673934Y213509D01*
X4740208Y283146D01*
X4803182Y289079D01*
X4904116Y220132D01*
X4906381Y218327D01*
X4981212Y108864D01*
X5062596Y-87090D01*
X5143925Y-341731D01*
X5218586Y-627253D01*
X5279969Y-915852D01*
X5321463Y-1179724D01*
X5336458Y-1391063D01*
X5318342Y-1522064D01*
X5300732Y-1565275D01*
X5294512Y-1673934D01*
X5373238Y-1785823D01*
X5387461Y-1802971D01*
X5465301Y-1957216D01*
X5550083Y-2217284D01*
X5639072Y-2575060D01*
X5695179Y-2824239D01*
X5749718Y-3062041D01*
X5791472Y-3239267D01*
X5814324Y-3329580D01*
X5811040Y-3380142D01*
X5755596Y-3509268D01*
X5654526Y-3663028D01*
X5467745Y-3906051D01*
X4363831Y-3904858D01*
X3259917Y-3903665D01*
X2984181Y-3658397D01*
X2946357Y-3624674D01*
X2844818Y-3528947D01*
X2770842Y-3438820D01*
X2713837Y-3330541D01*
X2663216Y-3180356D01*
X2608388Y-2964509D01*
X2538764Y-2659247D01*
X2508762Y-2524875D01*
X2450573Y-2250163D01*
X2417602Y-2059199D01*
X2407729Y-1931297D01*
X2418830Y-1845766D01*
X2448785Y-1781921D01*
X2487961Y-1710013D01*
X2482494Y-1630898D01*
X2395169Y-1533230D01*
X2331518Y-1438389D01*
X2251750Y-1246107D01*
X2172421Y-993154D01*
X2099924Y-707859D01*
X2040655Y-418549D01*
X2001007Y-153553D01*
X1987374Y58802D01*
X2006152Y190187D01*
X2023960Y226693D01*
X2088176Y296065D01*
X2177105Y274633D01*
G37*
G36*
X845108Y300263D02*
G01*
X956441Y195969D01*
X998369Y137173D01*
X1074067Y-36510D01*
X1156504Y-308932D01*
X1248420Y-688392D01*
X1303195Y-936197D01*
X1351142Y-1170325D01*
X1375403Y-1328097D01*
X1377786Y-1430030D01*
X1360096Y-1496643D01*
X1324140Y-1548454D01*
X1272619Y-1617948D01*
X1278668Y-1682506D01*
X1369894Y-1767742D01*
X1405707Y-1801757D01*
X1468742Y-1896627D01*
X1529161Y-2046110D01*
X1594280Y-2270123D01*
X1671414Y-2588580D01*
X1675327Y-2605629D01*
X1737408Y-2882350D01*
X1788459Y-3121233D01*
X1823290Y-3297262D01*
X1836712Y-3385418D01*
X1828708Y-3423308D01*
X1765999Y-3544587D01*
X1660946Y-3689870D01*
X1482751Y-3906051D01*
X399645Y-3904761D01*
X121465Y-3904001D01*
X-193249Y-3900729D01*
X-421876Y-3893423D01*
X-582062Y-3880449D01*
X-691453Y-3860178D01*
X-767697Y-3830977D01*
X-828439Y-3791215D01*
X-883609Y-3745208D01*
X-937431Y-3662919D01*
X-909313Y-3575038D01*
X-881737Y-3547123D01*
X-748839Y-3492715D01*
X-549779Y-3457713D01*
X-318832Y-3443312D01*
X-90269Y-3450703D01*
X101635Y-3481080D01*
X222607Y-3535636D01*
X277883Y-3582265D01*
X349755Y-3601784D01*
X437428Y-3538098D01*
X535781Y-3483099D01*
X702605Y-3451609D01*
X959346Y-3442124D01*
X983657Y-3442050D01*
X1182023Y-3435329D01*
X1322606Y-3419845D01*
X1376321Y-3398631D01*
X1376230Y-3396175D01*
X1362560Y-3315367D01*
X1329016Y-3146813D01*
X1280308Y-2913581D01*
X1221146Y-2638741D01*
X1161152Y-2354544D01*
X1120093Y-2127996D01*
X1103822Y-1974778D01*
X1110274Y-1874363D01*
X1137384Y-1806222D01*
X1167908Y-1747778D01*
X1165243Y-1661830D01*
X1082040Y-1553994D01*
X1078930Y-1550587D01*
X1004769Y-1423045D01*
X925574Y-1215289D01*
X847461Y-954442D01*
X776548Y-667628D01*
X718950Y-381973D01*
X680786Y-124600D01*
X668171Y77367D01*
X687222Y196803D01*
X707058Y232729D01*
X772529Y312484D01*
X845108Y300263D01*
G37*
G36*
X-10078457Y-3380142D02*
G01*
X-10133902Y-3509268D01*
X-10234972Y-3663028D01*
X-10421753Y-3906051D01*
X-11525667Y-3903823D01*
X-12629581Y-3901594D01*
X-12905362Y-3657361D01*
X-13181143Y-3413128D01*
X-13345112Y-2659247D01*
X-13365789Y-2563605D01*
X-13425134Y-2275668D01*
X-13459372Y-2074325D01*
X-13470534Y-1939092D01*
X-13460649Y-1849485D01*
X-13431746Y-1785022D01*
X-13394299Y-1714388D01*
X-13402361Y-1635167D01*
X-13491927Y-1535487D01*
X-13528630Y-1495094D01*
X-13590667Y-1389399D01*
X-13650529Y-1227202D01*
X-13714782Y-989122D01*
X-13789995Y-655774D01*
X-13941363Y51826D01*
X-13471556Y51826D01*
X-13471465Y49371D01*
X-13457795Y-31437D01*
X-13424251Y-199992D01*
X-13375542Y-433223D01*
X-13316381Y-708063D01*
X-13256387Y-992260D01*
X-13215328Y-1218809D01*
X-13199057Y-1372026D01*
X-13205509Y-1472441D01*
X-13232619Y-1540582D01*
X-13261326Y-1594116D01*
X-13262733Y-1681252D01*
X-13182413Y-1787341D01*
X-13155094Y-1817475D01*
X-13105872Y-1883483D01*
X-13062921Y-1968524D01*
X-13020174Y-2091482D01*
X-12971565Y-2271242D01*
X-12911028Y-2526691D01*
X-12832497Y-2876713D01*
X-12707046Y-3442124D01*
X-12262378Y-3443968D01*
X-12101384Y-3447789D01*
X-11849342Y-3475680D01*
X-11705141Y-3530954D01*
X-11609178Y-3594654D01*
X-11528790Y-3604904D01*
X-11477788Y-3529110D01*
X-11457208Y-3499585D01*
X-11378082Y-3465237D01*
X-11225171Y-3447296D01*
X-10977556Y-3442124D01*
X-10787397Y-3441310D01*
X-10632780Y-3434431D01*
X-10554874Y-3414907D01*
X-10531712Y-3376168D01*
X-10541329Y-3311644D01*
X-10590783Y-3100133D01*
X-10680705Y-2707659D01*
X-10745661Y-2406896D01*
X-10787797Y-2183505D01*
X-10809259Y-2023151D01*
X-10812193Y-1911499D01*
X-10798744Y-1834210D01*
X-10771059Y-1776951D01*
X-10728827Y-1704649D01*
X-10730424Y-1632371D01*
X-10822132Y-1558465D01*
X-10834273Y-1550059D01*
X-10892013Y-1491265D01*
X-10943325Y-1394672D01*
X-10994853Y-1241176D01*
X-11053238Y-1011672D01*
X-11125125Y-687053D01*
X-11292228Y95319D01*
X-11735618Y95319D01*
X-11856127Y96495D01*
X-12070263Y110521D01*
X-12214497Y145255D01*
X-12320689Y206765D01*
X-12322593Y208263D01*
X-12422970Y280386D01*
X-12477953Y279887D01*
X-12531969Y206765D01*
X-12576735Y155120D01*
X-12660474Y117793D01*
X-12804283Y99911D01*
X-13036008Y95319D01*
X-13076075Y95134D01*
X-13276436Y88015D01*
X-13417747Y72631D01*
X-13471556Y51826D01*
X-13941363Y51826D01*
X-13950545Y94748D01*
X-13789596Y326997D01*
X-13628647Y559246D01*
X-12511199Y559246D01*
X-11393751Y559246D01*
X-11141803Y349732D01*
X-11038016Y260403D01*
X-10916055Y145907D01*
X-10853855Y74276D01*
X-10852889Y72369D01*
X-10825872Y-13414D01*
X-10781077Y-186870D01*
X-10724506Y-423761D01*
X-10662162Y-699846D01*
X-10620051Y-895946D01*
X-10570273Y-1155707D01*
X-10547210Y-1334971D01*
X-10548717Y-1453658D01*
X-10572651Y-1531687D01*
X-10593786Y-1576480D01*
X-10598215Y-1673815D01*
X-10518764Y-1783157D01*
X-10510792Y-1792221D01*
X-10429933Y-1942681D01*
X-10342732Y-2204842D01*
X-10250425Y-2575060D01*
X-10194319Y-2824239D01*
X-10139780Y-3062041D01*
X-10098025Y-3239267D01*
X-10075173Y-3329580D01*
X-10078199Y-3376168D01*
X-10078457Y-3380142D01*
G37*
G36*
X-19086552Y349732D02*
G01*
X-18982765Y260403D01*
X-18860804Y145907D01*
X-18798604Y74276D01*
X-18797319Y71686D01*
X-18769948Y-15967D01*
X-18724865Y-190967D01*
X-18668030Y-429215D01*
X-18605406Y-706614D01*
X-18448207Y-1421560D01*
X-18605799Y-1648965D01*
X-18763391Y-1876370D01*
X-19221471Y-1876370D01*
X-19492283Y-1867598D01*
X-19693559Y-1836378D01*
X-19828679Y-1778659D01*
X-19924102Y-1721206D01*
X-19985558Y-1716027D01*
X-20032488Y-1778659D01*
X-20068989Y-1820290D01*
X-20155035Y-1854508D01*
X-20307937Y-1871670D01*
X-20552124Y-1876370D01*
X-20651032Y-1876650D01*
X-20843739Y-1881701D01*
X-20949732Y-1896942D01*
X-20990263Y-1927339D01*
X-20986585Y-1977854D01*
X-20983901Y-1987309D01*
X-20957633Y-2092916D01*
X-20915266Y-2273155D01*
X-20862843Y-2501224D01*
X-20806403Y-2750319D01*
X-20751990Y-2993640D01*
X-20705643Y-3204382D01*
X-20673405Y-3355743D01*
X-20661316Y-3420922D01*
X-20659265Y-3422976D01*
X-20587199Y-3432699D01*
X-20432798Y-3439539D01*
X-20224344Y-3442124D01*
X-19997730Y-3448764D01*
X-19782030Y-3479801D01*
X-19638245Y-3539836D01*
X-19542822Y-3597288D01*
X-19481366Y-3602467D01*
X-19434436Y-3539836D01*
X-19414089Y-3517230D01*
X-19292430Y-3468162D01*
X-19101913Y-3440559D01*
X-18875815Y-3434328D01*
X-18647415Y-3449377D01*
X-18449992Y-3485613D01*
X-18316824Y-3542944D01*
X-18244740Y-3603003D01*
X-18217146Y-3673785D01*
X-18269092Y-3774907D01*
X-18283422Y-3796149D01*
X-18318996Y-3836160D01*
X-18371428Y-3864993D01*
X-18457239Y-3884428D01*
X-18592948Y-3896248D01*
X-18795077Y-3902232D01*
X-19080146Y-3904163D01*
X-19464675Y-3903823D01*
X-20574330Y-3901594D01*
X-20848266Y-3657361D01*
X-20886000Y-3623643D01*
X-20986832Y-3528332D01*
X-21060206Y-3438524D01*
X-21116604Y-3330465D01*
X-21166512Y-3180401D01*
X-21220411Y-2964580D01*
X-21288786Y-2659247D01*
X-21455369Y-1905366D01*
X-21280476Y-1658905D01*
X-21105582Y-1412443D01*
X-20669721Y-1412443D01*
X-20460971Y-1416084D01*
X-20296431Y-1433925D01*
X-20185106Y-1473664D01*
X-20093328Y-1542923D01*
X-19952796Y-1673402D01*
X-19865051Y-1542923D01*
X-19858498Y-1533360D01*
X-19799058Y-1469272D01*
X-19713242Y-1432729D01*
X-19571220Y-1416272D01*
X-19343162Y-1412443D01*
X-19199227Y-1411982D01*
X-19037205Y-1406028D01*
X-18955075Y-1387252D01*
X-18930232Y-1348336D01*
X-18940072Y-1281964D01*
X-18956990Y-1207673D01*
X-18995717Y-1032255D01*
X-19047202Y-795810D01*
X-19104941Y-528083D01*
X-19238754Y95319D01*
X-19681256Y95319D01*
X-19799911Y96463D01*
X-20014511Y110441D01*
X-20159054Y145180D01*
X-20265438Y206765D01*
X-20267342Y208263D01*
X-20367718Y280386D01*
X-20422702Y279887D01*
X-20476718Y206765D01*
X-20482087Y199171D01*
X-20591007Y136309D01*
X-20775420Y98749D01*
X-21001004Y86592D01*
X-21233437Y99937D01*
X-21438396Y138885D01*
X-21581558Y203536D01*
X-21639323Y251851D01*
X-21685623Y332865D01*
X-21652006Y434210D01*
X-21641706Y452652D01*
X-21611234Y491107D01*
X-21561638Y518993D01*
X-21476774Y538007D01*
X-21340501Y549843D01*
X-21136675Y556197D01*
X-20849154Y558767D01*
X-20461794Y559246D01*
X-19338500Y559246D01*
X-19086552Y349732D01*
G37*
G36*
X20794832Y219213D02*
G01*
X20853097Y159833D01*
X20908940Y60043D01*
X20964097Y-95766D01*
X21025352Y-327022D01*
X21099491Y-653152D01*
X21143217Y-858405D01*
X21196610Y-1136970D01*
X21223049Y-1331255D01*
X21224601Y-1458845D01*
X21203329Y-1537322D01*
X21185922Y-1574071D01*
X21181093Y-1672739D01*
X21261403Y-1784405D01*
X21335587Y-1906236D01*
X21420014Y-2138943D01*
X21501651Y-2460326D01*
X21527551Y-2579228D01*
X21584894Y-2841714D01*
X21634714Y-3068815D01*
X21668470Y-3221552D01*
X21671966Y-3237708D01*
X21685624Y-3421069D01*
X21629906Y-3559233D01*
X21543528Y-3682554D01*
X21404153Y-3551618D01*
X21363459Y-3511391D01*
X21312732Y-3447423D01*
X21268553Y-3362354D01*
X21224771Y-3237721D01*
X21175229Y-3055057D01*
X21113775Y-2795899D01*
X21034254Y-2441781D01*
X20908615Y-1876370D01*
X20463946Y-1875081D01*
X20426487Y-1874858D01*
X20171929Y-1863283D01*
X20001633Y-1830913D01*
X19888182Y-1772882D01*
X19815437Y-1711086D01*
X19791512Y-1642010D01*
X19847977Y-1542208D01*
X19852198Y-1536251D01*
X19913554Y-1470851D01*
X20000285Y-1433409D01*
X20142552Y-1416437D01*
X20370511Y-1412443D01*
X20408780Y-1412273D01*
X20607992Y-1405193D01*
X20747718Y-1389799D01*
X20799725Y-1368950D01*
X20799494Y-1366614D01*
X20783878Y-1286351D01*
X20747604Y-1118483D01*
X20695738Y-886056D01*
X20633347Y-612115D01*
X20585907Y-403508D01*
X20536011Y-168558D01*
X20510614Y-10762D01*
X20507903Y91243D01*
X20526065Y158819D01*
X20563287Y213331D01*
X20630645Y283892D01*
X20693467Y288768D01*
X20794832Y219213D01*
G37*
G36*
X17267511Y-1424782D02*
G01*
X17251105Y-1493703D01*
X17216400Y-1545402D01*
X17165758Y-1617943D01*
X17177659Y-1685724D01*
X17270131Y-1782764D01*
X17296987Y-1814359D01*
X17373435Y-1960748D01*
X17453275Y-2178083D01*
X17530577Y-2440583D01*
X17599411Y-2722462D01*
X17653850Y-2997936D01*
X17687962Y-3241222D01*
X17695819Y-3426536D01*
X17671491Y-3528093D01*
X17617979Y-3579496D01*
X17496223Y-3608278D01*
X17373296Y-3521652D01*
X17366715Y-3512231D01*
X17320784Y-3403026D01*
X17259504Y-3209423D01*
X17190085Y-2955737D01*
X17119734Y-2666287D01*
X16945762Y-1905366D01*
X16483449Y-1888197D01*
X16233079Y-1871518D01*
X16032302Y-1835121D01*
X15918038Y-1777725D01*
X15870227Y-1737310D01*
X15797742Y-1716497D01*
X15708889Y-1780396D01*
X15610536Y-1835395D01*
X15443712Y-1866885D01*
X15186972Y-1876370D01*
X15162660Y-1876444D01*
X14964294Y-1883165D01*
X14823712Y-1898649D01*
X14769997Y-1919863D01*
X14770059Y-1921928D01*
X14783415Y-2001392D01*
X14816695Y-2168825D01*
X14865172Y-2401069D01*
X14924119Y-2674966D01*
X14932529Y-2713614D01*
X14994126Y-3008577D01*
X15029977Y-3215461D01*
X15042135Y-3356317D01*
X15032654Y-3453193D01*
X15003588Y-3528138D01*
X14997866Y-3538817D01*
X14942016Y-3625645D01*
X14883390Y-3631064D01*
X14776351Y-3561842D01*
X14743584Y-3536235D01*
X14685483Y-3470100D01*
X14635048Y-3369978D01*
X14585181Y-3215838D01*
X14528785Y-2987647D01*
X14458763Y-2665373D01*
X14451234Y-2629545D01*
X14387122Y-2312262D01*
X14348502Y-2087672D01*
X14333455Y-1937557D01*
X14340066Y-1843699D01*
X14366416Y-1787880D01*
X14394940Y-1746021D01*
X14394458Y-1668995D01*
X14312061Y-1562620D01*
X14247956Y-1465595D01*
X14177305Y-1288691D01*
X14101104Y-1023920D01*
X14014885Y-657680D01*
X13863285Y31523D01*
X14326097Y31523D01*
X14335821Y-35160D01*
X14351644Y-104045D01*
X14390356Y-276240D01*
X14442362Y-509812D01*
X14500915Y-774544D01*
X14635155Y-1383448D01*
X15060454Y-1400676D01*
X15278973Y-1416313D01*
X15494430Y-1458274D01*
X15642708Y-1529664D01*
X15659980Y-1541944D01*
X15762634Y-1605827D01*
X15827150Y-1600998D01*
X15903275Y-1526935D01*
X15948646Y-1485097D01*
X16044280Y-1440250D01*
X16193838Y-1418274D01*
X16428157Y-1412443D01*
X16849426Y-1412443D01*
X16800819Y-1223973D01*
X16785430Y-1161978D01*
X16741878Y-977628D01*
X16686223Y-735024D01*
X16626760Y-470092D01*
X16501309Y95319D01*
X16049243Y95319D01*
X16002287Y95486D01*
X15757467Y105500D01*
X15604960Y133346D01*
X15524985Y182305D01*
X15475214Y228681D01*
X15380008Y269292D01*
X15330013Y255808D01*
X15235031Y182305D01*
X15150963Y131789D01*
X14990289Y103883D01*
X14733903Y95319D01*
X14597683Y94906D01*
X14434302Y89107D01*
X14351349Y70463D01*
X14326097Y31523D01*
X13863285Y31523D01*
X13845829Y110881D01*
X14023385Y335063D01*
X14200941Y559246D01*
X15312392Y558053D01*
X16423844Y556861D01*
X16698801Y311592D01*
X16737422Y277064D01*
X16838385Y181581D01*
X16911813Y91674D01*
X16968204Y-16426D01*
X17018057Y-166485D01*
X17071871Y-382273D01*
X17140145Y-687558D01*
X17188799Y-910690D01*
X17238171Y-1153674D01*
X17263804Y-1318239D01*
X17267082Y-1412443D01*
X17267511Y-1424782D01*
G37*
G36*
X-2603968Y-1453658D02*
G01*
X-2627902Y-1531687D01*
X-2648863Y-1576029D01*
X-2653612Y-1673530D01*
X-2574372Y-1782777D01*
X-2550414Y-1813670D01*
X-2470785Y-1982937D01*
X-2381943Y-2265173D01*
X-2283462Y-2661666D01*
X-2226130Y-2916691D01*
X-2177848Y-3149305D01*
X-2153367Y-3307896D01*
X-2150764Y-3413929D01*
X-2168116Y-3488869D01*
X-2203501Y-3554180D01*
X-2294739Y-3695232D01*
X-2447987Y-3523718D01*
X-2525868Y-3414407D01*
X-2595578Y-3257218D01*
X-2662091Y-3032239D01*
X-2733790Y-2715771D01*
X-2780123Y-2495471D01*
X-2831675Y-2255670D01*
X-2872039Y-2073863D01*
X-2895136Y-1977854D01*
X-2921528Y-1930579D01*
X-2992039Y-1896846D01*
X-3128963Y-1880585D01*
X-3356990Y-1876370D01*
X-3574870Y-1870138D01*
X-3793581Y-1839165D01*
X-3939181Y-1778659D01*
X-4034604Y-1721206D01*
X-4096060Y-1716027D01*
X-4142991Y-1778659D01*
X-4179492Y-1820290D01*
X-4265537Y-1854508D01*
X-4418439Y-1871670D01*
X-4662626Y-1876370D01*
X-4761729Y-1876651D01*
X-4954343Y-1881703D01*
X-5060249Y-1896945D01*
X-5100694Y-1927341D01*
X-5096923Y-1977854D01*
X-5073768Y-2068190D01*
X-5031344Y-2247400D01*
X-4976135Y-2487963D01*
X-4914265Y-2763531D01*
X-4877150Y-2934061D01*
X-4826928Y-3190420D01*
X-4804013Y-3363079D01*
X-4806413Y-3470691D01*
X-4832133Y-3531910D01*
X-4909641Y-3603506D01*
X-5011077Y-3620300D01*
X-5108556Y-3538126D01*
X-5204824Y-3352782D01*
X-5302624Y-3060070D01*
X-5404703Y-2655789D01*
X-5434413Y-2524360D01*
X-5493344Y-2249799D01*
X-5526799Y-2059009D01*
X-5536944Y-1931256D01*
X-5525944Y-1845805D01*
X-5495964Y-1781921D01*
X-5456551Y-1709295D01*
X-5462660Y-1630348D01*
X-5550466Y-1532398D01*
X-5577881Y-1503040D01*
X-5641393Y-1398983D01*
X-5703212Y-1235859D01*
X-5769627Y-995123D01*
X-5846927Y-658230D01*
X-6000935Y51826D01*
X-5526807Y51826D01*
X-5526751Y49858D01*
X-5513475Y-29261D01*
X-5480263Y-196408D01*
X-5431845Y-428400D01*
X-5372953Y-702055D01*
X-5217991Y-1412443D01*
X-4771929Y-1412443D01*
X-4568244Y-1415670D01*
X-4401204Y-1431815D01*
X-4295401Y-1467300D01*
X-4220905Y-1528425D01*
X-4141537Y-1606096D01*
X-4080890Y-1644407D01*
X-4042738Y-1618547D01*
X-3973404Y-1528425D01*
X-3921271Y-1469152D01*
X-3836462Y-1433421D01*
X-3691986Y-1416631D01*
X-3459769Y-1412443D01*
X-3303044Y-1411906D01*
X-3144050Y-1405741D01*
X-3064288Y-1386793D01*
X-3041504Y-1347916D01*
X-3053445Y-1281964D01*
X-3071336Y-1207966D01*
X-3110699Y-1032560D01*
X-3162005Y-795996D01*
X-3218717Y-528083D01*
X-3349109Y95319D01*
X-3791684Y95319D01*
X-3910493Y96465D01*
X-4125055Y110447D01*
X-4269572Y145186D01*
X-4375940Y206765D01*
X-4377844Y208263D01*
X-4478221Y280386D01*
X-4533204Y279887D01*
X-4587220Y206765D01*
X-4631986Y155120D01*
X-4715725Y117793D01*
X-4859534Y99911D01*
X-5091260Y95319D01*
X-5131327Y95134D01*
X-5331687Y88015D01*
X-5472998Y72631D01*
X-5526807Y51826D01*
X-6000935Y51826D01*
X-6009184Y89860D01*
X-5846541Y324553D01*
X-5683899Y559246D01*
X-4566450Y559246D01*
X-3449002Y559246D01*
X-3197054Y349732D01*
X-3093267Y260403D01*
X-2971306Y145907D01*
X-2909107Y74276D01*
X-2908140Y72369D01*
X-2881123Y-13414D01*
X-2836328Y-186870D01*
X-2779757Y-423761D01*
X-2717414Y-699846D01*
X-2675302Y-895946D01*
X-2625524Y-1155707D01*
X-2602461Y-1334971D01*
X-2602625Y-1347916D01*
X-2603968Y-1453658D01*
G37*
G36*
X-8166443Y556051D02*
G01*
X-7867123Y552287D01*
X-7651001Y544474D01*
X-7500755Y530983D01*
X-7399059Y510182D01*
X-7328589Y480444D01*
X-7272020Y440137D01*
X-7183051Y357885D01*
X-7171655Y295390D01*
X-7237514Y210103D01*
X-7284954Y166673D01*
X-7380872Y122581D01*
X-7530938Y101022D01*
X-7765886Y95319D01*
X-8190380Y95319D01*
X-8153234Y-93151D01*
X-8139451Y-160431D01*
X-8099542Y-347065D01*
X-8046069Y-591406D01*
X-7986703Y-858217D01*
X-7939246Y-1075750D01*
X-7902717Y-1273375D01*
X-7891879Y-1403495D01*
X-7905083Y-1491316D01*
X-7940682Y-1562043D01*
X-7983601Y-1638168D01*
X-7977313Y-1711935D01*
X-7885286Y-1797319D01*
X-7809340Y-1904267D01*
X-7727846Y-2099486D01*
X-7648354Y-2353922D01*
X-7577104Y-2639526D01*
X-7520335Y-2928252D01*
X-7484284Y-3192050D01*
X-7475192Y-3402873D01*
X-7499295Y-3532672D01*
X-7504320Y-3542049D01*
X-7558873Y-3626506D01*
X-7617037Y-3631174D01*
X-7723976Y-3561934D01*
X-7755044Y-3537756D01*
X-7813687Y-3471704D01*
X-7864685Y-3371688D01*
X-7915190Y-3217681D01*
X-7972352Y-2989655D01*
X-8043323Y-2667585D01*
X-8058187Y-2597676D01*
X-8120382Y-2292308D01*
X-8157282Y-2077450D01*
X-8170845Y-1934508D01*
X-8163031Y-1844890D01*
X-8135800Y-1790000D01*
X-8104641Y-1744063D01*
X-8106266Y-1667812D01*
X-8189007Y-1561968D01*
X-8201365Y-1547822D01*
X-8284788Y-1398534D01*
X-8369320Y-1150532D01*
X-8457953Y-795289D01*
X-8505355Y-582811D01*
X-8560618Y-336115D01*
X-8603969Y-143749D01*
X-8628791Y-35160D01*
X-8637642Y-2679D01*
X-8670645Y50825D01*
X-8742167Y80269D01*
X-8878016Y92738D01*
X-9104003Y95319D01*
X-9316967Y98976D01*
X-9483067Y116437D01*
X-9594134Y154858D01*
X-9682720Y221328D01*
X-9764298Y306035D01*
X-9779798Y372692D01*
X-9720963Y453292D01*
X-9689323Y482491D01*
X-9632075Y511969D01*
X-9541718Y532733D01*
X-9401677Y546218D01*
X-9195382Y553854D01*
X-8906260Y557077D01*
X-8517739Y557317D01*
X-8166443Y556051D01*
G37*
G36*
X8789857Y300263D02*
G01*
X8901190Y195969D01*
X8943117Y137173D01*
X9018816Y-36510D01*
X9101253Y-308932D01*
X9193169Y-688392D01*
X9242487Y-911302D01*
X9292572Y-1154040D01*
X9318663Y-1318427D01*
X9322629Y-1424855D01*
X9306335Y-1493716D01*
X9271651Y-1545402D01*
X9221009Y-1617943D01*
X9232910Y-1685724D01*
X9325382Y-1782764D01*
X9352238Y-1814359D01*
X9428686Y-1960748D01*
X9508526Y-2178083D01*
X9585828Y-2440583D01*
X9654663Y-2722462D01*
X9709101Y-2997936D01*
X9743213Y-3241222D01*
X9751070Y-3426536D01*
X9726743Y-3528093D01*
X9659837Y-3594724D01*
X9579680Y-3604898D01*
X9461526Y-3533797D01*
X9453512Y-3527366D01*
X9393885Y-3441963D01*
X9330479Y-3280637D01*
X9258958Y-3030442D01*
X9174985Y-2678431D01*
X9001013Y-1905366D01*
X8529555Y-1888635D01*
X8332216Y-1878753D01*
X8148589Y-1856627D01*
X8032191Y-1818538D01*
X7955157Y-1758156D01*
X7897683Y-1688872D01*
X7886896Y-1619857D01*
X7957177Y-1528425D01*
X8003101Y-1485849D01*
X8098510Y-1440447D01*
X8247034Y-1418289D01*
X8479915Y-1412443D01*
X8897690Y-1412443D01*
X8729985Y-673060D01*
X8664050Y-372600D01*
X8620410Y-141836D01*
X8602050Y16377D01*
X8606670Y122453D01*
X8631970Y196803D01*
X8651806Y232729D01*
X8717278Y312484D01*
X8789857Y300263D01*
G37*
G36*
X-14505086Y-1434693D02*
G01*
X-14524484Y-1497994D01*
X-14562074Y-1548668D01*
X-14619820Y-1627173D01*
X-14605490Y-1690529D01*
X-14508304Y-1780631D01*
X-14498122Y-1789308D01*
X-14433650Y-1860897D01*
X-14378326Y-1964184D01*
X-14324873Y-2119809D01*
X-14266014Y-2348408D01*
X-14194470Y-2670621D01*
X-14188475Y-2698733D01*
X-14124293Y-3011407D01*
X-14085877Y-3231697D01*
X-14071280Y-3378375D01*
X-14078555Y-3470214D01*
X-14105756Y-3525986D01*
X-14174288Y-3594431D01*
X-14254639Y-3604860D01*
X-14372721Y-3533797D01*
X-14380735Y-3527366D01*
X-14440362Y-3441963D01*
X-14503767Y-3280637D01*
X-14575288Y-3030442D01*
X-14659261Y-2678431D01*
X-14833234Y-1905366D01*
X-15295546Y-1888197D01*
X-15537619Y-1872331D01*
X-15743659Y-1836015D01*
X-15859869Y-1778709D01*
X-15874253Y-1766002D01*
X-15964386Y-1718121D01*
X-16050905Y-1760275D01*
X-16089297Y-1804893D01*
X-16116823Y-1917516D01*
X-16103703Y-2107254D01*
X-16102496Y-2116563D01*
X-16093650Y-2272608D01*
X-16112965Y-2434918D01*
X-16166978Y-2636634D01*
X-16262227Y-2910895D01*
X-16308185Y-3034296D01*
X-16392102Y-3241295D01*
X-16458253Y-3365378D01*
X-16518300Y-3425792D01*
X-16583904Y-3441783D01*
X-16661292Y-3426439D01*
X-16713523Y-3354297D01*
X-16747672Y-3195663D01*
X-16757090Y-3102773D01*
X-16747588Y-2941897D01*
X-16699656Y-2748284D01*
X-16606248Y-2486597D01*
X-16576586Y-2408595D01*
X-16500700Y-2198271D01*
X-16447830Y-2035430D01*
X-16427983Y-1950182D01*
X-16443824Y-1920004D01*
X-16549533Y-1886109D01*
X-16761430Y-1873898D01*
X-16885134Y-1870895D01*
X-17049715Y-1847181D01*
X-17183029Y-1782515D01*
X-17339473Y-1656432D01*
X-17363064Y-1635617D01*
X-17455817Y-1548077D01*
X-17524991Y-1461411D01*
X-17580287Y-1352788D01*
X-17631403Y-1199381D01*
X-17688040Y-978359D01*
X-17759895Y-666893D01*
X-17932923Y95319D01*
X-17474028Y95319D01*
X-17433487Y-64156D01*
X-17418303Y-127160D01*
X-17378121Y-303503D01*
X-17325801Y-540062D01*
X-17268760Y-803539D01*
X-17144573Y-1383448D01*
X-16718908Y-1400676D01*
X-16499467Y-1416390D01*
X-16284358Y-1458339D01*
X-16136288Y-1529664D01*
X-16119015Y-1541944D01*
X-16016362Y-1605827D01*
X-15951846Y-1600998D01*
X-15875721Y-1526935D01*
X-15830349Y-1485097D01*
X-15734716Y-1440250D01*
X-15585158Y-1418274D01*
X-15350838Y-1412443D01*
X-14929569Y-1412443D01*
X-14978177Y-1223973D01*
X-14993566Y-1161978D01*
X-15037117Y-977628D01*
X-15092772Y-735024D01*
X-15152235Y-470092D01*
X-15277686Y95319D01*
X-15729752Y95319D01*
X-15776708Y95486D01*
X-16021529Y105500D01*
X-16174036Y133346D01*
X-16254010Y182305D01*
X-16304626Y228303D01*
X-16407908Y269292D01*
X-16449462Y259386D01*
X-16522993Y182305D01*
X-16541615Y154537D01*
X-16618858Y119166D01*
X-16769724Y100663D01*
X-17015201Y95319D01*
X-17474028Y95319D01*
X-17932923Y95319D01*
X-17935723Y107653D01*
X-17756888Y333450D01*
X-17578054Y559246D01*
X-16465015Y559246D01*
X-15351976Y559246D01*
X-15077377Y312785D01*
X-15041060Y280114D01*
X-14939504Y183585D01*
X-14865510Y92907D01*
X-14808528Y-15734D01*
X-14758007Y-166150D01*
X-14703396Y-382154D01*
X-14634143Y-687558D01*
X-14573228Y-963666D01*
X-14527739Y-1188064D01*
X-14505598Y-1338228D01*
X-14505204Y-1412443D01*
X-14505086Y-1434693D01*
G37*
G36*
X19491929Y-1888367D02*
G01*
X19592038Y-1950460D01*
X19653287Y-2108334D01*
X19656108Y-2122020D01*
X19665570Y-2244768D01*
X19644402Y-2394431D01*
X19586955Y-2597295D01*
X19487581Y-2879648D01*
X19415491Y-3070899D01*
X19335734Y-3262381D01*
X19273550Y-3374155D01*
X19218204Y-3424216D01*
X19158961Y-3430561D01*
X19063861Y-3376840D01*
X18989413Y-3215797D01*
X18979645Y-3171281D01*
X18973125Y-3056811D01*
X18996242Y-2915076D01*
X19054609Y-2719744D01*
X19153839Y-2444483D01*
X19231887Y-2240745D01*
X19311837Y-2052411D01*
X19374155Y-1942782D01*
X19429641Y-1893932D01*
X19489094Y-1887933D01*
X19491929Y-1888367D01*
G37*
G36*
X7669033Y-1928349D02*
G01*
X7731794Y-2093836D01*
X7738357Y-2256618D01*
X7694796Y-2508478D01*
X7593690Y-2837420D01*
X7432404Y-3253653D01*
X7341100Y-3400962D01*
X7236823Y-3449452D01*
X7143495Y-3390145D01*
X7080734Y-3224658D01*
X7074171Y-3061876D01*
X7117732Y-2810016D01*
X7218838Y-2481074D01*
X7380124Y-2064841D01*
X7471428Y-1917532D01*
X7575705Y-1869042D01*
X7669033Y-1928349D01*
G37*
G36*
X18482892Y51274D02*
G01*
X18625532Y-70145D01*
X18795241Y-248532D01*
X18974981Y-462475D01*
X19147712Y-690564D01*
X19296398Y-911389D01*
X19404000Y-1103539D01*
X19453479Y-1245603D01*
X19460421Y-1312087D01*
X19449833Y-1433598D01*
X19392739Y-1464121D01*
X19285290Y-1401880D01*
X19123643Y-1245101D01*
X18903949Y-992010D01*
X18744257Y-799053D01*
X18579843Y-598188D01*
X18468342Y-455674D01*
X18397627Y-353518D01*
X18355570Y-273731D01*
X18330043Y-198319D01*
X18308918Y-109293D01*
X18285676Y25282D01*
X18307423Y82966D01*
X18387143Y94369D01*
X18482892Y51274D01*
G37*
G36*
X6484479Y85309D02*
G01*
X6565264Y44512D01*
X6704634Y-76789D01*
X6873435Y-256156D01*
X7054180Y-471561D01*
X7229382Y-700974D01*
X7381553Y-922365D01*
X7493205Y-1113707D01*
X7546851Y-1252968D01*
X7559705Y-1362415D01*
X7538589Y-1461276D01*
X7464512Y-1465699D01*
X7335507Y-1374607D01*
X7149604Y-1186921D01*
X6904835Y-901565D01*
X6779274Y-745764D01*
X6578561Y-475523D01*
X6453200Y-268467D01*
X6396479Y-114200D01*
X6390947Y-84255D01*
X6375961Y40826D01*
X6402784Y87476D01*
X6484479Y85309D01*
G37*
D12*
%TO.C,D18*%
X16940000Y-42300000D02*
X20950000Y-42300000D01*
X16940000Y-44300000D02*
X16940000Y-42300000D01*
X16940000Y-44300000D02*
X20950000Y-44300000D01*
%TO.C,Q1*%
X19810000Y33280000D02*
X19160000Y33280000D01*
X19810000Y33280000D02*
X20460000Y33280000D01*
X19810000Y30160000D02*
X18135000Y30160000D01*
X19810000Y30160000D02*
X20460000Y30160000D01*
%TO.C,D14*%
X15200000Y-56460000D02*
X15200000Y-52450000D01*
X17200000Y-56460000D02*
X15200000Y-56460000D01*
X17200000Y-56460000D02*
X17200000Y-52450000D01*
%TO.C,D9*%
X-2800000Y-37460000D02*
X-2800000Y-33450000D01*
X-800000Y-37460000D02*
X-2800000Y-37460000D01*
X-800000Y-37460000D02*
X-800000Y-33450000D01*
%TO.C,U2*%
X1580000Y24220000D02*
X1580000Y25020000D01*
X1580000Y24220000D02*
X1580000Y23420000D01*
X-1540000Y24220000D02*
X-1540000Y26020000D01*
X-1540000Y24220000D02*
X-1540000Y23420000D01*
%TO.C,R6*%
X-7195000Y19153641D02*
X-7195000Y18846359D01*
X-7955000Y19153641D02*
X-7955000Y18846359D01*
%TO.C,D2*%
X15572500Y29360000D02*
X15572500Y33370000D01*
X17572500Y29360000D02*
X15572500Y29360000D01*
X17572500Y29360000D02*
X17572500Y33370000D01*
%TO.C,D1*%
X21815000Y32750000D02*
X25825000Y32750000D01*
X21815000Y30750000D02*
X21815000Y32750000D01*
X21815000Y30750000D02*
X25825000Y30750000D01*
%TO.C,C1*%
X-1790810Y16948307D02*
X-1638307Y17100810D01*
X-1281693Y16439190D02*
X-1129190Y16591693D01*
%TO.C,R10*%
X1770000Y27753641D02*
X1770000Y27446359D01*
X1010000Y27753641D02*
X1010000Y27446359D01*
%TO.C,C4*%
X5005810Y4271693D02*
X4853307Y4119190D01*
X4496693Y4780810D02*
X4344190Y4628307D01*
%TO.C,J4*%
X24030000Y20315000D02*
X18830000Y20315000D01*
X24030000Y25455000D02*
X24030000Y20315000D01*
X24030000Y25455000D02*
X21430000Y25455000D01*
X24030000Y26725000D02*
X24030000Y28055000D01*
X24030000Y28055000D02*
X22700000Y28055000D01*
X21430000Y25455000D02*
X21430000Y28055000D01*
X21430000Y28055000D02*
X18830000Y28055000D01*
X18830000Y28055000D02*
X18830000Y20315000D01*
%TO.C,C19*%
X15035000Y31891252D02*
X15035000Y31368748D01*
X13565000Y31891252D02*
X13565000Y31368748D01*
%TO.C,D4*%
X-21900000Y-37360000D02*
X-21900000Y-33350000D01*
X-19900000Y-37360000D02*
X-21900000Y-37360000D01*
X-19900000Y-37360000D02*
X-19900000Y-33350000D01*
%TO.C,C2*%
X-2490810Y17678307D02*
X-2338307Y17830810D01*
X-1981693Y17169190D02*
X-1829190Y17321693D01*
%TO.C,J3*%
X-4700000Y37900000D02*
X4700000Y37900000D01*
X-4700000Y36000000D02*
X-4700000Y37900000D01*
X-4700000Y32100000D02*
X-4700000Y34100000D01*
X4700000Y36000000D02*
X4700000Y37900000D01*
X4700000Y32100000D02*
X4700000Y34100000D01*
%TO.C,C20*%
X7115000Y31348748D02*
X7115000Y31871252D01*
X8585000Y31348748D02*
X8585000Y31871252D01*
%TO.C,D12*%
X16200000Y-18460000D02*
X16200000Y-14450000D01*
X18200000Y-18460000D02*
X16200000Y-18460000D01*
X18200000Y-18460000D02*
X18200000Y-14450000D01*
%TO.C,R5*%
X-7195000Y16683641D02*
X-7195000Y16376359D01*
X-7955000Y16683641D02*
X-7955000Y16376359D01*
%TO.C,C17*%
X-6215000Y21707836D02*
X-6215000Y21492164D01*
X-6935000Y21707836D02*
X-6935000Y21492164D01*
%TO.C,D17*%
X20200000Y-18560000D02*
X20200000Y-14550000D01*
X22200000Y-18560000D02*
X20200000Y-18560000D01*
X22200000Y-18560000D02*
X22200000Y-14550000D01*
%TO.C,C15*%
X-6935000Y16422164D02*
X-6935000Y16637836D01*
X-6215000Y16422164D02*
X-6215000Y16637836D01*
%TO.C,D5*%
X-21700000Y-56460000D02*
X-21700000Y-52450000D01*
X-19700000Y-56460000D02*
X-21700000Y-56460000D01*
X-19700000Y-56460000D02*
X-19700000Y-52450000D01*
%TO.C,U5*%
X9490000Y31570000D02*
X9490000Y30920000D01*
X9490000Y31570000D02*
X9490000Y32220000D01*
X12610000Y31570000D02*
X12610000Y29895000D01*
X12610000Y31570000D02*
X12610000Y32220000D01*
%TO.C,SW3*%
X13695000Y26490000D02*
X13695000Y24490000D01*
X12645000Y23190000D02*
X12195000Y22740000D01*
X12645000Y27790000D02*
X12195000Y28240000D01*
X12195000Y22740000D02*
X9695000Y22740000D01*
X12195000Y28240000D02*
X9695000Y28240000D01*
X9245000Y23190000D02*
X9695000Y22740000D01*
X9245000Y27790000D02*
X9695000Y28240000D01*
X8195000Y26490000D02*
X8195000Y24490000D01*
%TO.C,D19*%
X21640000Y-69400000D02*
X25650000Y-69400000D01*
X21640000Y-71400000D02*
X21640000Y-69400000D01*
X21640000Y-71400000D02*
X25650000Y-71400000D01*
%TO.C,R1*%
X23953641Y6720000D02*
X23646359Y6720000D01*
X23953641Y7480000D02*
X23646359Y7480000D01*
%TO.C,R13*%
X-1120000Y27753641D02*
X-1120000Y27446359D01*
X-1880000Y27753641D02*
X-1880000Y27446359D01*
D13*
%TO.C,SW2*%
X27271000Y11250000D02*
X27779000Y11250000D01*
X28825000Y10730000D02*
X28825000Y5070000D01*
X26225000Y9400000D02*
X26225000Y7900000D01*
X27271000Y4550000D02*
X27779000Y4550000D01*
D14*
X24554000Y10229000D02*
G75*
G03*
X24554000Y10229000I-100000J0D01*
G01*
D12*
%TO.C,C3*%
X6328307Y12210810D02*
X6480810Y12058307D01*
X5819190Y11701693D02*
X5971693Y11549190D01*
%TO.C,D3*%
X-22000000Y-18360000D02*
X-22000000Y-14350000D01*
X-20000000Y-18360000D02*
X-22000000Y-18360000D01*
X-20000000Y-18360000D02*
X-20000000Y-14350000D01*
%TO.C,R11*%
X4242341Y14689940D02*
X4025060Y14472659D01*
X3704940Y15227341D02*
X3487659Y15010060D01*
%TO.C,C16*%
X-6935000Y18892164D02*
X-6935000Y19107836D01*
X-6215000Y18892164D02*
X-6215000Y19107836D01*
%TO.C,U1*%
X0Y4894689D02*
X318198Y5212887D01*
X4787113Y9681802D02*
X5699281Y8769634D01*
X5105311Y10000000D02*
X4787113Y9681802D01*
X-318198Y5212887D02*
X0Y4894689D01*
X4787113Y10318198D02*
X5105311Y10000000D01*
X-4787113Y9681802D02*
X-5105311Y10000000D01*
X318198Y14787113D02*
X0Y15105311D01*
X-5105311Y10000000D02*
X-4787113Y10318198D01*
X0Y15105311D02*
X-318198Y14787113D01*
%TO.C,R2*%
X6480000Y22653641D02*
X6480000Y22346359D01*
X5720000Y22653641D02*
X5720000Y22346359D01*
D14*
%TO.C,IC1*%
X-19186000Y35470000D02*
X-19186000Y17270000D01*
X-19186000Y17270000D02*
X-11494000Y17270000D01*
X-11494000Y35470000D02*
X-19186000Y35470000D01*
X-11494000Y17270000D02*
X-11494000Y35470000D01*
D15*
X-17963000Y18370000D02*
G75*
G03*
X-17963000Y18370000I-250000J0D01*
G01*
D12*
%TO.C,C11*%
X-7407836Y34660000D02*
X-7192164Y34660000D01*
X-7407836Y33940000D02*
X-7192164Y33940000D01*
%TO.C,D16*%
X18500000Y-75840000D02*
X18500000Y-79850000D01*
X16500000Y-75840000D02*
X18500000Y-75840000D01*
X16500000Y-75840000D02*
X16500000Y-79850000D01*
%TO.C,D8*%
X-2800000Y-18360000D02*
X-2800000Y-14350000D01*
X-800000Y-18360000D02*
X-2800000Y-18360000D01*
X-800000Y-18360000D02*
X-800000Y-14350000D01*
%TO.C,D11*%
X-3200000Y-75460000D02*
X-3200000Y-71450000D01*
X-1200000Y-75460000D02*
X-3200000Y-75460000D01*
X-1200000Y-75460000D02*
X-1200000Y-71450000D01*
%TO.C,D15*%
X16300000Y-75460000D02*
X16300000Y-71450000D01*
X18300000Y-75460000D02*
X16300000Y-75460000D01*
X18300000Y-75460000D02*
X18300000Y-71450000D01*
%TO.C,R7*%
X-7955000Y21426359D02*
X-7955000Y21733641D01*
X-7195000Y21426359D02*
X-7195000Y21733641D01*
%TO.C,D10*%
X-2800000Y-56460000D02*
X-2800000Y-52450000D01*
X-800000Y-56460000D02*
X-2800000Y-56460000D01*
X-800000Y-56460000D02*
X-800000Y-52450000D01*
%TO.C,C7*%
X-6238307Y7669190D02*
X-6390810Y7821693D01*
X-5729190Y8178307D02*
X-5881693Y8330810D01*
%TO.C,R12*%
X2797659Y15710060D02*
X3014940Y15927341D01*
X3335060Y15172659D02*
X3552341Y15389940D01*
%TO.C,D6*%
X-21800000Y-75460000D02*
X-21800000Y-71450000D01*
X-19800000Y-75460000D02*
X-21800000Y-75460000D01*
X-19800000Y-75460000D02*
X-19800000Y-71450000D01*
%TO.C,C6*%
X-6938896Y6949779D02*
X-7091399Y7102282D01*
X-6429779Y7458896D02*
X-6582282Y7611399D01*
%TO.C,C8*%
X5313307Y6440810D02*
X5465810Y6288307D01*
X4804190Y5931693D02*
X4956693Y5779190D01*
%TO.C,D7*%
X-1100000Y-76240000D02*
X-1100000Y-80250000D01*
X-3100000Y-76240000D02*
X-1100000Y-76240000D01*
X-3100000Y-76240000D02*
X-3100000Y-80250000D01*
%TO.C,D13*%
X16100000Y-37360000D02*
X16100000Y-33350000D01*
X18100000Y-37360000D02*
X16100000Y-37360000D01*
X18100000Y-37360000D02*
X18100000Y-33350000D01*
%TO.C,R8*%
X2780000Y27753641D02*
X2780000Y27446359D01*
X2020000Y27753641D02*
X2020000Y27446359D01*
%TO.C,C10*%
X4518601Y13012282D02*
X4671104Y12859779D01*
X5027718Y13521399D02*
X5180221Y13368896D01*
%TO.C,C5*%
X4275810Y4991693D02*
X4123307Y4839190D01*
X3766693Y5500810D02*
X3614190Y5348307D01*
%TO.C,C9*%
X6720810Y8191693D02*
X6568307Y8039190D01*
X6211693Y8700810D02*
X6059190Y8548307D01*
%TD*%
%LPC*%
D16*
%TO.C,J2*%
X31800000Y22960000D03*
D17*
X31800000Y25500000D03*
X31800000Y28040000D03*
%TD*%
D18*
%TO.C,SW_five1*%
X-4445000Y-47625000D03*
D19*
X-9525000Y-47625000D03*
D18*
X-14605000Y-47625000D03*
D20*
X-12065000Y-52705000D03*
X-5715000Y-50165000D03*
%TD*%
D21*
%TO.C,SW_zero1*%
X-7150000Y-92725000D03*
D19*
X-7150000Y-77485000D03*
D18*
X-13970000Y-85725000D03*
D19*
X-19050000Y-85725000D03*
D18*
X-24130000Y-85725000D03*
D21*
X-30950000Y-92725000D03*
D19*
X-30950000Y-77485000D03*
D20*
X-21590000Y-90805000D03*
X-15240000Y-88265000D03*
%TD*%
D18*
%TO.C,SW_two1*%
X-4445000Y-66675000D03*
D19*
X-9525000Y-66675000D03*
D18*
X-14605000Y-66675000D03*
D20*
X-12065000Y-71755000D03*
X-5715000Y-69215000D03*
%TD*%
D22*
%TO.C,H2*%
X35100000Y34000000D03*
%TD*%
D18*
%TO.C,SW_three1*%
X14605000Y-66675000D03*
D19*
X9525000Y-66675000D03*
D18*
X4445000Y-66675000D03*
D20*
X6985000Y-71755000D03*
X13335000Y-69215000D03*
%TD*%
D18*
%TO.C,SW_divide1*%
X-4445000Y-9525000D03*
D19*
X-9525000Y-9525000D03*
D18*
X-14605000Y-9525000D03*
D20*
X-12065000Y-14605000D03*
X-5715000Y-12065000D03*
%TD*%
D22*
%TO.C,H3*%
X-35100000Y34000000D03*
%TD*%
D18*
%TO.C,SW_four1*%
X-23495000Y-47625000D03*
D19*
X-28575000Y-47625000D03*
D18*
X-33655000Y-47625000D03*
D20*
X-31115000Y-52705000D03*
X-24765000Y-50165000D03*
%TD*%
D23*
%TO.C,BT1*%
X26000000Y27555000D03*
D24*
X-25990000Y27555000D03*
%TD*%
D18*
%TO.C,SW_point1*%
X14605000Y-85725000D03*
D19*
X9525000Y-85725000D03*
D18*
X4445000Y-85725000D03*
D20*
X6985000Y-90805000D03*
X13335000Y-88265000D03*
%TD*%
D21*
%TO.C,SW_plus1*%
X35575000Y-50000000D03*
X35575000Y-26200000D03*
D18*
X33655000Y-38100000D03*
D19*
X28575000Y-38100000D03*
D18*
X23495000Y-38100000D03*
D19*
X20335000Y-50000000D03*
X20335000Y-26200000D03*
D20*
X26035000Y-43180000D03*
X32385000Y-40640000D03*
%TD*%
D25*
%TO.C,U4*%
X9125000Y5020000D03*
D26*
X11665000Y5020000D03*
X14205000Y5020000D03*
X16745000Y5020000D03*
X19285000Y5020000D03*
X21825000Y5020000D03*
X21825000Y15180000D03*
X19285000Y15180000D03*
X16745000Y15180000D03*
X14205000Y15180000D03*
X11665000Y15180000D03*
X9125000Y15180000D03*
%TD*%
D18*
%TO.C,SW_clear1*%
X-23495000Y-9525000D03*
D19*
X-28575000Y-9525000D03*
D18*
X-33655000Y-9525000D03*
D20*
X-31115000Y-14605000D03*
X-24765000Y-12065000D03*
%TD*%
D22*
%TO.C,H1*%
X35100000Y3000000D03*
%TD*%
%TO.C,H7*%
X-30440000Y-57150000D03*
%TD*%
D21*
%TO.C,SW_equals1*%
X35575000Y-88100000D03*
X35575000Y-64300000D03*
D18*
X33655000Y-76200000D03*
D19*
X28575000Y-76200000D03*
D18*
X23495000Y-76200000D03*
D19*
X20335000Y-88100000D03*
X20335000Y-64300000D03*
D20*
X26035000Y-81280000D03*
X32385000Y-78740000D03*
%TD*%
D18*
%TO.C,SW_minus1*%
X33655000Y-9525000D03*
D19*
X28575000Y-9525000D03*
D18*
X23495000Y-9525000D03*
D20*
X26035000Y-14605000D03*
X32385000Y-12065000D03*
%TD*%
D22*
%TO.C,H4*%
X-35100000Y3000000D03*
%TD*%
D18*
%TO.C,SW_six1*%
X14605000Y-47625000D03*
D19*
X9525000Y-47625000D03*
D18*
X4445000Y-47625000D03*
D20*
X6985000Y-52705000D03*
X13335000Y-50165000D03*
%TD*%
D18*
%TO.C,SW_eight1*%
X-4445000Y-28575000D03*
D19*
X-9525000Y-28575000D03*
D18*
X-14605000Y-28575000D03*
D20*
X-12065000Y-33655000D03*
X-5715000Y-31115000D03*
%TD*%
D22*
%TO.C,H5*%
X0Y-87150000D03*
%TD*%
D18*
%TO.C,SW_one1*%
X-23495000Y-66675000D03*
D19*
X-28575000Y-66675000D03*
D18*
X-33655000Y-66675000D03*
D20*
X-31115000Y-71755000D03*
X-24765000Y-69215000D03*
%TD*%
D27*
%TO.C,SW1*%
X33240000Y11320000D03*
X33240000Y13320000D03*
X33240000Y15320000D03*
D28*
X33240000Y9170000D03*
X33240000Y17470000D03*
%TD*%
D18*
%TO.C,SW_mutiplicate1*%
X14605000Y-9525000D03*
D19*
X9525000Y-9525000D03*
D18*
X4445000Y-9525000D03*
D20*
X6985000Y-14605000D03*
X13335000Y-12065000D03*
%TD*%
D22*
%TO.C,H6*%
X30440000Y-57150000D03*
%TD*%
D18*
%TO.C,SW_nine1*%
X14605000Y-28575000D03*
D19*
X9525000Y-28575000D03*
D18*
X4445000Y-28575000D03*
D20*
X6985000Y-33655000D03*
X13335000Y-31115000D03*
%TD*%
D25*
%TO.C,U3*%
X-21875000Y5020000D03*
D26*
X-19335000Y5020000D03*
X-16795000Y5020000D03*
X-14255000Y5020000D03*
X-11715000Y5020000D03*
X-9175000Y5020000D03*
X-9175000Y15180000D03*
X-11715000Y15180000D03*
X-14255000Y15180000D03*
X-16795000Y15180000D03*
X-19335000Y15180000D03*
X-21875000Y15180000D03*
%TD*%
D18*
%TO.C,SW_seven1*%
X-23495000Y-28575000D03*
D19*
X-28575000Y-28575000D03*
D18*
X-33655000Y-28575000D03*
D20*
X-31115000Y-33655000D03*
X-24765000Y-31115000D03*
%TD*%
D29*
%TO.C,D18*%
X17650000Y-43300000D03*
X20950000Y-43300000D03*
%TD*%
D30*
%TO.C,Q1*%
X18872500Y30770000D03*
X18872500Y32670000D03*
X20747500Y31720000D03*
%TD*%
D31*
%TO.C,D14*%
X16200000Y-55750000D03*
X16200000Y-52450000D03*
%TD*%
%TO.C,D9*%
X-1800000Y-36750000D03*
X-1800000Y-33450000D03*
%TD*%
D32*
%TO.C,U2*%
X-930000Y25357500D03*
X20000Y25357500D03*
X970000Y25357500D03*
X970000Y23082500D03*
X20000Y23082500D03*
X-930000Y23082500D03*
%TD*%
D33*
%TO.C,R6*%
X-7575000Y19510000D03*
X-7575000Y18490000D03*
%TD*%
D31*
%TO.C,D2*%
X16572500Y30070000D03*
X16572500Y33370000D03*
%TD*%
D29*
%TO.C,D1*%
X22525000Y31750000D03*
X25825000Y31750000D03*
%TD*%
D34*
%TO.C,C1*%
X-1799411Y16430589D03*
X-1120589Y17109411D03*
%TD*%
D33*
%TO.C,R10*%
X1390000Y28110000D03*
X1390000Y27090000D03*
%TD*%
D35*
%TO.C,C4*%
X5014411Y4789411D03*
X4335589Y4110589D03*
%TD*%
D16*
%TO.C,J4*%
X22700000Y26725000D03*
D17*
X20160000Y26725000D03*
X22700000Y24185000D03*
X20160000Y24185000D03*
X22700000Y21645000D03*
X20160000Y21645000D03*
%TD*%
D36*
%TO.C,C19*%
X14300000Y32580000D03*
X14300000Y30680000D03*
%TD*%
D31*
%TO.C,D4*%
X-20900000Y-36650000D03*
X-20900000Y-33350000D03*
%TD*%
D34*
%TO.C,C2*%
X-2499411Y17160589D03*
X-1820589Y17839411D03*
%TD*%
D37*
%TO.C,J3*%
X-2890000Y31400000D03*
X2890000Y31400000D03*
D38*
X-3250000Y29955000D03*
X-2450000Y29955000D03*
D39*
X-1250000Y29955000D03*
X-250000Y29955000D03*
X250000Y29955000D03*
X1250000Y29955000D03*
D38*
X2450000Y29955000D03*
X3250000Y29955000D03*
X3250000Y29955000D03*
X2450000Y29955000D03*
D39*
X1750000Y29955000D03*
X750000Y29955000D03*
X-750000Y29955000D03*
X-1750000Y29955000D03*
D38*
X-2450000Y29955000D03*
X-3250000Y29955000D03*
D40*
X-4320000Y35050000D03*
D41*
X-4320000Y30870000D03*
D40*
X4320000Y35050000D03*
D41*
X4320000Y30870000D03*
%TD*%
D42*
%TO.C,C20*%
X7850000Y30660000D03*
X7850000Y32560000D03*
%TD*%
D31*
%TO.C,D12*%
X17200000Y-17750000D03*
X17200000Y-14450000D03*
%TD*%
D33*
%TO.C,R5*%
X-7575000Y17040000D03*
X-7575000Y16020000D03*
%TD*%
D43*
%TO.C,C17*%
X-6575000Y22080000D03*
X-6575000Y21120000D03*
%TD*%
D31*
%TO.C,D17*%
X21200000Y-17850000D03*
X21200000Y-14550000D03*
%TD*%
D44*
%TO.C,C15*%
X-6575000Y16050000D03*
X-6575000Y17010000D03*
%TD*%
D31*
%TO.C,D5*%
X-20700000Y-55750000D03*
X-20700000Y-52450000D03*
%TD*%
D45*
%TO.C,U5*%
X12000000Y30632500D03*
X10100000Y30632500D03*
X11050000Y32507500D03*
%TD*%
D46*
%TO.C,SW3*%
X14095000Y27390000D03*
X7795000Y27390000D03*
X14095000Y23590000D03*
X7795000Y23590000D03*
%TD*%
D29*
%TO.C,D19*%
X22350000Y-70400000D03*
X25650000Y-70400000D03*
%TD*%
D47*
%TO.C,R1*%
X24310000Y7100000D03*
X23290000Y7100000D03*
%TD*%
D33*
%TO.C,R13*%
X-1500000Y28110000D03*
X-1500000Y27090000D03*
%TD*%
D48*
%TO.C,SW2*%
X27525000Y9400000D03*
X27525000Y6400000D03*
D49*
X25775000Y10150000D03*
X25775000Y7150000D03*
X25775000Y5650000D03*
D50*
X26475000Y11550000D03*
X28575000Y11550000D03*
X28575000Y4250000D03*
X26475000Y4250000D03*
%TD*%
D51*
%TO.C,C3*%
X5810589Y12219411D03*
X6489411Y11540589D03*
%TD*%
D31*
%TO.C,D3*%
X-21000000Y-17650000D03*
X-21000000Y-14350000D03*
%TD*%
D52*
%TO.C,R11*%
X4225624Y15210624D03*
X3504376Y14489376D03*
%TD*%
D44*
%TO.C,C16*%
X-6575000Y18520000D03*
X-6575000Y19480000D03*
%TD*%
D53*
%TO.C,U1*%
X4887876Y9001212D03*
X4534322Y8647658D03*
X4180769Y8294105D03*
X3827215Y7940551D03*
X3473662Y7586998D03*
X3120109Y7233445D03*
X2766555Y6879891D03*
X2413002Y6526338D03*
X2059449Y6172785D03*
X1705895Y5819231D03*
X1352342Y5465678D03*
X998788Y5112124D03*
D54*
X-998788Y5112124D03*
X-1352342Y5465678D03*
X-1705895Y5819231D03*
X-2059449Y6172785D03*
X-2413002Y6526338D03*
X-2766555Y6879891D03*
X-3120109Y7233445D03*
X-3473662Y7586998D03*
X-3827215Y7940551D03*
X-4180769Y8294105D03*
X-4534322Y8647658D03*
X-4887876Y9001212D03*
D53*
X-4887876Y10998788D03*
X-4534322Y11352342D03*
X-4180769Y11705895D03*
X-3827215Y12059449D03*
X-3473662Y12413002D03*
X-3120109Y12766555D03*
X-2766555Y13120109D03*
X-2413002Y13473662D03*
X-2059449Y13827215D03*
X-1705895Y14180769D03*
X-1352342Y14534322D03*
X-998788Y14887876D03*
D54*
X998788Y14887876D03*
X1352342Y14534322D03*
X1705895Y14180769D03*
X2059449Y13827215D03*
X2413002Y13473662D03*
X2766555Y13120109D03*
X3120109Y12766555D03*
X3473662Y12413002D03*
X3827215Y12059449D03*
X4180769Y11705895D03*
X4534322Y11352342D03*
X4887876Y10998788D03*
%TD*%
D33*
%TO.C,R2*%
X6100000Y23010000D03*
X6100000Y21990000D03*
%TD*%
D55*
%TO.C,IC1*%
X-20890000Y18145000D03*
X-20890000Y19415000D03*
X-20890000Y20685000D03*
X-20890000Y21955000D03*
X-20890000Y23225000D03*
X-20890000Y24495000D03*
X-20890000Y25765000D03*
X-20890000Y27035000D03*
X-20890000Y28305000D03*
X-20890000Y29575000D03*
X-20890000Y30845000D03*
X-20890000Y32115000D03*
X-20890000Y33385000D03*
X-20890000Y34655000D03*
X-9790000Y34595000D03*
X-9790000Y33325000D03*
X-9790000Y32055000D03*
X-9790000Y30785000D03*
X-9790000Y29515000D03*
X-9790000Y28245000D03*
X-9790000Y26975000D03*
X-9790000Y25705000D03*
X-9790000Y24435000D03*
X-9790000Y23165000D03*
X-9790000Y21895000D03*
X-9790000Y20625000D03*
X-9790000Y19355000D03*
X-9790000Y18085000D03*
%TD*%
D56*
%TO.C,C11*%
X-7780000Y34300000D03*
X-6820000Y34300000D03*
%TD*%
D57*
%TO.C,D16*%
X17500000Y-76550000D03*
X17500000Y-79850000D03*
%TD*%
D31*
%TO.C,D8*%
X-1800000Y-17650000D03*
X-1800000Y-14350000D03*
%TD*%
%TO.C,D11*%
X-2200000Y-74750000D03*
X-2200000Y-71450000D03*
%TD*%
%TO.C,D15*%
X17300000Y-74750000D03*
X17300000Y-71450000D03*
%TD*%
D58*
%TO.C,R7*%
X-7575000Y21070000D03*
X-7575000Y22090000D03*
%TD*%
D31*
%TO.C,D10*%
X-1800000Y-55750000D03*
X-1800000Y-52450000D03*
%TD*%
D59*
%TO.C,C7*%
X-5720589Y7660589D03*
X-6399411Y8339411D03*
%TD*%
D60*
%TO.C,R12*%
X2814376Y15189376D03*
X3535624Y15910624D03*
%TD*%
D31*
%TO.C,D6*%
X-20800000Y-74750000D03*
X-20800000Y-71450000D03*
%TD*%
D59*
%TO.C,C6*%
X-6421178Y6941178D03*
X-7100000Y7620000D03*
%TD*%
D51*
%TO.C,C8*%
X4795589Y6449411D03*
X5474411Y5770589D03*
%TD*%
D57*
%TO.C,D7*%
X-2100000Y-76950000D03*
X-2100000Y-80250000D03*
%TD*%
D31*
%TO.C,D13*%
X17100000Y-36650000D03*
X17100000Y-33350000D03*
%TD*%
D33*
%TO.C,R8*%
X2400000Y28110000D03*
X2400000Y27090000D03*
%TD*%
D51*
%TO.C,C10*%
X5188822Y12851178D03*
X4510000Y13530000D03*
%TD*%
D35*
%TO.C,C5*%
X4284411Y5509411D03*
X3605589Y4830589D03*
%TD*%
%TO.C,C9*%
X6729411Y8709411D03*
X6050589Y8030589D03*
%TD*%
%LPD*%
M02*
