%TF.GenerationSoftware,KiCad,Pcbnew,7.0.7*%
%TF.CreationDate,2023-12-08T00:51:54+02:00*%
%TF.ProjectId,back_plate,6261636b-5f70-46c6-9174-652e6b696361,rev?*%
%TF.SameCoordinates,Original*%
%TF.FileFunction,Copper,L2,Bot*%
%TF.FilePolarity,Positive*%
%FSLAX46Y46*%
G04 Gerber Fmt 4.6, Leading zero omitted, Abs format (unit mm)*
G04 Created by KiCad (PCBNEW 7.0.7) date 2023-12-08 00:51:54*
%MOMM*%
%LPD*%
G01*
G04 APERTURE LIST*
%TA.AperFunction,ComponentPad*%
%ADD10C,3.800000*%
%TD*%
G04 APERTURE END LIST*
D10*
%TO.P,,1,1*%
%TO.N,N/C*%
X154200000Y-39680000D03*
%TD*%
%TO.P,,1,1*%
%TO.N,N/C*%
X154200000Y-70680000D03*
%TD*%
%TO.P,,1,1*%
%TO.N,N/C*%
X85000000Y-130830000D03*
%TD*%
%TO.P,,1,1*%
%TO.N,N/C*%
X118600000Y-164930000D03*
%TD*%
%TO.P,,1,1*%
%TO.N,N/C*%
X84000000Y-39680000D03*
%TD*%
%TO.P,,1,1*%
%TO.N,N/C*%
X84000000Y-70680000D03*
%TD*%
%TO.P,,1,1*%
%TO.N,N/C*%
X153200000Y-130830000D03*
%TD*%
%TA.AperFunction,NonConductor*%
G36*
X155202019Y-36680633D02*
G01*
X155237198Y-36682938D01*
X155283708Y-36685986D01*
X155465459Y-36698985D01*
X155473100Y-36700015D01*
X155566738Y-36718641D01*
X155589420Y-36723153D01*
X155615023Y-36728722D01*
X155733666Y-36754531D01*
X155740383Y-36756395D01*
X155859437Y-36796809D01*
X155956671Y-36833076D01*
X155991741Y-36846157D01*
X155997499Y-36848643D01*
X156112952Y-36905578D01*
X156234906Y-36972170D01*
X156239634Y-36975032D01*
X156296571Y-37013076D01*
X156346649Y-37046537D01*
X156349358Y-37048454D01*
X156458652Y-37130271D01*
X156462345Y-37133265D01*
X156559502Y-37218469D01*
X156562448Y-37221228D01*
X156658769Y-37317549D01*
X156661526Y-37320492D01*
X156746729Y-37417648D01*
X156749732Y-37421353D01*
X156801564Y-37490592D01*
X156831543Y-37530639D01*
X156833461Y-37533349D01*
X156904962Y-37640357D01*
X156907828Y-37645091D01*
X156974421Y-37767047D01*
X157031355Y-37882499D01*
X157033841Y-37888257D01*
X157070212Y-37985768D01*
X157083196Y-38020578D01*
X157087581Y-38033496D01*
X157123597Y-38139596D01*
X157125472Y-38146352D01*
X157156846Y-38290579D01*
X157179980Y-38406880D01*
X157181015Y-38414560D01*
X157194017Y-38596350D01*
X157199367Y-38677966D01*
X157199500Y-38682023D01*
X157199500Y-166927975D01*
X157199367Y-166932032D01*
X157194017Y-167013648D01*
X157181015Y-167195438D01*
X157179980Y-167203118D01*
X157156846Y-167319420D01*
X157125472Y-167463646D01*
X157123597Y-167470401D01*
X157089297Y-167571448D01*
X157083208Y-167589388D01*
X157083195Y-167589425D01*
X157033841Y-167721741D01*
X157031355Y-167727499D01*
X156974421Y-167842952D01*
X156907828Y-167964907D01*
X156904961Y-167969641D01*
X156833461Y-168076649D01*
X156831543Y-168079359D01*
X156749744Y-168188631D01*
X156746723Y-168192357D01*
X156661529Y-168289502D01*
X156658755Y-168292464D01*
X156562464Y-168388755D01*
X156559502Y-168391529D01*
X156462357Y-168476723D01*
X156458631Y-168479744D01*
X156349359Y-168561543D01*
X156346649Y-168563461D01*
X156239641Y-168634961D01*
X156234907Y-168637828D01*
X156112952Y-168704421D01*
X155997499Y-168761355D01*
X155991741Y-168763841D01*
X155870956Y-168808893D01*
X155859418Y-168813197D01*
X155740401Y-168853597D01*
X155733646Y-168855472D01*
X155589420Y-168886846D01*
X155473118Y-168909980D01*
X155465438Y-168911015D01*
X155283648Y-168924017D01*
X155232582Y-168927364D01*
X155202025Y-168929367D01*
X155197976Y-168929500D01*
X83002024Y-168929500D01*
X82997974Y-168929367D01*
X82959954Y-168926875D01*
X82916350Y-168924017D01*
X82734560Y-168911015D01*
X82726880Y-168909980D01*
X82610579Y-168886846D01*
X82466352Y-168855472D01*
X82459596Y-168853597D01*
X82427881Y-168842831D01*
X82340578Y-168813196D01*
X82305768Y-168800212D01*
X82208257Y-168763841D01*
X82202499Y-168761355D01*
X82087047Y-168704421D01*
X81965091Y-168637828D01*
X81960357Y-168634962D01*
X81853349Y-168563461D01*
X81850639Y-168561543D01*
X81810592Y-168531564D01*
X81741353Y-168479732D01*
X81737648Y-168476729D01*
X81640492Y-168391526D01*
X81637549Y-168388769D01*
X81541228Y-168292448D01*
X81538469Y-168289502D01*
X81505450Y-168251851D01*
X81453265Y-168192345D01*
X81450271Y-168188652D01*
X81368454Y-168079358D01*
X81366537Y-168076649D01*
X81295036Y-167969641D01*
X81292170Y-167964906D01*
X81225578Y-167842952D01*
X81168643Y-167727499D01*
X81166157Y-167721741D01*
X81153076Y-167686671D01*
X81116805Y-167589425D01*
X81076395Y-167470383D01*
X81074531Y-167463666D01*
X81043153Y-167319420D01*
X81037826Y-167292642D01*
X81020015Y-167203100D01*
X81018985Y-167195459D01*
X81005986Y-167013708D01*
X81002519Y-166960808D01*
X81000633Y-166932019D01*
X81000500Y-166927964D01*
X81000500Y-164930005D01*
X116194754Y-164930005D01*
X116213718Y-165231446D01*
X116213719Y-165231453D01*
X116270320Y-165528164D01*
X116363659Y-165815431D01*
X116363661Y-165815436D01*
X116492265Y-166088732D01*
X116492268Y-166088738D01*
X116654111Y-166343763D01*
X116846652Y-166576505D01*
X117066836Y-166783272D01*
X117066846Y-166783280D01*
X117311193Y-166960808D01*
X117311198Y-166960810D01*
X117311205Y-166960816D01*
X117575896Y-167106332D01*
X117575901Y-167106334D01*
X117575903Y-167106335D01*
X117575904Y-167106336D01*
X117856734Y-167217524D01*
X117856737Y-167217525D01*
X117954259Y-167242564D01*
X118149302Y-167292642D01*
X118296039Y-167311179D01*
X118448963Y-167330499D01*
X118448969Y-167330499D01*
X118448973Y-167330500D01*
X118448975Y-167330500D01*
X118751025Y-167330500D01*
X118751027Y-167330500D01*
X118751032Y-167330499D01*
X118751036Y-167330499D01*
X118838732Y-167319420D01*
X119050698Y-167292642D01*
X119343262Y-167217525D01*
X119343265Y-167217524D01*
X119624095Y-167106336D01*
X119624096Y-167106335D01*
X119624094Y-167106335D01*
X119624104Y-167106332D01*
X119888795Y-166960816D01*
X120133162Y-166783274D01*
X120353349Y-166576504D01*
X120545885Y-166343768D01*
X120707733Y-166088736D01*
X120836341Y-165815430D01*
X120929681Y-165528160D01*
X120986280Y-165231457D01*
X121005246Y-164930000D01*
X120986280Y-164628543D01*
X120929681Y-164331840D01*
X120836341Y-164044570D01*
X120707733Y-163771264D01*
X120545885Y-163516232D01*
X120353349Y-163283496D01*
X120133162Y-163076726D01*
X120133159Y-163076724D01*
X120133153Y-163076719D01*
X119888806Y-162899191D01*
X119888799Y-162899186D01*
X119888795Y-162899184D01*
X119624104Y-162753668D01*
X119624101Y-162753666D01*
X119624096Y-162753664D01*
X119624095Y-162753663D01*
X119343265Y-162642475D01*
X119343262Y-162642474D01*
X119050695Y-162567357D01*
X118751036Y-162529500D01*
X118751027Y-162529500D01*
X118448973Y-162529500D01*
X118448963Y-162529500D01*
X118149304Y-162567357D01*
X117856737Y-162642474D01*
X117856734Y-162642475D01*
X117575904Y-162753663D01*
X117575903Y-162753664D01*
X117311205Y-162899184D01*
X117311193Y-162899191D01*
X117066846Y-163076719D01*
X117066836Y-163076727D01*
X116846652Y-163283494D01*
X116654111Y-163516236D01*
X116492268Y-163771261D01*
X116492265Y-163771267D01*
X116363661Y-164044563D01*
X116363659Y-164044568D01*
X116270320Y-164331835D01*
X116213719Y-164628546D01*
X116213718Y-164628553D01*
X116194754Y-164929994D01*
X116194754Y-164930005D01*
X81000500Y-164930005D01*
X81000500Y-130830005D01*
X82594754Y-130830005D01*
X82613718Y-131131446D01*
X82613719Y-131131453D01*
X82670320Y-131428164D01*
X82763659Y-131715431D01*
X82763661Y-131715436D01*
X82892265Y-131988732D01*
X82892268Y-131988738D01*
X83054111Y-132243763D01*
X83246652Y-132476505D01*
X83466836Y-132683272D01*
X83466846Y-132683280D01*
X83711193Y-132860808D01*
X83711198Y-132860810D01*
X83711205Y-132860816D01*
X83975896Y-133006332D01*
X83975901Y-133006334D01*
X83975903Y-133006335D01*
X83975904Y-133006336D01*
X84256734Y-133117524D01*
X84256737Y-133117525D01*
X84354259Y-133142564D01*
X84549302Y-133192642D01*
X84696039Y-133211179D01*
X84848963Y-133230499D01*
X84848969Y-133230499D01*
X84848973Y-133230500D01*
X84848975Y-133230500D01*
X85151025Y-133230500D01*
X85151027Y-133230500D01*
X85151032Y-133230499D01*
X85151036Y-133230499D01*
X85230591Y-133220448D01*
X85450698Y-133192642D01*
X85743262Y-133117525D01*
X85743265Y-133117524D01*
X86024095Y-133006336D01*
X86024096Y-133006335D01*
X86024094Y-133006335D01*
X86024104Y-133006332D01*
X86288795Y-132860816D01*
X86533162Y-132683274D01*
X86753349Y-132476504D01*
X86945885Y-132243768D01*
X87107733Y-131988736D01*
X87236341Y-131715430D01*
X87329681Y-131428160D01*
X87386280Y-131131457D01*
X87405246Y-130830005D01*
X150794754Y-130830005D01*
X150813718Y-131131446D01*
X150813719Y-131131453D01*
X150870320Y-131428164D01*
X150963659Y-131715431D01*
X150963661Y-131715436D01*
X151092265Y-131988732D01*
X151092268Y-131988738D01*
X151254111Y-132243763D01*
X151446652Y-132476505D01*
X151666836Y-132683272D01*
X151666846Y-132683280D01*
X151911193Y-132860808D01*
X151911198Y-132860810D01*
X151911205Y-132860816D01*
X152175896Y-133006332D01*
X152175901Y-133006334D01*
X152175903Y-133006335D01*
X152175904Y-133006336D01*
X152456734Y-133117524D01*
X152456737Y-133117525D01*
X152554259Y-133142564D01*
X152749302Y-133192642D01*
X152896039Y-133211179D01*
X153048963Y-133230499D01*
X153048969Y-133230499D01*
X153048973Y-133230500D01*
X153048975Y-133230500D01*
X153351025Y-133230500D01*
X153351027Y-133230500D01*
X153351032Y-133230499D01*
X153351036Y-133230499D01*
X153430591Y-133220448D01*
X153650698Y-133192642D01*
X153943262Y-133117525D01*
X153943265Y-133117524D01*
X154224095Y-133006336D01*
X154224096Y-133006335D01*
X154224094Y-133006335D01*
X154224104Y-133006332D01*
X154488795Y-132860816D01*
X154733162Y-132683274D01*
X154953349Y-132476504D01*
X155145885Y-132243768D01*
X155307733Y-131988736D01*
X155436341Y-131715430D01*
X155529681Y-131428160D01*
X155586280Y-131131457D01*
X155605246Y-130830000D01*
X155586280Y-130528543D01*
X155529681Y-130231840D01*
X155436341Y-129944570D01*
X155307733Y-129671264D01*
X155145885Y-129416232D01*
X154953349Y-129183496D01*
X154733162Y-128976726D01*
X154733159Y-128976724D01*
X154733153Y-128976719D01*
X154488806Y-128799191D01*
X154488799Y-128799186D01*
X154488795Y-128799184D01*
X154224104Y-128653668D01*
X154224101Y-128653666D01*
X154224096Y-128653664D01*
X154224095Y-128653663D01*
X153943265Y-128542475D01*
X153943262Y-128542474D01*
X153650695Y-128467357D01*
X153351036Y-128429500D01*
X153351027Y-128429500D01*
X153048973Y-128429500D01*
X153048963Y-128429500D01*
X152749304Y-128467357D01*
X152456737Y-128542474D01*
X152456734Y-128542475D01*
X152175904Y-128653663D01*
X152175903Y-128653664D01*
X151911205Y-128799184D01*
X151911193Y-128799191D01*
X151666846Y-128976719D01*
X151666836Y-128976727D01*
X151446652Y-129183494D01*
X151254111Y-129416236D01*
X151092268Y-129671261D01*
X151092265Y-129671267D01*
X150963661Y-129944563D01*
X150963659Y-129944568D01*
X150870320Y-130231835D01*
X150813719Y-130528546D01*
X150813718Y-130528553D01*
X150794754Y-130829994D01*
X150794754Y-130830005D01*
X87405246Y-130830005D01*
X87405246Y-130830000D01*
X87386280Y-130528543D01*
X87329681Y-130231840D01*
X87236341Y-129944570D01*
X87107733Y-129671264D01*
X86945885Y-129416232D01*
X86753349Y-129183496D01*
X86533162Y-128976726D01*
X86533159Y-128976724D01*
X86533153Y-128976719D01*
X86288806Y-128799191D01*
X86288799Y-128799186D01*
X86288795Y-128799184D01*
X86024104Y-128653668D01*
X86024101Y-128653666D01*
X86024096Y-128653664D01*
X86024095Y-128653663D01*
X85743265Y-128542475D01*
X85743262Y-128542474D01*
X85450695Y-128467357D01*
X85151036Y-128429500D01*
X85151027Y-128429500D01*
X84848973Y-128429500D01*
X84848963Y-128429500D01*
X84549304Y-128467357D01*
X84256737Y-128542474D01*
X84256734Y-128542475D01*
X83975904Y-128653663D01*
X83975903Y-128653664D01*
X83711205Y-128799184D01*
X83711193Y-128799191D01*
X83466846Y-128976719D01*
X83466836Y-128976727D01*
X83246652Y-129183494D01*
X83054111Y-129416236D01*
X82892268Y-129671261D01*
X82892265Y-129671267D01*
X82763661Y-129944563D01*
X82763659Y-129944568D01*
X82670320Y-130231835D01*
X82613719Y-130528546D01*
X82613718Y-130528553D01*
X82594754Y-130829994D01*
X82594754Y-130830005D01*
X81000500Y-130830005D01*
X81000500Y-70680005D01*
X81594754Y-70680005D01*
X81613718Y-70981446D01*
X81613719Y-70981453D01*
X81670320Y-71278164D01*
X81763659Y-71565431D01*
X81763661Y-71565436D01*
X81892265Y-71838732D01*
X81892268Y-71838738D01*
X82054111Y-72093763D01*
X82246652Y-72326505D01*
X82466836Y-72533272D01*
X82466846Y-72533280D01*
X82711193Y-72710808D01*
X82711198Y-72710810D01*
X82711205Y-72710816D01*
X82975896Y-72856332D01*
X82975901Y-72856334D01*
X82975903Y-72856335D01*
X82975904Y-72856336D01*
X83256734Y-72967524D01*
X83256737Y-72967525D01*
X83354259Y-72992564D01*
X83549302Y-73042642D01*
X83696039Y-73061179D01*
X83848963Y-73080499D01*
X83848969Y-73080499D01*
X83848973Y-73080500D01*
X83848975Y-73080500D01*
X84151025Y-73080500D01*
X84151027Y-73080500D01*
X84151032Y-73080499D01*
X84151036Y-73080499D01*
X84230591Y-73070448D01*
X84450698Y-73042642D01*
X84743262Y-72967525D01*
X84743265Y-72967524D01*
X85024095Y-72856336D01*
X85024096Y-72856335D01*
X85024094Y-72856335D01*
X85024104Y-72856332D01*
X85288795Y-72710816D01*
X85533162Y-72533274D01*
X85753349Y-72326504D01*
X85945885Y-72093768D01*
X86107733Y-71838736D01*
X86236341Y-71565430D01*
X86329681Y-71278160D01*
X86386280Y-70981457D01*
X86405246Y-70680005D01*
X151794754Y-70680005D01*
X151813718Y-70981446D01*
X151813719Y-70981453D01*
X151870320Y-71278164D01*
X151963659Y-71565431D01*
X151963661Y-71565436D01*
X152092265Y-71838732D01*
X152092268Y-71838738D01*
X152254111Y-72093763D01*
X152446652Y-72326505D01*
X152666836Y-72533272D01*
X152666846Y-72533280D01*
X152911193Y-72710808D01*
X152911198Y-72710810D01*
X152911205Y-72710816D01*
X153175896Y-72856332D01*
X153175901Y-72856334D01*
X153175903Y-72856335D01*
X153175904Y-72856336D01*
X153456734Y-72967524D01*
X153456737Y-72967525D01*
X153554259Y-72992564D01*
X153749302Y-73042642D01*
X153896039Y-73061179D01*
X154048963Y-73080499D01*
X154048969Y-73080499D01*
X154048973Y-73080500D01*
X154048975Y-73080500D01*
X154351025Y-73080500D01*
X154351027Y-73080500D01*
X154351032Y-73080499D01*
X154351036Y-73080499D01*
X154430591Y-73070448D01*
X154650698Y-73042642D01*
X154943262Y-72967525D01*
X154943265Y-72967524D01*
X155224095Y-72856336D01*
X155224096Y-72856335D01*
X155224094Y-72856335D01*
X155224104Y-72856332D01*
X155488795Y-72710816D01*
X155733162Y-72533274D01*
X155953349Y-72326504D01*
X156145885Y-72093768D01*
X156307733Y-71838736D01*
X156436341Y-71565430D01*
X156529681Y-71278160D01*
X156586280Y-70981457D01*
X156605246Y-70680000D01*
X156586280Y-70378543D01*
X156529681Y-70081840D01*
X156436341Y-69794570D01*
X156307733Y-69521264D01*
X156145885Y-69266232D01*
X155953349Y-69033496D01*
X155733162Y-68826726D01*
X155733159Y-68826724D01*
X155733153Y-68826719D01*
X155488806Y-68649191D01*
X155488799Y-68649186D01*
X155488795Y-68649184D01*
X155224104Y-68503668D01*
X155224101Y-68503666D01*
X155224096Y-68503664D01*
X155224095Y-68503663D01*
X154943265Y-68392475D01*
X154943262Y-68392474D01*
X154650695Y-68317357D01*
X154351036Y-68279500D01*
X154351027Y-68279500D01*
X154048973Y-68279500D01*
X154048963Y-68279500D01*
X153749304Y-68317357D01*
X153456737Y-68392474D01*
X153456734Y-68392475D01*
X153175904Y-68503663D01*
X153175903Y-68503664D01*
X152911205Y-68649184D01*
X152911193Y-68649191D01*
X152666846Y-68826719D01*
X152666836Y-68826727D01*
X152446652Y-69033494D01*
X152254111Y-69266236D01*
X152092268Y-69521261D01*
X152092265Y-69521267D01*
X151963661Y-69794563D01*
X151963659Y-69794568D01*
X151870320Y-70081835D01*
X151813719Y-70378546D01*
X151813718Y-70378553D01*
X151794754Y-70679994D01*
X151794754Y-70680005D01*
X86405246Y-70680005D01*
X86405246Y-70680000D01*
X86386280Y-70378543D01*
X86329681Y-70081840D01*
X86236341Y-69794570D01*
X86107733Y-69521264D01*
X85945885Y-69266232D01*
X85753349Y-69033496D01*
X85533162Y-68826726D01*
X85533159Y-68826724D01*
X85533153Y-68826719D01*
X85288806Y-68649191D01*
X85288799Y-68649186D01*
X85288795Y-68649184D01*
X85024104Y-68503668D01*
X85024101Y-68503666D01*
X85024096Y-68503664D01*
X85024095Y-68503663D01*
X84743265Y-68392475D01*
X84743262Y-68392474D01*
X84450695Y-68317357D01*
X84151036Y-68279500D01*
X84151027Y-68279500D01*
X83848973Y-68279500D01*
X83848963Y-68279500D01*
X83549304Y-68317357D01*
X83256737Y-68392474D01*
X83256734Y-68392475D01*
X82975904Y-68503663D01*
X82975903Y-68503664D01*
X82711205Y-68649184D01*
X82711193Y-68649191D01*
X82466846Y-68826719D01*
X82466836Y-68826727D01*
X82246652Y-69033494D01*
X82054111Y-69266236D01*
X81892268Y-69521261D01*
X81892265Y-69521267D01*
X81763661Y-69794563D01*
X81763659Y-69794568D01*
X81670320Y-70081835D01*
X81613719Y-70378546D01*
X81613718Y-70378553D01*
X81594754Y-70679994D01*
X81594754Y-70680005D01*
X81000500Y-70680005D01*
X81000500Y-39680005D01*
X81594754Y-39680005D01*
X81613718Y-39981446D01*
X81613719Y-39981453D01*
X81670320Y-40278164D01*
X81763659Y-40565431D01*
X81763661Y-40565436D01*
X81892265Y-40838732D01*
X81892268Y-40838738D01*
X82054111Y-41093763D01*
X82246652Y-41326505D01*
X82466836Y-41533272D01*
X82466846Y-41533280D01*
X82711193Y-41710808D01*
X82711198Y-41710810D01*
X82711205Y-41710816D01*
X82975896Y-41856332D01*
X82975901Y-41856334D01*
X82975903Y-41856335D01*
X82975904Y-41856336D01*
X83256734Y-41967524D01*
X83256737Y-41967525D01*
X83354259Y-41992563D01*
X83549302Y-42042642D01*
X83696039Y-42061179D01*
X83848963Y-42080499D01*
X83848969Y-42080499D01*
X83848973Y-42080500D01*
X83848975Y-42080500D01*
X84151025Y-42080500D01*
X84151027Y-42080500D01*
X84151032Y-42080499D01*
X84151036Y-42080499D01*
X84230591Y-42070448D01*
X84450698Y-42042642D01*
X84743262Y-41967525D01*
X84743265Y-41967524D01*
X85024095Y-41856336D01*
X85024096Y-41856335D01*
X85024094Y-41856335D01*
X85024104Y-41856332D01*
X85288795Y-41710816D01*
X85533162Y-41533274D01*
X85753349Y-41326504D01*
X85945885Y-41093768D01*
X86107733Y-40838736D01*
X86236341Y-40565430D01*
X86329681Y-40278160D01*
X86386280Y-39981457D01*
X86405246Y-39680005D01*
X151794754Y-39680005D01*
X151813718Y-39981446D01*
X151813719Y-39981453D01*
X151870320Y-40278164D01*
X151963659Y-40565431D01*
X151963661Y-40565436D01*
X152092265Y-40838732D01*
X152092268Y-40838738D01*
X152254111Y-41093763D01*
X152446652Y-41326505D01*
X152666836Y-41533272D01*
X152666846Y-41533280D01*
X152911193Y-41710808D01*
X152911198Y-41710810D01*
X152911205Y-41710816D01*
X153175896Y-41856332D01*
X153175901Y-41856334D01*
X153175903Y-41856335D01*
X153175904Y-41856336D01*
X153456734Y-41967524D01*
X153456737Y-41967525D01*
X153554259Y-41992564D01*
X153749302Y-42042642D01*
X153896039Y-42061179D01*
X154048963Y-42080499D01*
X154048969Y-42080499D01*
X154048973Y-42080500D01*
X154048975Y-42080500D01*
X154351025Y-42080500D01*
X154351027Y-42080500D01*
X154351032Y-42080499D01*
X154351036Y-42080499D01*
X154430591Y-42070448D01*
X154650698Y-42042642D01*
X154943262Y-41967525D01*
X154943265Y-41967524D01*
X155224095Y-41856336D01*
X155224096Y-41856335D01*
X155224094Y-41856335D01*
X155224104Y-41856332D01*
X155488795Y-41710816D01*
X155733162Y-41533274D01*
X155953349Y-41326504D01*
X156145885Y-41093768D01*
X156307733Y-40838736D01*
X156436341Y-40565430D01*
X156529681Y-40278160D01*
X156586280Y-39981457D01*
X156605246Y-39680000D01*
X156586280Y-39378543D01*
X156529681Y-39081840D01*
X156436341Y-38794570D01*
X156307733Y-38521264D01*
X156240017Y-38414560D01*
X156145888Y-38266236D01*
X156060063Y-38162491D01*
X155953349Y-38033496D01*
X155733162Y-37826726D01*
X155733159Y-37826724D01*
X155733153Y-37826719D01*
X155488806Y-37649191D01*
X155488799Y-37649186D01*
X155488795Y-37649184D01*
X155224104Y-37503668D01*
X155224101Y-37503666D01*
X155224096Y-37503664D01*
X155224095Y-37503663D01*
X154943265Y-37392475D01*
X154943262Y-37392474D01*
X154650695Y-37317357D01*
X154351036Y-37279500D01*
X154351027Y-37279500D01*
X154048973Y-37279500D01*
X154048963Y-37279500D01*
X153749304Y-37317357D01*
X153456737Y-37392474D01*
X153456734Y-37392475D01*
X153175904Y-37503663D01*
X153175903Y-37503664D01*
X152911205Y-37649184D01*
X152911193Y-37649191D01*
X152666846Y-37826719D01*
X152666836Y-37826727D01*
X152446652Y-38033494D01*
X152254111Y-38266236D01*
X152092268Y-38521261D01*
X152092265Y-38521267D01*
X151963661Y-38794563D01*
X151963659Y-38794568D01*
X151870320Y-39081835D01*
X151813719Y-39378546D01*
X151813718Y-39378553D01*
X151794754Y-39679994D01*
X151794754Y-39680005D01*
X86405246Y-39680005D01*
X86405246Y-39680000D01*
X86386280Y-39378543D01*
X86329681Y-39081840D01*
X86236341Y-38794570D01*
X86107733Y-38521264D01*
X86040017Y-38414560D01*
X85945888Y-38266236D01*
X85860063Y-38162491D01*
X85753349Y-38033496D01*
X85533162Y-37826726D01*
X85533159Y-37826724D01*
X85533153Y-37826719D01*
X85288806Y-37649191D01*
X85288799Y-37649186D01*
X85288795Y-37649184D01*
X85024104Y-37503668D01*
X85024101Y-37503666D01*
X85024096Y-37503664D01*
X85024095Y-37503663D01*
X84743265Y-37392475D01*
X84743262Y-37392474D01*
X84450695Y-37317357D01*
X84151036Y-37279500D01*
X84151027Y-37279500D01*
X83848973Y-37279500D01*
X83848963Y-37279500D01*
X83549304Y-37317357D01*
X83256737Y-37392474D01*
X83256734Y-37392475D01*
X82975904Y-37503663D01*
X82975903Y-37503664D01*
X82711205Y-37649184D01*
X82711193Y-37649191D01*
X82466846Y-37826719D01*
X82466836Y-37826727D01*
X82246652Y-38033494D01*
X82054111Y-38266236D01*
X81892268Y-38521261D01*
X81892265Y-38521267D01*
X81763661Y-38794563D01*
X81763659Y-38794568D01*
X81670320Y-39081835D01*
X81613719Y-39378546D01*
X81613718Y-39378553D01*
X81594754Y-39679994D01*
X81594754Y-39680005D01*
X81000500Y-39680005D01*
X81000500Y-38682035D01*
X81000633Y-38677980D01*
X81002393Y-38651103D01*
X81005989Y-38596244D01*
X81018986Y-38414536D01*
X81020014Y-38406903D01*
X81043153Y-38290579D01*
X81048448Y-38266236D01*
X81074533Y-38146323D01*
X81076392Y-38139625D01*
X81116815Y-38020543D01*
X81166159Y-37888251D01*
X81168633Y-37882520D01*
X81225583Y-37767036D01*
X81292179Y-37645076D01*
X81295019Y-37640384D01*
X81366563Y-37533311D01*
X81368428Y-37530676D01*
X81450291Y-37421321D01*
X81453244Y-37417678D01*
X81538503Y-37320459D01*
X81541198Y-37317581D01*
X81637581Y-37221198D01*
X81640459Y-37218503D01*
X81737678Y-37133244D01*
X81741321Y-37130291D01*
X81850676Y-37048428D01*
X81853311Y-37046563D01*
X81960384Y-36975019D01*
X81965076Y-36972179D01*
X82087036Y-36905583D01*
X82202520Y-36848633D01*
X82208251Y-36846159D01*
X82340543Y-36796815D01*
X82459625Y-36756392D01*
X82466323Y-36754533D01*
X82610548Y-36723158D01*
X82726903Y-36700014D01*
X82734536Y-36698986D01*
X82916244Y-36685989D01*
X82969211Y-36682517D01*
X82997981Y-36680633D01*
X83002036Y-36680500D01*
X155197964Y-36680500D01*
X155202019Y-36680633D01*
G37*
%TD.AperFunction*%
M02*
