%TF.GenerationSoftware,KiCad,Pcbnew,7.0.7*%
%TF.CreationDate,2023-12-08T00:51:54+02:00*%
%TF.ProjectId,back_plate,6261636b-5f70-46c6-9174-652e6b696361,rev?*%
%TF.SameCoordinates,Original*%
%TF.FileFunction,Copper,L1,Top*%
%TF.FilePolarity,Positive*%
%FSLAX46Y46*%
G04 Gerber Fmt 4.6, Leading zero omitted, Abs format (unit mm)*
G04 Created by KiCad (PCBNEW 7.0.7) date 2023-12-08 00:51:54*
%MOMM*%
%LPD*%
G01*
G04 APERTURE LIST*
%TA.AperFunction,ComponentPad*%
%ADD10C,3.800000*%
%TD*%
G04 APERTURE END LIST*
%TA.AperFunction,EtchedComponent*%
%TO.C,G\u002A\u002A\u002A*%
G36*
X81153371Y-165514000D02*
G01*
X81352505Y-165797928D01*
X81645448Y-166236340D01*
X82014444Y-166801491D01*
X82441737Y-167465636D01*
X82909570Y-168201030D01*
X83400190Y-168979928D01*
X83895839Y-169774586D01*
X84378762Y-170557258D01*
X84785872Y-171225237D01*
X85070288Y-171695146D01*
X83531697Y-171695146D01*
X81993105Y-171695146D01*
X80435536Y-169209686D01*
X80003926Y-168511011D01*
X79627347Y-167882173D01*
X79322514Y-167352704D01*
X79106141Y-166952137D01*
X78994944Y-166710004D01*
X78987486Y-166651191D01*
X79416141Y-166372599D01*
X79879891Y-166082748D01*
X80327951Y-165811910D01*
X80709537Y-165590357D01*
X80973864Y-165448363D01*
X81065801Y-165412301D01*
X81153371Y-165514000D01*
G37*
%TD.AperFunction*%
%TA.AperFunction,EtchedComponent*%
G36*
X85478895Y-162832760D02*
G01*
X85578113Y-162973414D01*
X85787573Y-163292803D01*
X86090603Y-163764272D01*
X86470532Y-164361166D01*
X86910689Y-165056832D01*
X87394401Y-165824614D01*
X87904999Y-166637857D01*
X88425811Y-167469908D01*
X88940166Y-168294110D01*
X89431392Y-169083810D01*
X89882819Y-169812353D01*
X90277775Y-170453084D01*
X90599588Y-170979348D01*
X90831589Y-171364491D01*
X90957105Y-171581859D01*
X90974757Y-171619799D01*
X90859328Y-171648254D01*
X90544480Y-171671010D01*
X90077369Y-171685860D01*
X89505154Y-171690594D01*
X89464320Y-171690496D01*
X87953883Y-171685846D01*
X85562272Y-167855784D01*
X85011186Y-166966032D01*
X84513747Y-166148826D01*
X84083130Y-165426857D01*
X83732514Y-164822817D01*
X83475075Y-164359397D01*
X83323990Y-164059289D01*
X83291599Y-163945628D01*
X84025197Y-163468267D01*
X84583237Y-163126427D01*
X84988192Y-162908674D01*
X85262536Y-162803573D01*
X85428743Y-162799689D01*
X85478895Y-162832760D01*
G37*
%TD.AperFunction*%
%TA.AperFunction,EtchedComponent*%
G36*
X139605206Y-167228125D02*
G01*
X139822866Y-167316848D01*
X140242347Y-167489712D01*
X140837834Y-167736014D01*
X141583516Y-168045050D01*
X142453579Y-168406118D01*
X143422210Y-168808513D01*
X144463595Y-169241532D01*
X145227184Y-169559281D01*
X150344175Y-171689254D01*
X146891748Y-171681846D01*
X143439320Y-171674439D01*
X140881247Y-170596056D01*
X140139746Y-170281450D01*
X139475365Y-169995718D01*
X138921617Y-169753589D01*
X138512013Y-169569790D01*
X138280065Y-169459048D01*
X138241430Y-169435928D01*
X138250563Y-169294638D01*
X138340217Y-168978457D01*
X138494182Y-168539336D01*
X138629951Y-168190563D01*
X139100217Y-167026943D01*
X139605206Y-167228125D01*
G37*
%TD.AperFunction*%
%TA.AperFunction,EtchedComponent*%
G36*
X113165810Y-166012075D02*
G01*
X113616157Y-166093840D01*
X114135817Y-166201119D01*
X114670272Y-166321750D01*
X115165006Y-166443572D01*
X115565505Y-166554421D01*
X115817252Y-166642136D01*
X115875794Y-166684227D01*
X115849979Y-166856002D01*
X115784399Y-167214117D01*
X115689448Y-167703461D01*
X115593482Y-168181068D01*
X115465271Y-168781827D01*
X115362376Y-169179601D01*
X115269626Y-169414659D01*
X115171848Y-169527271D01*
X115075212Y-169556661D01*
X114858866Y-169540966D01*
X114462880Y-169483453D01*
X113948767Y-169393848D01*
X113515833Y-169310059D01*
X112974718Y-169195824D01*
X112527749Y-169091967D01*
X112227608Y-169011328D01*
X112128294Y-168971846D01*
X112128406Y-168835958D01*
X112169848Y-168516893D01*
X112241762Y-168072487D01*
X112333289Y-167560581D01*
X112433572Y-167039012D01*
X112531754Y-166565620D01*
X112616976Y-166198242D01*
X112678380Y-165994717D01*
X112691112Y-165973738D01*
X112839289Y-165967987D01*
X113165810Y-166012075D01*
G37*
%TD.AperFunction*%
%TA.AperFunction,EtchedComponent*%
G36*
X109124155Y-160616703D02*
G01*
X109498045Y-160682393D01*
X110066451Y-160786888D01*
X110805665Y-160925698D01*
X111691983Y-161094331D01*
X112701697Y-161288298D01*
X113811102Y-161503107D01*
X114996491Y-161734268D01*
X115295874Y-161792899D01*
X116767513Y-162083175D01*
X118009973Y-162332435D01*
X119036713Y-162543692D01*
X119861193Y-162719959D01*
X120496872Y-162864249D01*
X120957211Y-162979575D01*
X121255669Y-163068951D01*
X121405706Y-163135389D01*
X121430097Y-163166111D01*
X121408871Y-163358395D01*
X121352126Y-163727277D01*
X121270260Y-164207064D01*
X121229479Y-164433541D01*
X121127994Y-164956580D01*
X121043943Y-165280961D01*
X120958069Y-165451885D01*
X120851117Y-165514552D01*
X120767101Y-165518920D01*
X120597230Y-165493256D01*
X120209875Y-165423905D01*
X119629367Y-165315538D01*
X118880036Y-165172824D01*
X117986212Y-165000433D01*
X116972227Y-164803035D01*
X115862411Y-164585301D01*
X114681094Y-164351901D01*
X114503806Y-164316735D01*
X113320885Y-164080628D01*
X112211903Y-163856660D01*
X111200300Y-163649748D01*
X110309518Y-163464813D01*
X109562995Y-163306771D01*
X108984172Y-163180542D01*
X108596490Y-163091044D01*
X108423388Y-163043195D01*
X108416989Y-163039558D01*
X108401957Y-162888821D01*
X108430953Y-162553557D01*
X108497829Y-162090680D01*
X108553514Y-161775723D01*
X108673251Y-161196220D01*
X108777884Y-160828569D01*
X108879104Y-160639482D01*
X108968486Y-160594309D01*
X109124155Y-160616703D01*
G37*
%TD.AperFunction*%
%TA.AperFunction,EtchedComponent*%
G36*
X155537605Y-152115482D02*
G01*
X155846029Y-152180493D01*
X156265352Y-152289576D01*
X156735523Y-152424865D01*
X157196491Y-152568492D01*
X157588204Y-152702592D01*
X157850610Y-152809299D01*
X157927184Y-152864242D01*
X157895904Y-153016684D01*
X157808871Y-153367474D01*
X157676301Y-153877344D01*
X157508405Y-154507027D01*
X157315399Y-155217255D01*
X157310680Y-155234466D01*
X157117312Y-155945106D01*
X156948784Y-156575133D01*
X156815291Y-157085546D01*
X156727030Y-157437344D01*
X156694197Y-157591527D01*
X156694175Y-157592554D01*
X156805165Y-157670187D01*
X157102457Y-157785753D01*
X157532529Y-157919755D01*
X157773058Y-157985594D01*
X158369483Y-158143408D01*
X159092182Y-158336771D01*
X159829677Y-158535782D01*
X160225403Y-158643412D01*
X161598864Y-159018377D01*
X161257398Y-160270596D01*
X161107782Y-160782725D01*
X160969829Y-161189815D01*
X160861167Y-161443421D01*
X160808694Y-161503651D01*
X160661582Y-161466531D01*
X160314876Y-161374391D01*
X159806777Y-161237529D01*
X159175487Y-161066239D01*
X158459208Y-160870816D01*
X158371831Y-160846910D01*
X157525686Y-160622587D01*
X156842678Y-160456636D01*
X156342298Y-160353221D01*
X156044035Y-160316506D01*
X155965868Y-160332851D01*
X155911346Y-160485809D01*
X155805008Y-160838106D01*
X155658047Y-161350665D01*
X155481654Y-161984408D01*
X155287021Y-162700257D01*
X155274619Y-162746414D01*
X155058739Y-163561952D01*
X154891462Y-164167686D01*
X154745239Y-164588359D01*
X154592516Y-164848713D01*
X154405742Y-164973493D01*
X154157365Y-164987442D01*
X153819833Y-164915302D01*
X153365595Y-164781818D01*
X153096266Y-164702719D01*
X152572452Y-164535962D01*
X152222737Y-164389435D01*
X152076931Y-164276255D01*
X152076132Y-164253819D01*
X152156117Y-163998026D01*
X152276300Y-163577011D01*
X152425244Y-163034629D01*
X152591513Y-162414735D01*
X152763669Y-161761185D01*
X152930277Y-161117833D01*
X153079900Y-160528535D01*
X153201100Y-160037146D01*
X153282442Y-159687521D01*
X153312488Y-159523515D01*
X153311430Y-159516931D01*
X153182639Y-159470742D01*
X152852664Y-159371037D01*
X152358434Y-159228447D01*
X151736877Y-159053603D01*
X151024923Y-158857134D01*
X150916295Y-158827460D01*
X150193065Y-158627904D01*
X149553820Y-158447252D01*
X149035794Y-158296375D01*
X148676220Y-158186146D01*
X148512332Y-158127440D01*
X148507102Y-158123930D01*
X148515004Y-157992669D01*
X148574368Y-157686769D01*
X148669497Y-157268873D01*
X148784695Y-156801623D01*
X148904262Y-156347663D01*
X149012503Y-155969633D01*
X149093719Y-155730176D01*
X149118923Y-155682376D01*
X149244934Y-155699398D01*
X149572482Y-155773114D01*
X150065406Y-155894561D01*
X150687542Y-156054773D01*
X151402729Y-156244788D01*
X151569786Y-156289922D01*
X152302661Y-156484305D01*
X152952704Y-156648691D01*
X153483228Y-156774462D01*
X153857547Y-156853000D01*
X154038972Y-156875685D01*
X154049273Y-156872410D01*
X154101458Y-156736714D01*
X154205355Y-156400127D01*
X154350094Y-155900285D01*
X154524804Y-155274823D01*
X154718612Y-154561379D01*
X154741203Y-154476999D01*
X154934538Y-153758710D01*
X155107203Y-153126483D01*
X155248900Y-152617273D01*
X155349331Y-152268034D01*
X155398199Y-152115722D01*
X155400132Y-152112407D01*
X155537605Y-152115482D01*
G37*
%TD.AperFunction*%
%TA.AperFunction,EtchedComponent*%
G36*
X115084198Y-156598991D02*
G01*
X115646002Y-156679316D01*
X116198584Y-156777391D01*
X116835061Y-156899463D01*
X117266662Y-156991312D01*
X117530873Y-157068242D01*
X117665180Y-157145556D01*
X117707070Y-157238559D01*
X117694030Y-157362554D01*
X117689405Y-157386018D01*
X117640941Y-157641778D01*
X117562493Y-158069068D01*
X117467088Y-158596593D01*
X117412278Y-158902670D01*
X117327542Y-159392672D01*
X117249857Y-159738530D01*
X117140153Y-159957143D01*
X116959358Y-160065415D01*
X116668399Y-160080247D01*
X116228205Y-160018541D01*
X115599704Y-159897197D01*
X115265048Y-159831519D01*
X114734303Y-159727060D01*
X114303430Y-159639422D01*
X114023455Y-159579164D01*
X113942522Y-159557863D01*
X113944582Y-159428256D01*
X113990107Y-159115750D01*
X114067513Y-158677825D01*
X114165216Y-158171962D01*
X114271632Y-157655641D01*
X114375179Y-157186342D01*
X114464271Y-156821546D01*
X114527326Y-156618733D01*
X114538873Y-156598654D01*
X114705794Y-156571096D01*
X115084198Y-156598991D01*
G37*
%TD.AperFunction*%
%TA.AperFunction,EtchedComponent*%
G36*
X84126935Y-143757626D02*
G01*
X84371843Y-144006814D01*
X84734647Y-144426641D01*
X85202551Y-145002147D01*
X85762760Y-145718374D01*
X85923886Y-145928321D01*
X86426011Y-146581837D01*
X86878589Y-147164878D01*
X87260264Y-147650423D01*
X87549681Y-148011448D01*
X87725487Y-148220931D01*
X87768932Y-148263051D01*
X87879940Y-148191937D01*
X88158532Y-147990919D01*
X88576992Y-147680655D01*
X89107602Y-147281806D01*
X89722643Y-146815032D01*
X90160451Y-146480482D01*
X92490319Y-144695426D01*
X93040201Y-145402810D01*
X93351145Y-145806474D01*
X93632602Y-146178122D01*
X93819307Y-146431336D01*
X94048531Y-146752479D01*
X91714837Y-148527453D01*
X91060445Y-149027553D01*
X90476627Y-149478276D01*
X89990487Y-149858321D01*
X89629133Y-150146387D01*
X89419669Y-150321171D01*
X89377796Y-150364078D01*
X89448988Y-150474825D01*
X89650698Y-150752728D01*
X89962202Y-151170165D01*
X90362776Y-151699513D01*
X90831696Y-152313152D01*
X91170222Y-152753070D01*
X91668342Y-153407339D01*
X92104945Y-153997614D01*
X92460536Y-154496130D01*
X92715621Y-154875122D01*
X92850706Y-155106824D01*
X92864308Y-155165893D01*
X92677553Y-155315027D01*
X92369270Y-155553742D01*
X91997284Y-155838140D01*
X91619417Y-156124320D01*
X91293491Y-156368382D01*
X91077328Y-156526427D01*
X91029758Y-156558712D01*
X90919268Y-156488572D01*
X90684086Y-156246280D01*
X90346449Y-155857734D01*
X89928594Y-155348833D01*
X89452759Y-154745476D01*
X89277431Y-154517821D01*
X88789077Y-153879380D01*
X88343258Y-153295576D01*
X87964742Y-152798923D01*
X87678299Y-152421936D01*
X87508700Y-152197128D01*
X87482093Y-152161190D01*
X87418374Y-152094362D01*
X87332810Y-152071341D01*
X87200933Y-152107383D01*
X86998275Y-152217743D01*
X86700367Y-152417675D01*
X86282739Y-152722436D01*
X85720924Y-153147280D01*
X84990452Y-153707463D01*
X84941267Y-153745295D01*
X84186510Y-154322725D01*
X83601810Y-154761239D01*
X83164411Y-155075660D01*
X82851560Y-155280816D01*
X82640501Y-155391530D01*
X82508482Y-155422629D01*
X82432748Y-155388937D01*
X82427720Y-155382989D01*
X82103373Y-154964269D01*
X81776177Y-154525936D01*
X81480538Y-154116106D01*
X81250860Y-153782893D01*
X81121549Y-153574416D01*
X81105236Y-153533475D01*
X81198068Y-153433720D01*
X81460135Y-153207461D01*
X81863990Y-152876954D01*
X82382189Y-152464455D01*
X82987284Y-151992219D01*
X83356626Y-151707851D01*
X84000432Y-151211912D01*
X84575149Y-150764180D01*
X85052874Y-150386807D01*
X85405702Y-150101944D01*
X85605730Y-149931742D01*
X85640603Y-149894765D01*
X85576712Y-149777293D01*
X85381499Y-149493370D01*
X85075404Y-149070917D01*
X84678865Y-148537858D01*
X84212322Y-147922116D01*
X83876141Y-147484203D01*
X83375927Y-146832930D01*
X82932602Y-146250037D01*
X82566378Y-145762573D01*
X82297469Y-145397585D01*
X82146088Y-145182120D01*
X82120490Y-145134868D01*
X82226316Y-145055910D01*
X82481869Y-144862271D01*
X82841001Y-144589087D01*
X83257565Y-144271499D01*
X83685415Y-143944645D01*
X84012720Y-143694037D01*
X84126935Y-143757626D01*
G37*
%TD.AperFunction*%
%TA.AperFunction,EtchedComponent*%
G36*
X133478656Y-143205289D02*
G01*
X133905363Y-143281414D01*
X134377546Y-143383909D01*
X134832815Y-143498565D01*
X135208779Y-143611171D01*
X135443049Y-143707519D01*
X135489804Y-143753511D01*
X135465250Y-143898016D01*
X135393533Y-144259739D01*
X135279644Y-144814873D01*
X135128574Y-145539614D01*
X134945316Y-146410153D01*
X134734861Y-147402687D01*
X134502199Y-148493408D01*
X134252323Y-149658511D01*
X134226538Y-149778398D01*
X133936011Y-151125938D01*
X133691374Y-152251835D01*
X133487566Y-153175729D01*
X133319524Y-153917258D01*
X133182185Y-154496061D01*
X133070488Y-154931777D01*
X132979370Y-155244044D01*
X132903769Y-155452500D01*
X132838622Y-155576785D01*
X132778868Y-155636537D01*
X132719443Y-155651394D01*
X132712705Y-155651130D01*
X132478129Y-155617489D01*
X132081402Y-155541944D01*
X131600315Y-155439515D01*
X131502344Y-155417471D01*
X131043937Y-155307379D01*
X130685570Y-155210127D01*
X130489672Y-155142992D01*
X130473080Y-155132627D01*
X130485968Y-155004299D01*
X130545842Y-154663306D01*
X130646715Y-154137826D01*
X130782598Y-153456039D01*
X130947502Y-152646123D01*
X131135440Y-151736257D01*
X131340423Y-150754622D01*
X131556463Y-149729395D01*
X131777571Y-148688756D01*
X131997759Y-147660883D01*
X132211039Y-146673957D01*
X132411422Y-145756156D01*
X132592920Y-144935658D01*
X132749544Y-144240644D01*
X132875307Y-143699291D01*
X132964220Y-143339780D01*
X133010294Y-143190289D01*
X133011230Y-143188992D01*
X133159815Y-143169745D01*
X133478656Y-143205289D01*
G37*
%TD.AperFunction*%
%TA.AperFunction,EtchedComponent*%
G36*
X128454657Y-142140936D02*
G01*
X128873456Y-142197110D01*
X129343238Y-142279362D01*
X129801283Y-142376318D01*
X130184870Y-142476606D01*
X130431280Y-142568851D01*
X130473444Y-142597072D01*
X130465029Y-142728521D01*
X130409693Y-143072552D01*
X130313360Y-143600875D01*
X130181954Y-144285199D01*
X130021400Y-145097233D01*
X129837620Y-146008685D01*
X129636539Y-146991265D01*
X129424081Y-148016682D01*
X129206169Y-149056645D01*
X128988729Y-150082863D01*
X128777683Y-151067045D01*
X128578956Y-151980901D01*
X128398472Y-152796140D01*
X128242154Y-153484470D01*
X128115927Y-154017600D01*
X128025714Y-154367241D01*
X127980930Y-154500498D01*
X127819589Y-154544027D01*
X127433617Y-154506773D01*
X126819183Y-154388337D01*
X126740230Y-154370946D01*
X126236704Y-154246586D01*
X125832801Y-154123488D01*
X125583514Y-154019668D01*
X125531284Y-153974921D01*
X125549667Y-153839203D01*
X125614113Y-153490934D01*
X125718622Y-152958609D01*
X125857193Y-152270720D01*
X126023827Y-151455761D01*
X126212523Y-150542225D01*
X126417281Y-149558606D01*
X126632102Y-148533397D01*
X126850985Y-147495091D01*
X127067929Y-146472181D01*
X127276936Y-145493161D01*
X127472004Y-144586525D01*
X127647134Y-143780765D01*
X127796326Y-143104375D01*
X127913578Y-142585848D01*
X127992893Y-142253678D01*
X128020882Y-142152318D01*
X128149558Y-142122214D01*
X128454657Y-142140936D01*
G37*
%TD.AperFunction*%
%TA.AperFunction,EtchedComponent*%
G36*
X157182609Y-133792170D02*
G01*
X157502361Y-133928394D01*
X157927227Y-134143306D01*
X158219624Y-134305156D01*
X159276220Y-134908906D01*
X156131719Y-140445698D01*
X155522961Y-141516051D01*
X154949658Y-142521096D01*
X154423539Y-143440476D01*
X153956334Y-144253833D01*
X153559773Y-144940810D01*
X153245585Y-145481051D01*
X153025502Y-145854196D01*
X152911252Y-146039890D01*
X152898706Y-146056620D01*
X152760383Y-146031691D01*
X152461257Y-145903945D01*
X152052453Y-145696663D01*
X151788824Y-145551206D01*
X151340011Y-145293589D01*
X150976012Y-145079123D01*
X150747836Y-144938145D01*
X150698595Y-144902802D01*
X150742650Y-144784694D01*
X150896654Y-144477695D01*
X151146768Y-144006195D01*
X151479155Y-143394586D01*
X151879976Y-142667258D01*
X152335393Y-141848603D01*
X152831568Y-140963011D01*
X153354664Y-140034874D01*
X153890841Y-139088583D01*
X154426262Y-138148527D01*
X154947089Y-137239099D01*
X155439483Y-136384689D01*
X155889606Y-135609689D01*
X156283621Y-134938489D01*
X156607689Y-134395480D01*
X156847973Y-134005053D01*
X156990633Y-133791600D01*
X157021077Y-133758840D01*
X157182609Y-133792170D01*
G37*
%TD.AperFunction*%
%TA.AperFunction,EtchedComponent*%
G36*
X158678945Y-140225696D02*
G01*
X158975782Y-140343793D01*
X159381282Y-140533945D01*
X159843960Y-140768882D01*
X160312335Y-141021336D01*
X160734922Y-141264037D01*
X161060239Y-141469715D01*
X161236802Y-141611102D01*
X161254242Y-141643401D01*
X161197871Y-141784098D01*
X161045502Y-142081368D01*
X160825248Y-142486104D01*
X160565221Y-142949201D01*
X160293535Y-143421552D01*
X160038302Y-143854052D01*
X159827635Y-144197595D01*
X159689647Y-144403075D01*
X159653398Y-144439663D01*
X159528416Y-144381040D01*
X159233293Y-144223665D01*
X158811857Y-143991379D01*
X158307938Y-143708023D01*
X158297087Y-143701868D01*
X157799428Y-143410794D01*
X157394238Y-143157206D01*
X157122383Y-142967877D01*
X157024727Y-142869581D01*
X157024902Y-142868380D01*
X157095588Y-142714611D01*
X157261499Y-142402381D01*
X157492053Y-141985329D01*
X157756671Y-141517093D01*
X158024772Y-141051311D01*
X158265777Y-140641621D01*
X158449104Y-140341662D01*
X158542252Y-140206924D01*
X158678945Y-140225696D01*
G37*
%TD.AperFunction*%
%TA.AperFunction,EtchedComponent*%
G36*
X150283270Y-135435999D02*
G01*
X150569741Y-135561156D01*
X150967040Y-135757348D01*
X151424562Y-135997142D01*
X151891703Y-136253100D01*
X152317858Y-136497787D01*
X152652422Y-136703768D01*
X152844791Y-136843607D01*
X152871845Y-136880511D01*
X152812209Y-137040450D01*
X152652919Y-137350625D01*
X152423401Y-137761888D01*
X152153082Y-138225090D01*
X151871389Y-138691084D01*
X151607749Y-139110721D01*
X151391587Y-139434854D01*
X151252330Y-139614334D01*
X151222747Y-139634816D01*
X151031071Y-139572833D01*
X150747672Y-139424271D01*
X150714078Y-139403814D01*
X150428916Y-139232072D01*
X150011315Y-138986160D01*
X149543009Y-138714144D01*
X149457848Y-138665089D01*
X148571522Y-138155288D01*
X149322869Y-136830799D01*
X149618053Y-136314389D01*
X149873058Y-135875619D01*
X150061387Y-135559573D01*
X150156547Y-135411337D01*
X150158232Y-135409313D01*
X150283270Y-135435999D01*
G37*
%TD.AperFunction*%
%TA.AperFunction,EtchedComponent*%
G36*
X102378412Y-133871952D02*
G01*
X102733117Y-133957732D01*
X103268785Y-134091842D01*
X103957715Y-134267034D01*
X104772204Y-134476063D01*
X105684549Y-134711680D01*
X106667047Y-134966639D01*
X107691995Y-135233694D01*
X108731691Y-135505596D01*
X109758432Y-135775100D01*
X110744515Y-136034959D01*
X111662236Y-136277925D01*
X112483894Y-136496751D01*
X113181785Y-136684191D01*
X113728207Y-136832998D01*
X114095457Y-136935925D01*
X114255832Y-136985726D01*
X114260368Y-136988200D01*
X114252971Y-137119879D01*
X114193996Y-137425186D01*
X114099281Y-137840542D01*
X113984666Y-138302368D01*
X113865989Y-138747084D01*
X113759089Y-139111110D01*
X113679806Y-139330867D01*
X113673753Y-139342937D01*
X113545285Y-139349690D01*
X113198558Y-139293116D01*
X112630590Y-139172509D01*
X111838401Y-138987166D01*
X110819011Y-138736382D01*
X109569439Y-138419452D01*
X108086704Y-138035672D01*
X107558738Y-137897643D01*
X106382808Y-137589575D01*
X105281790Y-137301161D01*
X104278201Y-137038300D01*
X103394559Y-136806888D01*
X102653383Y-136612820D01*
X102077191Y-136461994D01*
X101688501Y-136360307D01*
X101509832Y-136313654D01*
X101500529Y-136311260D01*
X101502389Y-136196968D01*
X101565193Y-135908340D01*
X101671333Y-135504793D01*
X101803200Y-135045747D01*
X101943185Y-134590622D01*
X102073679Y-134198835D01*
X102177073Y-133929806D01*
X102232376Y-133841748D01*
X102378412Y-133871952D01*
G37*
%TD.AperFunction*%
%TA.AperFunction,EtchedComponent*%
G36*
X85821909Y-129662058D02*
G01*
X86051546Y-129886313D01*
X86354197Y-130216316D01*
X86691638Y-130606866D01*
X87025644Y-131012764D01*
X87317994Y-131388811D01*
X87530462Y-131689804D01*
X87620732Y-131855886D01*
X87542488Y-131958936D01*
X87315165Y-132180110D01*
X86981637Y-132482719D01*
X86584778Y-132830076D01*
X86167461Y-133185491D01*
X85772562Y-133512277D01*
X85442953Y-133773745D01*
X85221509Y-133933207D01*
X85156269Y-133964787D01*
X85068790Y-133874440D01*
X84862406Y-133630460D01*
X84570610Y-133273091D01*
X84316505Y-132955678D01*
X83965540Y-132512067D01*
X83660205Y-132122788D01*
X83441012Y-131839674D01*
X83362480Y-131735137D01*
X83318572Y-131628748D01*
X83357704Y-131501788D01*
X83506576Y-131324004D01*
X83791888Y-131065142D01*
X84240338Y-130694951D01*
X84379582Y-130582659D01*
X84845059Y-130213846D01*
X85249583Y-129903670D01*
X85549964Y-129684555D01*
X85703012Y-129588925D01*
X85703509Y-129588751D01*
X85821909Y-129662058D01*
G37*
%TD.AperFunction*%
%TA.AperFunction,EtchedComponent*%
G36*
X86713811Y-123107016D02*
G01*
X86947308Y-123321412D01*
X87246011Y-123634041D01*
X87567396Y-123996251D01*
X87868938Y-124359390D01*
X88108111Y-124674805D01*
X88242389Y-124893844D01*
X88257205Y-124949154D01*
X88163534Y-125034634D01*
X87898753Y-125255725D01*
X87484934Y-125594766D01*
X86944149Y-126034092D01*
X86298470Y-126556040D01*
X85569968Y-127142947D01*
X84780716Y-127777150D01*
X83952785Y-128440985D01*
X83108248Y-129116790D01*
X82269176Y-129786900D01*
X81457641Y-130433653D01*
X80695714Y-131039385D01*
X80005469Y-131586432D01*
X79408976Y-132057133D01*
X78928308Y-132433823D01*
X78585536Y-132698839D01*
X78409942Y-132829543D01*
X78290519Y-132885084D01*
X78162337Y-132855188D01*
X77989180Y-132710883D01*
X77734834Y-132423199D01*
X77426727Y-132043011D01*
X77105105Y-131631004D01*
X76851693Y-131289076D01*
X76700046Y-131063476D01*
X76671845Y-131002518D01*
X76764829Y-130910516D01*
X77029092Y-130683096D01*
X77442603Y-130337950D01*
X77983330Y-129892771D01*
X78629239Y-129365251D01*
X79358299Y-128773082D01*
X80148478Y-128133958D01*
X80977743Y-127465571D01*
X81824061Y-126785614D01*
X82665402Y-126111778D01*
X83479732Y-125461758D01*
X84245019Y-124853244D01*
X84939231Y-124303930D01*
X85540335Y-123831509D01*
X86026301Y-123453672D01*
X86375094Y-123188113D01*
X86564683Y-123052524D01*
X86588048Y-123039506D01*
X86713811Y-123107016D01*
G37*
%TD.AperFunction*%
%TA.AperFunction,EtchedComponent*%
G36*
X120408644Y-116761379D02*
G01*
X120497442Y-116887331D01*
X120605767Y-117143671D01*
X120743105Y-117556682D01*
X120918939Y-118152646D01*
X121142754Y-118957848D01*
X121181099Y-119098477D01*
X121430559Y-119993357D01*
X121631892Y-120664785D01*
X121791047Y-121129909D01*
X121913977Y-121405875D01*
X122006633Y-121509832D01*
X122018602Y-121511651D01*
X122189833Y-121480556D01*
X122558565Y-121394007D01*
X123084570Y-121262100D01*
X123727622Y-121094935D01*
X124447492Y-120902611D01*
X124483863Y-120892764D01*
X125194190Y-120702422D01*
X125817944Y-120539261D01*
X126318112Y-120412635D01*
X126657682Y-120331898D01*
X126799639Y-120306404D01*
X126801408Y-120307085D01*
X126872854Y-120464024D01*
X126973948Y-120788968D01*
X127089539Y-121218635D01*
X127204475Y-121689747D01*
X127303606Y-122139025D01*
X127371779Y-122503187D01*
X127393843Y-122718957D01*
X127386246Y-122749651D01*
X127241402Y-122809227D01*
X126896289Y-122920624D01*
X126389008Y-123072475D01*
X125757657Y-123253410D01*
X125040337Y-123452060D01*
X124949309Y-123476816D01*
X124230644Y-123672791D01*
X123598994Y-123846801D01*
X123090833Y-123988654D01*
X122742629Y-124088156D01*
X122590856Y-124135115D01*
X122587338Y-124136937D01*
X122610587Y-124258012D01*
X122689590Y-124581045D01*
X122815099Y-125070111D01*
X122977865Y-125689288D01*
X123168638Y-126402654D01*
X123212995Y-126566990D01*
X123457567Y-127496246D01*
X123627531Y-128200263D01*
X123724783Y-128688239D01*
X123751223Y-128969369D01*
X123725451Y-129050164D01*
X123552099Y-129115239D01*
X123200681Y-129224699D01*
X122731613Y-129360175D01*
X122452124Y-129437288D01*
X121316385Y-129745607D01*
X121135614Y-129111881D01*
X121036551Y-128756817D01*
X120891932Y-128228521D01*
X120719465Y-127592110D01*
X120536856Y-126912699D01*
X120493879Y-126751942D01*
X120325053Y-126131986D01*
X120173545Y-125598326D01*
X120052571Y-125195840D01*
X119975346Y-124969408D01*
X119959817Y-124938360D01*
X119824173Y-124942928D01*
X119488009Y-125006313D01*
X118988054Y-125120059D01*
X118361035Y-125275712D01*
X117643683Y-125464817D01*
X117483408Y-125508423D01*
X116560907Y-125754314D01*
X115861814Y-125925697D01*
X115375195Y-126024857D01*
X115090117Y-126054076D01*
X114999014Y-126027345D01*
X114920566Y-125829034D01*
X114813924Y-125478504D01*
X114694960Y-125039676D01*
X114579543Y-124576472D01*
X114483541Y-124152813D01*
X114422824Y-123832621D01*
X114413261Y-123679816D01*
X114415391Y-123676518D01*
X114547890Y-123626896D01*
X114881601Y-123524293D01*
X115379505Y-123379447D01*
X116004587Y-123203092D01*
X116719829Y-123005965D01*
X116843638Y-122972270D01*
X117565938Y-122769789D01*
X118199312Y-122580269D01*
X118707881Y-122415439D01*
X119055765Y-122287028D01*
X119207083Y-122206762D01*
X119210680Y-122198566D01*
X119179950Y-122043815D01*
X119094340Y-121689895D01*
X118963716Y-121175590D01*
X118797944Y-120539681D01*
X118606890Y-119820951D01*
X118585958Y-119742977D01*
X118395671Y-119026393D01*
X118232741Y-118396567D01*
X118106278Y-117890092D01*
X118025392Y-117543559D01*
X117999191Y-117393560D01*
X118000278Y-117390402D01*
X118128741Y-117347916D01*
X118438955Y-117257846D01*
X118874463Y-117136405D01*
X119087379Y-117078255D01*
X119583719Y-116943365D01*
X120003155Y-116829087D01*
X120277889Y-116753906D01*
X120329890Y-116739531D01*
X120408644Y-116761379D01*
G37*
%TD.AperFunction*%
%TA.AperFunction,EtchedComponent*%
G36*
X148651040Y-120509613D02*
G01*
X148901317Y-120757513D01*
X149231211Y-121157715D01*
X149408963Y-121394189D01*
X150151426Y-122407789D01*
X149631295Y-122799393D01*
X149259829Y-123076301D01*
X148748890Y-123453127D01*
X148121817Y-123912970D01*
X147401949Y-124438928D01*
X146612624Y-125014099D01*
X145777180Y-125621582D01*
X144918956Y-126244475D01*
X144061291Y-126865875D01*
X143227522Y-127468882D01*
X142440989Y-128036593D01*
X141725029Y-128552108D01*
X141102981Y-128998523D01*
X140598184Y-129358938D01*
X140233976Y-129616451D01*
X140033695Y-129754160D01*
X140002170Y-129772816D01*
X139904333Y-129679711D01*
X139696508Y-129428516D01*
X139412597Y-129061410D01*
X139189094Y-128761257D01*
X138888010Y-128331871D01*
X138664451Y-127975507D01*
X138545328Y-127737498D01*
X138538598Y-127665491D01*
X138677114Y-127557221D01*
X138989055Y-127324270D01*
X139450936Y-126983658D01*
X140039270Y-126552405D01*
X140730568Y-126047531D01*
X141501346Y-125486057D01*
X142328116Y-124885001D01*
X143187390Y-124261385D01*
X144055684Y-123632229D01*
X144909509Y-123014552D01*
X145725378Y-122425374D01*
X146479806Y-121881717D01*
X147149305Y-121400599D01*
X147710388Y-120999042D01*
X148139569Y-120694064D01*
X148413361Y-120502687D01*
X148506778Y-120441881D01*
X148651040Y-120509613D01*
G37*
%TD.AperFunction*%
%TA.AperFunction,EtchedComponent*%
G36*
X79818033Y-122166046D02*
G01*
X80053724Y-122400783D01*
X80360858Y-122738865D01*
X80700454Y-123133869D01*
X81033529Y-123539373D01*
X81321101Y-123908955D01*
X81524189Y-124196193D01*
X81603810Y-124354665D01*
X81603883Y-124356946D01*
X81514808Y-124459395D01*
X81276760Y-124679085D01*
X80933500Y-124979420D01*
X80528795Y-125323809D01*
X80106407Y-125675658D01*
X79710101Y-125998373D01*
X79383640Y-126255361D01*
X79170788Y-126410029D01*
X79114521Y-126438437D01*
X79025091Y-126346324D01*
X78831920Y-126112591D01*
X78627355Y-125852758D01*
X78289732Y-125419791D01*
X77903451Y-124929584D01*
X77671911Y-124638348D01*
X77165326Y-124004366D01*
X78351876Y-123050006D01*
X78819818Y-122682096D01*
X79227154Y-122377538D01*
X79531326Y-122167087D01*
X79689773Y-122081496D01*
X79692768Y-122081075D01*
X79818033Y-122166046D01*
G37*
%TD.AperFunction*%
%TA.AperFunction,EtchedComponent*%
G36*
X97510001Y-109746622D02*
G01*
X97620090Y-109981890D01*
X97742286Y-110410075D01*
X97848684Y-110876467D01*
X97952621Y-111388176D01*
X98025662Y-111802473D01*
X98058939Y-112065464D01*
X98054922Y-112129867D01*
X97931111Y-112164152D01*
X97594835Y-112246290D01*
X97074183Y-112369857D01*
X96397247Y-112528427D01*
X95592115Y-112715576D01*
X94686876Y-112924879D01*
X93709621Y-113149910D01*
X92688440Y-113384244D01*
X91651421Y-113621457D01*
X90626654Y-113855124D01*
X89642230Y-114078819D01*
X88726237Y-114286117D01*
X87906766Y-114470594D01*
X87211905Y-114625824D01*
X86669745Y-114745383D01*
X86308375Y-114822844D01*
X86155885Y-114851785D01*
X86154700Y-114851839D01*
X86099017Y-114740329D01*
X86006207Y-114437937D01*
X85890649Y-113994947D01*
X85800855Y-113614605D01*
X85688404Y-113096713D01*
X85606629Y-112676834D01*
X85565129Y-112407164D01*
X85565573Y-112335319D01*
X85694000Y-112298498D01*
X86034932Y-112214906D01*
X86560068Y-112090905D01*
X87241104Y-111932858D01*
X88049736Y-111747128D01*
X88957660Y-111540076D01*
X89936575Y-111318065D01*
X90958175Y-111087458D01*
X91994158Y-110854617D01*
X93016221Y-110625904D01*
X93996060Y-110407683D01*
X94905371Y-110206315D01*
X95715852Y-110028163D01*
X96399199Y-109879590D01*
X96927108Y-109766958D01*
X97271277Y-109696629D01*
X97401026Y-109674757D01*
X97510001Y-109746622D01*
G37*
%TD.AperFunction*%
%TA.AperFunction,EtchedComponent*%
G36*
X143380650Y-101539792D02*
G01*
X143392211Y-101555205D01*
X143513760Y-101761852D01*
X143730906Y-102147833D01*
X144030139Y-102688133D01*
X144397948Y-103357734D01*
X144820823Y-104131622D01*
X145285252Y-104984779D01*
X145777726Y-105892189D01*
X146284733Y-106828837D01*
X146792763Y-107769705D01*
X147288305Y-108689779D01*
X147757849Y-109564041D01*
X148187883Y-110367476D01*
X148564897Y-111075067D01*
X148875381Y-111661798D01*
X149105823Y-112102653D01*
X149242713Y-112372615D01*
X149275669Y-112448926D01*
X149136487Y-112540853D01*
X148843062Y-112710579D01*
X148454216Y-112926384D01*
X148028772Y-113156547D01*
X147625552Y-113369347D01*
X147303379Y-113533062D01*
X147121076Y-113615972D01*
X147103346Y-113620389D01*
X147027708Y-113515417D01*
X146846219Y-113214265D01*
X146570501Y-112737574D01*
X146212178Y-112105987D01*
X145782874Y-111340146D01*
X145294210Y-110460693D01*
X144757810Y-109488271D01*
X144185297Y-108443522D01*
X144085431Y-108260603D01*
X143508118Y-107200859D01*
X142967339Y-106204815D01*
X142474546Y-105293797D01*
X142041189Y-104489134D01*
X141678716Y-103812151D01*
X141398579Y-103284176D01*
X141212227Y-102926535D01*
X141131111Y-102760557D01*
X141128696Y-102753366D01*
X141216212Y-102635577D01*
X141477845Y-102435173D01*
X141869163Y-102183770D01*
X142191300Y-101997240D01*
X142711774Y-101717239D01*
X143059744Y-101556404D01*
X143270830Y-101501626D01*
X143380650Y-101539792D01*
G37*
%TD.AperFunction*%
%TA.AperFunction,EtchedComponent*%
G36*
X170723291Y-105456093D02*
G01*
X170688835Y-107018357D01*
X167070285Y-109271315D01*
X166219009Y-109799616D01*
X165433374Y-110283890D01*
X164738025Y-110709199D01*
X164157605Y-111060607D01*
X163716758Y-111323177D01*
X163440128Y-111481973D01*
X163353193Y-111524272D01*
X163248500Y-111426468D01*
X163051626Y-111164781D01*
X162797244Y-110786802D01*
X162671530Y-110588694D01*
X162408705Y-110151677D01*
X162203623Y-109781671D01*
X162087670Y-109536576D01*
X162073089Y-109484718D01*
X162171483Y-109383549D01*
X162460646Y-109166960D01*
X162920875Y-108848039D01*
X163532468Y-108439875D01*
X164275723Y-107955556D01*
X165130938Y-107408172D01*
X166078410Y-106810811D01*
X166407757Y-106605074D01*
X170757747Y-103893828D01*
X170723291Y-105456093D01*
G37*
%TD.AperFunction*%
%TA.AperFunction,EtchedComponent*%
G36*
X96369672Y-104779769D02*
G01*
X96487104Y-105041756D01*
X96624407Y-105514535D01*
X96720122Y-105910213D01*
X96834182Y-106426280D01*
X96917248Y-106844803D01*
X96959450Y-107113218D01*
X96959283Y-107183759D01*
X96837225Y-107216389D01*
X96502631Y-107297082D01*
X95983476Y-107419434D01*
X95307738Y-107577042D01*
X94503392Y-107763504D01*
X93598413Y-107972416D01*
X92620779Y-108197375D01*
X91598464Y-108431978D01*
X90559445Y-108669822D01*
X89531699Y-108904505D01*
X88543200Y-109129622D01*
X87621925Y-109338772D01*
X86795850Y-109525550D01*
X86092951Y-109683554D01*
X85541203Y-109806382D01*
X85168584Y-109887629D01*
X85003068Y-109920893D01*
X84998217Y-109921359D01*
X84954413Y-109810579D01*
X84875709Y-109517811D01*
X84777840Y-109102413D01*
X84761211Y-109027427D01*
X84614508Y-108351346D01*
X84518456Y-107880060D01*
X84467848Y-107578173D01*
X84457479Y-107410287D01*
X84482145Y-107341004D01*
X84511907Y-107332039D01*
X84649365Y-107305598D01*
X85003432Y-107229812D01*
X85550247Y-107109986D01*
X86265948Y-106951428D01*
X87126675Y-106759444D01*
X88108567Y-106539338D01*
X89187762Y-106296418D01*
X90340400Y-106035989D01*
X90353291Y-106033071D01*
X91509584Y-105771585D01*
X92595103Y-105526597D01*
X93585601Y-105303543D01*
X94456833Y-105107860D01*
X95184551Y-104944986D01*
X95744510Y-104820357D01*
X96112463Y-104739410D01*
X96264154Y-104707585D01*
X96369672Y-104779769D01*
G37*
%TD.AperFunction*%
%TA.AperFunction,EtchedComponent*%
G36*
X119219193Y-94921892D02*
G01*
X119566613Y-95035000D01*
X119994108Y-95193942D01*
X120441507Y-95374284D01*
X120848640Y-95551593D01*
X121155335Y-95701434D01*
X121301421Y-95799374D01*
X121306071Y-95810604D01*
X121264244Y-95964057D01*
X121144892Y-96317982D01*
X120957951Y-96846022D01*
X120713357Y-97521819D01*
X120421045Y-98319017D01*
X120090950Y-99211258D01*
X119733009Y-100172186D01*
X119357156Y-101175441D01*
X118973328Y-102194669D01*
X118591460Y-103203510D01*
X118221486Y-104175609D01*
X117873344Y-105084607D01*
X117556968Y-105904148D01*
X117282295Y-106607874D01*
X117059259Y-107169427D01*
X116897795Y-107562452D01*
X116807841Y-107760589D01*
X116794380Y-107779327D01*
X116638281Y-107749554D01*
X116308439Y-107646472D01*
X115860137Y-107488204D01*
X115548319Y-107370840D01*
X114413629Y-106934024D01*
X114629842Y-106362400D01*
X114716412Y-106131565D01*
X114879282Y-105695349D01*
X115108854Y-105079530D01*
X115395528Y-104309885D01*
X115729707Y-103412190D01*
X116101791Y-102412223D01*
X116502182Y-101335761D01*
X116874241Y-100335119D01*
X117285046Y-99236130D01*
X117672532Y-98211137D01*
X118027857Y-97282711D01*
X118342177Y-96473425D01*
X118606646Y-95805850D01*
X118812422Y-95302557D01*
X118950659Y-94986120D01*
X119012018Y-94879051D01*
X119219193Y-94921892D01*
G37*
%TD.AperFunction*%
%TA.AperFunction,EtchedComponent*%
G36*
X169741407Y-98706493D02*
G01*
X169945916Y-98923962D01*
X170179316Y-99258571D01*
X170408698Y-99655045D01*
X170601156Y-100058108D01*
X170723780Y-100412485D01*
X170750485Y-100596104D01*
X170750485Y-101017669D01*
X165767987Y-104113204D01*
X164765066Y-104734981D01*
X163825333Y-105315041D01*
X162969644Y-105840690D01*
X162218856Y-106299237D01*
X161593824Y-106677987D01*
X161115405Y-106964249D01*
X160804457Y-107145329D01*
X160681835Y-107208534D01*
X160681822Y-107208534D01*
X160576804Y-107110411D01*
X160376481Y-106846008D01*
X160113262Y-106460000D01*
X159916817Y-106153935D01*
X159644293Y-105709146D01*
X159435641Y-105348716D01*
X159316664Y-105118456D01*
X159300312Y-105059450D01*
X159408112Y-104990655D01*
X159700941Y-104807138D01*
X160154255Y-104524149D01*
X160743512Y-104156934D01*
X161444166Y-103720742D01*
X162231676Y-103230822D01*
X163081497Y-102702420D01*
X163969086Y-102150785D01*
X164869899Y-101591165D01*
X165759394Y-101038808D01*
X166613025Y-100508962D01*
X167406251Y-100016875D01*
X168114527Y-99577795D01*
X168713310Y-99206969D01*
X169178056Y-98919646D01*
X169484223Y-98731074D01*
X169598696Y-98661439D01*
X169741407Y-98706493D01*
G37*
%TD.AperFunction*%
%TA.AperFunction,EtchedComponent*%
G36*
X121994464Y-101100963D02*
G01*
X122417591Y-101243932D01*
X122902405Y-101424259D01*
X123394461Y-101620002D01*
X123839316Y-101809220D01*
X124182525Y-101969972D01*
X124369644Y-102080318D01*
X124388602Y-102105852D01*
X124347084Y-102277119D01*
X124236030Y-102616526D01*
X124076765Y-103067244D01*
X123890614Y-103572440D01*
X123698900Y-104075284D01*
X123522948Y-104518945D01*
X123384081Y-104846591D01*
X123303623Y-105001391D01*
X123301224Y-105003846D01*
X123159804Y-104993431D01*
X122836161Y-104908831D01*
X122378330Y-104764145D01*
X121834344Y-104573475D01*
X121831112Y-104572292D01*
X121151496Y-104308942D01*
X120704045Y-104100843D01*
X120481464Y-103944332D01*
X120452217Y-103879612D01*
X120498181Y-103696424D01*
X120617149Y-103337213D01*
X120790735Y-102854999D01*
X120986728Y-102338350D01*
X121257745Y-101677290D01*
X121468746Y-101246745D01*
X121623771Y-101039093D01*
X121687468Y-101017292D01*
X121994464Y-101100963D01*
G37*
%TD.AperFunction*%
%TA.AperFunction,EtchedComponent*%
G36*
X112616171Y-97634486D02*
G01*
X112918627Y-97726708D01*
X113340763Y-97871572D01*
X113828568Y-98048801D01*
X114328032Y-98238115D01*
X114785146Y-98419238D01*
X115145898Y-98571891D01*
X115356279Y-98675796D01*
X115388349Y-98704349D01*
X115346839Y-98851256D01*
X115236336Y-99171696D01*
X115077880Y-99609620D01*
X114892512Y-100108982D01*
X114701271Y-100613735D01*
X114525199Y-101067831D01*
X114385336Y-101415224D01*
X114302722Y-101599867D01*
X114298865Y-101606502D01*
X114142775Y-101627051D01*
X113769525Y-101538830D01*
X113182785Y-101342831D01*
X112805369Y-101202773D01*
X112262454Y-100994949D01*
X111812152Y-100820020D01*
X111499641Y-100695721D01*
X111370099Y-100639785D01*
X111369164Y-100639026D01*
X111400345Y-100522051D01*
X111500331Y-100227508D01*
X111649640Y-99808086D01*
X111828786Y-99316470D01*
X112018286Y-98805349D01*
X112198655Y-98327410D01*
X112350409Y-97935341D01*
X112454063Y-97681828D01*
X112487404Y-97615185D01*
X112616171Y-97634486D01*
G37*
%TD.AperFunction*%
%TA.AperFunction,EtchedComponent*%
G36*
X75052816Y-82466923D02*
G01*
X75196826Y-82781918D01*
X75403736Y-83230638D01*
X75653808Y-83770694D01*
X75927303Y-84359699D01*
X76204483Y-84955263D01*
X76465612Y-85514998D01*
X76690950Y-85996515D01*
X76860761Y-86357425D01*
X76955306Y-86555339D01*
X76967936Y-86579814D01*
X77079756Y-86537173D01*
X77380477Y-86404247D01*
X77836226Y-86196501D01*
X78413129Y-85929402D01*
X79077313Y-85618416D01*
X79195863Y-85562581D01*
X79878335Y-85243315D01*
X80486037Y-84963648D01*
X80983327Y-84739608D01*
X81334559Y-84587221D01*
X81504091Y-84522513D01*
X81511578Y-84521359D01*
X81611541Y-84625473D01*
X81775543Y-84899450D01*
X81976716Y-85285743D01*
X82188193Y-85726808D01*
X82383106Y-86165098D01*
X82534588Y-86543067D01*
X82615770Y-86803168D01*
X82615332Y-86885428D01*
X82481124Y-86961324D01*
X82158971Y-87122853D01*
X81684942Y-87352553D01*
X81095109Y-87632957D01*
X80425541Y-87946603D01*
X80376376Y-87969464D01*
X79706334Y-88282042D01*
X79116756Y-88559315D01*
X78642754Y-88784589D01*
X78319437Y-88941167D01*
X78181915Y-89012355D01*
X78179939Y-89013913D01*
X78216425Y-89133564D01*
X78343693Y-89442351D01*
X78546914Y-89906569D01*
X78811260Y-90492510D01*
X79121903Y-91166467D01*
X79209603Y-91354475D01*
X79529718Y-92045835D01*
X79807078Y-92657950D01*
X80026928Y-93157151D01*
X80174512Y-93509774D01*
X80235074Y-93682150D01*
X80234681Y-93693349D01*
X80107444Y-93761701D01*
X79817486Y-93902807D01*
X79423776Y-94089275D01*
X78985284Y-94293712D01*
X78560981Y-94488728D01*
X78209838Y-94646928D01*
X77990825Y-94740922D01*
X77948404Y-94755340D01*
X77880261Y-94651339D01*
X77735791Y-94372652D01*
X77540352Y-93969255D01*
X77432231Y-93738107D01*
X76941571Y-92681501D01*
X76543760Y-91834460D01*
X76231103Y-91181372D01*
X75995906Y-90706629D01*
X75830475Y-90394619D01*
X75727117Y-90229732D01*
X75685021Y-90193204D01*
X75545595Y-90242955D01*
X75231091Y-90378243D01*
X74788858Y-90578120D01*
X74291519Y-90809709D01*
X73773757Y-91051373D01*
X73340915Y-91248573D01*
X73039509Y-91380445D01*
X72917022Y-91426214D01*
X72890809Y-91310911D01*
X72869343Y-90996970D01*
X72854840Y-90532340D01*
X72849515Y-89965100D01*
X72849515Y-88503985D01*
X73652731Y-88162614D01*
X74058645Y-87980792D01*
X74366489Y-87825493D01*
X74512774Y-87728874D01*
X74514877Y-87725892D01*
X74485015Y-87587778D01*
X74364910Y-87266217D01*
X74170665Y-86800256D01*
X73918383Y-86228941D01*
X73711660Y-85778186D01*
X73357268Y-84998167D01*
X73106973Y-84399222D01*
X72947805Y-83945383D01*
X72866794Y-83600682D01*
X72849515Y-83387430D01*
X72849515Y-82849028D01*
X73834954Y-82401389D01*
X74820394Y-81953749D01*
X75052816Y-82466923D01*
G37*
%TD.AperFunction*%
%TA.AperFunction,EtchedComponent*%
G36*
X97683758Y-84452986D02*
G01*
X98006080Y-84609010D01*
X98494157Y-84852991D01*
X99122752Y-85171788D01*
X99866630Y-85552264D01*
X100700555Y-85981277D01*
X101599290Y-86445690D01*
X102537600Y-86932362D01*
X103490249Y-87428154D01*
X104432001Y-87919927D01*
X105337620Y-88394541D01*
X106181869Y-88838857D01*
X106939514Y-89239735D01*
X107585318Y-89584036D01*
X108094045Y-89858621D01*
X108440459Y-90050350D01*
X108599325Y-90146083D01*
X108606796Y-90153661D01*
X108552594Y-90303129D01*
X108410095Y-90601352D01*
X108209456Y-90992452D01*
X107980835Y-91420547D01*
X107754392Y-91829757D01*
X107560284Y-92164203D01*
X107428670Y-92368004D01*
X107392129Y-92404318D01*
X107267925Y-92347011D01*
X106951150Y-92187921D01*
X106467386Y-91940256D01*
X105842211Y-91617225D01*
X105101207Y-91232034D01*
X104269952Y-90797893D01*
X103551456Y-90421218D01*
X102567410Y-89904515D01*
X101566534Y-89379040D01*
X100591933Y-88867422D01*
X99686714Y-88392286D01*
X98893985Y-87976260D01*
X98256851Y-87641970D01*
X98030053Y-87523009D01*
X96269329Y-86599598D01*
X96849717Y-85498828D01*
X97104834Y-85036551D01*
X97328830Y-84669902D01*
X97491918Y-84445542D01*
X97552426Y-84398058D01*
X97683758Y-84452986D01*
G37*
%TD.AperFunction*%
%TA.AperFunction,EtchedComponent*%
G36*
X138571999Y-81813833D02*
G01*
X138751182Y-81955439D01*
X139018908Y-82238218D01*
X139358222Y-82628244D01*
X139696810Y-83035256D01*
X139960253Y-83374539D01*
X140115883Y-83602633D01*
X140143251Y-83672687D01*
X140043589Y-83772865D01*
X139777452Y-84011890D01*
X139366934Y-84371071D01*
X138834129Y-84831719D01*
X138201131Y-85375143D01*
X137490033Y-85982653D01*
X136722931Y-86635558D01*
X135921917Y-87315169D01*
X135109085Y-88002794D01*
X134306530Y-88679744D01*
X133536345Y-89327329D01*
X132820624Y-89926858D01*
X132181461Y-90459640D01*
X131640950Y-90906986D01*
X131221184Y-91250206D01*
X130944258Y-91470608D01*
X130832265Y-91549503D01*
X130832014Y-91549515D01*
X130714536Y-91460908D01*
X130480429Y-91222674D01*
X130169040Y-90876192D01*
X129964939Y-90637672D01*
X129636531Y-90240820D01*
X129378394Y-89916770D01*
X129225192Y-89709708D01*
X129198058Y-89660158D01*
X129289227Y-89569716D01*
X129550522Y-89335997D01*
X129963630Y-88974788D01*
X130510236Y-88501879D01*
X131172024Y-87933058D01*
X131930680Y-87284114D01*
X132767889Y-86570835D01*
X133665336Y-85809011D01*
X133667718Y-85806992D01*
X134573153Y-85039696D01*
X135425530Y-84317264D01*
X136205463Y-83656135D01*
X136893568Y-83072746D01*
X137470457Y-82583534D01*
X137916745Y-82204938D01*
X138213046Y-81953394D01*
X138338757Y-81846387D01*
X138446233Y-81786463D01*
X138571999Y-81813833D01*
G37*
%TD.AperFunction*%
%TA.AperFunction,EtchedComponent*%
G36*
X159449331Y-80286971D02*
G01*
X159480298Y-80996486D01*
X159505774Y-81701691D01*
X159523215Y-82323391D01*
X159530077Y-82782390D01*
X159530097Y-82801303D01*
X159530097Y-83631577D01*
X162119417Y-83564984D01*
X164708738Y-83498391D01*
X164708738Y-84811332D01*
X164708738Y-86124272D01*
X163753155Y-86124772D01*
X163239298Y-86131734D01*
X162570426Y-86150249D01*
X161837703Y-86177397D01*
X161209866Y-86206242D01*
X159622159Y-86287212D01*
X159710633Y-88776327D01*
X159799107Y-91265441D01*
X159030010Y-91345827D01*
X158494578Y-91390940D01*
X157949118Y-91420106D01*
X157662495Y-91426214D01*
X157064078Y-91426214D01*
X157063440Y-90100728D01*
X157054438Y-89371808D01*
X157030955Y-88562942D01*
X156997341Y-87810275D01*
X156982100Y-87556431D01*
X156901399Y-86337620D01*
X154362593Y-86385072D01*
X151823786Y-86432524D01*
X151788648Y-85168689D01*
X151782850Y-84642152D01*
X151794978Y-84219689D01*
X151822509Y-83953681D01*
X151850298Y-83888460D01*
X151998237Y-83879661D01*
X152353276Y-83864826D01*
X152876027Y-83845409D01*
X153527104Y-83822869D01*
X154267118Y-83798661D01*
X154351456Y-83795984D01*
X156755825Y-83719903D01*
X156744296Y-81161408D01*
X156732768Y-78602913D01*
X158050666Y-78602913D01*
X159368565Y-78602913D01*
X159449331Y-80286971D01*
G37*
%TD.AperFunction*%
%TA.AperFunction,EtchedComponent*%
G36*
X135278186Y-77887858D02*
G01*
X135401792Y-77985792D01*
X135594428Y-78191312D01*
X135884521Y-78528444D01*
X136300495Y-79021215D01*
X136435791Y-79181360D01*
X136953622Y-79793688D01*
X132316977Y-83729611D01*
X131400308Y-84507029D01*
X130540498Y-85234841D01*
X129755871Y-85897634D01*
X129064753Y-86479992D01*
X128485468Y-86966502D01*
X128036342Y-87341749D01*
X127735700Y-87590320D01*
X127601866Y-87696799D01*
X127597352Y-87699547D01*
X127485015Y-87628152D01*
X127258553Y-87408354D01*
X126960331Y-87082336D01*
X126854339Y-86959741D01*
X126523852Y-86571865D01*
X126238833Y-86236610D01*
X126050477Y-86014213D01*
X126025366Y-85984352D01*
X126001731Y-85924212D01*
X126026144Y-85836668D01*
X126113352Y-85708043D01*
X126278102Y-85524659D01*
X126535142Y-85272838D01*
X126899221Y-84938903D01*
X127385086Y-84509177D01*
X128007485Y-83969982D01*
X128781165Y-83307641D01*
X129720875Y-82508476D01*
X130332338Y-81989974D01*
X131239606Y-81221094D01*
X132094792Y-80496203D01*
X132878370Y-79831863D01*
X133570813Y-79244635D01*
X134152594Y-78751083D01*
X134604186Y-78367768D01*
X134906062Y-78111254D01*
X135037297Y-77999311D01*
X135124364Y-77918644D01*
X135195185Y-77873484D01*
X135278186Y-77887858D01*
G37*
%TD.AperFunction*%
%TA.AperFunction,EtchedComponent*%
G36*
X114090727Y-66928767D02*
G01*
X114397642Y-66987908D01*
X114817927Y-67083025D01*
X115289598Y-67198630D01*
X115750670Y-67319233D01*
X116139161Y-67429343D01*
X116393085Y-67513473D01*
X116454770Y-67544738D01*
X116439071Y-67673518D01*
X116365773Y-68003521D01*
X116243862Y-68498528D01*
X116082323Y-69122319D01*
X115890141Y-69838674D01*
X115842346Y-70013464D01*
X115178896Y-72431165D01*
X115807652Y-72610490D01*
X116160728Y-72708979D01*
X116687242Y-72853085D01*
X117322281Y-73025160D01*
X118000934Y-73207556D01*
X118162621Y-73250781D01*
X118784733Y-73421132D01*
X119322465Y-73576334D01*
X119730253Y-73702631D01*
X119962535Y-73786263D01*
X119995632Y-73804272D01*
X120008013Y-73950353D01*
X119966095Y-74268309D01*
X119884706Y-74693300D01*
X119778673Y-75160486D01*
X119662824Y-75605027D01*
X119551985Y-75962083D01*
X119460984Y-76166814D01*
X119453048Y-76176991D01*
X119312358Y-76177615D01*
X118971508Y-76119971D01*
X118467848Y-76012151D01*
X117838724Y-75862245D01*
X117121483Y-75678344D01*
X116991262Y-75643689D01*
X116262016Y-75454676D01*
X115613882Y-75298281D01*
X115084350Y-75182604D01*
X114710910Y-75115742D01*
X114531052Y-75105794D01*
X114522384Y-75110388D01*
X114459469Y-75258911D01*
X114347433Y-75603298D01*
X114199197Y-76100745D01*
X114027677Y-76708445D01*
X113914910Y-77123301D01*
X113679832Y-77996977D01*
X113497784Y-78660562D01*
X113359193Y-79142487D01*
X113254487Y-79471184D01*
X113174091Y-79675085D01*
X113108431Y-79782623D01*
X113047936Y-79822228D01*
X113005244Y-79824894D01*
X112828804Y-79788444D01*
X112476532Y-79699953D01*
X112009706Y-79575119D01*
X111750971Y-79503557D01*
X111266182Y-79366205D01*
X110882216Y-79254032D01*
X110652965Y-79182958D01*
X110612474Y-79167270D01*
X110634232Y-79046106D01*
X110712072Y-78724721D01*
X110836375Y-78240583D01*
X110997518Y-77631157D01*
X111185883Y-76933910D01*
X111186919Y-76930112D01*
X111380951Y-76215046D01*
X111553706Y-75571147D01*
X111694034Y-75040562D01*
X111790781Y-74665440D01*
X111832213Y-74491224D01*
X111820533Y-74405774D01*
X111733306Y-74320482D01*
X111541657Y-74224450D01*
X111216709Y-74106782D01*
X110729586Y-73956583D01*
X110051412Y-73762954D01*
X109490415Y-73607529D01*
X108761497Y-73404820D01*
X108116434Y-73221381D01*
X107592062Y-73068019D01*
X107225213Y-72955542D01*
X107052724Y-72894758D01*
X107045053Y-72890037D01*
X107050475Y-72755052D01*
X107110669Y-72447231D01*
X107209042Y-72029786D01*
X107328999Y-71565931D01*
X107453947Y-71118878D01*
X107567292Y-70751840D01*
X107652441Y-70528031D01*
X107674166Y-70493472D01*
X107809621Y-70502404D01*
X108145856Y-70569125D01*
X108646151Y-70685040D01*
X109273784Y-70841557D01*
X109992036Y-71030081D01*
X110155456Y-71074155D01*
X110885997Y-71269514D01*
X111531153Y-71437065D01*
X112054846Y-71567849D01*
X112420999Y-71652906D01*
X112593533Y-71683278D01*
X112601950Y-71681702D01*
X112644196Y-71554201D01*
X112739945Y-71225526D01*
X112878787Y-70732678D01*
X113050313Y-70112658D01*
X113244114Y-69402467D01*
X113269608Y-69308380D01*
X113466715Y-68588158D01*
X113644725Y-67952407D01*
X113792859Y-67438446D01*
X113900336Y-67083591D01*
X113956379Y-66925163D01*
X113959165Y-66921094D01*
X114090727Y-66928767D01*
G37*
%TD.AperFunction*%
%TA.AperFunction,EtchedComponent*%
G36*
X93494978Y-72831160D02*
G01*
X93582564Y-72923847D01*
X93660914Y-73127082D01*
X93743454Y-73480247D01*
X93843606Y-74022724D01*
X93889934Y-74291738D01*
X93981363Y-74864840D01*
X94045740Y-75342818D01*
X94077398Y-75677329D01*
X94070670Y-75820027D01*
X94069218Y-75821264D01*
X93928669Y-75857960D01*
X93603123Y-75925498D01*
X93150673Y-76013236D01*
X92629411Y-76110536D01*
X92097428Y-76206758D01*
X91612816Y-76291263D01*
X91233667Y-76353410D01*
X91018074Y-76382561D01*
X90999446Y-76383495D01*
X90937455Y-76269460D01*
X90848275Y-75958299D01*
X90743451Y-75496426D01*
X90634523Y-74930257D01*
X90625867Y-74881222D01*
X90528356Y-74305143D01*
X90453649Y-73824708D01*
X90408697Y-73487679D01*
X90400452Y-73341819D01*
X90401539Y-73339885D01*
X90535996Y-73299865D01*
X90855570Y-73231570D01*
X91301827Y-73145385D01*
X91816334Y-73051696D01*
X92340654Y-72960891D01*
X92816355Y-72883355D01*
X93185000Y-72829475D01*
X93384732Y-72809640D01*
X93494978Y-72831160D01*
G37*
%TD.AperFunction*%
%TA.AperFunction,EtchedComponent*%
G36*
X97482661Y-67518896D02*
G01*
X97576272Y-67722737D01*
X97675156Y-68110055D01*
X97782220Y-68669183D01*
X97867177Y-69189259D01*
X97923556Y-69612822D01*
X97944840Y-69885362D01*
X97936113Y-69956444D01*
X97808493Y-69987634D01*
X97465825Y-70056274D01*
X96935983Y-70157376D01*
X96246840Y-70285951D01*
X95426271Y-70437014D01*
X94502151Y-70605577D01*
X93502354Y-70786652D01*
X92454754Y-70975252D01*
X91387225Y-71166390D01*
X90327643Y-71355079D01*
X89303880Y-71536330D01*
X88343812Y-71705157D01*
X87475313Y-71856572D01*
X86726257Y-71985588D01*
X86124519Y-72087218D01*
X85697972Y-72156474D01*
X85474492Y-72188369D01*
X85453169Y-72189926D01*
X85272181Y-72093242D01*
X85241776Y-72037136D01*
X85196187Y-71847913D01*
X85128788Y-71502434D01*
X85050319Y-71064657D01*
X84971523Y-70598542D01*
X84903139Y-70168047D01*
X84855910Y-69837132D01*
X84840577Y-69669754D01*
X84842742Y-69661080D01*
X84965068Y-69637221D01*
X85302645Y-69575998D01*
X85827760Y-69482261D01*
X86512700Y-69360858D01*
X87329754Y-69216638D01*
X88251210Y-69054450D01*
X89249355Y-68879144D01*
X90296478Y-68695567D01*
X91364866Y-68508570D01*
X92426807Y-68323002D01*
X93454589Y-68143710D01*
X94420501Y-67975545D01*
X95296829Y-67823356D01*
X96055862Y-67691990D01*
X96669888Y-67586299D01*
X97111195Y-67511129D01*
X97352070Y-67471331D01*
X97383765Y-67466672D01*
X97482661Y-67518896D01*
G37*
%TD.AperFunction*%
%TA.AperFunction,EtchedComponent*%
G36*
X132470587Y-57934267D02*
G01*
X132750868Y-58046726D01*
X133135556Y-58222063D01*
X133569854Y-58432975D01*
X133998967Y-58652160D01*
X134368098Y-58852315D01*
X134622450Y-59006138D01*
X134707228Y-59086326D01*
X134707047Y-59086642D01*
X134646355Y-59215038D01*
X134494764Y-59546535D01*
X134262181Y-60059180D01*
X133958516Y-60731018D01*
X133593677Y-61540095D01*
X133177573Y-62464457D01*
X132720113Y-63482150D01*
X132231205Y-64571220D01*
X132159280Y-64731554D01*
X131666306Y-65828467D01*
X131202500Y-66856429D01*
X130777853Y-67793574D01*
X130402362Y-68618037D01*
X130086018Y-69307953D01*
X129838816Y-69841457D01*
X129670750Y-70196684D01*
X129591814Y-70351769D01*
X129588371Y-70356334D01*
X129448431Y-70341123D01*
X129137740Y-70238690D01*
X128708311Y-70067586D01*
X128396602Y-69931250D01*
X127922208Y-69716111D01*
X127540052Y-69541242D01*
X127300473Y-69429764D01*
X127245310Y-69402427D01*
X127288160Y-69290463D01*
X127420368Y-68979234D01*
X127630479Y-68494527D01*
X127907037Y-67862132D01*
X128238586Y-67107837D01*
X128613673Y-66257430D01*
X129020839Y-65336698D01*
X129448631Y-64371432D01*
X129885593Y-63387418D01*
X130320269Y-62410446D01*
X130741204Y-61466303D01*
X131136943Y-60580777D01*
X131496029Y-59779658D01*
X131807007Y-59088733D01*
X132058423Y-58533791D01*
X132238819Y-58140620D01*
X132336742Y-57935008D01*
X132349510Y-57911989D01*
X132470587Y-57934267D01*
G37*
%TD.AperFunction*%
%TA.AperFunction,EtchedComponent*%
G36*
X151241791Y-67968204D02*
G01*
X151207281Y-69540291D01*
X149573544Y-69574695D01*
X147939806Y-69609100D01*
X147939806Y-68002608D01*
X147939806Y-66396117D01*
X149608053Y-66396117D01*
X151276300Y-66396117D01*
X151241791Y-67968204D01*
G37*
%TD.AperFunction*%
%TA.AperFunction,EtchedComponent*%
G36*
X92136639Y-64439491D02*
G01*
X92235189Y-64992309D01*
X92324213Y-65494271D01*
X92389852Y-65867120D01*
X92408128Y-65972281D01*
X92473143Y-66349902D01*
X91199921Y-66569990D01*
X90630229Y-66669067D01*
X90119165Y-66759025D01*
X89736360Y-66827555D01*
X89589520Y-66854732D01*
X89294605Y-66850756D01*
X89196562Y-66750227D01*
X89154160Y-66565681D01*
X89081807Y-66194522D01*
X88990194Y-65693369D01*
X88904471Y-65203423D01*
X88668158Y-63825778D01*
X89728982Y-63632022D01*
X90297895Y-63531353D01*
X90851566Y-63438816D01*
X91288002Y-63371342D01*
X91359986Y-63361294D01*
X91930166Y-63284322D01*
X92136639Y-64439491D01*
G37*
%TD.AperFunction*%
%TA.AperFunction,EtchedComponent*%
G36*
X156077670Y-63128641D02*
G01*
X156077670Y-64423301D01*
X149604369Y-64423301D01*
X143131068Y-64423301D01*
X143131068Y-63128641D01*
X143131068Y-61833981D01*
X149604369Y-61833981D01*
X156077670Y-61833981D01*
X156077670Y-63128641D01*
G37*
%TD.AperFunction*%
%TA.AperFunction,EtchedComponent*%
G36*
X151268932Y-58319903D02*
G01*
X151268932Y-59861165D01*
X149604369Y-59861165D01*
X147939806Y-59861165D01*
X147939806Y-58319903D01*
X147939806Y-56778641D01*
X149604369Y-56778641D01*
X151268932Y-56778641D01*
X151268932Y-58319903D01*
G37*
%TD.AperFunction*%
%TA.AperFunction,EtchedComponent*%
G36*
X108714381Y-46437845D02*
G01*
X109006972Y-46609848D01*
X109457991Y-46885816D01*
X110043408Y-47250326D01*
X110739193Y-47687954D01*
X111521315Y-48183275D01*
X112365745Y-48720867D01*
X113248450Y-49285305D01*
X114145402Y-49861164D01*
X115032570Y-50433022D01*
X115885923Y-50985455D01*
X116681430Y-51503037D01*
X117395062Y-51970347D01*
X118002789Y-52371959D01*
X118480578Y-52692449D01*
X118804401Y-52916394D01*
X118941947Y-53020478D01*
X118898036Y-53131885D01*
X118745159Y-53391746D01*
X118518201Y-53748216D01*
X118252047Y-54149449D01*
X117981580Y-54543602D01*
X117741685Y-54878827D01*
X117567247Y-55103281D01*
X117496783Y-55168285D01*
X117382135Y-55101086D01*
X117081700Y-54911219D01*
X116615585Y-54611742D01*
X116003896Y-54215708D01*
X115266740Y-53736173D01*
X114424224Y-53186192D01*
X113496455Y-52578819D01*
X112503539Y-51927110D01*
X112393141Y-51854549D01*
X111394041Y-51197326D01*
X110458245Y-50580864D01*
X109605863Y-50018471D01*
X108857004Y-49523458D01*
X108231777Y-49109134D01*
X107750292Y-48788809D01*
X107432658Y-48575792D01*
X107298985Y-48483392D01*
X107296452Y-48481242D01*
X107336321Y-48364370D01*
X107481151Y-48097035D01*
X107697485Y-47732864D01*
X107951861Y-47325482D01*
X108210821Y-46928515D01*
X108440905Y-46595589D01*
X108604249Y-46385232D01*
X108714381Y-46437845D01*
G37*
%TD.AperFunction*%
%TA.AperFunction,EtchedComponent*%
G36*
X85704313Y-39163258D02*
G01*
X85737364Y-39197894D01*
X85763344Y-39354131D01*
X85813632Y-39718798D01*
X85883524Y-40255436D01*
X85968320Y-40927587D01*
X86063317Y-41698791D01*
X86116365Y-42136651D01*
X86229426Y-43054973D01*
X86322356Y-43755154D01*
X86400323Y-44264354D01*
X86468496Y-44609732D01*
X86532044Y-44818448D01*
X86596136Y-44917661D01*
X86649220Y-44936521D01*
X86824372Y-44919728D01*
X87205888Y-44875634D01*
X87755610Y-44808903D01*
X88435379Y-44724197D01*
X89207038Y-44626179D01*
X89556796Y-44581204D01*
X90346896Y-44483012D01*
X91053137Y-44402445D01*
X91639520Y-44343020D01*
X92070047Y-44308251D01*
X92308720Y-44301654D01*
X92344130Y-44309003D01*
X92387730Y-44453798D01*
X92445616Y-44774332D01*
X92509538Y-45205255D01*
X92571251Y-45681217D01*
X92622506Y-46136868D01*
X92655055Y-46506856D01*
X92660651Y-46725833D01*
X92653080Y-46756952D01*
X92524483Y-46783285D01*
X92185621Y-46835139D01*
X91670962Y-46907730D01*
X91014975Y-46996273D01*
X90252127Y-47095981D01*
X89741748Y-47161165D01*
X88930206Y-47265288D01*
X88204342Y-47361050D01*
X87598587Y-47443691D01*
X87147374Y-47508453D01*
X86885137Y-47550577D01*
X86832564Y-47563229D01*
X86836728Y-47691071D01*
X86869267Y-48029051D01*
X86926278Y-48542828D01*
X87003855Y-49198058D01*
X87098093Y-49960402D01*
X87164059Y-50478659D01*
X87266557Y-51291095D01*
X87354429Y-52018363D01*
X87423835Y-52626036D01*
X87470933Y-53079689D01*
X87491883Y-53344893D01*
X87489964Y-53399680D01*
X87345900Y-53443190D01*
X87026001Y-53501484D01*
X86599835Y-53565075D01*
X86136974Y-53624479D01*
X85706986Y-53670210D01*
X85379442Y-53692781D01*
X85333738Y-53693674D01*
X85040903Y-53657596D01*
X84932955Y-53526126D01*
X84928808Y-53480340D01*
X84910284Y-53243434D01*
X84863798Y-52825325D01*
X84795264Y-52268707D01*
X84710594Y-51616275D01*
X84615702Y-50910725D01*
X84516501Y-50194752D01*
X84418905Y-49511051D01*
X84328827Y-48902318D01*
X84252181Y-48411248D01*
X84194880Y-48080535D01*
X84163299Y-47953266D01*
X84025650Y-47947558D01*
X83678539Y-47970636D01*
X83156995Y-48019081D01*
X82496046Y-48089471D01*
X81730719Y-48178386D01*
X81238282Y-48238917D01*
X80429447Y-48337228D01*
X79706064Y-48419223D01*
X79102683Y-48481472D01*
X78653852Y-48520546D01*
X78394118Y-48533017D01*
X78343369Y-48526226D01*
X78299970Y-48360346D01*
X78245468Y-48025251D01*
X78187227Y-47586596D01*
X78132612Y-47110036D01*
X78088987Y-46661226D01*
X78063717Y-46305820D01*
X78064164Y-46109473D01*
X78070280Y-46091533D01*
X78198686Y-46063885D01*
X78530069Y-46010761D01*
X79022773Y-45937796D01*
X79635144Y-45850623D01*
X80325526Y-45754874D01*
X81052263Y-45656183D01*
X81773702Y-45560184D01*
X82448186Y-45472510D01*
X83034060Y-45398793D01*
X83489669Y-45344668D01*
X83773358Y-45315768D01*
X83830688Y-45312513D01*
X83835473Y-45195593D01*
X83811844Y-44867742D01*
X83763193Y-44362574D01*
X83692915Y-43713700D01*
X83604403Y-42954732D01*
X83537569Y-42409220D01*
X83438618Y-41591232D01*
X83355716Y-40856723D01*
X83292287Y-40240353D01*
X83251756Y-39776784D01*
X83237549Y-39500676D01*
X83243977Y-39438224D01*
X83388414Y-39394159D01*
X83721123Y-39331425D01*
X84185437Y-39259969D01*
X84504403Y-39216947D01*
X85114623Y-39149001D01*
X85506813Y-39131225D01*
X85704313Y-39163258D01*
G37*
%TD.AperFunction*%
%TA.AperFunction,EtchedComponent*%
G36*
X111586258Y-42173435D02*
G01*
X111885521Y-42358524D01*
X112341611Y-42647910D01*
X112930158Y-43025633D01*
X113626794Y-43475733D01*
X114407148Y-43982248D01*
X115246851Y-44529219D01*
X116121534Y-45100686D01*
X117006827Y-45680687D01*
X117878362Y-46253263D01*
X118711768Y-46802454D01*
X119482676Y-47312299D01*
X120166717Y-47766837D01*
X120739521Y-48150109D01*
X121176719Y-48446155D01*
X121453941Y-48639013D01*
X121542429Y-48706544D01*
X121606217Y-48812302D01*
X121588564Y-48967883D01*
X121471855Y-49215981D01*
X121238475Y-49599291D01*
X121061930Y-49871143D01*
X120773948Y-50302732D01*
X120534004Y-50649232D01*
X120375225Y-50863479D01*
X120333093Y-50908720D01*
X120218469Y-50851142D01*
X119918126Y-50670436D01*
X119452101Y-50379411D01*
X118840429Y-49990875D01*
X118103145Y-49517634D01*
X117260283Y-48972499D01*
X116331878Y-48368275D01*
X115337967Y-47717772D01*
X115203398Y-47629428D01*
X114202187Y-46970305D01*
X113265330Y-46350452D01*
X112412775Y-45783286D01*
X111664470Y-45282224D01*
X111040363Y-44860684D01*
X110560400Y-44532082D01*
X110244530Y-44309836D01*
X110112700Y-44207361D01*
X110110162Y-44203661D01*
X110157753Y-44062794D01*
X110312498Y-43777576D01*
X110538418Y-43403510D01*
X110799537Y-42996102D01*
X111059875Y-42610853D01*
X111283456Y-42303269D01*
X111434302Y-42128852D01*
X111468192Y-42108602D01*
X111586258Y-42173435D01*
G37*
%TD.AperFunction*%
%TA.AperFunction,EtchedComponent*%
G36*
X168096173Y-39288788D02*
G01*
X168601841Y-39677297D01*
X168925649Y-39970820D01*
X169054482Y-40156889D01*
X169050356Y-40195592D01*
X168940987Y-40357038D01*
X168707432Y-40686437D01*
X168366709Y-41160564D01*
X167935835Y-41756193D01*
X167431826Y-42450099D01*
X166871699Y-43219055D01*
X166272473Y-44039838D01*
X165651164Y-44889221D01*
X165024789Y-45743978D01*
X164410365Y-46580885D01*
X163824909Y-47376715D01*
X163285439Y-48108243D01*
X162808972Y-48752244D01*
X162412525Y-49285492D01*
X162113114Y-49684761D01*
X161927758Y-49926827D01*
X161872815Y-49991724D01*
X161753864Y-49923595D01*
X161481582Y-49739177D01*
X161100565Y-49469277D01*
X160788596Y-49242728D01*
X159766028Y-48493093D01*
X160059298Y-48104556D01*
X160200249Y-47914154D01*
X160466928Y-47550438D01*
X160840190Y-47039651D01*
X161300888Y-46408038D01*
X161829877Y-45681842D01*
X162408010Y-44887308D01*
X162861439Y-44263592D01*
X163495460Y-43391649D01*
X164122512Y-42530263D01*
X164717875Y-41713319D01*
X165256835Y-40974699D01*
X165714674Y-40348286D01*
X166066674Y-39867963D01*
X166212283Y-39670096D01*
X167054257Y-38529026D01*
X168096173Y-39288788D01*
G37*
%TD.AperFunction*%
%TA.AperFunction,EtchedComponent*%
G36*
X135514723Y-35908368D02*
G01*
X135715834Y-36149479D01*
X135986285Y-36493456D01*
X136058726Y-36588107D01*
X136346934Y-36965190D01*
X136741614Y-37479565D01*
X137198365Y-38073463D01*
X137672785Y-38689114D01*
X137856220Y-38926795D01*
X139066983Y-40494853D01*
X141376452Y-38714647D01*
X142029077Y-38213733D01*
X142616403Y-37767030D01*
X143110500Y-37395449D01*
X143483436Y-37119900D01*
X143707278Y-36961292D01*
X143759336Y-36930813D01*
X143856651Y-37018499D01*
X144058274Y-37251912D01*
X144326027Y-37581779D01*
X144621731Y-37958825D01*
X144907208Y-38333777D01*
X145144279Y-38657359D01*
X145294764Y-38880298D01*
X145326612Y-38953566D01*
X145169343Y-39069872D01*
X144857160Y-39305779D01*
X144424832Y-39634631D01*
X143907132Y-40029774D01*
X143338831Y-40464550D01*
X142754700Y-40912306D01*
X142189510Y-41346384D01*
X141678031Y-41740130D01*
X141255037Y-42066888D01*
X140955296Y-42300002D01*
X140813581Y-42412817D01*
X140809585Y-42416324D01*
X140780337Y-42498699D01*
X140825220Y-42649020D01*
X140958875Y-42889863D01*
X141195942Y-43243806D01*
X141551061Y-43733422D01*
X142038874Y-44381289D01*
X142336478Y-44770790D01*
X142830145Y-45414618D01*
X143276978Y-45997048D01*
X143653928Y-46488064D01*
X143937951Y-46857653D01*
X144106001Y-47075800D01*
X144138571Y-47117738D01*
X144111082Y-47258388D01*
X143886033Y-47509213D01*
X143457036Y-47876924D01*
X143289833Y-48009298D01*
X142873758Y-48327976D01*
X142529446Y-48579902D01*
X142302963Y-48732011D01*
X142241560Y-48761706D01*
X142144809Y-48668672D01*
X141921112Y-48406356D01*
X141592448Y-48002031D01*
X141180794Y-47482968D01*
X140708128Y-46876440D01*
X140405246Y-46483010D01*
X139906390Y-45837004D01*
X139455185Y-45261994D01*
X139073657Y-44785291D01*
X138783829Y-44434209D01*
X138607726Y-44236061D01*
X138565880Y-44201942D01*
X138446122Y-44273929D01*
X138160074Y-44475793D01*
X137736392Y-44786391D01*
X137203735Y-45184579D01*
X136590761Y-45649213D01*
X136226214Y-45928156D01*
X135581154Y-46420524D01*
X135000661Y-46858197D01*
X134513358Y-47220037D01*
X134147866Y-47484903D01*
X133932811Y-47631657D01*
X133888870Y-47654369D01*
X133780572Y-47562936D01*
X133559946Y-47316539D01*
X133263245Y-46957029D01*
X133044168Y-46679165D01*
X132288247Y-45703961D01*
X134568284Y-43950238D01*
X135217327Y-43448961D01*
X135799530Y-42995385D01*
X136286762Y-42611744D01*
X136650897Y-42320275D01*
X136863804Y-42143213D01*
X136907082Y-42101435D01*
X136853686Y-41978890D01*
X136670194Y-41693700D01*
X136378667Y-41277284D01*
X136001162Y-40761064D01*
X135559739Y-40176460D01*
X135511894Y-40114100D01*
X135034425Y-39492244D01*
X134586223Y-38907674D01*
X134197728Y-38400156D01*
X133899381Y-38009457D01*
X133724056Y-37778574D01*
X133390171Y-37335303D01*
X134381159Y-36576389D01*
X134800805Y-36258554D01*
X135142840Y-36006156D01*
X135363535Y-35851075D01*
X135422071Y-35817476D01*
X135514723Y-35908368D01*
G37*
%TD.AperFunction*%
%TA.AperFunction,EtchedComponent*%
G36*
X162993177Y-35677354D02*
G01*
X163275663Y-35826697D01*
X163664216Y-36074123D01*
X164009383Y-36316542D01*
X165062964Y-37084810D01*
X164417165Y-37961580D01*
X164197374Y-38261499D01*
X163853488Y-38732705D01*
X163406149Y-39346825D01*
X162875999Y-40075487D01*
X162283680Y-40890319D01*
X161649834Y-41762949D01*
X160995102Y-42665004D01*
X160953511Y-42722330D01*
X160321773Y-43591572D01*
X159729363Y-44403808D01*
X159193241Y-45136000D01*
X158730367Y-45765111D01*
X158357702Y-46268102D01*
X158092204Y-46621935D01*
X157950835Y-46803573D01*
X157938944Y-46817215D01*
X157836829Y-46902619D01*
X157715778Y-46917188D01*
X157533131Y-46842202D01*
X157246228Y-46658937D01*
X156812407Y-46348672D01*
X156723520Y-46283807D01*
X156233671Y-45906062D01*
X155916426Y-45617214D01*
X155788335Y-45433059D01*
X155792118Y-45394747D01*
X155882676Y-45264377D01*
X156100443Y-44959404D01*
X156428109Y-44503685D01*
X156848365Y-43921074D01*
X157343901Y-43235428D01*
X157897407Y-42470601D01*
X158491572Y-41650449D01*
X159109088Y-40798826D01*
X159732644Y-39939590D01*
X160344930Y-39096594D01*
X160928637Y-38293694D01*
X161466454Y-37554746D01*
X161941072Y-36903604D01*
X162335181Y-36364125D01*
X162631471Y-35960163D01*
X162812632Y-35715574D01*
X162861595Y-35652050D01*
X162993177Y-35677354D01*
G37*
%TD.AperFunction*%
%TD*%
D10*
%TO.P,,1,1*%
%TO.N,N/C*%
X154200000Y-39680000D03*
%TD*%
%TO.P,,1,1*%
%TO.N,N/C*%
X154200000Y-70680000D03*
%TD*%
%TO.P,,1,1*%
%TO.N,N/C*%
X85000000Y-130830000D03*
%TD*%
%TO.P,,1,1*%
%TO.N,N/C*%
X118600000Y-164930000D03*
%TD*%
%TO.P,,1,1*%
%TO.N,N/C*%
X84000000Y-39680000D03*
%TD*%
%TO.P,,1,1*%
%TO.N,N/C*%
X84000000Y-70680000D03*
%TD*%
%TO.P,,1,1*%
%TO.N,N/C*%
X153200000Y-130830000D03*
%TD*%
M02*
