%TF.GenerationSoftware,KiCad,Pcbnew,7.0.7*%
%TF.CreationDate,2023-12-10T01:33:23+02:00*%
%TF.ProjectId,calc_plate,63616c63-5f70-46c6-9174-652e6b696361,rev?*%
%TF.SameCoordinates,Original*%
%TF.FileFunction,Legend,Bot*%
%TF.FilePolarity,Positive*%
%FSLAX46Y46*%
G04 Gerber Fmt 4.6, Leading zero omitted, Abs format (unit mm)*
G04 Created by KiCad (PCBNEW 7.0.7) date 2023-12-10 01:33:23*
%MOMM*%
%LPD*%
G01*
G04 APERTURE LIST*
G04 APERTURE END LIST*
%TO.C,G\u002A\u002A\u002A*%
G36*
X91080733Y-91848345D02*
G01*
X91081717Y-91849129D01*
X91114233Y-91896694D01*
X91149596Y-91981840D01*
X91184936Y-92092488D01*
X91217378Y-92216554D01*
X91244050Y-92341958D01*
X91262080Y-92456616D01*
X91268596Y-92548448D01*
X91260724Y-92605371D01*
X91253072Y-92624147D01*
X91250369Y-92671362D01*
X91284578Y-92719980D01*
X91290758Y-92727432D01*
X91324581Y-92794455D01*
X91361421Y-92907460D01*
X91400089Y-93062923D01*
X91424469Y-93171197D01*
X91448167Y-93274527D01*
X91466310Y-93351537D01*
X91476240Y-93390780D01*
X91474813Y-93412750D01*
X91450721Y-93468859D01*
X91406804Y-93535671D01*
X91325643Y-93641270D01*
X90847590Y-93641270D01*
X90824197Y-93641267D01*
X90662861Y-93640885D01*
X90543461Y-93639327D01*
X90458475Y-93635835D01*
X90400377Y-93629653D01*
X90361646Y-93620024D01*
X90334759Y-93606191D01*
X90312191Y-93587396D01*
X90298505Y-93573917D01*
X90270581Y-93529801D01*
X90279956Y-93486602D01*
X90282348Y-93482372D01*
X90303621Y-93460402D01*
X90342192Y-93447427D01*
X90409074Y-93441253D01*
X90515281Y-93439683D01*
X90561560Y-93440017D01*
X90662010Y-93445002D01*
X90724191Y-93457032D01*
X90756865Y-93477480D01*
X90778529Y-93497615D01*
X90820250Y-93515278D01*
X90836765Y-93510938D01*
X90866771Y-93477480D01*
X90876014Y-93464394D01*
X90910680Y-93449619D01*
X90977433Y-93441905D01*
X91085351Y-93439683D01*
X91131284Y-93439545D01*
X91214535Y-93437301D01*
X91260291Y-93430644D01*
X91277749Y-93417447D01*
X91276107Y-93395585D01*
X91265985Y-93356079D01*
X91247521Y-93278065D01*
X91223504Y-93173410D01*
X91196593Y-93053545D01*
X91179935Y-92977891D01*
X91158570Y-92874540D01*
X91147743Y-92805532D01*
X91146768Y-92761416D01*
X91154958Y-92732739D01*
X91171625Y-92710048D01*
X91194909Y-92679893D01*
X91191729Y-92652998D01*
X91151001Y-92617416D01*
X91149291Y-92616096D01*
X91121940Y-92587772D01*
X91097843Y-92544063D01*
X91073950Y-92476415D01*
X91047208Y-92376278D01*
X91014565Y-92235097D01*
X90987835Y-92113202D01*
X90967782Y-92013702D01*
X90957823Y-91946599D01*
X90957179Y-91903048D01*
X90965069Y-91874204D01*
X90980713Y-91851223D01*
X91009511Y-91820964D01*
X91036875Y-91818386D01*
X91080733Y-91848345D01*
G37*
G36*
X86443599Y-91824663D02*
G01*
X86477510Y-91846052D01*
X86506332Y-91876220D01*
X86530849Y-91922179D01*
X86554506Y-91992355D01*
X86580748Y-92095176D01*
X86613020Y-92239069D01*
X86613388Y-92240761D01*
X86642243Y-92378056D01*
X86659632Y-92475280D01*
X86666462Y-92541121D01*
X86663640Y-92584271D01*
X86652072Y-92613417D01*
X86639599Y-92636679D01*
X86638987Y-92674542D01*
X86673888Y-92720640D01*
X86685759Y-92733734D01*
X86707147Y-92762416D01*
X86725810Y-92799368D01*
X86744385Y-92852796D01*
X86765506Y-92930907D01*
X86791811Y-93041905D01*
X86825935Y-93193998D01*
X86880446Y-93439683D01*
X87068252Y-93439683D01*
X87162087Y-93442352D01*
X87257415Y-93455804D01*
X87320858Y-93482141D01*
X87362321Y-93507105D01*
X87389025Y-93509356D01*
X87409418Y-93482141D01*
X87425278Y-93464051D01*
X87462667Y-93449182D01*
X87529107Y-93441725D01*
X87635212Y-93439683D01*
X87678274Y-93439560D01*
X87761970Y-93437365D01*
X87807989Y-93430742D01*
X87825563Y-93417535D01*
X87823924Y-93395585D01*
X87813802Y-93356079D01*
X87795338Y-93278065D01*
X87771321Y-93173410D01*
X87744410Y-93053545D01*
X87727752Y-92977891D01*
X87706387Y-92874540D01*
X87695561Y-92805532D01*
X87694586Y-92761416D01*
X87702775Y-92732739D01*
X87719443Y-92710048D01*
X87742727Y-92679893D01*
X87739546Y-92652998D01*
X87698819Y-92617416D01*
X87697109Y-92616096D01*
X87669757Y-92587772D01*
X87645661Y-92544063D01*
X87621767Y-92476415D01*
X87595025Y-92376278D01*
X87562382Y-92235097D01*
X87535652Y-92113202D01*
X87515599Y-92013702D01*
X87505641Y-91946599D01*
X87504996Y-91903048D01*
X87512886Y-91874204D01*
X87528531Y-91851223D01*
X87557328Y-91820964D01*
X87584692Y-91818386D01*
X87628550Y-91848345D01*
X87629535Y-91849129D01*
X87662050Y-91896694D01*
X87697414Y-91981840D01*
X87732753Y-92092488D01*
X87765195Y-92216554D01*
X87791868Y-92341958D01*
X87809898Y-92456616D01*
X87816413Y-92548448D01*
X87808541Y-92605371D01*
X87800889Y-92624147D01*
X87798187Y-92671362D01*
X87832395Y-92719980D01*
X87838576Y-92727432D01*
X87872399Y-92794455D01*
X87909238Y-92907460D01*
X87947907Y-93062923D01*
X87972286Y-93171197D01*
X87995985Y-93274527D01*
X88014128Y-93351537D01*
X88024058Y-93390780D01*
X88022631Y-93412750D01*
X87998539Y-93468859D01*
X87954621Y-93535671D01*
X87873461Y-93641270D01*
X87393784Y-93640752D01*
X86914107Y-93640233D01*
X86794293Y-93533658D01*
X86777857Y-93519005D01*
X86733737Y-93477409D01*
X86701592Y-93438247D01*
X86676822Y-93391197D01*
X86654826Y-93325938D01*
X86631002Y-93232148D01*
X86600749Y-93099504D01*
X86587712Y-93041116D01*
X86562428Y-92921747D01*
X86548101Y-92838769D01*
X86543811Y-92783192D01*
X86548635Y-92746027D01*
X86561651Y-92718285D01*
X86578673Y-92687039D01*
X86576298Y-92652662D01*
X86538353Y-92610223D01*
X86510695Y-92569012D01*
X86476034Y-92485461D01*
X86441564Y-92375547D01*
X86410062Y-92251579D01*
X86384308Y-92125867D01*
X86367080Y-92010720D01*
X86361157Y-91918447D01*
X86369316Y-91861357D01*
X86377054Y-91845494D01*
X86404957Y-91815350D01*
X86443599Y-91824663D01*
G37*
G36*
X85864815Y-91813526D02*
G01*
X85913192Y-91858845D01*
X85931410Y-91884393D01*
X85964303Y-91959862D01*
X86000124Y-92078236D01*
X86040063Y-92243120D01*
X86063864Y-92350798D01*
X86084699Y-92452532D01*
X86095241Y-92521087D01*
X86096276Y-92565380D01*
X86088589Y-92594325D01*
X86072966Y-92616838D01*
X86050579Y-92647035D01*
X86053207Y-92675087D01*
X86092847Y-92712124D01*
X86108409Y-92726904D01*
X86135799Y-92768127D01*
X86162052Y-92833082D01*
X86190348Y-92930420D01*
X86223864Y-93068798D01*
X86225565Y-93076205D01*
X86252540Y-93196447D01*
X86274723Y-93300248D01*
X86289858Y-93376737D01*
X86295690Y-93415042D01*
X86292213Y-93431507D01*
X86264964Y-93484205D01*
X86219316Y-93547334D01*
X86141886Y-93641270D01*
X85671250Y-93640710D01*
X85550375Y-93640379D01*
X85413624Y-93638958D01*
X85314280Y-93635783D01*
X85244676Y-93630145D01*
X85197142Y-93621337D01*
X85164013Y-93608649D01*
X85137619Y-93591371D01*
X85113646Y-93571380D01*
X85090259Y-93535623D01*
X85102477Y-93497437D01*
X85114460Y-93485307D01*
X85172207Y-93461666D01*
X85258703Y-93446457D01*
X85359055Y-93440199D01*
X85458371Y-93443410D01*
X85541758Y-93456610D01*
X85594324Y-93480316D01*
X85618342Y-93500577D01*
X85649572Y-93509059D01*
X85687668Y-93481386D01*
X85730405Y-93457487D01*
X85802894Y-93443804D01*
X85914454Y-93439683D01*
X85925018Y-93439650D01*
X86011213Y-93436730D01*
X86072299Y-93430002D01*
X86095640Y-93420784D01*
X86095600Y-93419717D01*
X86089660Y-93384604D01*
X86075084Y-93311363D01*
X86053919Y-93210018D01*
X86028212Y-93090594D01*
X86002144Y-92967103D01*
X85984302Y-92868663D01*
X85977232Y-92802086D01*
X85980036Y-92758453D01*
X85991816Y-92728844D01*
X86005079Y-92703449D01*
X86003921Y-92666103D01*
X85967767Y-92619245D01*
X85966416Y-92617765D01*
X85934191Y-92562345D01*
X85899779Y-92472070D01*
X85865837Y-92358726D01*
X85835024Y-92234098D01*
X85809996Y-92109974D01*
X85793413Y-91998139D01*
X85787931Y-91910380D01*
X85796209Y-91858482D01*
X85804829Y-91842872D01*
X85833277Y-91808216D01*
X85864815Y-91813526D01*
G37*
G36*
X81118266Y-93412750D02*
G01*
X81094174Y-93468859D01*
X81050256Y-93535671D01*
X80969096Y-93641270D01*
X80489419Y-93640302D01*
X80009742Y-93639334D01*
X79889908Y-93533208D01*
X79770075Y-93427083D01*
X79698826Y-93099504D01*
X79689842Y-93057945D01*
X79664055Y-92932830D01*
X79649178Y-92845341D01*
X79644328Y-92786579D01*
X79648623Y-92747643D01*
X79661182Y-92719632D01*
X79677454Y-92688940D01*
X79673950Y-92654517D01*
X79635032Y-92611204D01*
X79619083Y-92593652D01*
X79592127Y-92547725D01*
X79566115Y-92477247D01*
X79538196Y-92373795D01*
X79505514Y-92228947D01*
X79439741Y-91921478D01*
X79643884Y-91921478D01*
X79643923Y-91922545D01*
X79649863Y-91957658D01*
X79664439Y-92030899D01*
X79685604Y-92132244D01*
X79711311Y-92251668D01*
X79737380Y-92375159D01*
X79755221Y-92473599D01*
X79762291Y-92540176D01*
X79759487Y-92583809D01*
X79747707Y-92613417D01*
X79735234Y-92636679D01*
X79734622Y-92674542D01*
X79769523Y-92720640D01*
X79781394Y-92733734D01*
X79802782Y-92762416D01*
X79821445Y-92799368D01*
X79840020Y-92852796D01*
X79861141Y-92930907D01*
X79887446Y-93041905D01*
X79921570Y-93193998D01*
X79976081Y-93439683D01*
X80169300Y-93440484D01*
X80239256Y-93442144D01*
X80348774Y-93454264D01*
X80411433Y-93478282D01*
X80453131Y-93505960D01*
X80488062Y-93510414D01*
X80510223Y-93477480D01*
X80519166Y-93464651D01*
X80553548Y-93449726D01*
X80619991Y-93441930D01*
X80727586Y-93439683D01*
X80810214Y-93439329D01*
X80877399Y-93436340D01*
X80911251Y-93427856D01*
X80921316Y-93411023D01*
X80917137Y-93382986D01*
X80895648Y-93291079D01*
X80856575Y-93120540D01*
X80828350Y-92989851D01*
X80810041Y-92892783D01*
X80800715Y-92823105D01*
X80799440Y-92774589D01*
X80805284Y-92741006D01*
X80817314Y-92716125D01*
X80835665Y-92684708D01*
X80834971Y-92653302D01*
X80795121Y-92621188D01*
X80789846Y-92617535D01*
X80764756Y-92591988D01*
X80742460Y-92550016D01*
X80720070Y-92483319D01*
X80694700Y-92383593D01*
X80663464Y-92242539D01*
X80590853Y-91902579D01*
X80398190Y-91902579D01*
X80345826Y-91902068D01*
X80252779Y-91895974D01*
X80190105Y-91880881D01*
X80143963Y-91854153D01*
X80143135Y-91853503D01*
X80099519Y-91822163D01*
X80075628Y-91822380D01*
X80052156Y-91854153D01*
X80032705Y-91876594D01*
X79996318Y-91892814D01*
X79933829Y-91900584D01*
X79833139Y-91902579D01*
X79815729Y-91902660D01*
X79728668Y-91905753D01*
X79667265Y-91912438D01*
X79643884Y-91921478D01*
X79439741Y-91921478D01*
X79435751Y-91902828D01*
X79505687Y-91801910D01*
X79575624Y-91700992D01*
X80061181Y-91700992D01*
X80546739Y-91700992D01*
X80656217Y-91792031D01*
X80701314Y-91830846D01*
X80754310Y-91880598D01*
X80781337Y-91911723D01*
X80781757Y-91912552D01*
X80793496Y-91949826D01*
X80812961Y-92025197D01*
X80837542Y-92128132D01*
X80864632Y-92248098D01*
X80882930Y-92333308D01*
X80904560Y-92446180D01*
X80914582Y-92524075D01*
X80913927Y-92575647D01*
X80903527Y-92609552D01*
X80894343Y-92629016D01*
X80892419Y-92671311D01*
X80926942Y-92718822D01*
X80930406Y-92722760D01*
X80965541Y-92788139D01*
X81003432Y-92902054D01*
X81043542Y-93062923D01*
X81067921Y-93171197D01*
X81091620Y-93274527D01*
X81109763Y-93351537D01*
X81119693Y-93390780D01*
X81118378Y-93411023D01*
X81118266Y-93412750D01*
G37*
G36*
X77204034Y-91792031D02*
G01*
X77249132Y-91830846D01*
X77302127Y-91880598D01*
X77329154Y-91911723D01*
X77329713Y-91912848D01*
X77341606Y-91950936D01*
X77361196Y-92026977D01*
X77385892Y-92130502D01*
X77413103Y-92251038D01*
X77481410Y-92561700D01*
X77412933Y-92660512D01*
X77344455Y-92759325D01*
X77145408Y-92759325D01*
X77027734Y-92755514D01*
X76940275Y-92741948D01*
X76881562Y-92716867D01*
X76840099Y-92691903D01*
X76813395Y-92689652D01*
X76793002Y-92716867D01*
X76777142Y-92734957D01*
X76739753Y-92749826D01*
X76673313Y-92757283D01*
X76567208Y-92759325D01*
X76524230Y-92759447D01*
X76440494Y-92761642D01*
X76394438Y-92768264D01*
X76376826Y-92781472D01*
X76378424Y-92803423D01*
X76379591Y-92807531D01*
X76391005Y-92853420D01*
X76409414Y-92931738D01*
X76432193Y-93030839D01*
X76456718Y-93139077D01*
X76480362Y-93244806D01*
X76500500Y-93336378D01*
X76514509Y-93402148D01*
X76519762Y-93430470D01*
X76520653Y-93431363D01*
X76551967Y-93435587D01*
X76619058Y-93438559D01*
X76709636Y-93439683D01*
X76808105Y-93442568D01*
X76901832Y-93456054D01*
X76964310Y-93482141D01*
X77005774Y-93507105D01*
X77032478Y-93509356D01*
X77052870Y-93482141D01*
X77061712Y-93472318D01*
X77114575Y-93450997D01*
X77197360Y-93439003D01*
X77295604Y-93436295D01*
X77394850Y-93442834D01*
X77480635Y-93458580D01*
X77538499Y-93483491D01*
X77569821Y-93509588D01*
X77581812Y-93540345D01*
X77559240Y-93584285D01*
X77553013Y-93593515D01*
X77537555Y-93610901D01*
X77514772Y-93623429D01*
X77477486Y-93631874D01*
X77418517Y-93637010D01*
X77330687Y-93639611D01*
X77206818Y-93640450D01*
X77039731Y-93640302D01*
X76557559Y-93639334D01*
X76438527Y-93533208D01*
X76422131Y-93518557D01*
X76378317Y-93477142D01*
X76346434Y-93438119D01*
X76321928Y-93391164D01*
X76300242Y-93325958D01*
X76276821Y-93232178D01*
X76247111Y-93099504D01*
X76174726Y-92771925D01*
X76250722Y-92664831D01*
X76326718Y-92557738D01*
X76516110Y-92557738D01*
X76606816Y-92559320D01*
X76678313Y-92567073D01*
X76726686Y-92584340D01*
X76766566Y-92614435D01*
X76827630Y-92671131D01*
X76865758Y-92614435D01*
X76868605Y-92610279D01*
X76894433Y-92582432D01*
X76931722Y-92566553D01*
X76993434Y-92559402D01*
X77092531Y-92557738D01*
X77155074Y-92557538D01*
X77225477Y-92554951D01*
X77261164Y-92546792D01*
X77271959Y-92529882D01*
X77267683Y-92501042D01*
X77260332Y-92468761D01*
X77243504Y-92392537D01*
X77221133Y-92289796D01*
X77196044Y-92173462D01*
X77137899Y-91902579D01*
X76945621Y-91902579D01*
X76894063Y-91902083D01*
X76800814Y-91896009D01*
X76738006Y-91880914D01*
X76691780Y-91854153D01*
X76690953Y-91853503D01*
X76647337Y-91822163D01*
X76623445Y-91822380D01*
X76599974Y-91854153D01*
X76597641Y-91857453D01*
X76550313Y-91884768D01*
X76470181Y-91901089D01*
X76372159Y-91906372D01*
X76271161Y-91900573D01*
X76182102Y-91883649D01*
X76119894Y-91855557D01*
X76094794Y-91834563D01*
X76074676Y-91799360D01*
X76089283Y-91755323D01*
X76093759Y-91747310D01*
X76107000Y-91730600D01*
X76128550Y-91718483D01*
X76165426Y-91710221D01*
X76224639Y-91705078D01*
X76313207Y-91702317D01*
X76438142Y-91701200D01*
X76606458Y-91700992D01*
X77094557Y-91700992D01*
X77204034Y-91792031D01*
G37*
G36*
X94533445Y-91848744D02*
G01*
X94558762Y-91874547D01*
X94583028Y-91917908D01*
X94606995Y-91985611D01*
X94633611Y-92086097D01*
X94665826Y-92227808D01*
X94684826Y-92316995D01*
X94708027Y-92438038D01*
X94719516Y-92522460D01*
X94720190Y-92577901D01*
X94710946Y-92612001D01*
X94703383Y-92627969D01*
X94701285Y-92670843D01*
X94736181Y-92719364D01*
X94768416Y-92772303D01*
X94805101Y-92873419D01*
X94840574Y-93013068D01*
X94851829Y-93064734D01*
X94876746Y-93178790D01*
X94898394Y-93277471D01*
X94913062Y-93343839D01*
X94914580Y-93350859D01*
X94920515Y-93430534D01*
X94896304Y-93490569D01*
X94858771Y-93544155D01*
X94798209Y-93487261D01*
X94780527Y-93469781D01*
X94758485Y-93441985D01*
X94739288Y-93405021D01*
X94720264Y-93350865D01*
X94698737Y-93271493D01*
X94672033Y-93158883D01*
X94637480Y-93005010D01*
X94582886Y-92759325D01*
X94389667Y-92758765D01*
X94373390Y-92758668D01*
X94262779Y-92753639D01*
X94188781Y-92739573D01*
X94139484Y-92714357D01*
X94107875Y-92687506D01*
X94097478Y-92657490D01*
X94122014Y-92614124D01*
X94123848Y-92611535D01*
X94150509Y-92583117D01*
X94188196Y-92566848D01*
X94250014Y-92559473D01*
X94349067Y-92557738D01*
X94365696Y-92557664D01*
X94452258Y-92554588D01*
X94512973Y-92547898D01*
X94535571Y-92538839D01*
X94535471Y-92537824D01*
X94528685Y-92502948D01*
X94512923Y-92430005D01*
X94490386Y-92329010D01*
X94463276Y-92209977D01*
X94442662Y-92119332D01*
X94420981Y-92017240D01*
X94409945Y-91948674D01*
X94408767Y-91904351D01*
X94416659Y-91874987D01*
X94432833Y-91851300D01*
X94462102Y-91820640D01*
X94489399Y-91818521D01*
X94533445Y-91848744D01*
G37*
G36*
X93000740Y-92563100D02*
G01*
X92993611Y-92593048D01*
X92978531Y-92615512D01*
X92956526Y-92647032D01*
X92961697Y-92676485D01*
X93001879Y-92718651D01*
X93013548Y-92732380D01*
X93046767Y-92795989D01*
X93081459Y-92890427D01*
X93115048Y-93004489D01*
X93144959Y-93126972D01*
X93168613Y-93246673D01*
X93183436Y-93352386D01*
X93186850Y-93432909D01*
X93176279Y-93477038D01*
X93153027Y-93499374D01*
X93100121Y-93511880D01*
X93046706Y-93474240D01*
X93043846Y-93470146D01*
X93023888Y-93422694D01*
X92997261Y-93338568D01*
X92967096Y-93228336D01*
X92936527Y-93102563D01*
X92860932Y-92771925D01*
X92660046Y-92764464D01*
X92551255Y-92757217D01*
X92464012Y-92741401D01*
X92414362Y-92716462D01*
X92393587Y-92698900D01*
X92362090Y-92689857D01*
X92323482Y-92717622D01*
X92280745Y-92741521D01*
X92208256Y-92755204D01*
X92096696Y-92759325D01*
X92086132Y-92759358D01*
X91999937Y-92762278D01*
X91938851Y-92769006D01*
X91915511Y-92778224D01*
X91915538Y-92779121D01*
X91921341Y-92813650D01*
X91935802Y-92886404D01*
X91956867Y-92987320D01*
X91982481Y-93106334D01*
X91986135Y-93123128D01*
X92012900Y-93251296D01*
X92028478Y-93341192D01*
X92033761Y-93402398D01*
X92029641Y-93444492D01*
X92017011Y-93477058D01*
X92014525Y-93481698D01*
X91990257Y-93519427D01*
X91964783Y-93521782D01*
X91918272Y-93491703D01*
X91904034Y-93480576D01*
X91878788Y-93451839D01*
X91856872Y-93408334D01*
X91835204Y-93341356D01*
X91810698Y-93242202D01*
X91780272Y-93102166D01*
X91777001Y-93086598D01*
X91749143Y-92948731D01*
X91732361Y-92851141D01*
X91725823Y-92785913D01*
X91728695Y-92745129D01*
X91740145Y-92720874D01*
X91752540Y-92702685D01*
X91752330Y-92669216D01*
X91716527Y-92622993D01*
X91688671Y-92580834D01*
X91657972Y-92503965D01*
X91624861Y-92388916D01*
X91587397Y-92229776D01*
X91521523Y-91930300D01*
X91722626Y-91930300D01*
X91726851Y-91959276D01*
X91733726Y-91989208D01*
X91750548Y-92064031D01*
X91773145Y-92165523D01*
X91798588Y-92280556D01*
X91856919Y-92545139D01*
X92041721Y-92552625D01*
X92136673Y-92559419D01*
X92230294Y-92577653D01*
X92294724Y-92608673D01*
X92302230Y-92614009D01*
X92346835Y-92641768D01*
X92374869Y-92639670D01*
X92407947Y-92607487D01*
X92427662Y-92589308D01*
X92469217Y-92569821D01*
X92534203Y-92560272D01*
X92636021Y-92557738D01*
X92819072Y-92557738D01*
X92797951Y-92475843D01*
X92791264Y-92448905D01*
X92772340Y-92368800D01*
X92748157Y-92263383D01*
X92722319Y-92148264D01*
X92667807Y-91902579D01*
X92471374Y-91902579D01*
X92450970Y-91902507D01*
X92344590Y-91898155D01*
X92278322Y-91886056D01*
X92243571Y-91864782D01*
X92221944Y-91844631D01*
X92180575Y-91826984D01*
X92158851Y-91832843D01*
X92117579Y-91864782D01*
X92081049Y-91886732D01*
X92011233Y-91898858D01*
X91899827Y-91902579D01*
X91840636Y-91902759D01*
X91769643Y-91905279D01*
X91733598Y-91913380D01*
X91722626Y-91930300D01*
X91521523Y-91930300D01*
X91513938Y-91895818D01*
X91591090Y-91798405D01*
X91668242Y-91700992D01*
X92151194Y-91701510D01*
X92634146Y-91702029D01*
X92753622Y-91808604D01*
X92770404Y-91823607D01*
X92814275Y-91865097D01*
X92846181Y-91904163D01*
X92870684Y-91951135D01*
X92892346Y-92016340D01*
X92915730Y-92110105D01*
X92945397Y-92242758D01*
X92966538Y-92339714D01*
X92987991Y-92445297D01*
X92999129Y-92516804D01*
X93000553Y-92557738D01*
X93000740Y-92563100D01*
G37*
G36*
X84366109Y-92575647D02*
G01*
X84355709Y-92609552D01*
X84346601Y-92628820D01*
X84344538Y-92671187D01*
X84378969Y-92718657D01*
X84389380Y-92732081D01*
X84423980Y-92805631D01*
X84462584Y-92928269D01*
X84505377Y-93100555D01*
X84530289Y-93211370D01*
X84551269Y-93312446D01*
X84561906Y-93381357D01*
X84563037Y-93427431D01*
X84555497Y-93459995D01*
X84540122Y-93488374D01*
X84500476Y-93549664D01*
X84433887Y-93475137D01*
X84400046Y-93427639D01*
X84369755Y-93359337D01*
X84340853Y-93261578D01*
X84309698Y-93124065D01*
X84289565Y-93028339D01*
X84267165Y-92924140D01*
X84249626Y-92845140D01*
X84239590Y-92803423D01*
X84228122Y-92782880D01*
X84197483Y-92768223D01*
X84137986Y-92761157D01*
X84038903Y-92759325D01*
X83944229Y-92756617D01*
X83849194Y-92743159D01*
X83785927Y-92716867D01*
X83744464Y-92691903D01*
X83717760Y-92689652D01*
X83697367Y-92716867D01*
X83681507Y-92734957D01*
X83644118Y-92749826D01*
X83577678Y-92757283D01*
X83471573Y-92759325D01*
X83428511Y-92759447D01*
X83344815Y-92761643D01*
X83298796Y-92768266D01*
X83281222Y-92781473D01*
X83282861Y-92803423D01*
X83292922Y-92842675D01*
X83311356Y-92920547D01*
X83335346Y-93025077D01*
X83362230Y-93144818D01*
X83378357Y-93218917D01*
X83400180Y-93330311D01*
X83410137Y-93405336D01*
X83409094Y-93452096D01*
X83397919Y-93478697D01*
X83364240Y-93509807D01*
X83320163Y-93517104D01*
X83277806Y-93481398D01*
X83235976Y-93400862D01*
X83193479Y-93273671D01*
X83149123Y-93098002D01*
X83136214Y-93040892D01*
X83110607Y-92921589D01*
X83096070Y-92838686D01*
X83091661Y-92783175D01*
X83096441Y-92746044D01*
X83109468Y-92718285D01*
X83126594Y-92686727D01*
X83123939Y-92652423D01*
X83085786Y-92609861D01*
X83073873Y-92597105D01*
X83046276Y-92551889D01*
X83019414Y-92481008D01*
X82990555Y-92376403D01*
X82956966Y-92230015D01*
X82890046Y-91921478D01*
X83096066Y-91921478D01*
X83096091Y-91922333D01*
X83101859Y-91956713D01*
X83116291Y-92029342D01*
X83137329Y-92130148D01*
X83162919Y-92249058D01*
X83230254Y-92557738D01*
X83424079Y-92557738D01*
X83512585Y-92559140D01*
X83585168Y-92566156D01*
X83631141Y-92581575D01*
X83663512Y-92608135D01*
X83697999Y-92641885D01*
X83724352Y-92658532D01*
X83740929Y-92647295D01*
X83771057Y-92608135D01*
X83793710Y-92582380D01*
X83830561Y-92566854D01*
X83893340Y-92559558D01*
X83994243Y-92557738D01*
X84062344Y-92557505D01*
X84131431Y-92554826D01*
X84166089Y-92546592D01*
X84175989Y-92529699D01*
X84170801Y-92501042D01*
X84163027Y-92468888D01*
X84145922Y-92392670D01*
X84123629Y-92289877D01*
X84098986Y-92173462D01*
X84042328Y-91902579D01*
X83850018Y-91902579D01*
X83798393Y-91902081D01*
X83705161Y-91896006D01*
X83642365Y-91880911D01*
X83596145Y-91854153D01*
X83595318Y-91853503D01*
X83551702Y-91822163D01*
X83527810Y-91822380D01*
X83504339Y-91854153D01*
X83484887Y-91876594D01*
X83448500Y-91892814D01*
X83386012Y-91900584D01*
X83285322Y-91902579D01*
X83267912Y-91902660D01*
X83180850Y-91905753D01*
X83119447Y-91912438D01*
X83096066Y-91921478D01*
X82890046Y-91921478D01*
X82886462Y-91904952D01*
X82957134Y-91802972D01*
X83027806Y-91700992D01*
X83513364Y-91700992D01*
X83998922Y-91700992D01*
X84108399Y-91792031D01*
X84153497Y-91830846D01*
X84206492Y-91880598D01*
X84233519Y-91911723D01*
X84233939Y-91912552D01*
X84245679Y-91949826D01*
X84265143Y-92025197D01*
X84289725Y-92128132D01*
X84316814Y-92248098D01*
X84335113Y-92333308D01*
X84356742Y-92446180D01*
X84366764Y-92524075D01*
X84366693Y-92529699D01*
X84366109Y-92575647D01*
G37*
G36*
X81949081Y-91702381D02*
G01*
X82079143Y-91704016D01*
X82173053Y-91707411D01*
X82238339Y-91713273D01*
X82282528Y-91722312D01*
X82313149Y-91735234D01*
X82337730Y-91752748D01*
X82376389Y-91788488D01*
X82381340Y-91815644D01*
X82352723Y-91852703D01*
X82332109Y-91871575D01*
X82290431Y-91890734D01*
X82225223Y-91900102D01*
X82123133Y-91902579D01*
X81938680Y-91902579D01*
X81954821Y-91984474D01*
X81960810Y-92013709D01*
X81978152Y-92094806D01*
X82001387Y-92200978D01*
X82027183Y-92316914D01*
X82047804Y-92411437D01*
X82063677Y-92497310D01*
X82068386Y-92553850D01*
X82062648Y-92592010D01*
X82047180Y-92622743D01*
X82028531Y-92655821D01*
X82031263Y-92687874D01*
X82071251Y-92724976D01*
X82104251Y-92771447D01*
X82139662Y-92856274D01*
X82174203Y-92966833D01*
X82205163Y-93090935D01*
X82229831Y-93216393D01*
X82245496Y-93331020D01*
X82249447Y-93422627D01*
X82238973Y-93479028D01*
X82236790Y-93483103D01*
X82213085Y-93519801D01*
X82187812Y-93521829D01*
X82141344Y-93491743D01*
X82127844Y-93481237D01*
X82102362Y-93452536D01*
X82080202Y-93409077D01*
X82058257Y-93342157D01*
X82033419Y-93243074D01*
X82002580Y-93103127D01*
X81996121Y-93072750D01*
X81969096Y-92940060D01*
X81953062Y-92846699D01*
X81947169Y-92784588D01*
X81950564Y-92745646D01*
X81962397Y-92721795D01*
X81975936Y-92701835D01*
X81975230Y-92668702D01*
X81939277Y-92622710D01*
X81933907Y-92616563D01*
X81897658Y-92551694D01*
X81860926Y-92443931D01*
X81822413Y-92289570D01*
X81801816Y-92197243D01*
X81777803Y-92090048D01*
X81758966Y-92006460D01*
X81748180Y-91959276D01*
X81744334Y-91945162D01*
X81729994Y-91921913D01*
X81698916Y-91909119D01*
X81639886Y-91903701D01*
X81541689Y-91902579D01*
X81449151Y-91900990D01*
X81376977Y-91893403D01*
X81328716Y-91876708D01*
X81290223Y-91847825D01*
X81254775Y-91811018D01*
X81248040Y-91782054D01*
X81273605Y-91747032D01*
X81287354Y-91734344D01*
X81312229Y-91721535D01*
X81351492Y-91712513D01*
X81412343Y-91706653D01*
X81501983Y-91703335D01*
X81627613Y-91701935D01*
X81796435Y-91701830D01*
X81949081Y-91702381D01*
G37*
G36*
X89316997Y-91813526D02*
G01*
X89365374Y-91858845D01*
X89383593Y-91884393D01*
X89416486Y-91959862D01*
X89452306Y-92078236D01*
X89492246Y-92243120D01*
X89513676Y-92339980D01*
X89535439Y-92445456D01*
X89546776Y-92516886D01*
X89548499Y-92563131D01*
X89541420Y-92593053D01*
X89526348Y-92615512D01*
X89504343Y-92647032D01*
X89509515Y-92676485D01*
X89549696Y-92718651D01*
X89561365Y-92732380D01*
X89594584Y-92795989D01*
X89629276Y-92890427D01*
X89662866Y-93004489D01*
X89692776Y-93126972D01*
X89716431Y-93246673D01*
X89731253Y-93352386D01*
X89734667Y-93432909D01*
X89724097Y-93477038D01*
X89695024Y-93505991D01*
X89660195Y-93510412D01*
X89608854Y-93479517D01*
X89605371Y-93476722D01*
X89579462Y-93439613D01*
X89551911Y-93369513D01*
X89520833Y-93260797D01*
X89484345Y-93107840D01*
X89408750Y-92771925D01*
X89203890Y-92764655D01*
X89118142Y-92760361D01*
X89038351Y-92750746D01*
X88987774Y-92734196D01*
X88954300Y-92707958D01*
X88929327Y-92677853D01*
X88924639Y-92647864D01*
X88955178Y-92608135D01*
X88975133Y-92589635D01*
X89016591Y-92569906D01*
X89081128Y-92560278D01*
X89182320Y-92557738D01*
X89363854Y-92557738D01*
X89290982Y-92236458D01*
X89262331Y-92105901D01*
X89243369Y-92005629D01*
X89235391Y-91936882D01*
X89237398Y-91890789D01*
X89248392Y-91858482D01*
X89257011Y-91842872D01*
X89285460Y-91808216D01*
X89316997Y-91813526D01*
G37*
G36*
X79194790Y-92567406D02*
G01*
X79186361Y-92594912D01*
X79170028Y-92616931D01*
X79144935Y-92651043D01*
X79151162Y-92678573D01*
X79193392Y-92717724D01*
X79197816Y-92721495D01*
X79225831Y-92752602D01*
X79249870Y-92797483D01*
X79273097Y-92865105D01*
X79298673Y-92964437D01*
X79329760Y-93104446D01*
X79332365Y-93116661D01*
X79360254Y-93252526D01*
X79376946Y-93348247D01*
X79383289Y-93411982D01*
X79380128Y-93451889D01*
X79368309Y-93476123D01*
X79338530Y-93505864D01*
X79303615Y-93510395D01*
X79252306Y-93479517D01*
X79248824Y-93476722D01*
X79222914Y-93439613D01*
X79195363Y-93369513D01*
X79164286Y-93260797D01*
X79127797Y-93107840D01*
X79052202Y-92771925D01*
X78851316Y-92764464D01*
X78746130Y-92757570D01*
X78656601Y-92741790D01*
X78606104Y-92716889D01*
X78599854Y-92711368D01*
X78560689Y-92690562D01*
X78523095Y-92708879D01*
X78506413Y-92728267D01*
X78494452Y-92777204D01*
X78500153Y-92859650D01*
X78500677Y-92863695D01*
X78504521Y-92931500D01*
X78496128Y-93002028D01*
X78472658Y-93089678D01*
X78431271Y-93208851D01*
X78411301Y-93262472D01*
X78374837Y-93352418D01*
X78346093Y-93406335D01*
X78320001Y-93432586D01*
X78291494Y-93439534D01*
X78257867Y-93432867D01*
X78235172Y-93401520D01*
X78220333Y-93332589D01*
X78216241Y-93292227D01*
X78220370Y-93222322D01*
X78241197Y-93138193D01*
X78281785Y-93024484D01*
X78294674Y-92990590D01*
X78327648Y-92899199D01*
X78350622Y-92828441D01*
X78359246Y-92791398D01*
X78352362Y-92778285D01*
X78306429Y-92763557D01*
X78214355Y-92758251D01*
X78160603Y-92756946D01*
X78089088Y-92746642D01*
X78031160Y-92718543D01*
X77963182Y-92663757D01*
X77952931Y-92654712D01*
X77912627Y-92616674D01*
X77882569Y-92579016D01*
X77858542Y-92531817D01*
X77836331Y-92465157D01*
X77811721Y-92369118D01*
X77780498Y-92233779D01*
X77705314Y-91902579D01*
X77904714Y-91902579D01*
X77922330Y-91971875D01*
X77928928Y-91999252D01*
X77946388Y-92075877D01*
X77969122Y-92178668D01*
X77993908Y-92293155D01*
X78047870Y-92545139D01*
X78232832Y-92552625D01*
X78328184Y-92559453D01*
X78421654Y-92577681D01*
X78485994Y-92608673D01*
X78493499Y-92614009D01*
X78538105Y-92641768D01*
X78566139Y-92639670D01*
X78599217Y-92607487D01*
X78618932Y-92589308D01*
X78660487Y-92569821D01*
X78725473Y-92560272D01*
X78827291Y-92557738D01*
X79010342Y-92557738D01*
X78989221Y-92475843D01*
X78982534Y-92448905D01*
X78963610Y-92368800D01*
X78939427Y-92263383D01*
X78913588Y-92148264D01*
X78859077Y-91902579D01*
X78662644Y-91902579D01*
X78642240Y-91902507D01*
X78535860Y-91898155D01*
X78469592Y-91886056D01*
X78434841Y-91864782D01*
X78412847Y-91844795D01*
X78367969Y-91826984D01*
X78349912Y-91831289D01*
X78317961Y-91864782D01*
X78309870Y-91876848D01*
X78276306Y-91892218D01*
X78210751Y-91900258D01*
X78104086Y-91902579D01*
X77904714Y-91902579D01*
X77705314Y-91902579D01*
X77704097Y-91897220D01*
X77781805Y-91799106D01*
X77859512Y-91700992D01*
X78343154Y-91700992D01*
X78826796Y-91700992D01*
X78946116Y-91808085D01*
X78961897Y-91822282D01*
X79006025Y-91864226D01*
X79038177Y-91903628D01*
X79062937Y-91950835D01*
X79084890Y-92016194D01*
X79108620Y-92110053D01*
X79138712Y-92242758D01*
X79165181Y-92362734D01*
X79184947Y-92460240D01*
X79194568Y-92525490D01*
X79194739Y-92557738D01*
X79194790Y-92567406D01*
G37*
G36*
X93967303Y-92764538D02*
G01*
X94010802Y-92791519D01*
X94037417Y-92860119D01*
X94038642Y-92866066D01*
X94042754Y-92919403D01*
X94033556Y-92984435D01*
X94008593Y-93072584D01*
X93965413Y-93195274D01*
X93934088Y-93278377D01*
X93899432Y-93361580D01*
X93872412Y-93410148D01*
X93848362Y-93431901D01*
X93822620Y-93434658D01*
X93781297Y-93411315D01*
X93748947Y-93341338D01*
X93744703Y-93321995D01*
X93741870Y-93272255D01*
X93751915Y-93210668D01*
X93777276Y-93125791D01*
X93820395Y-93006184D01*
X93854308Y-92917655D01*
X93889048Y-92835819D01*
X93916127Y-92788183D01*
X93940237Y-92766956D01*
X93966070Y-92764350D01*
X93967303Y-92764538D01*
G37*
G36*
X88829973Y-92781911D02*
G01*
X88857244Y-92853819D01*
X88860096Y-92924552D01*
X88841167Y-93033991D01*
X88797234Y-93176925D01*
X88727152Y-93357788D01*
X88687478Y-93421797D01*
X88642167Y-93442867D01*
X88601614Y-93417097D01*
X88574343Y-93345189D01*
X88571491Y-93274456D01*
X88590419Y-93165017D01*
X88634352Y-93022083D01*
X88704435Y-92841220D01*
X88744109Y-92777211D01*
X88789419Y-92756141D01*
X88829973Y-92781911D01*
G37*
G36*
X93528852Y-91921718D02*
G01*
X93590833Y-91974478D01*
X93664575Y-92051991D01*
X93742676Y-92144954D01*
X93817732Y-92244065D01*
X93882340Y-92340018D01*
X93929095Y-92423512D01*
X93950595Y-92485242D01*
X93953611Y-92514131D01*
X93949011Y-92566930D01*
X93924202Y-92580193D01*
X93877513Y-92553148D01*
X93807273Y-92485024D01*
X93711811Y-92375050D01*
X93642421Y-92291206D01*
X93570980Y-92203925D01*
X93522530Y-92141999D01*
X93491802Y-92097610D01*
X93473528Y-92062940D01*
X93462435Y-92030172D01*
X93453256Y-91991488D01*
X93443157Y-91933012D01*
X93452606Y-91907947D01*
X93487247Y-91902992D01*
X93528852Y-91921718D01*
G37*
G36*
X88315256Y-91906929D02*
G01*
X88350359Y-91924656D01*
X88410918Y-91977364D01*
X88484266Y-92055304D01*
X88562805Y-92148902D01*
X88638934Y-92248588D01*
X88705056Y-92344788D01*
X88753571Y-92427930D01*
X88776882Y-92488442D01*
X88782467Y-92535999D01*
X88773292Y-92578957D01*
X88741104Y-92580879D01*
X88685048Y-92541297D01*
X88604268Y-92459743D01*
X88497911Y-92335749D01*
X88443351Y-92268050D01*
X88356137Y-92150624D01*
X88301665Y-92060653D01*
X88277018Y-91993620D01*
X88274614Y-91980608D01*
X88268102Y-91926258D01*
X88279758Y-91905987D01*
X88315256Y-91906929D01*
G37*
%TD*%
%LPC*%
%LPD*%
M02*
