%TF.GenerationSoftware,KiCad,Pcbnew,7.0.7*%
%TF.CreationDate,2023-12-10T00:16:43+02:00*%
%TF.ProjectId,calc_plate,63616c63-5f70-46c6-9174-652e6b696361,rev?*%
%TF.SameCoordinates,Original*%
%TF.FileFunction,Copper,L2,Bot*%
%TF.FilePolarity,Positive*%
%FSLAX46Y46*%
G04 Gerber Fmt 4.6, Leading zero omitted, Abs format (unit mm)*
G04 Created by KiCad (PCBNEW 7.0.7) date 2023-12-10 00:16:43*
%MOMM*%
%LPD*%
G01*
G04 APERTURE LIST*
G04 APERTURE END LIST*
%TA.AperFunction,NonConductor*%
G36*
X121042019Y-35450633D02*
G01*
X121077198Y-35452938D01*
X121123708Y-35455986D01*
X121305459Y-35468985D01*
X121313100Y-35470015D01*
X121406738Y-35488641D01*
X121429420Y-35493153D01*
X121455023Y-35498722D01*
X121573666Y-35524531D01*
X121580383Y-35526395D01*
X121699437Y-35566809D01*
X121796671Y-35603076D01*
X121831741Y-35616157D01*
X121837499Y-35618643D01*
X121952952Y-35675578D01*
X122074906Y-35742170D01*
X122079634Y-35745032D01*
X122136571Y-35783076D01*
X122186649Y-35816537D01*
X122189358Y-35818454D01*
X122298652Y-35900271D01*
X122302345Y-35903265D01*
X122399502Y-35988469D01*
X122402448Y-35991228D01*
X122498769Y-36087549D01*
X122501526Y-36090492D01*
X122586729Y-36187648D01*
X122589732Y-36191353D01*
X122641564Y-36260592D01*
X122671543Y-36300639D01*
X122673461Y-36303349D01*
X122744962Y-36410357D01*
X122747828Y-36415091D01*
X122814421Y-36537047D01*
X122871355Y-36652499D01*
X122873841Y-36658257D01*
X122910212Y-36755768D01*
X122923196Y-36790578D01*
X122928289Y-36805581D01*
X122963597Y-36909596D01*
X122965472Y-36916352D01*
X122996846Y-37060579D01*
X123019980Y-37176880D01*
X123021015Y-37184560D01*
X123034017Y-37366350D01*
X123039367Y-37447966D01*
X123039500Y-37452023D01*
X123039500Y-128697975D01*
X123039367Y-128702032D01*
X123034017Y-128783648D01*
X123021015Y-128965438D01*
X123019980Y-128973118D01*
X122996846Y-129089420D01*
X122965472Y-129233646D01*
X122963597Y-129240401D01*
X122929297Y-129341448D01*
X122923208Y-129359388D01*
X122923195Y-129359425D01*
X122873841Y-129491741D01*
X122871355Y-129497499D01*
X122814421Y-129612952D01*
X122747828Y-129734907D01*
X122744961Y-129739641D01*
X122673461Y-129846649D01*
X122671543Y-129849359D01*
X122589744Y-129958631D01*
X122586723Y-129962357D01*
X122501529Y-130059502D01*
X122498755Y-130062464D01*
X122402464Y-130158755D01*
X122399502Y-130161529D01*
X122302357Y-130246723D01*
X122298631Y-130249744D01*
X122189359Y-130331543D01*
X122186649Y-130333461D01*
X122079641Y-130404961D01*
X122074907Y-130407828D01*
X121952952Y-130474421D01*
X121837499Y-130531355D01*
X121831741Y-130533841D01*
X121710956Y-130578893D01*
X121699418Y-130583197D01*
X121580401Y-130623597D01*
X121573646Y-130625472D01*
X121429420Y-130656846D01*
X121313118Y-130679980D01*
X121305438Y-130681015D01*
X121123648Y-130694017D01*
X121072582Y-130697364D01*
X121042025Y-130699367D01*
X121037976Y-130699500D01*
X48842024Y-130699500D01*
X48837974Y-130699367D01*
X48799954Y-130696875D01*
X48756350Y-130694017D01*
X48574560Y-130681015D01*
X48566880Y-130679980D01*
X48450579Y-130656846D01*
X48306352Y-130625472D01*
X48299596Y-130623597D01*
X48267881Y-130612831D01*
X48180578Y-130583196D01*
X48145768Y-130570212D01*
X48048257Y-130533841D01*
X48042499Y-130531355D01*
X47927047Y-130474421D01*
X47805091Y-130407828D01*
X47800357Y-130404962D01*
X47693349Y-130333461D01*
X47690639Y-130331543D01*
X47650592Y-130301564D01*
X47581353Y-130249732D01*
X47577648Y-130246729D01*
X47480492Y-130161526D01*
X47477549Y-130158769D01*
X47381228Y-130062448D01*
X47378469Y-130059502D01*
X47345450Y-130021851D01*
X47293265Y-129962345D01*
X47290271Y-129958652D01*
X47208454Y-129849358D01*
X47206537Y-129846649D01*
X47135036Y-129739641D01*
X47132170Y-129734906D01*
X47065578Y-129612952D01*
X47008643Y-129497499D01*
X47006157Y-129491741D01*
X46993076Y-129456671D01*
X46956805Y-129359425D01*
X46916395Y-129240383D01*
X46914531Y-129233666D01*
X46883153Y-129089420D01*
X46878641Y-129066738D01*
X46860015Y-128973100D01*
X46858985Y-128965459D01*
X46845986Y-128783708D01*
X46842938Y-128737198D01*
X46840633Y-128702019D01*
X46840500Y-128697964D01*
X46840500Y-127616560D01*
X58882306Y-127616560D01*
X58888969Y-127667169D01*
X58889500Y-127675271D01*
X58889500Y-127731391D01*
X58889501Y-127731400D01*
X58891251Y-127739069D01*
X58889796Y-127762786D01*
X58901091Y-127790053D01*
X58907421Y-127809913D01*
X58914596Y-127841352D01*
X58925016Y-127862989D01*
X58929281Y-127888891D01*
X58943537Y-127907470D01*
X58956881Y-127929155D01*
X58963532Y-127942966D01*
X58963533Y-127942969D01*
X58986965Y-127972350D01*
X58997804Y-127998901D01*
X59012421Y-128010117D01*
X59028880Y-128026271D01*
X59028930Y-128026222D01*
X59038778Y-128036070D01*
X59038728Y-128036119D01*
X59054880Y-128052577D01*
X59061526Y-128061238D01*
X59066170Y-128061878D01*
X59092648Y-128078033D01*
X59122031Y-128101466D01*
X59122033Y-128101467D01*
X59135845Y-128108119D01*
X59157529Y-128121463D01*
X59168503Y-128129883D01*
X59170321Y-128129690D01*
X59202011Y-128139982D01*
X59223649Y-128150403D01*
X59255089Y-128157578D01*
X59274946Y-128163908D01*
X59292137Y-128171029D01*
X59325933Y-128173749D01*
X59333600Y-128175499D01*
X59333605Y-128175499D01*
X59333607Y-128175500D01*
X59333609Y-128175500D01*
X59389736Y-128175500D01*
X59397837Y-128176031D01*
X59436546Y-128181127D01*
X59472937Y-128175500D01*
X72307062Y-128175500D01*
X72331558Y-128182693D01*
X72382162Y-128176031D01*
X72390263Y-128175500D01*
X72446391Y-128175500D01*
X72446393Y-128175500D01*
X72454060Y-128173750D01*
X72477782Y-128175202D01*
X72505048Y-128163909D01*
X72524904Y-128157580D01*
X72556351Y-128150403D01*
X72577986Y-128139983D01*
X72603890Y-128135717D01*
X72622465Y-128121465D01*
X72644152Y-128108120D01*
X72657967Y-128101467D01*
X72657968Y-128101466D01*
X72687348Y-128078035D01*
X72713902Y-128067194D01*
X72725116Y-128052580D01*
X72741271Y-128036119D01*
X72741222Y-128036070D01*
X72751070Y-128026222D01*
X72751119Y-128026271D01*
X72767580Y-128010116D01*
X72776242Y-128003469D01*
X72776882Y-127998823D01*
X72793036Y-127972348D01*
X72816465Y-127942969D01*
X72816467Y-127942967D01*
X72823120Y-127929152D01*
X72836465Y-127907465D01*
X72844885Y-127896490D01*
X72844692Y-127894672D01*
X72854984Y-127862986D01*
X72865403Y-127841351D01*
X72872580Y-127809904D01*
X72878909Y-127790048D01*
X72886028Y-127772860D01*
X72888750Y-127739059D01*
X72890498Y-127731400D01*
X72890500Y-127731393D01*
X72890500Y-127675261D01*
X72891031Y-127667160D01*
X72896126Y-127628455D01*
X72894287Y-127616560D01*
X87457306Y-127616560D01*
X87463969Y-127667169D01*
X87464500Y-127675271D01*
X87464500Y-127731391D01*
X87464501Y-127731400D01*
X87466251Y-127739069D01*
X87464796Y-127762786D01*
X87476091Y-127790053D01*
X87482421Y-127809913D01*
X87489596Y-127841352D01*
X87500016Y-127862989D01*
X87504281Y-127888891D01*
X87518537Y-127907470D01*
X87531881Y-127929155D01*
X87538532Y-127942966D01*
X87538533Y-127942969D01*
X87561965Y-127972350D01*
X87572804Y-127998901D01*
X87587421Y-128010117D01*
X87603880Y-128026271D01*
X87603930Y-128026222D01*
X87613778Y-128036070D01*
X87613728Y-128036119D01*
X87629880Y-128052577D01*
X87636526Y-128061238D01*
X87641170Y-128061878D01*
X87667648Y-128078033D01*
X87697031Y-128101466D01*
X87697033Y-128101467D01*
X87710845Y-128108119D01*
X87732529Y-128121463D01*
X87743503Y-128129883D01*
X87745321Y-128129690D01*
X87777011Y-128139982D01*
X87798649Y-128150403D01*
X87830089Y-128157578D01*
X87849946Y-128163908D01*
X87867137Y-128171029D01*
X87900933Y-128173749D01*
X87908600Y-128175499D01*
X87908605Y-128175499D01*
X87908607Y-128175500D01*
X87908609Y-128175500D01*
X87964736Y-128175500D01*
X87972837Y-128176031D01*
X88011546Y-128181127D01*
X88047937Y-128175500D01*
X100882062Y-128175500D01*
X100906558Y-128182693D01*
X100957162Y-128176031D01*
X100965263Y-128175500D01*
X101021391Y-128175500D01*
X101021393Y-128175500D01*
X101029060Y-128173750D01*
X101052782Y-128175202D01*
X101080048Y-128163909D01*
X101099904Y-128157580D01*
X101131351Y-128150403D01*
X101152986Y-128139983D01*
X101178890Y-128135717D01*
X101197465Y-128121465D01*
X101219152Y-128108120D01*
X101232967Y-128101467D01*
X101232968Y-128101466D01*
X101262348Y-128078035D01*
X101288902Y-128067194D01*
X101300116Y-128052580D01*
X101316271Y-128036119D01*
X101316222Y-128036070D01*
X101326070Y-128026222D01*
X101326119Y-128026271D01*
X101342580Y-128010116D01*
X101351242Y-128003469D01*
X101351882Y-127998823D01*
X101368036Y-127972348D01*
X101391465Y-127942969D01*
X101391467Y-127942967D01*
X101398120Y-127929152D01*
X101411465Y-127907465D01*
X101419885Y-127896490D01*
X101419692Y-127894672D01*
X101429984Y-127862986D01*
X101440403Y-127841351D01*
X101447580Y-127809904D01*
X101453909Y-127790048D01*
X101461028Y-127772860D01*
X101463750Y-127739059D01*
X101465498Y-127731400D01*
X101465500Y-127731393D01*
X101465500Y-127675261D01*
X101466031Y-127667160D01*
X101471126Y-127628455D01*
X101465500Y-127592061D01*
X101465500Y-126529560D01*
X104507306Y-126529560D01*
X104513969Y-126580169D01*
X104514500Y-126588271D01*
X104514500Y-126644391D01*
X104514501Y-126644400D01*
X104516251Y-126652069D01*
X104514796Y-126675786D01*
X104526091Y-126703053D01*
X104532421Y-126722913D01*
X104539596Y-126754352D01*
X104550016Y-126775989D01*
X104554281Y-126801891D01*
X104568537Y-126820470D01*
X104581881Y-126842155D01*
X104588532Y-126855966D01*
X104588533Y-126855969D01*
X104611965Y-126885350D01*
X104622804Y-126911901D01*
X104637421Y-126923117D01*
X104653880Y-126939271D01*
X104653930Y-126939222D01*
X104663778Y-126949070D01*
X104663728Y-126949119D01*
X104679880Y-126965577D01*
X104686526Y-126974238D01*
X104691170Y-126974878D01*
X104717648Y-126991033D01*
X104747031Y-127014466D01*
X104747033Y-127014467D01*
X104760845Y-127021119D01*
X104782529Y-127034463D01*
X104793503Y-127042883D01*
X104795321Y-127042690D01*
X104827011Y-127052982D01*
X104848649Y-127063403D01*
X104880089Y-127070578D01*
X104899946Y-127076908D01*
X104917137Y-127084029D01*
X104950933Y-127086749D01*
X104958600Y-127088499D01*
X104958605Y-127088499D01*
X104958607Y-127088500D01*
X104958609Y-127088500D01*
X105014736Y-127088500D01*
X105022837Y-127089031D01*
X105061546Y-127094127D01*
X105097937Y-127088500D01*
X118932062Y-127088500D01*
X118956558Y-127095693D01*
X119007162Y-127089031D01*
X119015263Y-127088500D01*
X119071391Y-127088500D01*
X119071393Y-127088500D01*
X119079060Y-127086750D01*
X119102782Y-127088202D01*
X119130048Y-127076909D01*
X119149904Y-127070580D01*
X119181351Y-127063403D01*
X119202986Y-127052983D01*
X119228890Y-127048717D01*
X119247465Y-127034465D01*
X119269152Y-127021120D01*
X119282967Y-127014467D01*
X119282968Y-127014466D01*
X119312348Y-126991035D01*
X119338902Y-126980194D01*
X119350116Y-126965580D01*
X119366271Y-126949119D01*
X119366222Y-126949070D01*
X119376070Y-126939222D01*
X119376119Y-126939271D01*
X119392580Y-126923116D01*
X119401242Y-126916469D01*
X119401882Y-126911823D01*
X119418036Y-126885348D01*
X119441465Y-126855969D01*
X119441467Y-126855967D01*
X119448120Y-126842152D01*
X119461465Y-126820465D01*
X119469885Y-126809490D01*
X119469692Y-126807672D01*
X119479984Y-126775986D01*
X119486341Y-126762786D01*
X119490403Y-126754351D01*
X119497580Y-126722904D01*
X119503909Y-126703048D01*
X119511028Y-126685860D01*
X119513750Y-126652059D01*
X119515498Y-126644400D01*
X119515500Y-126644393D01*
X119515500Y-126588261D01*
X119516031Y-126580160D01*
X119521126Y-126541455D01*
X119515500Y-126505061D01*
X119515500Y-120670937D01*
X119522693Y-120646440D01*
X119516031Y-120595837D01*
X119515500Y-120587736D01*
X119515500Y-120531608D01*
X119515499Y-120531600D01*
X119513749Y-120523933D01*
X119515202Y-120500213D01*
X119503908Y-120472946D01*
X119497578Y-120453085D01*
X119490403Y-120421649D01*
X119479982Y-120400011D01*
X119475716Y-120374104D01*
X119461463Y-120355529D01*
X119448119Y-120333845D01*
X119441467Y-120320033D01*
X119441466Y-120320031D01*
X119418033Y-120290648D01*
X119407192Y-120264094D01*
X119392577Y-120252880D01*
X119376119Y-120236728D01*
X119376070Y-120236778D01*
X119366222Y-120226930D01*
X119366271Y-120226880D01*
X119350117Y-120210421D01*
X119343468Y-120201756D01*
X119338819Y-120201116D01*
X119312350Y-120184965D01*
X119282969Y-120161533D01*
X119282966Y-120161532D01*
X119269155Y-120154881D01*
X119247470Y-120141537D01*
X119236489Y-120133111D01*
X119234665Y-120133306D01*
X119202989Y-120123016D01*
X119181352Y-120112596D01*
X119181353Y-120112596D01*
X119149913Y-120105421D01*
X119130053Y-120099091D01*
X119112864Y-120091971D01*
X119079069Y-120089251D01*
X119071400Y-120087501D01*
X119071394Y-120087500D01*
X119071393Y-120087500D01*
X119015271Y-120087500D01*
X119007169Y-120086969D01*
X118968453Y-120081871D01*
X118932063Y-120087500D01*
X105097936Y-120087500D01*
X105073437Y-120080306D01*
X105022830Y-120086969D01*
X105014728Y-120087500D01*
X104958604Y-120087500D01*
X104950930Y-120089252D01*
X104927208Y-120087797D01*
X104899941Y-120099092D01*
X104880085Y-120105420D01*
X104848650Y-120112595D01*
X104848647Y-120112596D01*
X104827006Y-120123018D01*
X104801104Y-120127282D01*
X104782526Y-120141538D01*
X104760844Y-120154881D01*
X104747034Y-120161531D01*
X104747027Y-120161536D01*
X104717644Y-120184968D01*
X104691094Y-120195806D01*
X104679878Y-120210424D01*
X104663728Y-120226880D01*
X104663778Y-120226930D01*
X104653930Y-120236778D01*
X104653880Y-120236728D01*
X104637424Y-120252878D01*
X104628757Y-120259527D01*
X104628118Y-120264173D01*
X104611968Y-120290644D01*
X104588536Y-120320027D01*
X104588531Y-120320034D01*
X104581881Y-120333844D01*
X104568538Y-120355526D01*
X104560113Y-120366504D01*
X104560308Y-120368325D01*
X104550018Y-120400006D01*
X104539596Y-120421647D01*
X104539595Y-120421650D01*
X104532420Y-120453085D01*
X104526092Y-120472941D01*
X104518971Y-120490133D01*
X104516252Y-120523930D01*
X104514500Y-120531604D01*
X104514500Y-120587727D01*
X104513969Y-120595828D01*
X104508871Y-120634545D01*
X104514500Y-120670936D01*
X104514500Y-126505062D01*
X104507306Y-126529560D01*
X101465500Y-126529560D01*
X101465500Y-118091560D01*
X106507306Y-118091560D01*
X106513969Y-118142169D01*
X106514500Y-118150271D01*
X106514500Y-118206391D01*
X106514501Y-118206400D01*
X106516251Y-118214069D01*
X106514796Y-118237786D01*
X106526091Y-118265053D01*
X106532421Y-118284913D01*
X106539596Y-118316352D01*
X106550016Y-118337989D01*
X106554281Y-118363891D01*
X106568537Y-118382470D01*
X106581881Y-118404155D01*
X106588532Y-118417966D01*
X106588533Y-118417969D01*
X106611965Y-118447350D01*
X106622804Y-118473901D01*
X106637421Y-118485117D01*
X106653880Y-118501271D01*
X106653930Y-118501222D01*
X106663778Y-118511070D01*
X106663728Y-118511119D01*
X106679880Y-118527577D01*
X106686526Y-118536238D01*
X106691170Y-118536878D01*
X106717648Y-118553033D01*
X106747031Y-118576466D01*
X106747033Y-118576467D01*
X106760845Y-118583119D01*
X106782529Y-118596463D01*
X106793503Y-118604883D01*
X106795321Y-118604690D01*
X106827011Y-118614982D01*
X106848649Y-118625403D01*
X106880089Y-118632578D01*
X106899946Y-118638908D01*
X106917137Y-118646029D01*
X106950933Y-118648749D01*
X106958600Y-118650499D01*
X106958605Y-118650499D01*
X106958607Y-118650500D01*
X106958609Y-118650500D01*
X107014736Y-118650500D01*
X107022837Y-118651031D01*
X107061546Y-118656127D01*
X107097937Y-118650500D01*
X119932062Y-118650500D01*
X119956558Y-118657693D01*
X120007162Y-118651031D01*
X120015263Y-118650500D01*
X120071391Y-118650500D01*
X120071393Y-118650500D01*
X120079060Y-118648750D01*
X120102782Y-118650202D01*
X120130048Y-118638909D01*
X120149904Y-118632580D01*
X120181351Y-118625403D01*
X120202986Y-118614983D01*
X120228890Y-118610717D01*
X120247465Y-118596465D01*
X120269152Y-118583120D01*
X120282967Y-118576467D01*
X120282968Y-118576466D01*
X120312348Y-118553035D01*
X120338902Y-118542194D01*
X120350116Y-118527580D01*
X120366271Y-118511119D01*
X120366222Y-118511070D01*
X120376070Y-118501222D01*
X120376119Y-118501271D01*
X120392580Y-118485116D01*
X120401242Y-118478469D01*
X120401882Y-118473823D01*
X120418036Y-118447348D01*
X120441465Y-118417969D01*
X120441467Y-118417967D01*
X120448120Y-118404152D01*
X120461465Y-118382465D01*
X120469885Y-118371490D01*
X120469692Y-118369672D01*
X120479984Y-118337986D01*
X120490403Y-118316351D01*
X120497580Y-118284904D01*
X120503909Y-118265048D01*
X120511028Y-118247860D01*
X120513750Y-118214059D01*
X120515498Y-118206400D01*
X120515500Y-118206393D01*
X120515500Y-118150261D01*
X120516031Y-118142160D01*
X120521126Y-118103455D01*
X120515500Y-118067061D01*
X120515500Y-105232937D01*
X120522693Y-105208440D01*
X120516031Y-105157837D01*
X120515500Y-105149736D01*
X120515500Y-105093608D01*
X120515499Y-105093600D01*
X120513749Y-105085933D01*
X120515202Y-105062213D01*
X120503908Y-105034946D01*
X120497578Y-105015085D01*
X120490403Y-104983649D01*
X120479982Y-104962011D01*
X120475716Y-104936104D01*
X120461463Y-104917529D01*
X120448119Y-104895845D01*
X120441467Y-104882033D01*
X120441466Y-104882031D01*
X120418033Y-104852648D01*
X120407192Y-104826094D01*
X120392577Y-104814880D01*
X120376119Y-104798728D01*
X120376070Y-104798778D01*
X120366222Y-104788930D01*
X120366271Y-104788880D01*
X120350117Y-104772421D01*
X120343468Y-104763756D01*
X120338819Y-104763116D01*
X120312350Y-104746965D01*
X120282969Y-104723533D01*
X120282966Y-104723532D01*
X120269155Y-104716881D01*
X120247470Y-104703537D01*
X120236489Y-104695111D01*
X120234665Y-104695306D01*
X120202989Y-104685016D01*
X120181352Y-104674596D01*
X120181353Y-104674596D01*
X120149913Y-104667421D01*
X120130053Y-104661091D01*
X120112864Y-104653971D01*
X120079069Y-104651251D01*
X120071400Y-104649501D01*
X120071394Y-104649500D01*
X120071393Y-104649500D01*
X120015271Y-104649500D01*
X120007169Y-104648969D01*
X119968453Y-104643871D01*
X119932063Y-104649500D01*
X107097936Y-104649500D01*
X107073437Y-104642306D01*
X107022830Y-104648969D01*
X107014728Y-104649500D01*
X106958604Y-104649500D01*
X106950930Y-104651252D01*
X106927208Y-104649797D01*
X106899941Y-104661092D01*
X106880085Y-104667420D01*
X106848650Y-104674595D01*
X106848647Y-104674596D01*
X106827006Y-104685018D01*
X106801104Y-104689282D01*
X106782526Y-104703538D01*
X106760844Y-104716881D01*
X106747034Y-104723531D01*
X106747027Y-104723536D01*
X106717644Y-104746968D01*
X106691094Y-104757806D01*
X106679878Y-104772424D01*
X106663728Y-104788880D01*
X106663778Y-104788930D01*
X106653930Y-104798778D01*
X106653880Y-104798728D01*
X106637424Y-104814878D01*
X106628757Y-104821527D01*
X106628118Y-104826173D01*
X106611968Y-104852644D01*
X106588536Y-104882027D01*
X106588531Y-104882034D01*
X106581881Y-104895844D01*
X106568538Y-104917526D01*
X106560113Y-104928504D01*
X106560308Y-104930325D01*
X106550018Y-104962006D01*
X106539596Y-104983647D01*
X106539595Y-104983650D01*
X106532420Y-105015085D01*
X106526092Y-105034941D01*
X106518971Y-105052133D01*
X106516252Y-105085930D01*
X106514500Y-105093604D01*
X106514500Y-105149721D01*
X106513969Y-105157823D01*
X106508871Y-105196543D01*
X106514500Y-105232941D01*
X106514500Y-118067062D01*
X106507306Y-118091560D01*
X101465500Y-118091560D01*
X101465500Y-114757937D01*
X101472693Y-114733440D01*
X101466031Y-114682837D01*
X101465500Y-114674736D01*
X101465500Y-114618608D01*
X101465499Y-114618600D01*
X101463749Y-114610933D01*
X101465202Y-114587213D01*
X101453908Y-114559946D01*
X101447578Y-114540085D01*
X101440403Y-114508649D01*
X101429982Y-114487011D01*
X101425716Y-114461104D01*
X101411463Y-114442529D01*
X101398119Y-114420845D01*
X101391467Y-114407033D01*
X101391466Y-114407031D01*
X101368033Y-114377648D01*
X101357192Y-114351094D01*
X101342577Y-114339880D01*
X101326119Y-114323728D01*
X101326070Y-114323778D01*
X101316222Y-114313930D01*
X101316271Y-114313880D01*
X101300117Y-114297421D01*
X101293468Y-114288756D01*
X101288819Y-114288116D01*
X101262350Y-114271965D01*
X101232969Y-114248533D01*
X101232966Y-114248532D01*
X101219155Y-114241881D01*
X101197470Y-114228537D01*
X101186489Y-114220111D01*
X101184665Y-114220306D01*
X101152989Y-114210016D01*
X101131352Y-114199596D01*
X101131353Y-114199596D01*
X101099913Y-114192421D01*
X101080053Y-114186091D01*
X101062864Y-114178971D01*
X101029069Y-114176251D01*
X101021400Y-114174501D01*
X101021394Y-114174500D01*
X101021393Y-114174500D01*
X100965271Y-114174500D01*
X100957169Y-114173969D01*
X100918453Y-114168871D01*
X100882063Y-114174500D01*
X88047936Y-114174500D01*
X88023437Y-114167306D01*
X87972830Y-114173969D01*
X87964728Y-114174500D01*
X87908604Y-114174500D01*
X87900930Y-114176252D01*
X87877208Y-114174797D01*
X87849941Y-114186092D01*
X87830085Y-114192420D01*
X87798650Y-114199595D01*
X87798647Y-114199596D01*
X87777006Y-114210018D01*
X87751104Y-114214282D01*
X87732526Y-114228538D01*
X87710844Y-114241881D01*
X87697034Y-114248531D01*
X87697027Y-114248536D01*
X87667644Y-114271968D01*
X87641094Y-114282806D01*
X87629878Y-114297424D01*
X87613728Y-114313880D01*
X87613778Y-114313930D01*
X87603930Y-114323778D01*
X87603880Y-114323728D01*
X87587424Y-114339878D01*
X87578757Y-114346527D01*
X87578118Y-114351173D01*
X87561968Y-114377644D01*
X87538536Y-114407027D01*
X87538531Y-114407034D01*
X87531881Y-114420844D01*
X87518538Y-114442526D01*
X87510113Y-114453504D01*
X87510308Y-114455325D01*
X87500018Y-114487006D01*
X87489596Y-114508647D01*
X87489595Y-114508650D01*
X87482420Y-114540085D01*
X87476092Y-114559941D01*
X87468971Y-114577133D01*
X87466252Y-114610930D01*
X87464500Y-114618604D01*
X87464500Y-114674721D01*
X87463969Y-114682823D01*
X87458871Y-114721543D01*
X87464500Y-114757941D01*
X87464500Y-127592062D01*
X87457306Y-127616560D01*
X72894287Y-127616560D01*
X72890500Y-127592061D01*
X72890500Y-126616560D01*
X74320306Y-126616560D01*
X74326969Y-126667169D01*
X74327500Y-126675271D01*
X74327500Y-126731391D01*
X74327501Y-126731400D01*
X74329251Y-126739069D01*
X74327796Y-126762786D01*
X74339091Y-126790053D01*
X74345421Y-126809913D01*
X74352596Y-126841352D01*
X74363016Y-126862989D01*
X74367281Y-126888891D01*
X74381537Y-126907470D01*
X74394881Y-126929155D01*
X74401532Y-126942966D01*
X74401533Y-126942969D01*
X74424965Y-126972350D01*
X74435804Y-126998901D01*
X74450421Y-127010117D01*
X74466880Y-127026271D01*
X74466930Y-127026222D01*
X74476778Y-127036070D01*
X74476728Y-127036119D01*
X74492880Y-127052577D01*
X74499526Y-127061238D01*
X74504170Y-127061878D01*
X74530648Y-127078033D01*
X74560031Y-127101466D01*
X74560033Y-127101467D01*
X74573845Y-127108119D01*
X74595529Y-127121463D01*
X74606503Y-127129883D01*
X74608321Y-127129690D01*
X74640011Y-127139982D01*
X74661649Y-127150403D01*
X74693089Y-127157578D01*
X74712946Y-127163908D01*
X74730137Y-127171029D01*
X74763933Y-127173749D01*
X74771600Y-127175499D01*
X74771605Y-127175499D01*
X74771607Y-127175500D01*
X74771609Y-127175500D01*
X74827736Y-127175500D01*
X74835837Y-127176031D01*
X74874546Y-127181127D01*
X74910937Y-127175500D01*
X80745062Y-127175500D01*
X80769558Y-127182693D01*
X80820162Y-127176031D01*
X80828263Y-127175500D01*
X80884391Y-127175500D01*
X80884393Y-127175500D01*
X80892060Y-127173750D01*
X80915782Y-127175202D01*
X80943048Y-127163909D01*
X80962904Y-127157580D01*
X80994351Y-127150403D01*
X81015986Y-127139983D01*
X81041890Y-127135717D01*
X81060465Y-127121465D01*
X81082152Y-127108120D01*
X81095967Y-127101467D01*
X81095968Y-127101466D01*
X81125348Y-127078035D01*
X81151902Y-127067194D01*
X81163116Y-127052580D01*
X81179271Y-127036119D01*
X81179222Y-127036070D01*
X81189070Y-127026222D01*
X81189119Y-127026271D01*
X81205580Y-127010116D01*
X81214242Y-127003469D01*
X81214882Y-126998823D01*
X81231036Y-126972348D01*
X81254467Y-126942967D01*
X81261119Y-126929152D01*
X81274465Y-126907465D01*
X81282885Y-126896490D01*
X81282692Y-126894672D01*
X81292984Y-126862986D01*
X81296365Y-126855966D01*
X81303403Y-126841351D01*
X81310580Y-126809904D01*
X81316909Y-126790048D01*
X81324028Y-126772860D01*
X81326750Y-126739059D01*
X81328498Y-126731400D01*
X81328500Y-126731393D01*
X81328500Y-126675261D01*
X81329031Y-126667160D01*
X81334126Y-126628455D01*
X81328500Y-126592061D01*
X81328500Y-122600000D01*
X82934390Y-122600000D01*
X82941745Y-122702844D01*
X82942390Y-122711853D01*
X82942548Y-122716277D01*
X82942548Y-122742861D01*
X82946331Y-122769172D01*
X82946804Y-122773574D01*
X82954804Y-122885428D01*
X82954805Y-122885435D01*
X82978637Y-122994988D01*
X82979423Y-122999346D01*
X82983206Y-123025666D01*
X82990698Y-123051181D01*
X82991793Y-123055471D01*
X83015630Y-123165046D01*
X83015631Y-123165048D01*
X83054819Y-123270118D01*
X83056217Y-123274317D01*
X83063705Y-123299816D01*
X83074746Y-123323994D01*
X83076440Y-123328084D01*
X83115632Y-123433159D01*
X83115635Y-123433166D01*
X83169363Y-123531561D01*
X83171345Y-123535521D01*
X83182394Y-123559717D01*
X83196772Y-123582088D01*
X83199031Y-123585895D01*
X83241751Y-123664129D01*
X83252772Y-123684312D01*
X83252776Y-123684318D01*
X83319976Y-123774086D01*
X83322498Y-123777719D01*
X83336873Y-123800086D01*
X83347493Y-123812343D01*
X83354284Y-123820180D01*
X83357055Y-123823619D01*
X83424261Y-123913395D01*
X83503552Y-123992686D01*
X83506562Y-123995919D01*
X83523978Y-124016018D01*
X83544078Y-124033435D01*
X83547304Y-124036438D01*
X83626605Y-124115739D01*
X83716404Y-124182961D01*
X83719815Y-124185711D01*
X83739911Y-124203126D01*
X83757905Y-124214689D01*
X83762266Y-124217492D01*
X83762276Y-124217498D01*
X83765914Y-124220024D01*
X83855682Y-124287224D01*
X83855690Y-124287229D01*
X83954102Y-124340966D01*
X83957910Y-124343225D01*
X83980286Y-124357606D01*
X84004479Y-124368654D01*
X84008431Y-124370632D01*
X84106839Y-124424367D01*
X84211914Y-124463558D01*
X84215993Y-124465247D01*
X84240179Y-124476293D01*
X84265691Y-124483784D01*
X84269872Y-124485175D01*
X84374954Y-124524369D01*
X84484554Y-124548211D01*
X84488788Y-124549291D01*
X84514326Y-124556790D01*
X84514331Y-124556790D01*
X84514339Y-124556793D01*
X84540655Y-124560576D01*
X84544982Y-124561356D01*
X84654572Y-124585196D01*
X84766450Y-124593197D01*
X84770795Y-124593664D01*
X84797139Y-124597452D01*
X84797146Y-124597452D01*
X84823721Y-124597452D01*
X84828143Y-124597609D01*
X84877344Y-124601128D01*
X84939999Y-124605610D01*
X84940000Y-124605610D01*
X84940001Y-124605610D01*
X85002655Y-124601128D01*
X85051856Y-124597609D01*
X85056279Y-124597452D01*
X85082854Y-124597452D01*
X85082861Y-124597452D01*
X85109219Y-124593662D01*
X85113516Y-124593200D01*
X85225428Y-124585196D01*
X85335012Y-124561357D01*
X85339345Y-124560576D01*
X85365671Y-124556791D01*
X85391189Y-124549298D01*
X85395438Y-124548212D01*
X85505046Y-124524369D01*
X85610124Y-124485177D01*
X85614291Y-124483789D01*
X85639821Y-124476293D01*
X85664020Y-124465241D01*
X85668056Y-124463569D01*
X85773161Y-124424367D01*
X85871568Y-124370632D01*
X85875514Y-124368657D01*
X85899708Y-124357608D01*
X85899716Y-124357602D01*
X85899722Y-124357600D01*
X85922104Y-124343215D01*
X85925872Y-124340979D01*
X86024315Y-124287226D01*
X86114120Y-124219998D01*
X86117697Y-124217515D01*
X86140086Y-124203127D01*
X86160208Y-124185690D01*
X86163591Y-124182965D01*
X86253395Y-124115739D01*
X86332690Y-124036444D01*
X86335913Y-124033442D01*
X86356020Y-124016020D01*
X86373445Y-123995909D01*
X86376433Y-123992700D01*
X86455739Y-123913395D01*
X86522965Y-123823591D01*
X86525690Y-123820208D01*
X86543127Y-123800086D01*
X86557507Y-123777709D01*
X86560008Y-123774107D01*
X86627226Y-123684315D01*
X86680979Y-123585872D01*
X86683215Y-123582104D01*
X86697600Y-123559722D01*
X86697602Y-123559716D01*
X86697608Y-123559708D01*
X86708657Y-123535514D01*
X86710636Y-123531561D01*
X86764367Y-123433161D01*
X86803569Y-123328056D01*
X86805241Y-123324020D01*
X86816293Y-123299821D01*
X86823789Y-123274291D01*
X86825177Y-123270124D01*
X86828758Y-123260522D01*
X86864369Y-123165046D01*
X86888212Y-123055438D01*
X86889298Y-123051189D01*
X86896791Y-123025671D01*
X86900576Y-122999345D01*
X86901357Y-122995012D01*
X86925196Y-122885428D01*
X86933198Y-122773540D01*
X86933666Y-122769192D01*
X86937452Y-122742861D01*
X86938107Y-122706105D01*
X86938250Y-122702901D01*
X86945610Y-122600000D01*
X86938250Y-122497102D01*
X86938107Y-122493890D01*
X86937452Y-122457139D01*
X86933663Y-122430789D01*
X86933197Y-122426450D01*
X86925196Y-122314572D01*
X86901356Y-122204982D01*
X86900576Y-122200655D01*
X86896793Y-122174339D01*
X86896790Y-122174331D01*
X86896790Y-122174326D01*
X86889291Y-122148788D01*
X86888211Y-122144554D01*
X86864369Y-122034954D01*
X86825175Y-121929872D01*
X86823782Y-121925684D01*
X86816293Y-121900179D01*
X86805246Y-121875989D01*
X86803558Y-121871914D01*
X86803553Y-121871901D01*
X86764367Y-121766839D01*
X86710632Y-121668431D01*
X86708654Y-121664479D01*
X86697606Y-121640286D01*
X86683225Y-121617910D01*
X86680966Y-121614102D01*
X86627229Y-121515690D01*
X86627224Y-121515682D01*
X86560024Y-121425914D01*
X86557498Y-121422276D01*
X86543126Y-121399911D01*
X86525711Y-121379815D01*
X86522961Y-121376404D01*
X86455739Y-121286605D01*
X86376438Y-121207304D01*
X86373435Y-121204078D01*
X86372484Y-121202981D01*
X86356020Y-121183980D01*
X86335921Y-121166564D01*
X86332681Y-121163547D01*
X86253398Y-121084264D01*
X86253396Y-121084262D01*
X86253395Y-121084261D01*
X86163619Y-121017055D01*
X86160180Y-121014284D01*
X86147188Y-121003027D01*
X86140086Y-120996873D01*
X86117719Y-120982498D01*
X86114086Y-120979976D01*
X86024318Y-120912776D01*
X86024316Y-120912775D01*
X86024315Y-120912774D01*
X86004129Y-120901751D01*
X85925895Y-120859031D01*
X85922088Y-120856772D01*
X85899717Y-120842394D01*
X85875521Y-120831345D01*
X85871561Y-120829363D01*
X85773166Y-120775635D01*
X85773159Y-120775632D01*
X85668084Y-120736440D01*
X85663994Y-120734746D01*
X85649072Y-120727931D01*
X85639821Y-120723707D01*
X85639819Y-120723706D01*
X85639816Y-120723705D01*
X85614317Y-120716217D01*
X85610118Y-120714819D01*
X85505048Y-120675631D01*
X85505046Y-120675630D01*
X85395471Y-120651793D01*
X85391180Y-120650698D01*
X85384402Y-120648708D01*
X85365669Y-120643207D01*
X85339346Y-120639423D01*
X85334988Y-120638637D01*
X85225435Y-120614805D01*
X85225428Y-120614804D01*
X85113574Y-120606804D01*
X85109177Y-120606331D01*
X85082861Y-120602548D01*
X85056279Y-120602548D01*
X85051856Y-120602390D01*
X85002655Y-120598871D01*
X84940001Y-120594390D01*
X84939999Y-120594390D01*
X84877344Y-120598871D01*
X84828143Y-120602390D01*
X84823721Y-120602548D01*
X84797137Y-120602548D01*
X84770826Y-120606331D01*
X84766424Y-120606804D01*
X84654571Y-120614804D01*
X84654561Y-120614805D01*
X84545013Y-120638636D01*
X84540657Y-120639422D01*
X84514325Y-120643207D01*
X84488819Y-120650698D01*
X84484528Y-120651793D01*
X84374953Y-120675630D01*
X84374947Y-120675632D01*
X84269883Y-120714819D01*
X84265684Y-120716216D01*
X84240177Y-120723706D01*
X84215989Y-120734753D01*
X84211901Y-120736446D01*
X84106844Y-120775630D01*
X84106831Y-120775636D01*
X84008436Y-120829363D01*
X84004478Y-120831344D01*
X83980291Y-120842389D01*
X83957909Y-120856773D01*
X83954102Y-120859033D01*
X83855688Y-120912771D01*
X83765903Y-120979981D01*
X83762271Y-120982503D01*
X83739911Y-120996874D01*
X83732810Y-121003027D01*
X83719823Y-121014280D01*
X83716377Y-121017057D01*
X83626619Y-121084249D01*
X83626604Y-121084262D01*
X83547310Y-121163553D01*
X83544071Y-121166569D01*
X83523979Y-121183979D01*
X83506569Y-121204071D01*
X83503553Y-121207310D01*
X83424262Y-121286604D01*
X83424249Y-121286619D01*
X83357059Y-121376375D01*
X83354285Y-121379817D01*
X83349762Y-121385038D01*
X83336866Y-121399920D01*
X83322505Y-121422267D01*
X83319982Y-121425902D01*
X83252771Y-121515688D01*
X83199033Y-121614102D01*
X83196773Y-121617909D01*
X83182389Y-121640291D01*
X83171344Y-121664478D01*
X83169363Y-121668436D01*
X83115636Y-121766831D01*
X83115630Y-121766844D01*
X83076446Y-121871901D01*
X83074753Y-121875989D01*
X83063706Y-121900177D01*
X83056216Y-121925684D01*
X83054819Y-121929883D01*
X83015632Y-122034947D01*
X83015630Y-122034953D01*
X82991793Y-122144528D01*
X82990698Y-122148819D01*
X82983207Y-122174325D01*
X82979422Y-122200657D01*
X82978636Y-122205013D01*
X82954805Y-122314561D01*
X82954804Y-122314571D01*
X82946804Y-122426424D01*
X82946331Y-122430826D01*
X82942548Y-122457136D01*
X82942548Y-122483721D01*
X82942390Y-122488143D01*
X82934390Y-122600000D01*
X81328500Y-122600000D01*
X81328500Y-112757937D01*
X81335693Y-112733440D01*
X81329031Y-112682837D01*
X81328500Y-112674736D01*
X81328500Y-112618608D01*
X81328499Y-112618600D01*
X81326749Y-112610933D01*
X81328202Y-112587213D01*
X81316908Y-112559946D01*
X81310578Y-112540085D01*
X81303403Y-112508649D01*
X81292982Y-112487011D01*
X81288716Y-112461104D01*
X81274463Y-112442529D01*
X81261119Y-112420845D01*
X81254467Y-112407033D01*
X81254466Y-112407031D01*
X81231033Y-112377648D01*
X81220192Y-112351094D01*
X81205577Y-112339880D01*
X81189119Y-112323728D01*
X81189070Y-112323778D01*
X81179222Y-112313930D01*
X81179271Y-112313880D01*
X81163117Y-112297421D01*
X81156468Y-112288756D01*
X81151819Y-112288116D01*
X81125350Y-112271965D01*
X81095969Y-112248533D01*
X81095966Y-112248532D01*
X81082155Y-112241881D01*
X81060470Y-112228537D01*
X81049489Y-112220111D01*
X81047665Y-112220306D01*
X81015989Y-112210016D01*
X80994352Y-112199596D01*
X80994353Y-112199596D01*
X80962913Y-112192421D01*
X80943053Y-112186091D01*
X80925864Y-112178971D01*
X80892069Y-112176251D01*
X80884400Y-112174501D01*
X80884394Y-112174500D01*
X80884393Y-112174500D01*
X80828271Y-112174500D01*
X80820169Y-112173969D01*
X80781453Y-112168871D01*
X80745063Y-112174500D01*
X74910936Y-112174500D01*
X74886437Y-112167306D01*
X74835830Y-112173969D01*
X74827728Y-112174500D01*
X74771604Y-112174500D01*
X74763930Y-112176252D01*
X74740208Y-112174797D01*
X74712941Y-112186092D01*
X74693085Y-112192420D01*
X74661650Y-112199595D01*
X74661647Y-112199596D01*
X74640006Y-112210018D01*
X74614104Y-112214282D01*
X74595526Y-112228538D01*
X74573844Y-112241881D01*
X74560034Y-112248531D01*
X74560027Y-112248536D01*
X74530644Y-112271968D01*
X74504094Y-112282806D01*
X74492878Y-112297424D01*
X74476728Y-112313880D01*
X74476778Y-112313930D01*
X74466930Y-112323778D01*
X74466880Y-112323728D01*
X74450424Y-112339878D01*
X74441757Y-112346527D01*
X74441118Y-112351173D01*
X74424968Y-112377644D01*
X74401536Y-112407027D01*
X74401531Y-112407034D01*
X74394881Y-112420844D01*
X74381538Y-112442526D01*
X74373113Y-112453504D01*
X74373308Y-112455325D01*
X74363018Y-112487006D01*
X74352596Y-112508647D01*
X74352595Y-112508650D01*
X74345420Y-112540085D01*
X74339092Y-112559941D01*
X74331971Y-112577133D01*
X74329252Y-112610930D01*
X74327500Y-112618604D01*
X74327500Y-112674727D01*
X74326969Y-112682828D01*
X74321871Y-112721545D01*
X74327500Y-112757936D01*
X74327500Y-126592062D01*
X74320306Y-126616560D01*
X72890500Y-126616560D01*
X72890500Y-114757937D01*
X72897693Y-114733440D01*
X72891031Y-114682837D01*
X72890500Y-114674736D01*
X72890500Y-114618608D01*
X72890499Y-114618600D01*
X72888749Y-114610933D01*
X72890202Y-114587213D01*
X72878908Y-114559946D01*
X72872578Y-114540085D01*
X72865403Y-114508649D01*
X72854982Y-114487011D01*
X72850716Y-114461104D01*
X72836463Y-114442529D01*
X72823119Y-114420845D01*
X72816467Y-114407033D01*
X72816466Y-114407031D01*
X72793033Y-114377648D01*
X72782192Y-114351094D01*
X72767577Y-114339880D01*
X72751119Y-114323728D01*
X72751070Y-114323778D01*
X72741222Y-114313930D01*
X72741271Y-114313880D01*
X72725117Y-114297421D01*
X72718468Y-114288756D01*
X72713819Y-114288116D01*
X72687350Y-114271965D01*
X72657969Y-114248533D01*
X72657966Y-114248532D01*
X72644155Y-114241881D01*
X72622470Y-114228537D01*
X72611489Y-114220111D01*
X72609665Y-114220306D01*
X72577989Y-114210016D01*
X72556352Y-114199596D01*
X72556353Y-114199596D01*
X72524913Y-114192421D01*
X72505053Y-114186091D01*
X72487864Y-114178971D01*
X72454069Y-114176251D01*
X72446400Y-114174501D01*
X72446394Y-114174500D01*
X72446393Y-114174500D01*
X72390271Y-114174500D01*
X72382169Y-114173969D01*
X72343453Y-114168871D01*
X72307063Y-114174500D01*
X59472936Y-114174500D01*
X59448437Y-114167306D01*
X59397830Y-114173969D01*
X59389728Y-114174500D01*
X59333604Y-114174500D01*
X59325930Y-114176252D01*
X59302208Y-114174797D01*
X59274941Y-114186092D01*
X59255085Y-114192420D01*
X59223650Y-114199595D01*
X59223647Y-114199596D01*
X59202006Y-114210018D01*
X59176104Y-114214282D01*
X59157526Y-114228538D01*
X59135844Y-114241881D01*
X59122034Y-114248531D01*
X59122027Y-114248536D01*
X59092644Y-114271968D01*
X59066094Y-114282806D01*
X59054878Y-114297424D01*
X59038728Y-114313880D01*
X59038778Y-114313930D01*
X59028930Y-114323778D01*
X59028880Y-114323728D01*
X59012424Y-114339878D01*
X59003757Y-114346527D01*
X59003118Y-114351173D01*
X58986968Y-114377644D01*
X58963536Y-114407027D01*
X58963531Y-114407034D01*
X58956881Y-114420844D01*
X58943538Y-114442526D01*
X58935113Y-114453504D01*
X58935308Y-114455325D01*
X58925018Y-114487006D01*
X58914596Y-114508647D01*
X58914595Y-114508650D01*
X58907420Y-114540085D01*
X58901092Y-114559941D01*
X58893971Y-114577133D01*
X58891252Y-114610930D01*
X58889500Y-114618604D01*
X58889500Y-114674721D01*
X58888969Y-114682823D01*
X58883871Y-114721543D01*
X58889500Y-114757941D01*
X58889500Y-127592062D01*
X58882306Y-127616560D01*
X46840500Y-127616560D01*
X46840500Y-126616560D01*
X50444306Y-126616560D01*
X50450969Y-126667169D01*
X50451500Y-126675271D01*
X50451500Y-126731391D01*
X50451501Y-126731400D01*
X50453251Y-126739069D01*
X50451796Y-126762786D01*
X50463091Y-126790053D01*
X50469421Y-126809913D01*
X50476596Y-126841352D01*
X50487016Y-126862989D01*
X50491281Y-126888891D01*
X50505537Y-126907470D01*
X50518881Y-126929155D01*
X50525532Y-126942966D01*
X50525533Y-126942969D01*
X50548965Y-126972350D01*
X50559804Y-126998901D01*
X50574421Y-127010117D01*
X50590880Y-127026271D01*
X50590930Y-127026222D01*
X50600778Y-127036070D01*
X50600728Y-127036119D01*
X50616880Y-127052577D01*
X50623526Y-127061238D01*
X50628170Y-127061878D01*
X50654648Y-127078033D01*
X50684031Y-127101466D01*
X50684033Y-127101467D01*
X50697845Y-127108119D01*
X50719529Y-127121463D01*
X50730503Y-127129883D01*
X50732321Y-127129690D01*
X50764011Y-127139982D01*
X50785649Y-127150403D01*
X50817089Y-127157578D01*
X50836946Y-127163908D01*
X50854137Y-127171029D01*
X50887933Y-127173749D01*
X50895600Y-127175499D01*
X50895605Y-127175499D01*
X50895607Y-127175500D01*
X50895609Y-127175500D01*
X50951736Y-127175500D01*
X50959837Y-127176031D01*
X50998546Y-127181127D01*
X51034937Y-127175500D01*
X56869062Y-127175500D01*
X56893558Y-127182693D01*
X56944162Y-127176031D01*
X56952263Y-127175500D01*
X57008391Y-127175500D01*
X57008393Y-127175500D01*
X57016060Y-127173750D01*
X57039782Y-127175202D01*
X57067048Y-127163909D01*
X57086904Y-127157580D01*
X57118351Y-127150403D01*
X57139986Y-127139983D01*
X57165890Y-127135717D01*
X57184465Y-127121465D01*
X57206152Y-127108120D01*
X57219967Y-127101467D01*
X57219968Y-127101466D01*
X57249348Y-127078035D01*
X57275902Y-127067194D01*
X57287116Y-127052580D01*
X57303271Y-127036119D01*
X57303222Y-127036070D01*
X57313070Y-127026222D01*
X57313119Y-127026271D01*
X57329580Y-127010116D01*
X57338242Y-127003469D01*
X57338882Y-126998823D01*
X57355036Y-126972348D01*
X57378467Y-126942967D01*
X57385119Y-126929152D01*
X57398465Y-126907465D01*
X57406885Y-126896490D01*
X57406692Y-126894672D01*
X57416984Y-126862986D01*
X57420365Y-126855966D01*
X57427403Y-126841351D01*
X57434580Y-126809904D01*
X57440909Y-126790048D01*
X57448028Y-126772860D01*
X57450750Y-126739059D01*
X57452498Y-126731400D01*
X57452500Y-126731393D01*
X57452500Y-126675261D01*
X57453031Y-126667160D01*
X57458126Y-126628455D01*
X57452500Y-126592061D01*
X57452500Y-112757937D01*
X57459693Y-112733440D01*
X57453031Y-112682837D01*
X57452500Y-112674736D01*
X57452500Y-112618608D01*
X57452499Y-112618600D01*
X57450749Y-112610933D01*
X57452202Y-112587213D01*
X57440908Y-112559946D01*
X57434578Y-112540085D01*
X57427403Y-112508649D01*
X57416982Y-112487011D01*
X57412716Y-112461104D01*
X57398463Y-112442529D01*
X57385119Y-112420845D01*
X57378467Y-112407033D01*
X57378466Y-112407031D01*
X57355033Y-112377648D01*
X57344192Y-112351094D01*
X57329577Y-112339880D01*
X57313119Y-112323728D01*
X57313070Y-112323778D01*
X57303222Y-112313930D01*
X57303271Y-112313880D01*
X57287117Y-112297421D01*
X57280468Y-112288756D01*
X57275819Y-112288116D01*
X57249350Y-112271965D01*
X57219969Y-112248533D01*
X57219966Y-112248532D01*
X57206155Y-112241881D01*
X57184470Y-112228537D01*
X57173489Y-112220111D01*
X57171665Y-112220306D01*
X57139989Y-112210016D01*
X57118352Y-112199596D01*
X57118353Y-112199596D01*
X57086913Y-112192421D01*
X57067053Y-112186091D01*
X57049864Y-112178971D01*
X57016069Y-112176251D01*
X57008400Y-112174501D01*
X57008394Y-112174500D01*
X57008393Y-112174500D01*
X56952271Y-112174500D01*
X56944169Y-112173969D01*
X56905453Y-112168871D01*
X56869063Y-112174500D01*
X51034936Y-112174500D01*
X51010437Y-112167306D01*
X50959830Y-112173969D01*
X50951728Y-112174500D01*
X50895604Y-112174500D01*
X50887930Y-112176252D01*
X50864208Y-112174797D01*
X50836941Y-112186092D01*
X50817085Y-112192420D01*
X50785650Y-112199595D01*
X50785647Y-112199596D01*
X50764006Y-112210018D01*
X50738104Y-112214282D01*
X50719526Y-112228538D01*
X50697844Y-112241881D01*
X50684034Y-112248531D01*
X50684027Y-112248536D01*
X50654644Y-112271968D01*
X50628094Y-112282806D01*
X50616878Y-112297424D01*
X50600728Y-112313880D01*
X50600778Y-112313930D01*
X50590930Y-112323778D01*
X50590880Y-112323728D01*
X50574424Y-112339878D01*
X50565757Y-112346527D01*
X50565118Y-112351173D01*
X50548968Y-112377644D01*
X50525536Y-112407027D01*
X50525531Y-112407034D01*
X50518881Y-112420844D01*
X50505538Y-112442526D01*
X50497113Y-112453504D01*
X50497308Y-112455325D01*
X50487018Y-112487006D01*
X50476596Y-112508647D01*
X50476595Y-112508650D01*
X50469420Y-112540085D01*
X50463092Y-112559941D01*
X50455971Y-112577133D01*
X50453252Y-112610930D01*
X50451500Y-112618604D01*
X50451500Y-112674721D01*
X50450969Y-112682823D01*
X50445871Y-112721543D01*
X50451500Y-112757941D01*
X50451500Y-126592062D01*
X50444306Y-126616560D01*
X46840500Y-126616560D01*
X46840500Y-108566560D01*
X49357306Y-108566560D01*
X49363969Y-108617169D01*
X49364500Y-108625271D01*
X49364500Y-108681391D01*
X49364501Y-108681400D01*
X49366251Y-108689069D01*
X49364796Y-108712786D01*
X49376091Y-108740053D01*
X49382421Y-108759913D01*
X49389596Y-108791352D01*
X49400016Y-108812989D01*
X49404281Y-108838891D01*
X49418537Y-108857470D01*
X49431881Y-108879155D01*
X49438532Y-108892966D01*
X49438533Y-108892969D01*
X49461965Y-108922350D01*
X49472804Y-108948901D01*
X49487421Y-108960117D01*
X49503880Y-108976271D01*
X49503930Y-108976222D01*
X49513778Y-108986070D01*
X49513728Y-108986119D01*
X49529880Y-109002577D01*
X49536526Y-109011238D01*
X49541170Y-109011878D01*
X49567648Y-109028033D01*
X49597031Y-109051466D01*
X49597033Y-109051467D01*
X49610845Y-109058119D01*
X49632529Y-109071463D01*
X49643503Y-109079883D01*
X49645321Y-109079690D01*
X49677011Y-109089982D01*
X49698649Y-109100403D01*
X49730089Y-109107578D01*
X49749946Y-109113908D01*
X49767137Y-109121029D01*
X49800933Y-109123749D01*
X49808600Y-109125499D01*
X49808605Y-109125499D01*
X49808607Y-109125500D01*
X49808609Y-109125500D01*
X49864736Y-109125500D01*
X49872837Y-109126031D01*
X49911546Y-109131127D01*
X49947937Y-109125500D01*
X62782062Y-109125500D01*
X62806558Y-109132693D01*
X62857162Y-109126031D01*
X62865263Y-109125500D01*
X62921391Y-109125500D01*
X62921393Y-109125500D01*
X62929060Y-109123750D01*
X62952782Y-109125202D01*
X62980048Y-109113909D01*
X62999904Y-109107580D01*
X63031351Y-109100403D01*
X63052986Y-109089983D01*
X63078890Y-109085717D01*
X63097465Y-109071465D01*
X63119152Y-109058120D01*
X63132967Y-109051467D01*
X63132968Y-109051466D01*
X63162348Y-109028035D01*
X63188902Y-109017194D01*
X63200116Y-109002580D01*
X63216271Y-108986119D01*
X63216222Y-108986070D01*
X63226070Y-108976222D01*
X63226119Y-108976271D01*
X63242580Y-108960116D01*
X63251242Y-108953469D01*
X63251882Y-108948823D01*
X63268036Y-108922348D01*
X63291465Y-108892969D01*
X63291467Y-108892967D01*
X63298120Y-108879152D01*
X63311465Y-108857465D01*
X63319885Y-108846490D01*
X63319692Y-108844672D01*
X63329984Y-108812986D01*
X63340403Y-108791351D01*
X63347580Y-108759904D01*
X63353909Y-108740048D01*
X63361028Y-108722860D01*
X63363750Y-108689059D01*
X63365498Y-108681400D01*
X63365500Y-108681393D01*
X63365500Y-108625261D01*
X63366031Y-108617160D01*
X63371126Y-108578455D01*
X63369287Y-108566560D01*
X68407306Y-108566560D01*
X68413969Y-108617169D01*
X68414500Y-108625271D01*
X68414500Y-108681391D01*
X68414501Y-108681400D01*
X68416251Y-108689069D01*
X68414796Y-108712786D01*
X68426091Y-108740053D01*
X68432421Y-108759913D01*
X68439596Y-108791352D01*
X68450016Y-108812989D01*
X68454281Y-108838891D01*
X68468537Y-108857470D01*
X68481881Y-108879155D01*
X68488532Y-108892966D01*
X68488533Y-108892969D01*
X68511965Y-108922350D01*
X68522804Y-108948901D01*
X68537421Y-108960117D01*
X68553880Y-108976271D01*
X68553930Y-108976222D01*
X68563778Y-108986070D01*
X68563728Y-108986119D01*
X68579880Y-109002577D01*
X68586526Y-109011238D01*
X68591170Y-109011878D01*
X68617648Y-109028033D01*
X68647031Y-109051466D01*
X68647033Y-109051467D01*
X68660845Y-109058119D01*
X68682529Y-109071463D01*
X68693503Y-109079883D01*
X68695321Y-109079690D01*
X68727011Y-109089982D01*
X68748649Y-109100403D01*
X68780089Y-109107578D01*
X68799946Y-109113908D01*
X68817137Y-109121029D01*
X68850933Y-109123749D01*
X68858600Y-109125499D01*
X68858605Y-109125499D01*
X68858607Y-109125500D01*
X68858609Y-109125500D01*
X68914736Y-109125500D01*
X68922837Y-109126031D01*
X68961546Y-109131127D01*
X68997937Y-109125500D01*
X81832062Y-109125500D01*
X81856558Y-109132693D01*
X81907162Y-109126031D01*
X81915263Y-109125500D01*
X81971391Y-109125500D01*
X81971393Y-109125500D01*
X81979060Y-109123750D01*
X82002782Y-109125202D01*
X82030048Y-109113909D01*
X82049904Y-109107580D01*
X82081351Y-109100403D01*
X82102986Y-109089983D01*
X82128890Y-109085717D01*
X82147465Y-109071465D01*
X82169152Y-109058120D01*
X82182967Y-109051467D01*
X82182968Y-109051466D01*
X82212348Y-109028035D01*
X82238902Y-109017194D01*
X82250116Y-109002580D01*
X82266271Y-108986119D01*
X82266222Y-108986070D01*
X82276070Y-108976222D01*
X82276119Y-108976271D01*
X82292580Y-108960116D01*
X82301242Y-108953469D01*
X82301882Y-108948823D01*
X82318036Y-108922348D01*
X82341465Y-108892969D01*
X82341467Y-108892967D01*
X82348120Y-108879152D01*
X82361465Y-108857465D01*
X82369885Y-108846490D01*
X82369692Y-108844672D01*
X82379984Y-108812986D01*
X82390403Y-108791351D01*
X82397580Y-108759904D01*
X82403909Y-108740048D01*
X82411028Y-108722860D01*
X82413750Y-108689059D01*
X82415498Y-108681400D01*
X82415500Y-108681393D01*
X82415500Y-108625261D01*
X82416031Y-108617160D01*
X82421126Y-108578455D01*
X82419287Y-108566560D01*
X87457306Y-108566560D01*
X87463969Y-108617169D01*
X87464500Y-108625271D01*
X87464500Y-108681391D01*
X87464501Y-108681400D01*
X87466251Y-108689069D01*
X87464796Y-108712786D01*
X87476091Y-108740053D01*
X87482421Y-108759913D01*
X87489596Y-108791352D01*
X87500016Y-108812989D01*
X87504281Y-108838891D01*
X87518537Y-108857470D01*
X87531881Y-108879155D01*
X87538532Y-108892966D01*
X87538533Y-108892969D01*
X87561965Y-108922350D01*
X87572804Y-108948901D01*
X87587421Y-108960117D01*
X87603880Y-108976271D01*
X87603930Y-108976222D01*
X87613778Y-108986070D01*
X87613728Y-108986119D01*
X87629880Y-109002577D01*
X87636526Y-109011238D01*
X87641170Y-109011878D01*
X87667648Y-109028033D01*
X87697031Y-109051466D01*
X87697033Y-109051467D01*
X87710845Y-109058119D01*
X87732529Y-109071463D01*
X87743503Y-109079883D01*
X87745321Y-109079690D01*
X87777011Y-109089982D01*
X87798649Y-109100403D01*
X87830089Y-109107578D01*
X87849946Y-109113908D01*
X87867137Y-109121029D01*
X87900933Y-109123749D01*
X87908600Y-109125499D01*
X87908605Y-109125499D01*
X87908607Y-109125500D01*
X87908609Y-109125500D01*
X87964736Y-109125500D01*
X87972837Y-109126031D01*
X88011546Y-109131127D01*
X88047937Y-109125500D01*
X100882062Y-109125500D01*
X100906558Y-109132693D01*
X100957162Y-109126031D01*
X100965263Y-109125500D01*
X101021391Y-109125500D01*
X101021393Y-109125500D01*
X101029060Y-109123750D01*
X101052782Y-109125202D01*
X101080048Y-109113909D01*
X101099904Y-109107580D01*
X101131351Y-109100403D01*
X101152986Y-109089983D01*
X101178890Y-109085717D01*
X101197465Y-109071465D01*
X101219152Y-109058120D01*
X101232967Y-109051467D01*
X101232968Y-109051466D01*
X101262348Y-109028035D01*
X101288902Y-109017194D01*
X101300116Y-109002580D01*
X101316271Y-108986119D01*
X101316222Y-108986070D01*
X101326070Y-108976222D01*
X101326119Y-108976271D01*
X101342580Y-108960116D01*
X101351242Y-108953469D01*
X101351882Y-108948823D01*
X101368036Y-108922348D01*
X101391465Y-108892969D01*
X101391467Y-108892967D01*
X101398120Y-108879152D01*
X101411465Y-108857465D01*
X101419885Y-108846490D01*
X101419692Y-108844672D01*
X101429984Y-108812986D01*
X101440403Y-108791351D01*
X101447580Y-108759904D01*
X101453909Y-108740048D01*
X101461028Y-108722860D01*
X101463750Y-108689059D01*
X101465498Y-108681400D01*
X101465500Y-108681393D01*
X101465500Y-108625261D01*
X101466031Y-108617160D01*
X101471126Y-108578455D01*
X101465500Y-108542061D01*
X101465500Y-102653560D01*
X104507306Y-102653560D01*
X104513969Y-102704169D01*
X104514500Y-102712271D01*
X104514500Y-102768391D01*
X104514501Y-102768400D01*
X104516251Y-102776069D01*
X104514796Y-102799786D01*
X104526091Y-102827053D01*
X104532421Y-102846913D01*
X104539596Y-102878352D01*
X104550016Y-102899989D01*
X104554281Y-102925891D01*
X104568537Y-102944470D01*
X104581881Y-102966155D01*
X104588532Y-102979966D01*
X104588533Y-102979969D01*
X104611965Y-103009350D01*
X104622804Y-103035901D01*
X104637421Y-103047117D01*
X104653880Y-103063271D01*
X104653930Y-103063222D01*
X104663778Y-103073070D01*
X104663728Y-103073119D01*
X104679880Y-103089577D01*
X104686526Y-103098238D01*
X104691170Y-103098878D01*
X104717648Y-103115033D01*
X104747031Y-103138466D01*
X104747033Y-103138467D01*
X104760845Y-103145119D01*
X104782529Y-103158463D01*
X104793503Y-103166883D01*
X104795321Y-103166690D01*
X104827011Y-103176982D01*
X104848649Y-103187403D01*
X104880089Y-103194578D01*
X104899946Y-103200908D01*
X104917137Y-103208029D01*
X104950933Y-103210749D01*
X104958600Y-103212499D01*
X104958605Y-103212499D01*
X104958607Y-103212500D01*
X104958609Y-103212500D01*
X105014736Y-103212500D01*
X105022837Y-103213031D01*
X105061546Y-103218127D01*
X105097937Y-103212500D01*
X118932062Y-103212500D01*
X118956558Y-103219693D01*
X119007162Y-103213031D01*
X119015263Y-103212500D01*
X119071391Y-103212500D01*
X119071393Y-103212500D01*
X119079060Y-103210750D01*
X119102782Y-103212202D01*
X119130048Y-103200909D01*
X119149904Y-103194580D01*
X119181351Y-103187403D01*
X119202986Y-103176983D01*
X119228890Y-103172717D01*
X119247465Y-103158465D01*
X119269152Y-103145120D01*
X119282967Y-103138467D01*
X119282968Y-103138466D01*
X119312348Y-103115035D01*
X119338902Y-103104194D01*
X119350116Y-103089580D01*
X119366271Y-103073119D01*
X119366222Y-103073070D01*
X119376070Y-103063222D01*
X119376119Y-103063271D01*
X119392580Y-103047116D01*
X119401242Y-103040469D01*
X119401882Y-103035823D01*
X119418036Y-103009348D01*
X119441465Y-102979969D01*
X119441467Y-102979967D01*
X119448120Y-102966152D01*
X119461465Y-102944465D01*
X119469885Y-102933490D01*
X119469692Y-102931672D01*
X119479984Y-102899986D01*
X119490403Y-102878351D01*
X119497580Y-102846904D01*
X119503909Y-102827048D01*
X119511028Y-102809860D01*
X119513750Y-102776059D01*
X119515498Y-102768400D01*
X119515500Y-102768393D01*
X119515500Y-102712261D01*
X119516031Y-102704160D01*
X119521126Y-102665455D01*
X119515500Y-102629061D01*
X119515500Y-96794937D01*
X119522693Y-96770440D01*
X119516031Y-96719837D01*
X119515500Y-96711736D01*
X119515500Y-96655608D01*
X119515499Y-96655600D01*
X119513749Y-96647933D01*
X119515202Y-96624213D01*
X119503908Y-96596946D01*
X119497578Y-96577085D01*
X119490403Y-96545649D01*
X119479982Y-96524011D01*
X119475716Y-96498104D01*
X119461463Y-96479529D01*
X119448119Y-96457845D01*
X119441467Y-96444033D01*
X119441466Y-96444031D01*
X119418033Y-96414648D01*
X119407192Y-96388094D01*
X119392577Y-96376880D01*
X119376119Y-96360728D01*
X119376070Y-96360778D01*
X119366222Y-96350930D01*
X119366271Y-96350880D01*
X119350117Y-96334421D01*
X119343468Y-96325756D01*
X119338819Y-96325116D01*
X119312350Y-96308965D01*
X119282969Y-96285533D01*
X119282966Y-96285532D01*
X119269155Y-96278881D01*
X119247470Y-96265537D01*
X119236489Y-96257111D01*
X119234665Y-96257306D01*
X119202989Y-96247016D01*
X119181352Y-96236596D01*
X119181353Y-96236596D01*
X119149913Y-96229421D01*
X119130053Y-96223091D01*
X119112864Y-96215971D01*
X119079069Y-96213251D01*
X119071400Y-96211501D01*
X119071394Y-96211500D01*
X119071393Y-96211500D01*
X119015271Y-96211500D01*
X119007169Y-96210969D01*
X118968453Y-96205871D01*
X118932063Y-96211500D01*
X105097936Y-96211500D01*
X105073437Y-96204306D01*
X105022830Y-96210969D01*
X105014728Y-96211500D01*
X104958604Y-96211500D01*
X104950930Y-96213252D01*
X104927208Y-96211797D01*
X104899941Y-96223092D01*
X104880085Y-96229420D01*
X104848650Y-96236595D01*
X104848647Y-96236596D01*
X104827006Y-96247018D01*
X104801104Y-96251282D01*
X104782526Y-96265538D01*
X104760844Y-96278881D01*
X104747034Y-96285531D01*
X104747027Y-96285536D01*
X104717644Y-96308968D01*
X104691094Y-96319806D01*
X104679878Y-96334424D01*
X104663728Y-96350880D01*
X104663778Y-96350930D01*
X104653930Y-96360778D01*
X104653880Y-96360728D01*
X104637424Y-96376878D01*
X104628757Y-96383527D01*
X104628118Y-96388173D01*
X104611968Y-96414644D01*
X104588536Y-96444027D01*
X104588531Y-96444034D01*
X104581881Y-96457844D01*
X104568538Y-96479526D01*
X104560113Y-96490504D01*
X104560308Y-96492325D01*
X104550018Y-96524006D01*
X104539596Y-96545647D01*
X104539595Y-96545650D01*
X104532420Y-96577085D01*
X104526092Y-96596941D01*
X104518971Y-96614133D01*
X104516252Y-96647930D01*
X104514500Y-96655604D01*
X104514500Y-96711721D01*
X104513969Y-96719823D01*
X104508871Y-96758543D01*
X104514500Y-96794941D01*
X104514500Y-102629062D01*
X104507306Y-102653560D01*
X101465500Y-102653560D01*
X101465500Y-95707937D01*
X101472693Y-95683440D01*
X101466031Y-95632837D01*
X101465500Y-95624736D01*
X101465500Y-95568608D01*
X101465499Y-95568600D01*
X101463749Y-95560933D01*
X101465202Y-95537213D01*
X101453908Y-95509946D01*
X101447578Y-95490085D01*
X101440403Y-95458649D01*
X101429982Y-95437011D01*
X101425716Y-95411104D01*
X101411463Y-95392529D01*
X101398119Y-95370845D01*
X101391467Y-95357033D01*
X101391466Y-95357031D01*
X101368033Y-95327648D01*
X101357192Y-95301094D01*
X101342577Y-95289880D01*
X101326119Y-95273728D01*
X101326070Y-95273778D01*
X101316222Y-95263930D01*
X101316271Y-95263880D01*
X101300117Y-95247421D01*
X101293468Y-95238756D01*
X101288819Y-95238116D01*
X101262350Y-95221965D01*
X101232969Y-95198533D01*
X101232966Y-95198532D01*
X101219155Y-95191881D01*
X101197470Y-95178537D01*
X101186489Y-95170111D01*
X101184665Y-95170306D01*
X101152989Y-95160016D01*
X101131352Y-95149596D01*
X101131353Y-95149596D01*
X101099913Y-95142421D01*
X101080053Y-95136091D01*
X101062864Y-95128971D01*
X101029069Y-95126251D01*
X101021400Y-95124501D01*
X101021394Y-95124500D01*
X101021393Y-95124500D01*
X100965271Y-95124500D01*
X100957169Y-95123969D01*
X100918453Y-95118871D01*
X100882063Y-95124500D01*
X88047936Y-95124500D01*
X88023437Y-95117306D01*
X87972830Y-95123969D01*
X87964728Y-95124500D01*
X87908604Y-95124500D01*
X87900930Y-95126252D01*
X87877208Y-95124797D01*
X87849941Y-95136092D01*
X87830085Y-95142420D01*
X87798650Y-95149595D01*
X87798647Y-95149596D01*
X87777006Y-95160018D01*
X87751104Y-95164282D01*
X87732526Y-95178538D01*
X87710844Y-95191881D01*
X87697034Y-95198531D01*
X87697027Y-95198536D01*
X87667644Y-95221968D01*
X87641094Y-95232806D01*
X87629878Y-95247424D01*
X87613728Y-95263880D01*
X87613778Y-95263930D01*
X87603930Y-95273778D01*
X87603880Y-95273728D01*
X87587424Y-95289878D01*
X87578757Y-95296527D01*
X87578118Y-95301173D01*
X87561968Y-95327644D01*
X87538536Y-95357027D01*
X87538531Y-95357034D01*
X87531881Y-95370844D01*
X87518538Y-95392526D01*
X87510113Y-95403504D01*
X87510308Y-95405325D01*
X87500018Y-95437006D01*
X87489596Y-95458647D01*
X87489595Y-95458650D01*
X87482420Y-95490085D01*
X87476092Y-95509941D01*
X87468971Y-95527133D01*
X87466252Y-95560930D01*
X87464500Y-95568604D01*
X87464500Y-95624721D01*
X87463969Y-95632823D01*
X87458871Y-95671543D01*
X87464500Y-95707941D01*
X87464500Y-108542062D01*
X87457306Y-108566560D01*
X82419287Y-108566560D01*
X82415500Y-108542061D01*
X82415500Y-95707937D01*
X82422693Y-95683440D01*
X82416031Y-95632837D01*
X82415500Y-95624736D01*
X82415500Y-95568608D01*
X82415499Y-95568600D01*
X82413749Y-95560933D01*
X82415202Y-95537213D01*
X82403908Y-95509946D01*
X82397578Y-95490085D01*
X82390403Y-95458649D01*
X82379982Y-95437011D01*
X82375716Y-95411104D01*
X82361463Y-95392529D01*
X82348119Y-95370845D01*
X82341467Y-95357033D01*
X82341466Y-95357031D01*
X82318033Y-95327648D01*
X82307192Y-95301094D01*
X82292577Y-95289880D01*
X82276119Y-95273728D01*
X82276070Y-95273778D01*
X82266222Y-95263930D01*
X82266271Y-95263880D01*
X82250117Y-95247421D01*
X82243468Y-95238756D01*
X82238819Y-95238116D01*
X82212350Y-95221965D01*
X82182969Y-95198533D01*
X82182966Y-95198532D01*
X82169155Y-95191881D01*
X82147470Y-95178537D01*
X82136489Y-95170111D01*
X82134665Y-95170306D01*
X82102989Y-95160016D01*
X82081352Y-95149596D01*
X82081353Y-95149596D01*
X82049913Y-95142421D01*
X82030053Y-95136091D01*
X82012864Y-95128971D01*
X81979069Y-95126251D01*
X81971400Y-95124501D01*
X81971394Y-95124500D01*
X81971393Y-95124500D01*
X81915271Y-95124500D01*
X81907169Y-95123969D01*
X81868453Y-95118871D01*
X81832063Y-95124500D01*
X68997936Y-95124500D01*
X68973437Y-95117306D01*
X68922830Y-95123969D01*
X68914728Y-95124500D01*
X68858604Y-95124500D01*
X68850930Y-95126252D01*
X68827208Y-95124797D01*
X68799941Y-95136092D01*
X68780085Y-95142420D01*
X68748650Y-95149595D01*
X68748647Y-95149596D01*
X68727006Y-95160018D01*
X68701104Y-95164282D01*
X68682526Y-95178538D01*
X68660844Y-95191881D01*
X68647034Y-95198531D01*
X68647027Y-95198536D01*
X68617644Y-95221968D01*
X68591094Y-95232806D01*
X68579878Y-95247424D01*
X68563728Y-95263880D01*
X68563778Y-95263930D01*
X68553930Y-95273778D01*
X68553880Y-95273728D01*
X68537424Y-95289878D01*
X68528757Y-95296527D01*
X68528118Y-95301173D01*
X68511968Y-95327644D01*
X68488536Y-95357027D01*
X68488531Y-95357034D01*
X68481881Y-95370844D01*
X68468538Y-95392526D01*
X68460113Y-95403504D01*
X68460308Y-95405325D01*
X68450018Y-95437006D01*
X68439596Y-95458647D01*
X68439595Y-95458650D01*
X68432420Y-95490085D01*
X68426092Y-95509941D01*
X68418971Y-95527133D01*
X68416252Y-95560930D01*
X68414500Y-95568604D01*
X68414500Y-95624721D01*
X68413969Y-95632823D01*
X68408871Y-95671543D01*
X68414500Y-95707941D01*
X68414500Y-108542062D01*
X68407306Y-108566560D01*
X63369287Y-108566560D01*
X63365500Y-108542061D01*
X63365500Y-95707937D01*
X63372692Y-95683441D01*
X63366030Y-95632838D01*
X63365500Y-95624750D01*
X63365500Y-95568607D01*
X63365499Y-95568602D01*
X63365499Y-95568600D01*
X63363749Y-95560933D01*
X63365202Y-95537213D01*
X63353908Y-95509946D01*
X63347578Y-95490085D01*
X63340403Y-95458649D01*
X63329982Y-95437011D01*
X63325716Y-95411104D01*
X63311463Y-95392529D01*
X63298119Y-95370845D01*
X63291467Y-95357033D01*
X63291466Y-95357031D01*
X63268033Y-95327648D01*
X63257192Y-95301094D01*
X63242577Y-95289880D01*
X63226119Y-95273728D01*
X63226070Y-95273778D01*
X63216222Y-95263930D01*
X63216271Y-95263880D01*
X63200117Y-95247421D01*
X63193468Y-95238756D01*
X63188819Y-95238116D01*
X63162350Y-95221965D01*
X63132969Y-95198533D01*
X63132966Y-95198532D01*
X63119155Y-95191881D01*
X63097470Y-95178537D01*
X63086489Y-95170111D01*
X63084665Y-95170306D01*
X63052989Y-95160016D01*
X63031352Y-95149596D01*
X63031353Y-95149596D01*
X62999913Y-95142421D01*
X62980053Y-95136091D01*
X62962864Y-95128971D01*
X62929069Y-95126251D01*
X62921400Y-95124501D01*
X62921394Y-95124500D01*
X62921393Y-95124500D01*
X62865271Y-95124500D01*
X62857169Y-95123969D01*
X62818453Y-95118871D01*
X62782063Y-95124500D01*
X49947936Y-95124500D01*
X49923437Y-95117306D01*
X49872830Y-95123969D01*
X49864728Y-95124500D01*
X49808604Y-95124500D01*
X49800930Y-95126252D01*
X49777208Y-95124797D01*
X49749941Y-95136092D01*
X49730085Y-95142420D01*
X49698650Y-95149595D01*
X49698647Y-95149596D01*
X49677006Y-95160018D01*
X49651104Y-95164282D01*
X49632526Y-95178538D01*
X49610844Y-95191881D01*
X49597034Y-95198531D01*
X49597027Y-95198536D01*
X49567644Y-95221968D01*
X49541094Y-95232806D01*
X49529878Y-95247424D01*
X49513728Y-95263880D01*
X49513778Y-95263930D01*
X49503930Y-95273778D01*
X49503880Y-95273728D01*
X49487424Y-95289878D01*
X49478757Y-95296527D01*
X49478118Y-95301173D01*
X49461968Y-95327644D01*
X49438536Y-95357027D01*
X49438531Y-95357034D01*
X49431881Y-95370844D01*
X49418538Y-95392526D01*
X49410113Y-95403504D01*
X49410308Y-95405325D01*
X49400018Y-95437006D01*
X49389596Y-95458647D01*
X49389595Y-95458650D01*
X49382420Y-95490085D01*
X49376092Y-95509941D01*
X49368971Y-95527133D01*
X49366252Y-95560930D01*
X49364500Y-95568604D01*
X49364500Y-95624727D01*
X49363969Y-95632828D01*
X49358871Y-95671545D01*
X49364500Y-95707936D01*
X49364500Y-108542062D01*
X49357306Y-108566560D01*
X46840500Y-108566560D01*
X46840500Y-92600000D01*
X52494390Y-92600000D01*
X52501745Y-92702844D01*
X52502390Y-92711853D01*
X52502548Y-92716277D01*
X52502548Y-92742861D01*
X52506331Y-92769172D01*
X52506804Y-92773574D01*
X52514804Y-92885428D01*
X52514805Y-92885435D01*
X52538637Y-92994988D01*
X52539423Y-92999346D01*
X52543206Y-93025666D01*
X52550698Y-93051181D01*
X52551793Y-93055471D01*
X52575630Y-93165046D01*
X52575631Y-93165048D01*
X52614819Y-93270118D01*
X52616217Y-93274317D01*
X52623705Y-93299816D01*
X52634746Y-93323994D01*
X52636440Y-93328084D01*
X52675632Y-93433159D01*
X52675635Y-93433166D01*
X52729363Y-93531561D01*
X52731345Y-93535521D01*
X52742394Y-93559717D01*
X52756772Y-93582088D01*
X52759031Y-93585895D01*
X52801751Y-93664129D01*
X52812772Y-93684312D01*
X52812776Y-93684318D01*
X52879976Y-93774086D01*
X52882498Y-93777719D01*
X52896873Y-93800086D01*
X52907493Y-93812343D01*
X52914284Y-93820180D01*
X52917055Y-93823619D01*
X52984261Y-93913395D01*
X53063552Y-93992686D01*
X53066562Y-93995919D01*
X53083978Y-94016018D01*
X53104078Y-94033435D01*
X53107304Y-94036438D01*
X53186605Y-94115739D01*
X53276404Y-94182961D01*
X53279815Y-94185711D01*
X53299911Y-94203126D01*
X53317905Y-94214689D01*
X53322266Y-94217492D01*
X53322276Y-94217498D01*
X53325914Y-94220024D01*
X53415682Y-94287224D01*
X53415690Y-94287229D01*
X53514102Y-94340966D01*
X53517910Y-94343225D01*
X53540286Y-94357606D01*
X53564479Y-94368654D01*
X53568431Y-94370632D01*
X53666839Y-94424367D01*
X53771914Y-94463558D01*
X53775993Y-94465247D01*
X53800179Y-94476293D01*
X53825691Y-94483784D01*
X53829872Y-94485175D01*
X53934954Y-94524369D01*
X54044554Y-94548211D01*
X54048788Y-94549291D01*
X54074326Y-94556790D01*
X54074331Y-94556790D01*
X54074339Y-94556793D01*
X54100655Y-94560576D01*
X54104982Y-94561356D01*
X54214572Y-94585196D01*
X54326450Y-94593197D01*
X54330795Y-94593664D01*
X54357139Y-94597452D01*
X54357146Y-94597452D01*
X54383721Y-94597452D01*
X54388143Y-94597609D01*
X54437344Y-94601128D01*
X54499999Y-94605610D01*
X54500000Y-94605610D01*
X54500001Y-94605610D01*
X54562655Y-94601128D01*
X54611856Y-94597609D01*
X54616279Y-94597452D01*
X54642854Y-94597452D01*
X54642861Y-94597452D01*
X54669219Y-94593662D01*
X54673516Y-94593200D01*
X54785428Y-94585196D01*
X54895012Y-94561357D01*
X54899345Y-94560576D01*
X54925671Y-94556791D01*
X54951189Y-94549298D01*
X54955438Y-94548212D01*
X55065046Y-94524369D01*
X55170124Y-94485177D01*
X55174291Y-94483789D01*
X55199821Y-94476293D01*
X55224020Y-94465241D01*
X55228056Y-94463569D01*
X55333161Y-94424367D01*
X55431568Y-94370632D01*
X55435514Y-94368657D01*
X55459708Y-94357608D01*
X55459716Y-94357602D01*
X55459722Y-94357600D01*
X55482104Y-94343215D01*
X55485872Y-94340979D01*
X55584315Y-94287226D01*
X55674120Y-94219998D01*
X55677697Y-94217515D01*
X55700086Y-94203127D01*
X55720208Y-94185690D01*
X55723591Y-94182965D01*
X55813395Y-94115739D01*
X55892690Y-94036444D01*
X55895913Y-94033442D01*
X55916020Y-94016020D01*
X55933445Y-93995909D01*
X55936433Y-93992700D01*
X56015739Y-93913395D01*
X56082965Y-93823591D01*
X56085690Y-93820208D01*
X56103127Y-93800086D01*
X56117507Y-93777709D01*
X56120008Y-93774107D01*
X56187226Y-93684315D01*
X56240979Y-93585872D01*
X56243215Y-93582104D01*
X56257600Y-93559722D01*
X56257602Y-93559716D01*
X56257608Y-93559708D01*
X56268657Y-93535514D01*
X56270636Y-93531561D01*
X56324367Y-93433161D01*
X56363569Y-93328056D01*
X56365241Y-93324020D01*
X56376293Y-93299821D01*
X56383789Y-93274291D01*
X56385177Y-93270124D01*
X56388758Y-93260522D01*
X56424369Y-93165046D01*
X56448212Y-93055438D01*
X56449298Y-93051189D01*
X56456791Y-93025671D01*
X56460576Y-92999345D01*
X56461357Y-92995012D01*
X56485196Y-92885428D01*
X56493198Y-92773540D01*
X56493666Y-92769192D01*
X56497452Y-92742861D01*
X56498107Y-92706105D01*
X56498250Y-92702901D01*
X56505610Y-92600000D01*
X113374390Y-92600000D01*
X113381745Y-92702844D01*
X113382390Y-92711853D01*
X113382548Y-92716277D01*
X113382548Y-92742861D01*
X113386331Y-92769172D01*
X113386804Y-92773574D01*
X113394804Y-92885428D01*
X113394805Y-92885435D01*
X113418637Y-92994988D01*
X113419423Y-92999346D01*
X113423206Y-93025666D01*
X113430698Y-93051181D01*
X113431793Y-93055471D01*
X113455630Y-93165046D01*
X113455631Y-93165048D01*
X113494819Y-93270118D01*
X113496217Y-93274317D01*
X113503705Y-93299816D01*
X113514746Y-93323994D01*
X113516440Y-93328084D01*
X113555632Y-93433159D01*
X113555635Y-93433166D01*
X113609363Y-93531561D01*
X113611345Y-93535521D01*
X113622394Y-93559717D01*
X113636772Y-93582088D01*
X113639031Y-93585895D01*
X113681751Y-93664129D01*
X113692772Y-93684312D01*
X113692776Y-93684318D01*
X113759976Y-93774086D01*
X113762498Y-93777719D01*
X113776873Y-93800086D01*
X113787493Y-93812343D01*
X113794284Y-93820180D01*
X113797055Y-93823619D01*
X113864261Y-93913395D01*
X113943552Y-93992686D01*
X113946562Y-93995919D01*
X113963978Y-94016018D01*
X113984078Y-94033435D01*
X113987304Y-94036438D01*
X114066605Y-94115739D01*
X114156404Y-94182961D01*
X114159815Y-94185711D01*
X114179911Y-94203126D01*
X114197905Y-94214689D01*
X114202266Y-94217492D01*
X114202276Y-94217498D01*
X114205914Y-94220024D01*
X114295682Y-94287224D01*
X114295690Y-94287229D01*
X114394102Y-94340966D01*
X114397910Y-94343225D01*
X114420286Y-94357606D01*
X114444479Y-94368654D01*
X114448431Y-94370632D01*
X114546839Y-94424367D01*
X114651914Y-94463558D01*
X114655993Y-94465247D01*
X114680179Y-94476293D01*
X114705691Y-94483784D01*
X114709872Y-94485175D01*
X114814954Y-94524369D01*
X114924554Y-94548211D01*
X114928788Y-94549291D01*
X114954326Y-94556790D01*
X114954331Y-94556790D01*
X114954339Y-94556793D01*
X114980655Y-94560576D01*
X114984982Y-94561356D01*
X115094572Y-94585196D01*
X115206450Y-94593197D01*
X115210795Y-94593664D01*
X115237139Y-94597452D01*
X115237146Y-94597452D01*
X115263721Y-94597452D01*
X115268143Y-94597609D01*
X115317344Y-94601128D01*
X115379999Y-94605610D01*
X115380000Y-94605610D01*
X115380001Y-94605610D01*
X115442655Y-94601128D01*
X115491856Y-94597609D01*
X115496279Y-94597452D01*
X115522854Y-94597452D01*
X115522861Y-94597452D01*
X115549219Y-94593662D01*
X115553516Y-94593200D01*
X115665428Y-94585196D01*
X115775012Y-94561357D01*
X115779345Y-94560576D01*
X115805671Y-94556791D01*
X115831189Y-94549298D01*
X115835438Y-94548212D01*
X115945046Y-94524369D01*
X116050124Y-94485177D01*
X116054291Y-94483789D01*
X116079821Y-94476293D01*
X116104020Y-94465241D01*
X116108056Y-94463569D01*
X116213161Y-94424367D01*
X116311568Y-94370632D01*
X116315514Y-94368657D01*
X116339708Y-94357608D01*
X116339716Y-94357602D01*
X116339722Y-94357600D01*
X116362104Y-94343215D01*
X116365872Y-94340979D01*
X116464315Y-94287226D01*
X116554120Y-94219998D01*
X116557697Y-94217515D01*
X116580086Y-94203127D01*
X116600208Y-94185690D01*
X116603591Y-94182965D01*
X116693395Y-94115739D01*
X116772690Y-94036444D01*
X116775913Y-94033442D01*
X116796020Y-94016020D01*
X116813445Y-93995909D01*
X116816433Y-93992700D01*
X116895739Y-93913395D01*
X116962965Y-93823591D01*
X116965690Y-93820208D01*
X116983127Y-93800086D01*
X116997507Y-93777709D01*
X117000008Y-93774107D01*
X117067226Y-93684315D01*
X117120979Y-93585872D01*
X117123215Y-93582104D01*
X117137600Y-93559722D01*
X117137602Y-93559716D01*
X117137608Y-93559708D01*
X117148657Y-93535514D01*
X117150636Y-93531561D01*
X117204367Y-93433161D01*
X117243569Y-93328056D01*
X117245241Y-93324020D01*
X117256293Y-93299821D01*
X117263789Y-93274291D01*
X117265177Y-93270124D01*
X117268758Y-93260522D01*
X117304369Y-93165046D01*
X117328212Y-93055438D01*
X117329298Y-93051189D01*
X117336791Y-93025671D01*
X117340576Y-92999345D01*
X117341357Y-92995012D01*
X117365196Y-92885428D01*
X117373198Y-92773540D01*
X117373666Y-92769192D01*
X117377452Y-92742861D01*
X117378107Y-92706105D01*
X117378250Y-92702901D01*
X117385610Y-92600000D01*
X117378250Y-92497102D01*
X117378107Y-92493890D01*
X117377452Y-92457139D01*
X117373663Y-92430789D01*
X117373197Y-92426450D01*
X117365196Y-92314572D01*
X117341356Y-92204982D01*
X117340576Y-92200655D01*
X117336793Y-92174339D01*
X117336790Y-92174331D01*
X117336790Y-92174326D01*
X117329291Y-92148788D01*
X117328211Y-92144554D01*
X117304369Y-92034954D01*
X117265175Y-91929872D01*
X117263782Y-91925684D01*
X117256293Y-91900179D01*
X117245246Y-91875989D01*
X117243558Y-91871914D01*
X117243553Y-91871901D01*
X117204367Y-91766839D01*
X117150632Y-91668431D01*
X117148654Y-91664479D01*
X117137606Y-91640286D01*
X117123225Y-91617910D01*
X117120966Y-91614102D01*
X117067229Y-91515690D01*
X117067224Y-91515682D01*
X117000024Y-91425914D01*
X116997498Y-91422276D01*
X116983126Y-91399911D01*
X116965711Y-91379815D01*
X116962961Y-91376404D01*
X116895739Y-91286605D01*
X116816438Y-91207304D01*
X116813435Y-91204078D01*
X116812484Y-91202981D01*
X116796020Y-91183980D01*
X116775921Y-91166564D01*
X116772681Y-91163547D01*
X116693398Y-91084264D01*
X116693396Y-91084262D01*
X116693395Y-91084261D01*
X116603619Y-91017055D01*
X116600180Y-91014284D01*
X116587188Y-91003027D01*
X116580086Y-90996873D01*
X116557719Y-90982498D01*
X116554086Y-90979976D01*
X116464318Y-90912776D01*
X116464316Y-90912775D01*
X116464315Y-90912774D01*
X116444129Y-90901751D01*
X116365895Y-90859031D01*
X116362088Y-90856772D01*
X116339717Y-90842394D01*
X116315521Y-90831345D01*
X116311561Y-90829363D01*
X116213166Y-90775635D01*
X116213159Y-90775632D01*
X116108084Y-90736440D01*
X116103994Y-90734746D01*
X116089072Y-90727931D01*
X116079821Y-90723707D01*
X116079819Y-90723706D01*
X116079816Y-90723705D01*
X116054317Y-90716217D01*
X116050118Y-90714819D01*
X115945048Y-90675631D01*
X115945046Y-90675630D01*
X115835471Y-90651793D01*
X115831180Y-90650698D01*
X115824402Y-90648708D01*
X115805669Y-90643207D01*
X115779346Y-90639423D01*
X115774988Y-90638637D01*
X115665435Y-90614805D01*
X115665428Y-90614804D01*
X115553574Y-90606804D01*
X115549177Y-90606331D01*
X115522861Y-90602548D01*
X115496279Y-90602548D01*
X115491856Y-90602390D01*
X115442655Y-90598871D01*
X115380001Y-90594390D01*
X115379999Y-90594390D01*
X115317344Y-90598871D01*
X115268143Y-90602390D01*
X115263721Y-90602548D01*
X115237137Y-90602548D01*
X115210826Y-90606331D01*
X115206424Y-90606804D01*
X115094571Y-90614804D01*
X115094561Y-90614805D01*
X114985013Y-90638636D01*
X114980657Y-90639422D01*
X114954325Y-90643207D01*
X114928819Y-90650698D01*
X114924528Y-90651793D01*
X114814953Y-90675630D01*
X114814947Y-90675632D01*
X114709883Y-90714819D01*
X114705684Y-90716216D01*
X114680177Y-90723706D01*
X114655989Y-90734753D01*
X114651901Y-90736446D01*
X114546844Y-90775630D01*
X114546831Y-90775636D01*
X114448436Y-90829363D01*
X114444478Y-90831344D01*
X114420291Y-90842389D01*
X114397909Y-90856773D01*
X114394102Y-90859033D01*
X114295688Y-90912771D01*
X114205903Y-90979981D01*
X114202271Y-90982503D01*
X114179911Y-90996874D01*
X114172810Y-91003027D01*
X114159823Y-91014280D01*
X114156377Y-91017057D01*
X114066619Y-91084249D01*
X114066604Y-91084262D01*
X113987310Y-91163553D01*
X113984071Y-91166569D01*
X113963979Y-91183979D01*
X113946569Y-91204071D01*
X113943553Y-91207310D01*
X113864262Y-91286604D01*
X113864249Y-91286619D01*
X113797059Y-91376375D01*
X113794285Y-91379817D01*
X113789762Y-91385038D01*
X113776866Y-91399920D01*
X113762505Y-91422267D01*
X113759982Y-91425902D01*
X113692771Y-91515688D01*
X113639033Y-91614102D01*
X113636773Y-91617909D01*
X113622389Y-91640291D01*
X113611344Y-91664478D01*
X113609363Y-91668436D01*
X113555636Y-91766831D01*
X113555630Y-91766844D01*
X113516446Y-91871901D01*
X113514753Y-91875989D01*
X113503706Y-91900177D01*
X113496216Y-91925684D01*
X113494819Y-91929883D01*
X113455632Y-92034947D01*
X113455630Y-92034953D01*
X113431793Y-92144528D01*
X113430698Y-92148819D01*
X113423207Y-92174325D01*
X113419422Y-92200657D01*
X113418636Y-92205013D01*
X113394805Y-92314561D01*
X113394804Y-92314571D01*
X113386804Y-92426424D01*
X113386331Y-92430826D01*
X113382548Y-92457136D01*
X113382548Y-92483721D01*
X113382390Y-92488143D01*
X113374390Y-92600000D01*
X56505610Y-92600000D01*
X56498250Y-92497102D01*
X56498107Y-92493890D01*
X56497452Y-92457139D01*
X56493663Y-92430789D01*
X56493197Y-92426450D01*
X56485196Y-92314572D01*
X56461356Y-92204982D01*
X56460576Y-92200655D01*
X56456793Y-92174339D01*
X56456790Y-92174331D01*
X56456790Y-92174326D01*
X56449291Y-92148788D01*
X56448211Y-92144554D01*
X56424369Y-92034954D01*
X56385175Y-91929872D01*
X56383782Y-91925684D01*
X56376293Y-91900179D01*
X56365246Y-91875989D01*
X56363558Y-91871914D01*
X56363553Y-91871901D01*
X56324367Y-91766839D01*
X56270632Y-91668431D01*
X56268654Y-91664479D01*
X56257606Y-91640286D01*
X56243225Y-91617910D01*
X56240966Y-91614102D01*
X56187229Y-91515690D01*
X56187224Y-91515682D01*
X56120024Y-91425914D01*
X56117498Y-91422276D01*
X56103126Y-91399911D01*
X56085711Y-91379815D01*
X56082961Y-91376404D01*
X56015739Y-91286605D01*
X55936438Y-91207304D01*
X55933435Y-91204078D01*
X55932484Y-91202981D01*
X55916020Y-91183980D01*
X55895921Y-91166564D01*
X55892681Y-91163547D01*
X55813398Y-91084264D01*
X55813396Y-91084262D01*
X55813395Y-91084261D01*
X55723619Y-91017055D01*
X55720180Y-91014284D01*
X55707188Y-91003027D01*
X55700086Y-90996873D01*
X55677719Y-90982498D01*
X55674086Y-90979976D01*
X55584318Y-90912776D01*
X55584316Y-90912775D01*
X55584315Y-90912774D01*
X55564129Y-90901751D01*
X55485895Y-90859031D01*
X55482088Y-90856772D01*
X55459717Y-90842394D01*
X55435521Y-90831345D01*
X55431561Y-90829363D01*
X55333166Y-90775635D01*
X55333159Y-90775632D01*
X55228084Y-90736440D01*
X55223994Y-90734746D01*
X55209072Y-90727931D01*
X55199821Y-90723707D01*
X55199819Y-90723706D01*
X55199816Y-90723705D01*
X55174317Y-90716217D01*
X55170118Y-90714819D01*
X55065048Y-90675631D01*
X55065046Y-90675630D01*
X54955471Y-90651793D01*
X54951180Y-90650698D01*
X54944402Y-90648708D01*
X54925669Y-90643207D01*
X54899346Y-90639423D01*
X54894988Y-90638637D01*
X54785435Y-90614805D01*
X54785428Y-90614804D01*
X54673574Y-90606804D01*
X54669177Y-90606331D01*
X54642861Y-90602548D01*
X54616279Y-90602548D01*
X54611856Y-90602390D01*
X54562655Y-90598871D01*
X54500001Y-90594390D01*
X54499999Y-90594390D01*
X54437344Y-90598871D01*
X54388143Y-90602390D01*
X54383721Y-90602548D01*
X54357137Y-90602548D01*
X54330826Y-90606331D01*
X54326424Y-90606804D01*
X54214571Y-90614804D01*
X54214561Y-90614805D01*
X54105013Y-90638636D01*
X54100657Y-90639422D01*
X54074325Y-90643207D01*
X54048819Y-90650698D01*
X54044528Y-90651793D01*
X53934953Y-90675630D01*
X53934947Y-90675632D01*
X53829883Y-90714819D01*
X53825684Y-90716216D01*
X53800177Y-90723706D01*
X53775989Y-90734753D01*
X53771901Y-90736446D01*
X53666844Y-90775630D01*
X53666831Y-90775636D01*
X53568436Y-90829363D01*
X53564478Y-90831344D01*
X53540291Y-90842389D01*
X53517909Y-90856773D01*
X53514102Y-90859033D01*
X53415688Y-90912771D01*
X53325903Y-90979981D01*
X53322271Y-90982503D01*
X53299911Y-90996874D01*
X53292810Y-91003027D01*
X53279823Y-91014280D01*
X53276377Y-91017057D01*
X53186619Y-91084249D01*
X53186604Y-91084262D01*
X53107310Y-91163553D01*
X53104071Y-91166569D01*
X53083979Y-91183979D01*
X53066569Y-91204071D01*
X53063553Y-91207310D01*
X52984262Y-91286604D01*
X52984249Y-91286619D01*
X52917059Y-91376375D01*
X52914285Y-91379817D01*
X52909762Y-91385038D01*
X52896866Y-91399920D01*
X52882505Y-91422267D01*
X52879982Y-91425902D01*
X52812771Y-91515688D01*
X52759033Y-91614102D01*
X52756773Y-91617909D01*
X52742389Y-91640291D01*
X52731344Y-91664478D01*
X52729363Y-91668436D01*
X52675636Y-91766831D01*
X52675630Y-91766844D01*
X52636446Y-91871901D01*
X52634753Y-91875989D01*
X52623706Y-91900177D01*
X52616216Y-91925684D01*
X52614819Y-91929883D01*
X52575632Y-92034947D01*
X52575630Y-92034953D01*
X52551793Y-92144528D01*
X52550698Y-92148819D01*
X52543207Y-92174325D01*
X52539422Y-92200657D01*
X52538636Y-92205013D01*
X52514805Y-92314561D01*
X52514804Y-92314571D01*
X52506804Y-92426424D01*
X52506331Y-92430826D01*
X52502548Y-92457136D01*
X52502548Y-92483721D01*
X52502390Y-92488143D01*
X52494390Y-92600000D01*
X46840500Y-92600000D01*
X46840500Y-89516560D01*
X49357306Y-89516560D01*
X49363969Y-89567169D01*
X49364500Y-89575271D01*
X49364500Y-89631391D01*
X49364501Y-89631400D01*
X49366251Y-89639069D01*
X49364796Y-89662786D01*
X49376091Y-89690053D01*
X49382421Y-89709913D01*
X49389596Y-89741352D01*
X49400016Y-89762989D01*
X49404281Y-89788891D01*
X49418537Y-89807470D01*
X49431881Y-89829155D01*
X49438532Y-89842966D01*
X49438533Y-89842969D01*
X49461965Y-89872350D01*
X49472804Y-89898901D01*
X49487421Y-89910117D01*
X49503880Y-89926271D01*
X49503930Y-89926222D01*
X49513778Y-89936070D01*
X49513728Y-89936119D01*
X49529880Y-89952577D01*
X49536526Y-89961238D01*
X49541170Y-89961878D01*
X49567648Y-89978033D01*
X49597031Y-90001466D01*
X49597033Y-90001467D01*
X49610845Y-90008119D01*
X49632529Y-90021463D01*
X49643503Y-90029883D01*
X49645321Y-90029690D01*
X49677011Y-90039982D01*
X49698649Y-90050403D01*
X49730089Y-90057578D01*
X49749946Y-90063908D01*
X49767137Y-90071029D01*
X49800933Y-90073749D01*
X49808600Y-90075499D01*
X49808605Y-90075499D01*
X49808607Y-90075500D01*
X49808609Y-90075500D01*
X49864736Y-90075500D01*
X49872837Y-90076031D01*
X49911546Y-90081127D01*
X49947937Y-90075500D01*
X62782062Y-90075500D01*
X62806558Y-90082693D01*
X62857162Y-90076031D01*
X62865263Y-90075500D01*
X62921391Y-90075500D01*
X62921393Y-90075500D01*
X62929060Y-90073750D01*
X62952782Y-90075202D01*
X62980048Y-90063909D01*
X62999904Y-90057580D01*
X63031351Y-90050403D01*
X63052986Y-90039983D01*
X63078890Y-90035717D01*
X63097465Y-90021465D01*
X63119152Y-90008120D01*
X63132967Y-90001467D01*
X63132968Y-90001466D01*
X63162348Y-89978035D01*
X63188902Y-89967194D01*
X63200116Y-89952580D01*
X63216271Y-89936119D01*
X63216222Y-89936070D01*
X63226070Y-89926222D01*
X63226119Y-89926271D01*
X63242580Y-89910116D01*
X63251242Y-89903469D01*
X63251882Y-89898823D01*
X63268036Y-89872348D01*
X63291465Y-89842969D01*
X63291467Y-89842967D01*
X63298120Y-89829152D01*
X63311465Y-89807465D01*
X63319885Y-89796490D01*
X63319692Y-89794672D01*
X63329984Y-89762986D01*
X63340403Y-89741351D01*
X63347580Y-89709904D01*
X63353909Y-89690048D01*
X63361028Y-89672860D01*
X63363750Y-89639059D01*
X63365498Y-89631400D01*
X63365500Y-89631393D01*
X63365500Y-89575261D01*
X63366031Y-89567160D01*
X63371126Y-89528455D01*
X63369287Y-89516560D01*
X68407306Y-89516560D01*
X68413969Y-89567169D01*
X68414500Y-89575271D01*
X68414500Y-89631391D01*
X68414501Y-89631400D01*
X68416251Y-89639069D01*
X68414796Y-89662786D01*
X68426091Y-89690053D01*
X68432421Y-89709913D01*
X68439596Y-89741352D01*
X68450016Y-89762989D01*
X68454281Y-89788891D01*
X68468537Y-89807470D01*
X68481881Y-89829155D01*
X68488532Y-89842966D01*
X68488533Y-89842969D01*
X68511965Y-89872350D01*
X68522804Y-89898901D01*
X68537421Y-89910117D01*
X68553880Y-89926271D01*
X68553930Y-89926222D01*
X68563778Y-89936070D01*
X68563728Y-89936119D01*
X68579880Y-89952577D01*
X68586526Y-89961238D01*
X68591170Y-89961878D01*
X68617648Y-89978033D01*
X68647031Y-90001466D01*
X68647033Y-90001467D01*
X68660845Y-90008119D01*
X68682529Y-90021463D01*
X68693503Y-90029883D01*
X68695321Y-90029690D01*
X68727011Y-90039982D01*
X68748649Y-90050403D01*
X68780089Y-90057578D01*
X68799946Y-90063908D01*
X68817137Y-90071029D01*
X68850933Y-90073749D01*
X68858600Y-90075499D01*
X68858605Y-90075499D01*
X68858607Y-90075500D01*
X68858609Y-90075500D01*
X68914736Y-90075500D01*
X68922837Y-90076031D01*
X68961546Y-90081127D01*
X68997937Y-90075500D01*
X81832062Y-90075500D01*
X81856558Y-90082693D01*
X81907162Y-90076031D01*
X81915263Y-90075500D01*
X81971391Y-90075500D01*
X81971393Y-90075500D01*
X81979060Y-90073750D01*
X82002782Y-90075202D01*
X82030048Y-90063909D01*
X82049904Y-90057580D01*
X82081351Y-90050403D01*
X82102986Y-90039983D01*
X82128890Y-90035717D01*
X82147465Y-90021465D01*
X82169152Y-90008120D01*
X82182967Y-90001467D01*
X82182968Y-90001466D01*
X82212348Y-89978035D01*
X82238902Y-89967194D01*
X82250116Y-89952580D01*
X82266271Y-89936119D01*
X82266222Y-89936070D01*
X82276070Y-89926222D01*
X82276119Y-89926271D01*
X82292580Y-89910116D01*
X82301242Y-89903469D01*
X82301882Y-89898823D01*
X82318036Y-89872348D01*
X82341465Y-89842969D01*
X82341467Y-89842967D01*
X82348120Y-89829152D01*
X82361465Y-89807465D01*
X82369885Y-89796490D01*
X82369692Y-89794672D01*
X82379984Y-89762986D01*
X82390403Y-89741351D01*
X82397580Y-89709904D01*
X82403909Y-89690048D01*
X82411028Y-89672860D01*
X82413750Y-89639059D01*
X82415498Y-89631400D01*
X82415500Y-89631393D01*
X82415500Y-89575261D01*
X82416031Y-89567160D01*
X82421126Y-89528455D01*
X82419287Y-89516560D01*
X87457306Y-89516560D01*
X87463969Y-89567169D01*
X87464500Y-89575271D01*
X87464500Y-89631391D01*
X87464501Y-89631400D01*
X87466251Y-89639069D01*
X87464796Y-89662786D01*
X87476091Y-89690053D01*
X87482421Y-89709913D01*
X87489596Y-89741352D01*
X87500016Y-89762989D01*
X87504281Y-89788891D01*
X87518537Y-89807470D01*
X87531881Y-89829155D01*
X87538532Y-89842966D01*
X87538533Y-89842969D01*
X87561965Y-89872350D01*
X87572804Y-89898901D01*
X87587421Y-89910117D01*
X87603880Y-89926271D01*
X87603930Y-89926222D01*
X87613778Y-89936070D01*
X87613728Y-89936119D01*
X87629880Y-89952577D01*
X87636526Y-89961238D01*
X87641170Y-89961878D01*
X87667648Y-89978033D01*
X87697031Y-90001466D01*
X87697033Y-90001467D01*
X87710845Y-90008119D01*
X87732529Y-90021463D01*
X87743503Y-90029883D01*
X87745321Y-90029690D01*
X87777011Y-90039982D01*
X87798649Y-90050403D01*
X87830089Y-90057578D01*
X87849946Y-90063908D01*
X87867137Y-90071029D01*
X87900933Y-90073749D01*
X87908600Y-90075499D01*
X87908605Y-90075499D01*
X87908607Y-90075500D01*
X87908609Y-90075500D01*
X87964736Y-90075500D01*
X87972837Y-90076031D01*
X88011546Y-90081127D01*
X88047937Y-90075500D01*
X100882062Y-90075500D01*
X100906558Y-90082693D01*
X100957162Y-90076031D01*
X100965263Y-90075500D01*
X101021391Y-90075500D01*
X101021393Y-90075500D01*
X101029060Y-90073750D01*
X101052782Y-90075202D01*
X101080048Y-90063909D01*
X101099904Y-90057580D01*
X101131351Y-90050403D01*
X101152986Y-90039983D01*
X101178890Y-90035717D01*
X101197465Y-90021465D01*
X101219152Y-90008120D01*
X101232967Y-90001467D01*
X101232968Y-90001466D01*
X101262348Y-89978035D01*
X101288902Y-89967194D01*
X101300116Y-89952580D01*
X101316271Y-89936119D01*
X101316222Y-89936070D01*
X101326070Y-89926222D01*
X101326119Y-89926271D01*
X101342580Y-89910116D01*
X101351242Y-89903469D01*
X101351882Y-89898823D01*
X101368036Y-89872348D01*
X101391465Y-89842969D01*
X101391467Y-89842967D01*
X101398120Y-89829152D01*
X101411465Y-89807465D01*
X101419885Y-89796490D01*
X101419692Y-89794672D01*
X101429984Y-89762986D01*
X101440403Y-89741351D01*
X101447580Y-89709904D01*
X101453909Y-89690048D01*
X101461028Y-89672860D01*
X101463750Y-89639059D01*
X101465498Y-89631400D01*
X101465500Y-89631393D01*
X101465500Y-89575261D01*
X101466031Y-89567160D01*
X101471126Y-89528455D01*
X101465500Y-89492061D01*
X101465500Y-88429560D01*
X104507306Y-88429560D01*
X104513969Y-88480169D01*
X104514500Y-88488271D01*
X104514500Y-88544391D01*
X104514501Y-88544400D01*
X104516251Y-88552069D01*
X104514796Y-88575786D01*
X104526091Y-88603053D01*
X104532421Y-88622913D01*
X104539596Y-88654352D01*
X104550016Y-88675989D01*
X104554281Y-88701891D01*
X104568537Y-88720470D01*
X104581881Y-88742155D01*
X104588532Y-88755966D01*
X104588533Y-88755969D01*
X104611965Y-88785350D01*
X104622804Y-88811901D01*
X104637421Y-88823117D01*
X104653880Y-88839271D01*
X104653930Y-88839222D01*
X104663778Y-88849070D01*
X104663728Y-88849119D01*
X104679880Y-88865577D01*
X104686526Y-88874238D01*
X104691170Y-88874878D01*
X104717648Y-88891033D01*
X104747031Y-88914466D01*
X104747033Y-88914467D01*
X104760845Y-88921119D01*
X104782529Y-88934463D01*
X104793503Y-88942883D01*
X104795321Y-88942690D01*
X104827011Y-88952982D01*
X104848649Y-88963403D01*
X104880089Y-88970578D01*
X104899946Y-88976908D01*
X104917137Y-88984029D01*
X104950933Y-88986749D01*
X104958600Y-88988499D01*
X104958605Y-88988499D01*
X104958607Y-88988500D01*
X104958609Y-88988500D01*
X105014736Y-88988500D01*
X105022837Y-88989031D01*
X105061546Y-88994127D01*
X105097937Y-88988500D01*
X118932062Y-88988500D01*
X118956558Y-88995693D01*
X119007162Y-88989031D01*
X119015263Y-88988500D01*
X119071391Y-88988500D01*
X119071393Y-88988500D01*
X119079060Y-88986750D01*
X119102782Y-88988202D01*
X119130048Y-88976909D01*
X119149904Y-88970580D01*
X119181351Y-88963403D01*
X119202986Y-88952983D01*
X119228890Y-88948717D01*
X119247465Y-88934465D01*
X119269152Y-88921120D01*
X119282967Y-88914467D01*
X119282968Y-88914466D01*
X119312348Y-88891035D01*
X119338902Y-88880194D01*
X119350116Y-88865580D01*
X119366271Y-88849119D01*
X119366222Y-88849070D01*
X119376070Y-88839222D01*
X119376119Y-88839271D01*
X119392580Y-88823116D01*
X119401242Y-88816469D01*
X119401882Y-88811823D01*
X119418036Y-88785348D01*
X119441465Y-88755969D01*
X119441467Y-88755967D01*
X119448120Y-88742152D01*
X119461465Y-88720465D01*
X119469885Y-88709490D01*
X119469692Y-88707672D01*
X119479984Y-88675986D01*
X119490403Y-88654351D01*
X119497580Y-88622904D01*
X119503909Y-88603048D01*
X119511028Y-88585860D01*
X119513750Y-88552059D01*
X119515498Y-88544400D01*
X119515500Y-88544393D01*
X119515500Y-88488261D01*
X119516031Y-88480160D01*
X119521126Y-88441455D01*
X119515500Y-88405061D01*
X119515500Y-82570937D01*
X119522693Y-82546440D01*
X119516031Y-82495837D01*
X119515500Y-82487736D01*
X119515500Y-82431608D01*
X119515499Y-82431600D01*
X119513749Y-82423933D01*
X119515202Y-82400213D01*
X119503908Y-82372946D01*
X119497578Y-82353085D01*
X119490403Y-82321649D01*
X119479982Y-82300011D01*
X119475716Y-82274104D01*
X119461463Y-82255529D01*
X119448119Y-82233845D01*
X119441467Y-82220033D01*
X119441466Y-82220031D01*
X119418033Y-82190648D01*
X119407192Y-82164094D01*
X119392577Y-82152880D01*
X119376119Y-82136728D01*
X119376070Y-82136778D01*
X119366222Y-82126930D01*
X119366271Y-82126880D01*
X119350117Y-82110421D01*
X119343468Y-82101756D01*
X119338819Y-82101116D01*
X119312350Y-82084965D01*
X119282969Y-82061533D01*
X119282966Y-82061532D01*
X119269155Y-82054881D01*
X119247470Y-82041537D01*
X119236489Y-82033111D01*
X119234665Y-82033306D01*
X119202989Y-82023016D01*
X119181352Y-82012596D01*
X119181353Y-82012596D01*
X119149913Y-82005421D01*
X119130053Y-81999091D01*
X119112864Y-81991971D01*
X119079069Y-81989251D01*
X119071400Y-81987501D01*
X119071394Y-81987500D01*
X119071393Y-81987500D01*
X119015271Y-81987500D01*
X119007169Y-81986969D01*
X118968453Y-81981871D01*
X118932063Y-81987500D01*
X105097936Y-81987500D01*
X105073437Y-81980306D01*
X105022830Y-81986969D01*
X105014728Y-81987500D01*
X104958604Y-81987500D01*
X104950930Y-81989252D01*
X104927208Y-81987797D01*
X104899941Y-81999092D01*
X104880085Y-82005420D01*
X104848650Y-82012595D01*
X104848647Y-82012596D01*
X104827006Y-82023018D01*
X104801104Y-82027282D01*
X104782526Y-82041538D01*
X104760844Y-82054881D01*
X104747034Y-82061531D01*
X104747027Y-82061536D01*
X104717644Y-82084968D01*
X104691094Y-82095806D01*
X104679878Y-82110424D01*
X104663728Y-82126880D01*
X104663778Y-82126930D01*
X104653930Y-82136778D01*
X104653880Y-82136728D01*
X104637424Y-82152878D01*
X104628757Y-82159527D01*
X104628118Y-82164173D01*
X104611968Y-82190644D01*
X104588536Y-82220027D01*
X104588531Y-82220034D01*
X104581881Y-82233844D01*
X104568538Y-82255526D01*
X104560113Y-82266504D01*
X104560308Y-82268325D01*
X104550018Y-82300006D01*
X104539596Y-82321647D01*
X104539595Y-82321650D01*
X104532420Y-82353085D01*
X104526092Y-82372941D01*
X104518971Y-82390133D01*
X104516252Y-82423930D01*
X104514500Y-82431604D01*
X104514500Y-82487727D01*
X104513969Y-82495828D01*
X104508871Y-82534545D01*
X104514500Y-82570936D01*
X104514500Y-88405062D01*
X104507306Y-88429560D01*
X101465500Y-88429560D01*
X101465500Y-79991560D01*
X106507306Y-79991560D01*
X106513969Y-80042169D01*
X106514500Y-80050271D01*
X106514500Y-80106391D01*
X106514501Y-80106400D01*
X106516251Y-80114069D01*
X106514796Y-80137786D01*
X106526091Y-80165053D01*
X106532421Y-80184913D01*
X106539596Y-80216352D01*
X106550016Y-80237989D01*
X106554281Y-80263891D01*
X106568537Y-80282470D01*
X106581881Y-80304155D01*
X106588532Y-80317966D01*
X106588533Y-80317969D01*
X106611965Y-80347350D01*
X106622804Y-80373901D01*
X106637421Y-80385117D01*
X106653880Y-80401271D01*
X106653930Y-80401222D01*
X106663778Y-80411070D01*
X106663728Y-80411119D01*
X106679880Y-80427577D01*
X106686526Y-80436238D01*
X106691170Y-80436878D01*
X106717648Y-80453033D01*
X106747031Y-80476466D01*
X106747033Y-80476467D01*
X106760845Y-80483119D01*
X106782529Y-80496463D01*
X106793503Y-80504883D01*
X106795321Y-80504690D01*
X106827011Y-80514982D01*
X106848649Y-80525403D01*
X106880089Y-80532578D01*
X106899946Y-80538908D01*
X106917137Y-80546029D01*
X106950933Y-80548749D01*
X106958600Y-80550499D01*
X106958605Y-80550499D01*
X106958607Y-80550500D01*
X106958609Y-80550500D01*
X107014736Y-80550500D01*
X107022837Y-80551031D01*
X107061546Y-80556127D01*
X107097937Y-80550500D01*
X119932062Y-80550500D01*
X119956558Y-80557693D01*
X120007162Y-80551031D01*
X120015263Y-80550500D01*
X120071391Y-80550500D01*
X120071393Y-80550500D01*
X120079060Y-80548750D01*
X120102782Y-80550202D01*
X120130048Y-80538909D01*
X120149904Y-80532580D01*
X120181351Y-80525403D01*
X120202986Y-80514983D01*
X120228890Y-80510717D01*
X120247465Y-80496465D01*
X120269152Y-80483120D01*
X120282967Y-80476467D01*
X120282968Y-80476466D01*
X120312348Y-80453035D01*
X120338902Y-80442194D01*
X120350116Y-80427580D01*
X120366271Y-80411119D01*
X120366222Y-80411070D01*
X120376070Y-80401222D01*
X120376119Y-80401271D01*
X120392580Y-80385116D01*
X120401242Y-80378469D01*
X120401882Y-80373823D01*
X120418036Y-80347348D01*
X120441465Y-80317969D01*
X120441467Y-80317967D01*
X120448120Y-80304152D01*
X120461465Y-80282465D01*
X120469885Y-80271490D01*
X120469692Y-80269672D01*
X120479984Y-80237986D01*
X120490403Y-80216351D01*
X120497580Y-80184904D01*
X120503909Y-80165048D01*
X120511028Y-80147860D01*
X120513750Y-80114059D01*
X120515498Y-80106400D01*
X120515500Y-80106393D01*
X120515500Y-80050261D01*
X120516031Y-80042160D01*
X120521126Y-80003455D01*
X120515500Y-79967061D01*
X120515500Y-67132937D01*
X120522693Y-67108440D01*
X120516031Y-67057837D01*
X120515500Y-67049736D01*
X120515500Y-66993608D01*
X120515499Y-66993600D01*
X120513749Y-66985933D01*
X120515202Y-66962213D01*
X120503908Y-66934946D01*
X120497578Y-66915085D01*
X120490403Y-66883649D01*
X120479982Y-66862011D01*
X120475716Y-66836104D01*
X120461463Y-66817529D01*
X120448119Y-66795845D01*
X120441467Y-66782033D01*
X120441466Y-66782031D01*
X120418033Y-66752648D01*
X120407192Y-66726094D01*
X120392577Y-66714880D01*
X120376119Y-66698728D01*
X120376070Y-66698778D01*
X120366222Y-66688930D01*
X120366271Y-66688880D01*
X120350117Y-66672421D01*
X120343468Y-66663756D01*
X120338819Y-66663116D01*
X120312350Y-66646965D01*
X120282969Y-66623533D01*
X120282966Y-66623532D01*
X120269155Y-66616881D01*
X120247470Y-66603537D01*
X120236489Y-66595111D01*
X120234665Y-66595306D01*
X120202989Y-66585016D01*
X120181352Y-66574596D01*
X120181353Y-66574596D01*
X120149913Y-66567421D01*
X120130053Y-66561091D01*
X120112864Y-66553971D01*
X120079069Y-66551251D01*
X120071400Y-66549501D01*
X120071394Y-66549500D01*
X120071393Y-66549500D01*
X120015271Y-66549500D01*
X120007169Y-66548969D01*
X119968453Y-66543871D01*
X119932063Y-66549500D01*
X107097936Y-66549500D01*
X107073437Y-66542306D01*
X107022830Y-66548969D01*
X107014728Y-66549500D01*
X106958604Y-66549500D01*
X106950930Y-66551252D01*
X106927208Y-66549797D01*
X106899941Y-66561092D01*
X106880085Y-66567420D01*
X106848650Y-66574595D01*
X106848647Y-66574596D01*
X106827006Y-66585018D01*
X106801104Y-66589282D01*
X106782526Y-66603538D01*
X106760844Y-66616881D01*
X106747034Y-66623531D01*
X106747027Y-66623536D01*
X106717644Y-66646968D01*
X106691094Y-66657806D01*
X106679878Y-66672424D01*
X106663728Y-66688880D01*
X106663778Y-66688930D01*
X106653930Y-66698778D01*
X106653880Y-66698728D01*
X106637424Y-66714878D01*
X106628757Y-66721527D01*
X106628118Y-66726173D01*
X106611968Y-66752644D01*
X106588536Y-66782027D01*
X106588531Y-66782034D01*
X106581881Y-66795844D01*
X106568538Y-66817526D01*
X106560113Y-66828504D01*
X106560308Y-66830325D01*
X106550018Y-66862006D01*
X106539596Y-66883647D01*
X106539595Y-66883650D01*
X106532420Y-66915085D01*
X106526092Y-66934941D01*
X106518971Y-66952133D01*
X106516252Y-66985930D01*
X106514500Y-66993604D01*
X106514500Y-67049721D01*
X106513969Y-67057823D01*
X106508871Y-67096543D01*
X106514500Y-67132941D01*
X106514500Y-79967062D01*
X106507306Y-79991560D01*
X101465500Y-79991560D01*
X101465500Y-76657937D01*
X101472693Y-76633440D01*
X101466031Y-76582837D01*
X101465500Y-76574736D01*
X101465500Y-76518608D01*
X101465499Y-76518600D01*
X101463749Y-76510933D01*
X101465202Y-76487213D01*
X101453908Y-76459946D01*
X101447578Y-76440085D01*
X101440403Y-76408649D01*
X101429982Y-76387011D01*
X101425716Y-76361104D01*
X101411463Y-76342529D01*
X101398119Y-76320845D01*
X101391467Y-76307033D01*
X101391466Y-76307031D01*
X101368033Y-76277648D01*
X101357192Y-76251094D01*
X101342577Y-76239880D01*
X101326119Y-76223728D01*
X101326070Y-76223778D01*
X101316222Y-76213930D01*
X101316271Y-76213880D01*
X101300117Y-76197421D01*
X101293468Y-76188756D01*
X101288819Y-76188116D01*
X101262350Y-76171965D01*
X101232969Y-76148533D01*
X101232966Y-76148532D01*
X101219155Y-76141881D01*
X101197470Y-76128537D01*
X101186489Y-76120111D01*
X101184665Y-76120306D01*
X101152989Y-76110016D01*
X101131352Y-76099596D01*
X101131353Y-76099596D01*
X101099913Y-76092421D01*
X101080053Y-76086091D01*
X101062864Y-76078971D01*
X101029069Y-76076251D01*
X101021400Y-76074501D01*
X101021394Y-76074500D01*
X101021393Y-76074500D01*
X100965271Y-76074500D01*
X100957169Y-76073969D01*
X100918453Y-76068871D01*
X100882063Y-76074500D01*
X88047936Y-76074500D01*
X88023437Y-76067306D01*
X87972830Y-76073969D01*
X87964728Y-76074500D01*
X87908604Y-76074500D01*
X87900930Y-76076252D01*
X87877208Y-76074797D01*
X87849941Y-76086092D01*
X87830085Y-76092420D01*
X87798650Y-76099595D01*
X87798647Y-76099596D01*
X87777006Y-76110018D01*
X87751104Y-76114282D01*
X87732526Y-76128538D01*
X87710844Y-76141881D01*
X87697034Y-76148531D01*
X87697027Y-76148536D01*
X87667644Y-76171968D01*
X87641094Y-76182806D01*
X87629878Y-76197424D01*
X87613728Y-76213880D01*
X87613778Y-76213930D01*
X87603930Y-76223778D01*
X87603880Y-76223728D01*
X87587424Y-76239878D01*
X87578757Y-76246527D01*
X87578118Y-76251173D01*
X87561968Y-76277644D01*
X87538536Y-76307027D01*
X87538531Y-76307034D01*
X87531881Y-76320844D01*
X87518538Y-76342526D01*
X87510113Y-76353504D01*
X87510308Y-76355325D01*
X87500018Y-76387006D01*
X87489596Y-76408647D01*
X87489595Y-76408650D01*
X87482420Y-76440085D01*
X87476092Y-76459941D01*
X87468971Y-76477133D01*
X87466252Y-76510930D01*
X87464500Y-76518604D01*
X87464500Y-76574721D01*
X87463969Y-76582823D01*
X87458871Y-76621543D01*
X87464500Y-76657941D01*
X87464500Y-89492062D01*
X87457306Y-89516560D01*
X82419287Y-89516560D01*
X82415500Y-89492061D01*
X82415500Y-76657937D01*
X82422693Y-76633440D01*
X82416031Y-76582837D01*
X82415500Y-76574736D01*
X82415500Y-76518608D01*
X82415499Y-76518600D01*
X82413749Y-76510933D01*
X82415202Y-76487213D01*
X82403908Y-76459946D01*
X82397578Y-76440085D01*
X82390403Y-76408649D01*
X82379982Y-76387011D01*
X82375716Y-76361104D01*
X82361463Y-76342529D01*
X82348119Y-76320845D01*
X82341467Y-76307033D01*
X82341466Y-76307031D01*
X82318033Y-76277648D01*
X82307192Y-76251094D01*
X82292577Y-76239880D01*
X82276119Y-76223728D01*
X82276070Y-76223778D01*
X82266222Y-76213930D01*
X82266271Y-76213880D01*
X82250117Y-76197421D01*
X82243468Y-76188756D01*
X82238819Y-76188116D01*
X82212350Y-76171965D01*
X82182969Y-76148533D01*
X82182966Y-76148532D01*
X82169155Y-76141881D01*
X82147470Y-76128537D01*
X82136489Y-76120111D01*
X82134665Y-76120306D01*
X82102989Y-76110016D01*
X82081352Y-76099596D01*
X82081353Y-76099596D01*
X82049913Y-76092421D01*
X82030053Y-76086091D01*
X82012864Y-76078971D01*
X81979069Y-76076251D01*
X81971400Y-76074501D01*
X81971394Y-76074500D01*
X81971393Y-76074500D01*
X81915271Y-76074500D01*
X81907169Y-76073969D01*
X81868453Y-76068871D01*
X81832063Y-76074500D01*
X68997936Y-76074500D01*
X68973437Y-76067306D01*
X68922830Y-76073969D01*
X68914728Y-76074500D01*
X68858604Y-76074500D01*
X68850930Y-76076252D01*
X68827208Y-76074797D01*
X68799941Y-76086092D01*
X68780085Y-76092420D01*
X68748650Y-76099595D01*
X68748647Y-76099596D01*
X68727006Y-76110018D01*
X68701104Y-76114282D01*
X68682526Y-76128538D01*
X68660844Y-76141881D01*
X68647034Y-76148531D01*
X68647027Y-76148536D01*
X68617644Y-76171968D01*
X68591094Y-76182806D01*
X68579878Y-76197424D01*
X68563728Y-76213880D01*
X68563778Y-76213930D01*
X68553930Y-76223778D01*
X68553880Y-76223728D01*
X68537424Y-76239878D01*
X68528757Y-76246527D01*
X68528118Y-76251173D01*
X68511968Y-76277644D01*
X68488536Y-76307027D01*
X68488531Y-76307034D01*
X68481881Y-76320844D01*
X68468538Y-76342526D01*
X68460113Y-76353504D01*
X68460308Y-76355325D01*
X68450018Y-76387006D01*
X68439596Y-76408647D01*
X68439595Y-76408650D01*
X68432420Y-76440085D01*
X68426092Y-76459941D01*
X68418971Y-76477133D01*
X68416252Y-76510930D01*
X68414500Y-76518604D01*
X68414500Y-76574721D01*
X68413969Y-76582823D01*
X68408871Y-76621543D01*
X68414500Y-76657941D01*
X68414500Y-89492062D01*
X68407306Y-89516560D01*
X63369287Y-89516560D01*
X63365500Y-89492061D01*
X63365500Y-76657937D01*
X63372692Y-76633441D01*
X63366030Y-76582838D01*
X63365500Y-76574750D01*
X63365500Y-76518607D01*
X63365499Y-76518602D01*
X63365499Y-76518600D01*
X63363749Y-76510933D01*
X63365202Y-76487213D01*
X63353908Y-76459946D01*
X63347578Y-76440085D01*
X63340403Y-76408649D01*
X63329982Y-76387011D01*
X63325716Y-76361104D01*
X63311463Y-76342529D01*
X63298119Y-76320845D01*
X63291467Y-76307033D01*
X63291466Y-76307031D01*
X63268033Y-76277648D01*
X63257192Y-76251094D01*
X63242577Y-76239880D01*
X63226119Y-76223728D01*
X63226070Y-76223778D01*
X63216222Y-76213930D01*
X63216271Y-76213880D01*
X63200117Y-76197421D01*
X63193468Y-76188756D01*
X63188819Y-76188116D01*
X63162350Y-76171965D01*
X63132969Y-76148533D01*
X63132966Y-76148532D01*
X63119155Y-76141881D01*
X63097470Y-76128537D01*
X63086489Y-76120111D01*
X63084665Y-76120306D01*
X63052989Y-76110016D01*
X63031352Y-76099596D01*
X63031353Y-76099596D01*
X62999913Y-76092421D01*
X62980053Y-76086091D01*
X62962864Y-76078971D01*
X62929069Y-76076251D01*
X62921400Y-76074501D01*
X62921394Y-76074500D01*
X62921393Y-76074500D01*
X62865271Y-76074500D01*
X62857169Y-76073969D01*
X62818453Y-76068871D01*
X62782063Y-76074500D01*
X49947936Y-76074500D01*
X49923437Y-76067306D01*
X49872830Y-76073969D01*
X49864728Y-76074500D01*
X49808604Y-76074500D01*
X49800930Y-76076252D01*
X49777208Y-76074797D01*
X49749941Y-76086092D01*
X49730085Y-76092420D01*
X49698650Y-76099595D01*
X49698647Y-76099596D01*
X49677006Y-76110018D01*
X49651104Y-76114282D01*
X49632526Y-76128538D01*
X49610844Y-76141881D01*
X49597034Y-76148531D01*
X49597027Y-76148536D01*
X49567644Y-76171968D01*
X49541094Y-76182806D01*
X49529878Y-76197424D01*
X49513728Y-76213880D01*
X49513778Y-76213930D01*
X49503930Y-76223778D01*
X49503880Y-76223728D01*
X49487424Y-76239878D01*
X49478757Y-76246527D01*
X49478118Y-76251173D01*
X49461968Y-76277644D01*
X49438536Y-76307027D01*
X49438531Y-76307034D01*
X49431881Y-76320844D01*
X49418538Y-76342526D01*
X49410113Y-76353504D01*
X49410308Y-76355325D01*
X49400018Y-76387006D01*
X49389596Y-76408647D01*
X49389595Y-76408650D01*
X49382420Y-76440085D01*
X49376092Y-76459941D01*
X49368971Y-76477133D01*
X49366252Y-76510930D01*
X49364500Y-76518604D01*
X49364499Y-76518609D01*
X49364499Y-76574723D01*
X49363968Y-76582822D01*
X49358870Y-76621540D01*
X49364500Y-76657941D01*
X49364500Y-89492062D01*
X49357306Y-89516560D01*
X46840500Y-89516560D01*
X46840500Y-70466560D01*
X49357306Y-70466560D01*
X49363969Y-70517169D01*
X49364500Y-70525271D01*
X49364500Y-70581391D01*
X49364501Y-70581400D01*
X49366251Y-70589069D01*
X49364796Y-70612786D01*
X49376091Y-70640053D01*
X49382421Y-70659913D01*
X49389596Y-70691352D01*
X49400016Y-70712989D01*
X49404281Y-70738891D01*
X49418537Y-70757470D01*
X49431881Y-70779155D01*
X49438532Y-70792966D01*
X49438533Y-70792969D01*
X49461965Y-70822350D01*
X49472804Y-70848901D01*
X49487421Y-70860117D01*
X49503880Y-70876271D01*
X49503930Y-70876222D01*
X49513778Y-70886070D01*
X49513728Y-70886119D01*
X49529880Y-70902577D01*
X49536526Y-70911238D01*
X49541170Y-70911878D01*
X49567648Y-70928033D01*
X49597031Y-70951466D01*
X49597033Y-70951467D01*
X49610845Y-70958119D01*
X49632529Y-70971463D01*
X49643503Y-70979883D01*
X49645321Y-70979690D01*
X49677011Y-70989982D01*
X49698649Y-71000403D01*
X49730089Y-71007578D01*
X49749946Y-71013908D01*
X49767137Y-71021029D01*
X49800933Y-71023749D01*
X49808600Y-71025499D01*
X49808605Y-71025499D01*
X49808607Y-71025500D01*
X49808609Y-71025500D01*
X49864736Y-71025500D01*
X49872837Y-71026031D01*
X49911546Y-71031127D01*
X49947937Y-71025500D01*
X62782062Y-71025500D01*
X62806558Y-71032693D01*
X62857162Y-71026031D01*
X62865263Y-71025500D01*
X62921391Y-71025500D01*
X62921393Y-71025500D01*
X62929060Y-71023750D01*
X62952782Y-71025202D01*
X62980048Y-71013909D01*
X62999904Y-71007580D01*
X63031351Y-71000403D01*
X63052986Y-70989983D01*
X63078890Y-70985717D01*
X63097465Y-70971465D01*
X63119152Y-70958120D01*
X63132967Y-70951467D01*
X63132968Y-70951466D01*
X63162348Y-70928035D01*
X63188902Y-70917194D01*
X63200116Y-70902580D01*
X63216271Y-70886119D01*
X63216222Y-70886070D01*
X63226070Y-70876222D01*
X63226119Y-70876271D01*
X63242580Y-70860116D01*
X63251242Y-70853469D01*
X63251882Y-70848823D01*
X63268036Y-70822348D01*
X63291465Y-70792969D01*
X63291467Y-70792967D01*
X63298120Y-70779152D01*
X63311465Y-70757465D01*
X63319885Y-70746490D01*
X63319692Y-70744672D01*
X63329984Y-70712986D01*
X63340403Y-70691351D01*
X63347580Y-70659904D01*
X63353909Y-70640048D01*
X63361028Y-70622860D01*
X63363750Y-70589059D01*
X63365498Y-70581400D01*
X63365500Y-70581393D01*
X63365500Y-70525261D01*
X63366031Y-70517160D01*
X63371126Y-70478455D01*
X63369287Y-70466560D01*
X68407306Y-70466560D01*
X68413969Y-70517169D01*
X68414500Y-70525271D01*
X68414500Y-70581391D01*
X68414501Y-70581400D01*
X68416251Y-70589069D01*
X68414796Y-70612786D01*
X68426091Y-70640053D01*
X68432421Y-70659913D01*
X68439596Y-70691352D01*
X68450016Y-70712989D01*
X68454281Y-70738891D01*
X68468537Y-70757470D01*
X68481881Y-70779155D01*
X68488532Y-70792966D01*
X68488533Y-70792969D01*
X68511965Y-70822350D01*
X68522804Y-70848901D01*
X68537421Y-70860117D01*
X68553880Y-70876271D01*
X68553930Y-70876222D01*
X68563778Y-70886070D01*
X68563728Y-70886119D01*
X68579880Y-70902577D01*
X68586526Y-70911238D01*
X68591170Y-70911878D01*
X68617648Y-70928033D01*
X68647031Y-70951466D01*
X68647033Y-70951467D01*
X68660845Y-70958119D01*
X68682529Y-70971463D01*
X68693503Y-70979883D01*
X68695321Y-70979690D01*
X68727011Y-70989982D01*
X68748649Y-71000403D01*
X68780089Y-71007578D01*
X68799946Y-71013908D01*
X68817137Y-71021029D01*
X68850933Y-71023749D01*
X68858600Y-71025499D01*
X68858605Y-71025499D01*
X68858607Y-71025500D01*
X68858609Y-71025500D01*
X68914736Y-71025500D01*
X68922837Y-71026031D01*
X68961546Y-71031127D01*
X68997937Y-71025500D01*
X81832062Y-71025500D01*
X81856558Y-71032693D01*
X81907162Y-71026031D01*
X81915263Y-71025500D01*
X81971391Y-71025500D01*
X81971393Y-71025500D01*
X81979060Y-71023750D01*
X82002782Y-71025202D01*
X82030048Y-71013909D01*
X82049904Y-71007580D01*
X82081351Y-71000403D01*
X82102986Y-70989983D01*
X82128890Y-70985717D01*
X82147465Y-70971465D01*
X82169152Y-70958120D01*
X82182967Y-70951467D01*
X82182968Y-70951466D01*
X82212348Y-70928035D01*
X82238902Y-70917194D01*
X82250116Y-70902580D01*
X82266271Y-70886119D01*
X82266222Y-70886070D01*
X82276070Y-70876222D01*
X82276119Y-70876271D01*
X82292580Y-70860116D01*
X82301242Y-70853469D01*
X82301882Y-70848823D01*
X82318036Y-70822348D01*
X82341465Y-70792969D01*
X82341467Y-70792967D01*
X82348120Y-70779152D01*
X82361465Y-70757465D01*
X82369885Y-70746490D01*
X82369692Y-70744672D01*
X82379984Y-70712986D01*
X82390403Y-70691351D01*
X82397580Y-70659904D01*
X82403909Y-70640048D01*
X82411028Y-70622860D01*
X82413750Y-70589059D01*
X82415498Y-70581400D01*
X82415500Y-70581393D01*
X82415500Y-70525261D01*
X82416031Y-70517160D01*
X82421126Y-70478455D01*
X82419287Y-70466560D01*
X87457306Y-70466560D01*
X87463969Y-70517169D01*
X87464500Y-70525271D01*
X87464500Y-70581391D01*
X87464501Y-70581400D01*
X87466251Y-70589069D01*
X87464796Y-70612786D01*
X87476091Y-70640053D01*
X87482421Y-70659913D01*
X87489596Y-70691352D01*
X87500016Y-70712989D01*
X87504281Y-70738891D01*
X87518537Y-70757470D01*
X87531881Y-70779155D01*
X87538532Y-70792966D01*
X87538533Y-70792969D01*
X87561965Y-70822350D01*
X87572804Y-70848901D01*
X87587421Y-70860117D01*
X87603880Y-70876271D01*
X87603930Y-70876222D01*
X87613778Y-70886070D01*
X87613728Y-70886119D01*
X87629880Y-70902577D01*
X87636526Y-70911238D01*
X87641170Y-70911878D01*
X87667648Y-70928033D01*
X87697031Y-70951466D01*
X87697033Y-70951467D01*
X87710845Y-70958119D01*
X87732529Y-70971463D01*
X87743503Y-70979883D01*
X87745321Y-70979690D01*
X87777011Y-70989982D01*
X87798649Y-71000403D01*
X87830089Y-71007578D01*
X87849946Y-71013908D01*
X87867137Y-71021029D01*
X87900933Y-71023749D01*
X87908600Y-71025499D01*
X87908605Y-71025499D01*
X87908607Y-71025500D01*
X87908609Y-71025500D01*
X87964736Y-71025500D01*
X87972837Y-71026031D01*
X88011546Y-71031127D01*
X88047937Y-71025500D01*
X100882062Y-71025500D01*
X100906558Y-71032693D01*
X100957162Y-71026031D01*
X100965263Y-71025500D01*
X101021391Y-71025500D01*
X101021393Y-71025500D01*
X101029060Y-71023750D01*
X101052782Y-71025202D01*
X101080048Y-71013909D01*
X101099904Y-71007580D01*
X101131351Y-71000403D01*
X101152986Y-70989983D01*
X101178890Y-70985717D01*
X101197465Y-70971465D01*
X101219152Y-70958120D01*
X101232967Y-70951467D01*
X101232968Y-70951466D01*
X101262348Y-70928035D01*
X101288902Y-70917194D01*
X101300116Y-70902580D01*
X101316271Y-70886119D01*
X101316222Y-70886070D01*
X101326070Y-70876222D01*
X101326119Y-70876271D01*
X101342580Y-70860116D01*
X101351242Y-70853469D01*
X101351882Y-70848823D01*
X101368036Y-70822348D01*
X101391465Y-70792969D01*
X101391467Y-70792967D01*
X101398120Y-70779152D01*
X101411465Y-70757465D01*
X101419885Y-70746490D01*
X101419692Y-70744672D01*
X101429984Y-70712986D01*
X101440403Y-70691351D01*
X101447580Y-70659904D01*
X101453909Y-70640048D01*
X101461028Y-70622860D01*
X101463750Y-70589059D01*
X101465498Y-70581400D01*
X101465500Y-70581393D01*
X101465500Y-70525261D01*
X101466031Y-70517160D01*
X101471126Y-70478455D01*
X101465500Y-70442061D01*
X101465500Y-64553560D01*
X104507306Y-64553560D01*
X104513969Y-64604169D01*
X104514500Y-64612271D01*
X104514500Y-64668391D01*
X104514501Y-64668400D01*
X104516251Y-64676069D01*
X104514796Y-64699786D01*
X104526091Y-64727053D01*
X104532421Y-64746913D01*
X104539596Y-64778352D01*
X104550016Y-64799989D01*
X104554281Y-64825891D01*
X104568537Y-64844470D01*
X104581881Y-64866155D01*
X104588532Y-64879966D01*
X104588533Y-64879969D01*
X104611965Y-64909350D01*
X104622804Y-64935901D01*
X104637421Y-64947117D01*
X104653880Y-64963271D01*
X104653930Y-64963222D01*
X104663778Y-64973070D01*
X104663728Y-64973119D01*
X104679880Y-64989577D01*
X104686526Y-64998238D01*
X104691170Y-64998878D01*
X104717648Y-65015033D01*
X104747031Y-65038466D01*
X104747033Y-65038467D01*
X104760845Y-65045119D01*
X104782529Y-65058463D01*
X104793503Y-65066883D01*
X104795321Y-65066690D01*
X104827011Y-65076982D01*
X104848649Y-65087403D01*
X104880089Y-65094578D01*
X104899946Y-65100908D01*
X104917137Y-65108029D01*
X104950933Y-65110749D01*
X104958600Y-65112499D01*
X104958605Y-65112499D01*
X104958607Y-65112500D01*
X104958609Y-65112500D01*
X105014736Y-65112500D01*
X105022837Y-65113031D01*
X105061546Y-65118127D01*
X105097937Y-65112500D01*
X118932062Y-65112500D01*
X118956558Y-65119693D01*
X119007162Y-65113031D01*
X119015263Y-65112500D01*
X119071391Y-65112500D01*
X119071393Y-65112500D01*
X119079060Y-65110750D01*
X119102782Y-65112202D01*
X119130048Y-65100909D01*
X119149904Y-65094580D01*
X119181351Y-65087403D01*
X119202986Y-65076983D01*
X119228890Y-65072717D01*
X119247465Y-65058465D01*
X119269152Y-65045120D01*
X119282967Y-65038467D01*
X119282968Y-65038466D01*
X119312348Y-65015035D01*
X119338902Y-65004194D01*
X119350116Y-64989580D01*
X119366271Y-64973119D01*
X119366222Y-64973070D01*
X119376070Y-64963222D01*
X119376119Y-64963271D01*
X119392580Y-64947116D01*
X119401242Y-64940469D01*
X119401882Y-64935823D01*
X119418036Y-64909348D01*
X119441465Y-64879969D01*
X119441467Y-64879967D01*
X119448120Y-64866152D01*
X119461465Y-64844465D01*
X119469885Y-64833490D01*
X119469692Y-64831672D01*
X119479984Y-64799986D01*
X119490403Y-64778351D01*
X119497580Y-64746904D01*
X119503909Y-64727048D01*
X119511028Y-64709860D01*
X119513750Y-64676059D01*
X119515498Y-64668400D01*
X119515500Y-64668393D01*
X119515500Y-64612261D01*
X119516031Y-64604160D01*
X119521126Y-64565455D01*
X119515500Y-64529061D01*
X119515500Y-58694937D01*
X119522693Y-58670440D01*
X119516031Y-58619837D01*
X119515500Y-58611736D01*
X119515500Y-58555608D01*
X119515499Y-58555600D01*
X119513749Y-58547933D01*
X119515202Y-58524213D01*
X119503908Y-58496946D01*
X119497578Y-58477085D01*
X119490403Y-58445649D01*
X119479982Y-58424011D01*
X119475716Y-58398104D01*
X119461463Y-58379529D01*
X119448119Y-58357845D01*
X119441467Y-58344033D01*
X119441466Y-58344031D01*
X119418033Y-58314648D01*
X119407192Y-58288094D01*
X119392577Y-58276880D01*
X119376119Y-58260728D01*
X119376070Y-58260778D01*
X119366222Y-58250930D01*
X119366271Y-58250880D01*
X119350117Y-58234421D01*
X119343468Y-58225756D01*
X119338819Y-58225116D01*
X119312350Y-58208965D01*
X119282969Y-58185533D01*
X119282966Y-58185532D01*
X119269155Y-58178881D01*
X119247470Y-58165537D01*
X119236489Y-58157111D01*
X119234665Y-58157306D01*
X119202989Y-58147016D01*
X119181352Y-58136596D01*
X119181353Y-58136596D01*
X119149913Y-58129421D01*
X119130053Y-58123091D01*
X119112864Y-58115971D01*
X119079069Y-58113251D01*
X119071400Y-58111501D01*
X119071394Y-58111500D01*
X119071393Y-58111500D01*
X119015271Y-58111500D01*
X119007169Y-58110969D01*
X118968453Y-58105871D01*
X118932063Y-58111500D01*
X105097936Y-58111500D01*
X105073437Y-58104306D01*
X105022830Y-58110969D01*
X105014728Y-58111500D01*
X104958604Y-58111500D01*
X104950930Y-58113252D01*
X104927208Y-58111797D01*
X104899941Y-58123092D01*
X104880085Y-58129420D01*
X104848650Y-58136595D01*
X104848647Y-58136596D01*
X104827006Y-58147018D01*
X104801104Y-58151282D01*
X104782526Y-58165538D01*
X104760844Y-58178881D01*
X104747034Y-58185531D01*
X104747027Y-58185536D01*
X104717644Y-58208968D01*
X104691094Y-58219806D01*
X104679878Y-58234424D01*
X104663728Y-58250880D01*
X104663778Y-58250930D01*
X104653930Y-58260778D01*
X104653880Y-58260728D01*
X104637424Y-58276878D01*
X104628757Y-58283527D01*
X104628118Y-58288173D01*
X104611968Y-58314644D01*
X104588536Y-58344027D01*
X104588531Y-58344034D01*
X104581881Y-58357844D01*
X104568538Y-58379526D01*
X104560113Y-58390504D01*
X104560308Y-58392325D01*
X104550018Y-58424006D01*
X104539596Y-58445647D01*
X104539595Y-58445650D01*
X104532420Y-58477085D01*
X104526092Y-58496941D01*
X104518971Y-58514133D01*
X104516252Y-58547930D01*
X104514500Y-58555604D01*
X104514500Y-58611721D01*
X104513969Y-58619823D01*
X104508871Y-58658543D01*
X104514500Y-58694941D01*
X104514500Y-64529062D01*
X104507306Y-64553560D01*
X101465500Y-64553560D01*
X101465500Y-57607937D01*
X101472693Y-57583440D01*
X101466031Y-57532837D01*
X101465500Y-57524736D01*
X101465500Y-57468608D01*
X101465499Y-57468600D01*
X101463749Y-57460933D01*
X101465202Y-57437213D01*
X101453908Y-57409946D01*
X101447578Y-57390085D01*
X101440403Y-57358649D01*
X101429982Y-57337011D01*
X101425716Y-57311104D01*
X101411463Y-57292529D01*
X101398119Y-57270845D01*
X101391467Y-57257033D01*
X101391466Y-57257031D01*
X101368033Y-57227648D01*
X101357192Y-57201094D01*
X101342577Y-57189880D01*
X101326119Y-57173728D01*
X101326070Y-57173778D01*
X101316222Y-57163930D01*
X101316271Y-57163880D01*
X101300117Y-57147421D01*
X101293468Y-57138756D01*
X101288819Y-57138116D01*
X101262350Y-57121965D01*
X101232969Y-57098533D01*
X101232966Y-57098532D01*
X101219155Y-57091881D01*
X101197470Y-57078537D01*
X101186489Y-57070111D01*
X101184665Y-57070306D01*
X101152989Y-57060016D01*
X101131352Y-57049596D01*
X101131353Y-57049596D01*
X101099913Y-57042421D01*
X101080053Y-57036091D01*
X101062864Y-57028971D01*
X101029069Y-57026251D01*
X101021400Y-57024501D01*
X101021394Y-57024500D01*
X101021393Y-57024500D01*
X100965271Y-57024500D01*
X100957169Y-57023969D01*
X100918453Y-57018871D01*
X100882063Y-57024500D01*
X88047936Y-57024500D01*
X88023437Y-57017306D01*
X87972830Y-57023969D01*
X87964728Y-57024500D01*
X87908604Y-57024500D01*
X87900930Y-57026252D01*
X87877208Y-57024797D01*
X87849941Y-57036092D01*
X87830085Y-57042420D01*
X87798650Y-57049595D01*
X87798647Y-57049596D01*
X87777006Y-57060018D01*
X87751104Y-57064282D01*
X87732526Y-57078538D01*
X87710844Y-57091881D01*
X87697034Y-57098531D01*
X87697027Y-57098536D01*
X87667644Y-57121968D01*
X87641094Y-57132806D01*
X87629878Y-57147424D01*
X87613728Y-57163880D01*
X87613778Y-57163930D01*
X87603930Y-57173778D01*
X87603880Y-57173728D01*
X87587424Y-57189878D01*
X87578757Y-57196527D01*
X87578118Y-57201173D01*
X87561968Y-57227644D01*
X87538536Y-57257027D01*
X87538531Y-57257034D01*
X87531881Y-57270844D01*
X87518538Y-57292526D01*
X87510113Y-57303504D01*
X87510308Y-57305325D01*
X87500018Y-57337006D01*
X87489596Y-57358647D01*
X87489595Y-57358650D01*
X87482420Y-57390085D01*
X87476092Y-57409941D01*
X87468971Y-57427133D01*
X87466252Y-57460930D01*
X87464500Y-57468604D01*
X87464500Y-57524721D01*
X87463969Y-57532823D01*
X87458871Y-57571543D01*
X87464500Y-57607941D01*
X87464500Y-70442062D01*
X87457306Y-70466560D01*
X82419287Y-70466560D01*
X82415500Y-70442061D01*
X82415500Y-57607937D01*
X82422693Y-57583440D01*
X82416031Y-57532837D01*
X82415500Y-57524736D01*
X82415500Y-57468608D01*
X82415499Y-57468600D01*
X82413749Y-57460933D01*
X82415202Y-57437213D01*
X82403908Y-57409946D01*
X82397578Y-57390085D01*
X82390403Y-57358649D01*
X82379982Y-57337011D01*
X82375716Y-57311104D01*
X82361463Y-57292529D01*
X82348119Y-57270845D01*
X82341467Y-57257033D01*
X82341466Y-57257031D01*
X82318033Y-57227648D01*
X82307192Y-57201094D01*
X82292577Y-57189880D01*
X82276119Y-57173728D01*
X82276070Y-57173778D01*
X82266222Y-57163930D01*
X82266271Y-57163880D01*
X82250117Y-57147421D01*
X82243468Y-57138756D01*
X82238819Y-57138116D01*
X82212350Y-57121965D01*
X82182969Y-57098533D01*
X82182966Y-57098532D01*
X82169155Y-57091881D01*
X82147470Y-57078537D01*
X82136489Y-57070111D01*
X82134665Y-57070306D01*
X82102989Y-57060016D01*
X82081352Y-57049596D01*
X82081353Y-57049596D01*
X82049913Y-57042421D01*
X82030053Y-57036091D01*
X82012864Y-57028971D01*
X81979069Y-57026251D01*
X81971400Y-57024501D01*
X81971394Y-57024500D01*
X81971393Y-57024500D01*
X81915271Y-57024500D01*
X81907169Y-57023969D01*
X81868453Y-57018871D01*
X81832063Y-57024500D01*
X68997936Y-57024500D01*
X68973437Y-57017306D01*
X68922830Y-57023969D01*
X68914728Y-57024500D01*
X68858604Y-57024500D01*
X68850930Y-57026252D01*
X68827208Y-57024797D01*
X68799941Y-57036092D01*
X68780085Y-57042420D01*
X68748650Y-57049595D01*
X68748647Y-57049596D01*
X68727006Y-57060018D01*
X68701104Y-57064282D01*
X68682526Y-57078538D01*
X68660844Y-57091881D01*
X68647034Y-57098531D01*
X68647027Y-57098536D01*
X68617644Y-57121968D01*
X68591094Y-57132806D01*
X68579878Y-57147424D01*
X68563728Y-57163880D01*
X68563778Y-57163930D01*
X68553930Y-57173778D01*
X68553880Y-57173728D01*
X68537424Y-57189878D01*
X68528757Y-57196527D01*
X68528118Y-57201173D01*
X68511968Y-57227644D01*
X68488536Y-57257027D01*
X68488531Y-57257034D01*
X68481881Y-57270844D01*
X68468538Y-57292526D01*
X68460113Y-57303504D01*
X68460308Y-57305325D01*
X68450018Y-57337006D01*
X68439596Y-57358647D01*
X68439595Y-57358650D01*
X68432420Y-57390085D01*
X68426092Y-57409941D01*
X68418971Y-57427133D01*
X68416252Y-57460930D01*
X68414500Y-57468604D01*
X68414500Y-57524721D01*
X68413969Y-57532823D01*
X68408871Y-57571543D01*
X68414500Y-57607941D01*
X68414500Y-70442062D01*
X68407306Y-70466560D01*
X63369287Y-70466560D01*
X63365500Y-70442061D01*
X63365500Y-57607937D01*
X63372692Y-57583441D01*
X63366030Y-57532838D01*
X63365500Y-57524750D01*
X63365500Y-57468607D01*
X63365499Y-57468602D01*
X63365499Y-57468600D01*
X63363749Y-57460933D01*
X63365202Y-57437213D01*
X63353908Y-57409946D01*
X63347578Y-57390085D01*
X63340403Y-57358649D01*
X63329982Y-57337011D01*
X63325716Y-57311104D01*
X63311463Y-57292529D01*
X63298119Y-57270845D01*
X63291467Y-57257033D01*
X63291466Y-57257031D01*
X63268033Y-57227648D01*
X63257192Y-57201094D01*
X63242577Y-57189880D01*
X63226119Y-57173728D01*
X63226070Y-57173778D01*
X63216222Y-57163930D01*
X63216271Y-57163880D01*
X63200117Y-57147421D01*
X63193468Y-57138756D01*
X63188819Y-57138116D01*
X63162350Y-57121965D01*
X63132969Y-57098533D01*
X63132966Y-57098532D01*
X63119155Y-57091881D01*
X63097470Y-57078537D01*
X63086489Y-57070111D01*
X63084665Y-57070306D01*
X63052989Y-57060016D01*
X63031352Y-57049596D01*
X63031353Y-57049596D01*
X62999913Y-57042421D01*
X62980053Y-57036091D01*
X62962864Y-57028971D01*
X62929069Y-57026251D01*
X62921400Y-57024501D01*
X62921394Y-57024500D01*
X62921393Y-57024500D01*
X62865271Y-57024500D01*
X62857169Y-57023969D01*
X62818453Y-57018871D01*
X62782063Y-57024500D01*
X49947936Y-57024500D01*
X49923437Y-57017306D01*
X49872830Y-57023969D01*
X49864728Y-57024500D01*
X49808604Y-57024500D01*
X49800930Y-57026252D01*
X49777208Y-57024797D01*
X49749941Y-57036092D01*
X49730085Y-57042420D01*
X49698650Y-57049595D01*
X49698647Y-57049596D01*
X49677006Y-57060018D01*
X49651104Y-57064282D01*
X49632526Y-57078538D01*
X49610844Y-57091881D01*
X49597034Y-57098531D01*
X49597027Y-57098536D01*
X49567644Y-57121968D01*
X49541094Y-57132806D01*
X49529878Y-57147424D01*
X49513728Y-57163880D01*
X49513778Y-57163930D01*
X49503930Y-57173778D01*
X49503880Y-57173728D01*
X49487424Y-57189878D01*
X49478757Y-57196527D01*
X49478118Y-57201173D01*
X49461968Y-57227644D01*
X49438536Y-57257027D01*
X49438531Y-57257034D01*
X49431881Y-57270844D01*
X49418538Y-57292526D01*
X49410113Y-57303504D01*
X49410308Y-57305325D01*
X49400018Y-57337006D01*
X49389596Y-57358647D01*
X49389595Y-57358650D01*
X49382420Y-57390085D01*
X49376092Y-57409941D01*
X49368971Y-57427133D01*
X49366252Y-57460930D01*
X49364500Y-57468604D01*
X49364499Y-57468609D01*
X49364499Y-57524723D01*
X49363968Y-57532822D01*
X49358870Y-57571540D01*
X49364500Y-57607941D01*
X49364500Y-70442062D01*
X49357306Y-70466560D01*
X46840500Y-70466560D01*
X46840500Y-51416560D01*
X49357306Y-51416560D01*
X49363969Y-51467169D01*
X49364500Y-51475271D01*
X49364500Y-51531391D01*
X49364501Y-51531400D01*
X49366251Y-51539069D01*
X49364796Y-51562786D01*
X49376091Y-51590053D01*
X49382421Y-51609913D01*
X49389596Y-51641352D01*
X49400016Y-51662989D01*
X49404281Y-51688891D01*
X49418537Y-51707470D01*
X49431881Y-51729155D01*
X49438532Y-51742966D01*
X49438533Y-51742969D01*
X49461965Y-51772350D01*
X49472804Y-51798901D01*
X49487421Y-51810117D01*
X49503880Y-51826271D01*
X49503930Y-51826222D01*
X49513778Y-51836070D01*
X49513728Y-51836119D01*
X49529880Y-51852577D01*
X49536526Y-51861238D01*
X49541170Y-51861878D01*
X49567648Y-51878033D01*
X49597031Y-51901466D01*
X49597033Y-51901467D01*
X49610845Y-51908119D01*
X49632529Y-51921463D01*
X49643503Y-51929883D01*
X49645321Y-51929690D01*
X49677011Y-51939982D01*
X49698649Y-51950403D01*
X49730089Y-51957578D01*
X49749946Y-51963908D01*
X49767137Y-51971029D01*
X49800933Y-51973749D01*
X49808600Y-51975499D01*
X49808605Y-51975499D01*
X49808607Y-51975500D01*
X49808609Y-51975500D01*
X49864736Y-51975500D01*
X49872837Y-51976031D01*
X49911546Y-51981127D01*
X49947937Y-51975500D01*
X62782062Y-51975500D01*
X62806558Y-51982693D01*
X62857162Y-51976031D01*
X62865263Y-51975500D01*
X62921391Y-51975500D01*
X62921393Y-51975500D01*
X62929060Y-51973750D01*
X62952782Y-51975202D01*
X62980048Y-51963909D01*
X62999904Y-51957580D01*
X63031351Y-51950403D01*
X63052986Y-51939983D01*
X63078890Y-51935717D01*
X63097465Y-51921465D01*
X63119152Y-51908120D01*
X63132967Y-51901467D01*
X63132968Y-51901466D01*
X63162348Y-51878035D01*
X63188902Y-51867194D01*
X63200116Y-51852580D01*
X63216271Y-51836119D01*
X63216222Y-51836070D01*
X63226070Y-51826222D01*
X63226119Y-51826271D01*
X63242580Y-51810116D01*
X63251242Y-51803469D01*
X63251882Y-51798823D01*
X63268036Y-51772348D01*
X63291465Y-51742969D01*
X63291467Y-51742967D01*
X63298120Y-51729152D01*
X63311465Y-51707465D01*
X63319885Y-51696490D01*
X63319692Y-51694672D01*
X63329984Y-51662986D01*
X63340403Y-51641351D01*
X63347580Y-51609904D01*
X63353909Y-51590048D01*
X63361028Y-51572860D01*
X63363750Y-51539059D01*
X63365498Y-51531400D01*
X63365500Y-51531393D01*
X63365500Y-51475261D01*
X63366031Y-51467160D01*
X63371126Y-51428455D01*
X63369287Y-51416560D01*
X68407306Y-51416560D01*
X68413969Y-51467169D01*
X68414500Y-51475271D01*
X68414500Y-51531391D01*
X68414501Y-51531400D01*
X68416251Y-51539069D01*
X68414796Y-51562786D01*
X68426091Y-51590053D01*
X68432421Y-51609913D01*
X68439596Y-51641352D01*
X68450016Y-51662989D01*
X68454281Y-51688891D01*
X68468537Y-51707470D01*
X68481881Y-51729155D01*
X68488532Y-51742966D01*
X68488533Y-51742969D01*
X68511965Y-51772350D01*
X68522804Y-51798901D01*
X68537421Y-51810117D01*
X68553880Y-51826271D01*
X68553930Y-51826222D01*
X68563778Y-51836070D01*
X68563728Y-51836119D01*
X68579880Y-51852577D01*
X68586526Y-51861238D01*
X68591170Y-51861878D01*
X68617648Y-51878033D01*
X68647031Y-51901466D01*
X68647033Y-51901467D01*
X68660845Y-51908119D01*
X68682529Y-51921463D01*
X68693503Y-51929883D01*
X68695321Y-51929690D01*
X68727011Y-51939982D01*
X68748649Y-51950403D01*
X68780089Y-51957578D01*
X68799946Y-51963908D01*
X68817137Y-51971029D01*
X68850933Y-51973749D01*
X68858600Y-51975499D01*
X68858605Y-51975499D01*
X68858607Y-51975500D01*
X68858609Y-51975500D01*
X68914736Y-51975500D01*
X68922837Y-51976031D01*
X68961546Y-51981127D01*
X68997937Y-51975500D01*
X81832062Y-51975500D01*
X81856558Y-51982693D01*
X81907162Y-51976031D01*
X81915263Y-51975500D01*
X81971391Y-51975500D01*
X81971393Y-51975500D01*
X81979060Y-51973750D01*
X82002782Y-51975202D01*
X82030048Y-51963909D01*
X82049904Y-51957580D01*
X82081351Y-51950403D01*
X82102986Y-51939983D01*
X82128890Y-51935717D01*
X82147465Y-51921465D01*
X82169152Y-51908120D01*
X82182967Y-51901467D01*
X82182968Y-51901466D01*
X82212348Y-51878035D01*
X82238902Y-51867194D01*
X82250116Y-51852580D01*
X82266271Y-51836119D01*
X82266222Y-51836070D01*
X82276070Y-51826222D01*
X82276119Y-51826271D01*
X82292580Y-51810116D01*
X82301242Y-51803469D01*
X82301882Y-51798823D01*
X82318036Y-51772348D01*
X82341465Y-51742969D01*
X82341467Y-51742967D01*
X82348120Y-51729152D01*
X82361465Y-51707465D01*
X82369885Y-51696490D01*
X82369692Y-51694672D01*
X82379984Y-51662986D01*
X82390403Y-51641351D01*
X82397580Y-51609904D01*
X82403909Y-51590048D01*
X82411028Y-51572860D01*
X82413750Y-51539059D01*
X82415498Y-51531400D01*
X82415500Y-51531393D01*
X82415500Y-51475261D01*
X82416031Y-51467160D01*
X82421126Y-51428455D01*
X82419287Y-51416560D01*
X87457306Y-51416560D01*
X87463969Y-51467169D01*
X87464500Y-51475271D01*
X87464500Y-51531391D01*
X87464501Y-51531400D01*
X87466251Y-51539069D01*
X87464796Y-51562786D01*
X87476091Y-51590053D01*
X87482421Y-51609913D01*
X87489596Y-51641352D01*
X87500016Y-51662989D01*
X87504281Y-51688891D01*
X87518537Y-51707470D01*
X87531881Y-51729155D01*
X87538532Y-51742966D01*
X87538533Y-51742969D01*
X87561965Y-51772350D01*
X87572804Y-51798901D01*
X87587421Y-51810117D01*
X87603880Y-51826271D01*
X87603930Y-51826222D01*
X87613778Y-51836070D01*
X87613728Y-51836119D01*
X87629880Y-51852577D01*
X87636526Y-51861238D01*
X87641170Y-51861878D01*
X87667648Y-51878033D01*
X87697031Y-51901466D01*
X87697033Y-51901467D01*
X87710845Y-51908119D01*
X87732529Y-51921463D01*
X87743503Y-51929883D01*
X87745321Y-51929690D01*
X87777011Y-51939982D01*
X87798649Y-51950403D01*
X87830089Y-51957578D01*
X87849946Y-51963908D01*
X87867137Y-51971029D01*
X87900933Y-51973749D01*
X87908600Y-51975499D01*
X87908605Y-51975499D01*
X87908607Y-51975500D01*
X87908609Y-51975500D01*
X87964736Y-51975500D01*
X87972837Y-51976031D01*
X88011546Y-51981127D01*
X88047937Y-51975500D01*
X100882062Y-51975500D01*
X100906558Y-51982693D01*
X100957162Y-51976031D01*
X100965263Y-51975500D01*
X101021391Y-51975500D01*
X101021393Y-51975500D01*
X101029060Y-51973750D01*
X101052782Y-51975202D01*
X101080048Y-51963909D01*
X101099904Y-51957580D01*
X101131351Y-51950403D01*
X101152986Y-51939983D01*
X101178890Y-51935717D01*
X101197465Y-51921465D01*
X101219152Y-51908120D01*
X101232967Y-51901467D01*
X101232968Y-51901466D01*
X101262348Y-51878035D01*
X101288902Y-51867194D01*
X101300116Y-51852580D01*
X101316271Y-51836119D01*
X101316222Y-51836070D01*
X101326070Y-51826222D01*
X101326119Y-51826271D01*
X101342580Y-51810116D01*
X101351242Y-51803469D01*
X101351882Y-51798823D01*
X101368036Y-51772348D01*
X101391465Y-51742969D01*
X101391467Y-51742967D01*
X101398120Y-51729152D01*
X101411465Y-51707465D01*
X101419885Y-51696490D01*
X101419692Y-51694672D01*
X101429984Y-51662986D01*
X101440403Y-51641351D01*
X101447580Y-51609904D01*
X101453909Y-51590048D01*
X101461028Y-51572860D01*
X101463750Y-51539059D01*
X101465498Y-51531400D01*
X101465500Y-51531393D01*
X101465500Y-51475261D01*
X101466031Y-51467160D01*
X101471126Y-51428455D01*
X101469287Y-51416560D01*
X106507306Y-51416560D01*
X106513969Y-51467169D01*
X106514500Y-51475271D01*
X106514500Y-51531391D01*
X106514501Y-51531400D01*
X106516251Y-51539069D01*
X106514796Y-51562786D01*
X106526091Y-51590053D01*
X106532421Y-51609913D01*
X106539596Y-51641352D01*
X106550016Y-51662989D01*
X106554281Y-51688891D01*
X106568537Y-51707470D01*
X106581881Y-51729155D01*
X106588532Y-51742966D01*
X106588533Y-51742969D01*
X106611965Y-51772350D01*
X106622804Y-51798901D01*
X106637421Y-51810117D01*
X106653880Y-51826271D01*
X106653930Y-51826222D01*
X106663778Y-51836070D01*
X106663728Y-51836119D01*
X106679880Y-51852577D01*
X106686526Y-51861238D01*
X106691170Y-51861878D01*
X106717648Y-51878033D01*
X106747031Y-51901466D01*
X106747033Y-51901467D01*
X106760845Y-51908119D01*
X106782529Y-51921463D01*
X106793503Y-51929883D01*
X106795321Y-51929690D01*
X106827011Y-51939982D01*
X106848649Y-51950403D01*
X106880089Y-51957578D01*
X106899946Y-51963908D01*
X106917137Y-51971029D01*
X106950933Y-51973749D01*
X106958600Y-51975499D01*
X106958605Y-51975499D01*
X106958607Y-51975500D01*
X106958609Y-51975500D01*
X107014736Y-51975500D01*
X107022837Y-51976031D01*
X107061546Y-51981127D01*
X107097937Y-51975500D01*
X119932062Y-51975500D01*
X119956558Y-51982693D01*
X120007162Y-51976031D01*
X120015263Y-51975500D01*
X120071391Y-51975500D01*
X120071393Y-51975500D01*
X120079060Y-51973750D01*
X120102782Y-51975202D01*
X120130048Y-51963909D01*
X120149904Y-51957580D01*
X120181351Y-51950403D01*
X120202986Y-51939983D01*
X120228890Y-51935717D01*
X120247465Y-51921465D01*
X120269152Y-51908120D01*
X120282967Y-51901467D01*
X120282968Y-51901466D01*
X120312348Y-51878035D01*
X120338902Y-51867194D01*
X120350116Y-51852580D01*
X120366271Y-51836119D01*
X120366222Y-51836070D01*
X120376070Y-51826222D01*
X120376119Y-51826271D01*
X120392580Y-51810116D01*
X120401242Y-51803469D01*
X120401882Y-51798823D01*
X120418036Y-51772348D01*
X120441465Y-51742969D01*
X120441467Y-51742967D01*
X120448120Y-51729152D01*
X120461465Y-51707465D01*
X120469885Y-51696490D01*
X120469692Y-51694672D01*
X120479984Y-51662986D01*
X120490403Y-51641351D01*
X120497580Y-51609904D01*
X120503909Y-51590048D01*
X120511028Y-51572860D01*
X120513750Y-51539059D01*
X120515498Y-51531400D01*
X120515500Y-51531393D01*
X120515500Y-51475261D01*
X120516031Y-51467160D01*
X120521126Y-51428455D01*
X120515500Y-51392061D01*
X120515500Y-38557937D01*
X120522693Y-38533440D01*
X120516031Y-38482837D01*
X120515500Y-38474736D01*
X120515500Y-38418608D01*
X120515499Y-38418600D01*
X120513749Y-38410933D01*
X120515202Y-38387213D01*
X120503908Y-38359946D01*
X120497578Y-38340085D01*
X120490403Y-38308649D01*
X120479982Y-38287011D01*
X120475716Y-38261104D01*
X120461463Y-38242529D01*
X120448119Y-38220845D01*
X120441467Y-38207033D01*
X120441466Y-38207031D01*
X120418033Y-38177648D01*
X120407192Y-38151094D01*
X120392577Y-38139880D01*
X120376119Y-38123728D01*
X120376070Y-38123778D01*
X120366222Y-38113930D01*
X120366271Y-38113880D01*
X120350117Y-38097421D01*
X120343468Y-38088756D01*
X120338819Y-38088116D01*
X120312350Y-38071965D01*
X120282969Y-38048533D01*
X120282966Y-38048532D01*
X120269155Y-38041881D01*
X120247470Y-38028537D01*
X120236489Y-38020111D01*
X120234665Y-38020306D01*
X120202989Y-38010016D01*
X120181352Y-37999596D01*
X120181353Y-37999596D01*
X120149913Y-37992421D01*
X120130053Y-37986091D01*
X120112864Y-37978971D01*
X120079069Y-37976251D01*
X120071400Y-37974501D01*
X120071394Y-37974500D01*
X120071393Y-37974500D01*
X120015271Y-37974500D01*
X120007169Y-37973969D01*
X119968453Y-37968871D01*
X119932063Y-37974500D01*
X107097936Y-37974500D01*
X107073437Y-37967306D01*
X107022830Y-37973969D01*
X107014728Y-37974500D01*
X106958604Y-37974500D01*
X106950930Y-37976252D01*
X106927208Y-37974797D01*
X106899941Y-37986092D01*
X106880085Y-37992420D01*
X106848650Y-37999595D01*
X106848647Y-37999596D01*
X106827006Y-38010018D01*
X106801104Y-38014282D01*
X106782526Y-38028538D01*
X106760844Y-38041881D01*
X106747034Y-38048531D01*
X106747027Y-38048536D01*
X106717644Y-38071968D01*
X106691094Y-38082806D01*
X106679878Y-38097424D01*
X106663728Y-38113880D01*
X106663778Y-38113930D01*
X106653930Y-38123778D01*
X106653880Y-38123728D01*
X106637424Y-38139878D01*
X106628757Y-38146527D01*
X106628118Y-38151173D01*
X106611968Y-38177644D01*
X106588536Y-38207027D01*
X106588531Y-38207034D01*
X106581881Y-38220844D01*
X106568538Y-38242526D01*
X106560113Y-38253504D01*
X106560308Y-38255325D01*
X106550018Y-38287006D01*
X106539596Y-38308647D01*
X106539595Y-38308650D01*
X106532420Y-38340085D01*
X106526092Y-38359941D01*
X106518971Y-38377133D01*
X106516252Y-38410930D01*
X106514500Y-38418604D01*
X106514500Y-38474721D01*
X106513969Y-38482823D01*
X106508871Y-38521543D01*
X106514500Y-38557941D01*
X106514500Y-51392062D01*
X106507306Y-51416560D01*
X101469287Y-51416560D01*
X101465500Y-51392061D01*
X101465500Y-38557937D01*
X101472693Y-38533440D01*
X101466031Y-38482837D01*
X101465500Y-38474736D01*
X101465500Y-38418608D01*
X101465499Y-38418600D01*
X101463749Y-38410933D01*
X101465202Y-38387213D01*
X101453908Y-38359946D01*
X101447578Y-38340085D01*
X101440403Y-38308649D01*
X101429982Y-38287011D01*
X101425716Y-38261104D01*
X101411463Y-38242529D01*
X101398119Y-38220845D01*
X101391467Y-38207033D01*
X101391466Y-38207031D01*
X101368033Y-38177648D01*
X101357192Y-38151094D01*
X101342577Y-38139880D01*
X101326119Y-38123728D01*
X101326070Y-38123778D01*
X101316222Y-38113930D01*
X101316271Y-38113880D01*
X101300117Y-38097421D01*
X101293468Y-38088756D01*
X101288819Y-38088116D01*
X101262350Y-38071965D01*
X101232969Y-38048533D01*
X101232966Y-38048532D01*
X101219155Y-38041881D01*
X101197470Y-38028537D01*
X101186489Y-38020111D01*
X101184665Y-38020306D01*
X101152989Y-38010016D01*
X101131352Y-37999596D01*
X101131353Y-37999596D01*
X101099913Y-37992421D01*
X101080053Y-37986091D01*
X101062864Y-37978971D01*
X101029069Y-37976251D01*
X101021400Y-37974501D01*
X101021394Y-37974500D01*
X101021393Y-37974500D01*
X100965271Y-37974500D01*
X100957169Y-37973969D01*
X100918453Y-37968871D01*
X100882063Y-37974500D01*
X88047936Y-37974500D01*
X88023437Y-37967306D01*
X87972830Y-37973969D01*
X87964728Y-37974500D01*
X87908604Y-37974500D01*
X87900930Y-37976252D01*
X87877208Y-37974797D01*
X87849941Y-37986092D01*
X87830085Y-37992420D01*
X87798650Y-37999595D01*
X87798647Y-37999596D01*
X87777006Y-38010018D01*
X87751104Y-38014282D01*
X87732526Y-38028538D01*
X87710844Y-38041881D01*
X87697034Y-38048531D01*
X87697027Y-38048536D01*
X87667644Y-38071968D01*
X87641094Y-38082806D01*
X87629878Y-38097424D01*
X87613728Y-38113880D01*
X87613778Y-38113930D01*
X87603930Y-38123778D01*
X87603880Y-38123728D01*
X87587424Y-38139878D01*
X87578757Y-38146527D01*
X87578118Y-38151173D01*
X87561968Y-38177644D01*
X87538536Y-38207027D01*
X87538531Y-38207034D01*
X87531881Y-38220844D01*
X87518538Y-38242526D01*
X87510113Y-38253504D01*
X87510308Y-38255325D01*
X87500018Y-38287006D01*
X87489596Y-38308647D01*
X87489595Y-38308650D01*
X87482420Y-38340085D01*
X87476092Y-38359941D01*
X87468971Y-38377133D01*
X87466252Y-38410930D01*
X87464500Y-38418604D01*
X87464500Y-38474727D01*
X87463969Y-38482828D01*
X87458871Y-38521545D01*
X87464500Y-38557936D01*
X87464500Y-51392062D01*
X87457306Y-51416560D01*
X82419287Y-51416560D01*
X82415500Y-51392061D01*
X82415500Y-38557937D01*
X82422693Y-38533440D01*
X82416031Y-38482837D01*
X82415500Y-38474736D01*
X82415500Y-38418608D01*
X82415499Y-38418600D01*
X82413749Y-38410933D01*
X82415202Y-38387213D01*
X82403908Y-38359946D01*
X82397578Y-38340085D01*
X82390403Y-38308649D01*
X82379982Y-38287011D01*
X82375716Y-38261104D01*
X82361463Y-38242529D01*
X82348119Y-38220845D01*
X82341467Y-38207033D01*
X82341466Y-38207031D01*
X82318033Y-38177648D01*
X82307192Y-38151094D01*
X82292577Y-38139880D01*
X82276119Y-38123728D01*
X82276070Y-38123778D01*
X82266222Y-38113930D01*
X82266271Y-38113880D01*
X82250117Y-38097421D01*
X82243468Y-38088756D01*
X82238819Y-38088116D01*
X82212350Y-38071965D01*
X82182969Y-38048533D01*
X82182966Y-38048532D01*
X82169155Y-38041881D01*
X82147470Y-38028537D01*
X82136489Y-38020111D01*
X82134665Y-38020306D01*
X82102989Y-38010016D01*
X82081352Y-37999596D01*
X82081353Y-37999596D01*
X82049913Y-37992421D01*
X82030053Y-37986091D01*
X82012864Y-37978971D01*
X81979069Y-37976251D01*
X81971400Y-37974501D01*
X81971394Y-37974500D01*
X81971393Y-37974500D01*
X81915271Y-37974500D01*
X81907169Y-37973969D01*
X81868453Y-37968871D01*
X81832063Y-37974500D01*
X68997936Y-37974500D01*
X68973437Y-37967306D01*
X68922830Y-37973969D01*
X68914728Y-37974500D01*
X68858604Y-37974500D01*
X68850930Y-37976252D01*
X68827208Y-37974797D01*
X68799941Y-37986092D01*
X68780085Y-37992420D01*
X68748650Y-37999595D01*
X68748647Y-37999596D01*
X68727006Y-38010018D01*
X68701104Y-38014282D01*
X68682526Y-38028538D01*
X68660844Y-38041881D01*
X68647034Y-38048531D01*
X68647027Y-38048536D01*
X68617644Y-38071968D01*
X68591094Y-38082806D01*
X68579878Y-38097424D01*
X68563728Y-38113880D01*
X68563778Y-38113930D01*
X68553930Y-38123778D01*
X68553880Y-38123728D01*
X68537424Y-38139878D01*
X68528757Y-38146527D01*
X68528118Y-38151173D01*
X68511968Y-38177644D01*
X68488536Y-38207027D01*
X68488531Y-38207034D01*
X68481881Y-38220844D01*
X68468538Y-38242526D01*
X68460113Y-38253504D01*
X68460308Y-38255325D01*
X68450018Y-38287006D01*
X68439596Y-38308647D01*
X68439595Y-38308650D01*
X68432420Y-38340085D01*
X68426092Y-38359941D01*
X68418971Y-38377133D01*
X68416252Y-38410930D01*
X68414500Y-38418604D01*
X68414500Y-38474727D01*
X68413969Y-38482828D01*
X68408871Y-38521545D01*
X68414500Y-38557936D01*
X68414500Y-51392062D01*
X68407306Y-51416560D01*
X63369287Y-51416560D01*
X63365500Y-51392061D01*
X63365500Y-38557937D01*
X63372692Y-38533441D01*
X63366030Y-38482838D01*
X63365500Y-38474750D01*
X63365500Y-38418607D01*
X63365499Y-38418602D01*
X63365499Y-38418600D01*
X63363749Y-38410933D01*
X63365202Y-38387213D01*
X63353908Y-38359946D01*
X63347578Y-38340085D01*
X63340403Y-38308649D01*
X63329982Y-38287011D01*
X63325716Y-38261104D01*
X63311463Y-38242529D01*
X63298119Y-38220845D01*
X63291467Y-38207033D01*
X63291466Y-38207031D01*
X63268033Y-38177648D01*
X63257192Y-38151094D01*
X63242577Y-38139880D01*
X63226119Y-38123728D01*
X63226070Y-38123778D01*
X63216222Y-38113930D01*
X63216271Y-38113880D01*
X63200117Y-38097421D01*
X63193468Y-38088756D01*
X63188819Y-38088116D01*
X63162350Y-38071965D01*
X63132969Y-38048533D01*
X63132966Y-38048532D01*
X63119155Y-38041881D01*
X63097470Y-38028537D01*
X63086489Y-38020111D01*
X63084665Y-38020306D01*
X63052989Y-38010016D01*
X63031352Y-37999596D01*
X63031353Y-37999596D01*
X62999913Y-37992421D01*
X62980053Y-37986091D01*
X62962864Y-37978971D01*
X62929069Y-37976251D01*
X62921400Y-37974501D01*
X62921394Y-37974500D01*
X62921393Y-37974500D01*
X62865271Y-37974500D01*
X62857169Y-37973969D01*
X62818453Y-37968871D01*
X62782063Y-37974500D01*
X49947936Y-37974500D01*
X49923437Y-37967306D01*
X49872830Y-37973969D01*
X49864728Y-37974500D01*
X49808604Y-37974500D01*
X49800930Y-37976252D01*
X49777208Y-37974797D01*
X49749941Y-37986092D01*
X49730085Y-37992420D01*
X49698650Y-37999595D01*
X49698647Y-37999596D01*
X49677006Y-38010018D01*
X49651104Y-38014282D01*
X49632526Y-38028538D01*
X49610844Y-38041881D01*
X49597034Y-38048531D01*
X49597027Y-38048536D01*
X49567644Y-38071968D01*
X49541094Y-38082806D01*
X49529878Y-38097424D01*
X49513728Y-38113880D01*
X49513778Y-38113930D01*
X49503930Y-38123778D01*
X49503880Y-38123728D01*
X49487424Y-38139878D01*
X49478757Y-38146527D01*
X49478118Y-38151173D01*
X49461968Y-38177644D01*
X49438536Y-38207027D01*
X49438531Y-38207034D01*
X49431881Y-38220844D01*
X49418538Y-38242526D01*
X49410113Y-38253504D01*
X49410308Y-38255325D01*
X49400018Y-38287006D01*
X49389596Y-38308647D01*
X49389595Y-38308650D01*
X49382420Y-38340085D01*
X49376092Y-38359941D01*
X49368971Y-38377133D01*
X49366252Y-38410930D01*
X49364500Y-38418604D01*
X49364500Y-38474727D01*
X49363969Y-38482828D01*
X49358871Y-38521545D01*
X49364500Y-38557936D01*
X49364500Y-51392062D01*
X49357306Y-51416560D01*
X46840500Y-51416560D01*
X46840500Y-37452036D01*
X46840633Y-37447981D01*
X46845982Y-37366360D01*
X46845983Y-37366350D01*
X46858986Y-37184536D01*
X46860014Y-37176903D01*
X46883153Y-37060579D01*
X46884118Y-37056141D01*
X46914533Y-36916323D01*
X46916392Y-36909625D01*
X46956815Y-36790543D01*
X47006159Y-36658251D01*
X47008633Y-36652520D01*
X47065583Y-36537036D01*
X47132179Y-36415076D01*
X47135019Y-36410384D01*
X47206563Y-36303311D01*
X47208428Y-36300676D01*
X47290291Y-36191321D01*
X47293244Y-36187678D01*
X47378503Y-36090459D01*
X47381198Y-36087581D01*
X47477581Y-35991198D01*
X47480459Y-35988503D01*
X47577678Y-35903244D01*
X47581321Y-35900291D01*
X47690676Y-35818428D01*
X47693311Y-35816563D01*
X47800384Y-35745019D01*
X47805076Y-35742179D01*
X47927036Y-35675583D01*
X48042520Y-35618633D01*
X48048251Y-35616159D01*
X48180543Y-35566815D01*
X48299625Y-35526392D01*
X48306323Y-35524533D01*
X48450548Y-35493158D01*
X48566903Y-35470014D01*
X48574536Y-35468986D01*
X48756244Y-35455989D01*
X48809211Y-35452517D01*
X48837981Y-35450633D01*
X48842036Y-35450500D01*
X121037964Y-35450500D01*
X121042019Y-35450633D01*
G37*
%TD.AperFunction*%
M02*
