%TF.GenerationSoftware,KiCad,Pcbnew,7.0.7*%
%TF.CreationDate,2023-12-10T00:16:43+02:00*%
%TF.ProjectId,calc_plate,63616c63-5f70-46c6-9174-652e6b696361,rev?*%
%TF.SameCoordinates,Original*%
%TF.FileFunction,Profile,NP*%
%FSLAX46Y46*%
G04 Gerber Fmt 4.6, Leading zero omitted, Abs format (unit mm)*
G04 Created by KiCad (PCBNEW 7.0.7) date 2023-12-10 00:16:43*
%MOMM*%
%LPD*%
G01*
G04 APERTURE LIST*
%TA.AperFunction,Profile*%
%ADD10C,0.200000*%
%TD*%
%TA.AperFunction,Profile*%
%ADD11C,0.100000*%
%TD*%
G04 APERTURE END LIST*
D10*
X49365000Y-108625000D02*
G75*
G03*
X49865000Y-109125000I500000J0D01*
G01*
X49865000Y-51975000D02*
X62865000Y-51975000D01*
X120015000Y-118650000D02*
G75*
G03*
X120515000Y-118150000I0J500000D01*
G01*
X87965000Y-114175000D02*
X100965000Y-114175000D01*
X46840000Y-37450000D02*
X46840000Y-128700000D01*
X63365000Y-38475000D02*
G75*
G03*
X62865000Y-37975000I-500000J0D01*
G01*
X87465000Y-108625000D02*
G75*
G03*
X87965000Y-109125000I500000J0D01*
G01*
X81915000Y-109125000D02*
G75*
G03*
X82415000Y-108625000I0J500000D01*
G01*
X62865000Y-90075000D02*
G75*
G03*
X63365000Y-89575000I0J500000D01*
G01*
X87965000Y-76075000D02*
X100965000Y-76075000D01*
X68415000Y-51475000D02*
G75*
G03*
X68915000Y-51975000I500000J0D01*
G01*
X104515000Y-102712000D02*
G75*
G03*
X105015000Y-103212000I500000J0D01*
G01*
X100965000Y-71025000D02*
G75*
G03*
X101465000Y-70525000I0J500000D01*
G01*
X49865000Y-57025000D02*
X62865000Y-57025000D01*
X87965000Y-95125000D02*
X100965000Y-95125000D01*
X121040000Y-130700000D02*
G75*
G03*
X123040000Y-128700000I0J2000000D01*
G01*
X104515000Y-64612000D02*
G75*
G03*
X105015000Y-65112000I500000J0D01*
G01*
X101465000Y-76575000D02*
X101465000Y-89575000D01*
X107015000Y-37975000D02*
G75*
G03*
X106515000Y-38475000I0J-500000D01*
G01*
X72890000Y-114675000D02*
X72890000Y-127675000D01*
X119015000Y-58112000D02*
X105015000Y-58112000D01*
X104515000Y-82488000D02*
X104515000Y-88488000D01*
X63365000Y-95625000D02*
X63365000Y-108625000D01*
X82415000Y-38475000D02*
G75*
G03*
X81915000Y-37975000I-500000J0D01*
G01*
X68415000Y-57525000D02*
X68415000Y-70525000D01*
X68415000Y-95625000D02*
X68415000Y-108625000D01*
X87965000Y-90075000D02*
X100965000Y-90075000D01*
X120515000Y-38475000D02*
X120515000Y-51475000D01*
X119515000Y-58612000D02*
X119515000Y-64612000D01*
X107015000Y-104650000D02*
G75*
G03*
X106515000Y-105150000I0J-500000D01*
G01*
X46840000Y-128700000D02*
G75*
G03*
X48840000Y-130700000I2000000J0D01*
G01*
X68915000Y-57025000D02*
X81915000Y-57025000D01*
X74828000Y-112175000D02*
G75*
G03*
X74328000Y-112675000I0J-500000D01*
G01*
X48840000Y-35450000D02*
G75*
G03*
X46840000Y-37450000I0J-2000000D01*
G01*
X119515000Y-96712000D02*
G75*
G03*
X119015000Y-96212000I-500000J0D01*
G01*
X119015000Y-88988000D02*
X105015000Y-88988000D01*
X120515000Y-67050000D02*
G75*
G03*
X120015000Y-66550000I-500000J0D01*
G01*
X63365000Y-95625000D02*
G75*
G03*
X62865000Y-95125000I-500000J0D01*
G01*
X106515000Y-118150000D02*
G75*
G03*
X107015000Y-118650000I500000J0D01*
G01*
X63365000Y-76575000D02*
G75*
G03*
X62865000Y-76075000I-500000J0D01*
G01*
X49865000Y-76075000D02*
G75*
G03*
X49365000Y-76575000I0J-500000D01*
G01*
X49865000Y-90075000D02*
X62865000Y-90075000D01*
X119015000Y-88988000D02*
G75*
G03*
X119515000Y-88488000I0J500000D01*
G01*
X121040000Y-130700000D02*
X48840000Y-130700000D01*
X50452000Y-126675000D02*
G75*
G03*
X50952000Y-127175000I500000J0D01*
G01*
D11*
X86940000Y-122600000D02*
G75*
G03*
X86940000Y-122600000I-2000000J0D01*
G01*
D10*
X87965000Y-95125000D02*
G75*
G03*
X87465000Y-95625000I0J-500000D01*
G01*
X68915000Y-71025000D02*
X81915000Y-71025000D01*
X101465000Y-57525000D02*
X101465000Y-70525000D01*
X74328000Y-126675000D02*
G75*
G03*
X74828000Y-127175000I500000J0D01*
G01*
X59390000Y-128175000D02*
X72390000Y-128175000D01*
X106515000Y-51475000D02*
G75*
G03*
X107015000Y-51975000I500000J0D01*
G01*
X100965000Y-109125000D02*
G75*
G03*
X101465000Y-108625000I0J500000D01*
G01*
X56952000Y-127175000D02*
X50952000Y-127175000D01*
X104515000Y-96712000D02*
X104515000Y-102712000D01*
X57452000Y-126675000D02*
X57452000Y-112675000D01*
X107015000Y-66550000D02*
G75*
G03*
X106515000Y-67050000I0J-500000D01*
G01*
X120015000Y-104650000D02*
X107015000Y-104650000D01*
X81328000Y-126675000D02*
X81328000Y-112675000D01*
X100965000Y-51975000D02*
G75*
G03*
X101465000Y-51475000I0J500000D01*
G01*
X80828000Y-112175000D02*
X74828000Y-112175000D01*
X56952000Y-127175000D02*
G75*
G03*
X57452000Y-126675000I0J500000D01*
G01*
X59390000Y-114175000D02*
X72390000Y-114175000D01*
X56952000Y-112175000D02*
X50952000Y-112175000D01*
X87465000Y-70525000D02*
G75*
G03*
X87965000Y-71025000I500000J0D01*
G01*
X82415000Y-76575000D02*
X82415000Y-89575000D01*
X72390000Y-128175000D02*
G75*
G03*
X72890000Y-127675000I0J500000D01*
G01*
X87965000Y-51975000D02*
X100965000Y-51975000D01*
X105015000Y-58112000D02*
G75*
G03*
X104515000Y-58612000I0J-500000D01*
G01*
X87465000Y-76575000D02*
X87465000Y-89575000D01*
X49365000Y-70525000D02*
G75*
G03*
X49865000Y-71025000I500000J0D01*
G01*
X120515000Y-105150000D02*
G75*
G03*
X120015000Y-104650000I-500000J0D01*
G01*
X119015000Y-65112000D02*
X105015000Y-65112000D01*
X119515000Y-58612000D02*
G75*
G03*
X119015000Y-58112000I-500000J0D01*
G01*
X49865000Y-71025000D02*
X62865000Y-71025000D01*
X107015000Y-37975000D02*
X120015000Y-37975000D01*
X68915000Y-37975000D02*
G75*
G03*
X68415000Y-38475000I0J-500000D01*
G01*
X107015000Y-51975000D02*
X120015000Y-51975000D01*
X68415000Y-76575000D02*
X68415000Y-89575000D01*
X105015000Y-120088000D02*
G75*
G03*
X104515000Y-120588000I0J-500000D01*
G01*
X68915000Y-90075000D02*
X81915000Y-90075000D01*
X120015000Y-80550000D02*
X107015000Y-80550000D01*
X50452000Y-126675000D02*
X50452000Y-112675000D01*
X120015000Y-80550000D02*
G75*
G03*
X120515000Y-80050000I0J500000D01*
G01*
D11*
X56500000Y-92600000D02*
G75*
G03*
X56500000Y-92600000I-2000000J0D01*
G01*
D10*
X87965000Y-114175000D02*
G75*
G03*
X87465000Y-114675000I0J-500000D01*
G01*
X63365000Y-76575000D02*
X63365000Y-89575000D01*
X49365000Y-51475000D02*
G75*
G03*
X49865000Y-51975000I500000J0D01*
G01*
X82415000Y-95625000D02*
G75*
G03*
X81915000Y-95125000I-500000J0D01*
G01*
X49365000Y-95625000D02*
X49365000Y-108625000D01*
X106515000Y-67050000D02*
X106515000Y-80050000D01*
X105015000Y-96212000D02*
G75*
G03*
X104515000Y-96712000I0J-500000D01*
G01*
X87465000Y-38475000D02*
X87465000Y-51475000D01*
X121040000Y-35450000D02*
X48840000Y-35450000D01*
X72890000Y-114675000D02*
G75*
G03*
X72390000Y-114175000I-500000J0D01*
G01*
X104515000Y-120588000D02*
X104515000Y-126588000D01*
X50952000Y-112175000D02*
G75*
G03*
X50452000Y-112675000I0J-500000D01*
G01*
X49865000Y-95125000D02*
G75*
G03*
X49365000Y-95625000I0J-500000D01*
G01*
X68915000Y-95125000D02*
X81915000Y-95125000D01*
X87465000Y-57525000D02*
X87465000Y-70525000D01*
X104515000Y-126588000D02*
G75*
G03*
X105015000Y-127088000I500000J0D01*
G01*
X49865000Y-76075000D02*
X62865000Y-76075000D01*
X58890000Y-127675000D02*
G75*
G03*
X59390000Y-128175000I500000J0D01*
G01*
X80828000Y-127175000D02*
X74828000Y-127175000D01*
X68915000Y-95125000D02*
G75*
G03*
X68415000Y-95625000I0J-500000D01*
G01*
X81915000Y-90075000D02*
G75*
G03*
X82415000Y-89575000I0J500000D01*
G01*
X87465000Y-89575000D02*
G75*
G03*
X87965000Y-90075000I500000J0D01*
G01*
X82415000Y-38475000D02*
X82415000Y-51475000D01*
X49865000Y-37975000D02*
G75*
G03*
X49365000Y-38475000I0J-500000D01*
G01*
X68915000Y-51975000D02*
X81915000Y-51975000D01*
X68915000Y-57025000D02*
G75*
G03*
X68415000Y-57525000I0J-500000D01*
G01*
X101465000Y-114675000D02*
X101465000Y-127675000D01*
X63365000Y-57525000D02*
X63365000Y-70525000D01*
X68915000Y-109125000D02*
X81915000Y-109125000D01*
X59390000Y-114175000D02*
G75*
G03*
X58890000Y-114675000I0J-500000D01*
G01*
X120515000Y-38475000D02*
G75*
G03*
X120015000Y-37975000I-500000J0D01*
G01*
X87965000Y-57025000D02*
G75*
G03*
X87465000Y-57525000I0J-500000D01*
G01*
X49365000Y-38475000D02*
X49365000Y-51475000D01*
X119515000Y-120588000D02*
G75*
G03*
X119015000Y-120088000I-500000J0D01*
G01*
X80828000Y-127175000D02*
G75*
G03*
X81328000Y-126675000I0J500000D01*
G01*
X87965000Y-57025000D02*
X100965000Y-57025000D01*
X105015000Y-81988000D02*
G75*
G03*
X104515000Y-82488000I0J-500000D01*
G01*
X119515000Y-96712000D02*
X119515000Y-102712000D01*
X49865000Y-95125000D02*
X62865000Y-95125000D01*
X123040000Y-37450000D02*
X123040000Y-128700000D01*
X120015000Y-118650000D02*
X107015000Y-118650000D01*
X101465000Y-95625000D02*
X101465000Y-108625000D01*
X119015000Y-65112000D02*
G75*
G03*
X119515000Y-64612000I0J500000D01*
G01*
X68415000Y-89575000D02*
G75*
G03*
X68915000Y-90075000I500000J0D01*
G01*
X82415000Y-76575000D02*
G75*
G03*
X81915000Y-76075000I-500000J0D01*
G01*
X101465000Y-114675000D02*
G75*
G03*
X100965000Y-114175000I-500000J0D01*
G01*
X106515000Y-105150000D02*
X106515000Y-118150000D01*
X101465000Y-57525000D02*
G75*
G03*
X100965000Y-57025000I-500000J0D01*
G01*
X87965000Y-109125000D02*
X100965000Y-109125000D01*
X120015000Y-66550000D02*
X107015000Y-66550000D01*
X104515000Y-88488000D02*
G75*
G03*
X105015000Y-88988000I500000J0D01*
G01*
X49865000Y-109125000D02*
X62865000Y-109125000D01*
X68415000Y-108625000D02*
G75*
G03*
X68915000Y-109125000I500000J0D01*
G01*
X100965000Y-128175000D02*
G75*
G03*
X101465000Y-127675000I0J500000D01*
G01*
X119515000Y-82488000D02*
G75*
G03*
X119015000Y-81988000I-500000J0D01*
G01*
X119015000Y-96212000D02*
X105015000Y-96212000D01*
X68915000Y-76075000D02*
X81915000Y-76075000D01*
X104515000Y-58612000D02*
X104515000Y-64612000D01*
X81915000Y-51975000D02*
G75*
G03*
X82415000Y-51475000I0J500000D01*
G01*
X57452000Y-112675000D02*
G75*
G03*
X56952000Y-112175000I-500000J0D01*
G01*
X100965000Y-90075000D02*
G75*
G03*
X101465000Y-89575000I0J500000D01*
G01*
X106515000Y-80050000D02*
G75*
G03*
X107015000Y-80550000I500000J0D01*
G01*
X87465000Y-51475000D02*
G75*
G03*
X87965000Y-51975000I500000J0D01*
G01*
X49865000Y-37975000D02*
X62865000Y-37975000D01*
X87965000Y-76075000D02*
G75*
G03*
X87465000Y-76575000I0J-500000D01*
G01*
X119015000Y-103212000D02*
G75*
G03*
X119515000Y-102712000I0J500000D01*
G01*
X63365000Y-38475000D02*
X63365000Y-51475000D01*
X49365000Y-76575000D02*
X49365000Y-89575000D01*
X62865000Y-51975000D02*
G75*
G03*
X63365000Y-51475000I0J500000D01*
G01*
X49365000Y-89575000D02*
G75*
G03*
X49865000Y-90075000I500000J0D01*
G01*
X49365000Y-57525000D02*
X49365000Y-70525000D01*
X101465000Y-76575000D02*
G75*
G03*
X100965000Y-76075000I-500000J0D01*
G01*
X119015000Y-127088000D02*
G75*
G03*
X119515000Y-126588000I0J500000D01*
G01*
X123040000Y-37450000D02*
G75*
G03*
X121040000Y-35450000I-2000000J0D01*
G01*
X87465000Y-127675000D02*
G75*
G03*
X87965000Y-128175000I500000J0D01*
G01*
X87965000Y-37975000D02*
X100965000Y-37975000D01*
X87965000Y-128175000D02*
X100965000Y-128175000D01*
X74328000Y-126675000D02*
X74328000Y-112675000D01*
X62865000Y-71025000D02*
G75*
G03*
X63365000Y-70525000I0J500000D01*
G01*
X120515000Y-105150000D02*
X120515000Y-118150000D01*
X119015000Y-120088000D02*
X105015000Y-120088000D01*
X82415000Y-95625000D02*
X82415000Y-108625000D01*
X68915000Y-37975000D02*
X81915000Y-37975000D01*
X119015000Y-81988000D02*
X105015000Y-81988000D01*
X101465000Y-38475000D02*
X101465000Y-51475000D01*
X68915000Y-76075000D02*
G75*
G03*
X68415000Y-76575000I0J-500000D01*
G01*
X63365000Y-57525000D02*
G75*
G03*
X62865000Y-57025000I-500000J0D01*
G01*
X62865000Y-109125000D02*
G75*
G03*
X63365000Y-108625000I0J500000D01*
G01*
X49865000Y-57025000D02*
G75*
G03*
X49365000Y-57525000I0J-500000D01*
G01*
X58890000Y-114675000D02*
X58890000Y-127675000D01*
X87465000Y-114675000D02*
X87465000Y-127675000D01*
X87465000Y-95625000D02*
X87465000Y-108625000D01*
D11*
X117380000Y-92600000D02*
G75*
G03*
X117380000Y-92600000I-2000000J0D01*
G01*
D10*
X87965000Y-71025000D02*
X100965000Y-71025000D01*
X119515000Y-82488000D02*
X119515000Y-88488000D01*
X106515000Y-38475000D02*
X106515000Y-51475000D01*
X120015000Y-51975000D02*
G75*
G03*
X120515000Y-51475000I0J500000D01*
G01*
X87965000Y-37975000D02*
G75*
G03*
X87465000Y-38475000I0J-500000D01*
G01*
X68415000Y-38475000D02*
X68415000Y-51475000D01*
X119515000Y-120588000D02*
X119515000Y-126588000D01*
X120515000Y-67050000D02*
X120515000Y-80050000D01*
X82415000Y-57525000D02*
G75*
G03*
X81915000Y-57025000I-500000J0D01*
G01*
X119015000Y-103212000D02*
X105015000Y-103212000D01*
X101465000Y-95625000D02*
G75*
G03*
X100965000Y-95125000I-500000J0D01*
G01*
X119015000Y-127088000D02*
X105015000Y-127088000D01*
X81915000Y-71025000D02*
G75*
G03*
X82415000Y-70525000I0J500000D01*
G01*
X68415000Y-70525000D02*
G75*
G03*
X68915000Y-71025000I500000J0D01*
G01*
X81328000Y-112675000D02*
G75*
G03*
X80828000Y-112175000I-500000J0D01*
G01*
X101465000Y-38475000D02*
G75*
G03*
X100965000Y-37975000I-500000J0D01*
G01*
X82415000Y-57525000D02*
X82415000Y-70525000D01*
M02*
